<svg width="18" height="24" viewBox="0 0 18 24" fill="none" xmlns="http://www.w3.org/2000/svg">
<path d="M12.371 8.76252C12.1135 8.50499 11.6959 8.50499 11.4383 8.76252C11.1807 9.02004 11.1807 9.43759 11.4383 9.69527L12.371 10.628C12.4998 10.7568 12.6686 10.8212 12.8374 10.8212C13.0062 10.8212 13.175 10.7568 13.3038 10.628L15.1692 8.76268C15.4267 8.50515 15.4267 8.0876 15.1692 7.82992C14.9116 7.57224 14.4941 7.5724 14.2364 7.82992L12.8374 9.22891L12.371 8.76252Z" fill="white"/>
<path d="M14.2361 11.1717L12.8369 12.5707L12.3705 12.1043C12.113 11.8468 11.6955 11.8468 11.4378 12.1043C11.1802 12.3618 11.1802 12.7794 11.4378 13.0371L12.3705 13.9698C12.4993 14.0986 12.6681 14.163 12.8369 14.163C13.0057 14.163 13.1745 14.0986 13.3033 13.9698L15.1687 12.1045C15.4262 11.8469 15.4262 11.4294 15.1687 11.1717C14.9111 10.914 14.4936 10.9142 14.2361 11.1717Z" fill="white"/>
<path d="M9.42644 8.57031H4.15024C3.78593 8.57031 3.49072 8.86553 3.49072 9.22983C3.49072 9.59412 3.78594 9.88934 4.15024 9.88934H9.42644C9.79075 9.88934 10.086 9.59412 10.086 9.22983C10.086 8.86553 9.79074 8.57031 9.42644 8.57031Z" fill="white"/>
<path d="M9.42644 11.9121H4.15024C3.78593 11.9121 3.49072 12.2073 3.49072 12.5716C3.49072 12.9359 3.78594 13.2311 4.15024 13.2311H9.42644C9.79075 13.2311 10.086 12.9359 10.086 12.5716C10.086 12.2073 9.79074 11.9121 9.42644 11.9121Z" fill="white"/>
<path d="M9.42644 15.2539H4.15024C3.78593 15.2539 3.49072 15.5491 3.49072 15.9134C3.49072 16.2777 3.78594 16.5729 4.15024 16.5729H9.42644C9.79075 16.5729 10.086 16.2777 10.086 15.9134C10.086 15.5491 9.79074 15.2539 9.42644 15.2539Z" fill="white"/>
<path d="M9.42644 18.5957H4.15024C3.78593 18.5957 3.49072 18.8909 3.49072 19.2552C3.49072 19.6195 3.78594 19.9147 4.15024 19.9147H9.42644C9.79075 19.9147 10.086 19.6195 10.086 19.2552C10.086 18.8909 9.79074 18.5957 9.42644 18.5957Z" fill="white"/>
<path d="M17.3408 3.38207H13.5901C13.3416 2.85477 12.8086 2.5027 12.1991 2.5027H11.5903L11.8251 1.56351C11.8744 1.3666 11.8301 1.15774 11.7051 0.997744C11.5801 0.83775 11.3884 0.744141 11.1852 0.744141H7.66769C7.46465 0.744141 7.27292 0.837729 7.14791 0.997744C7.02291 1.15776 6.97863 1.36661 7.02794 1.56351L7.2627 2.5027H6.65387C6.04445 2.5027 5.51132 2.85476 5.26288 3.38207H1.51205C1.14775 3.38207 0.852539 3.67728 0.852539 4.04158V22.5961C0.852539 22.9604 1.14776 23.2556 1.51205 23.2556H17.3407C17.705 23.2556 18.0002 22.9604 18.0002 22.5961V4.04158C18.0002 3.67727 17.705 3.38207 17.3407 3.38207H17.3408ZM6.65412 3.82177H8.10758C8.31062 3.82177 8.50235 3.72818 8.62736 3.56817C8.75236 3.40815 8.79664 3.1993 8.74733 3.0024L8.51258 2.06321H10.3407L10.106 3.0024C10.0567 3.19931 10.101 3.40817 10.2259 3.56817C10.3509 3.72818 10.5427 3.82177 10.7459 3.82177H12.1993C12.3072 3.82177 12.3985 3.89903 12.4162 4.00549L12.6054 5.14081H6.24825L6.43747 4.00549C6.45522 3.89903 6.54645 3.82177 6.65433 3.82177H6.65412ZM16.6815 21.9365H2.17186V4.70094H4.98411L4.81891 5.69178C4.78703 5.88304 4.84089 6.07854 4.96621 6.22647C5.09152 6.3744 5.27555 6.45966 5.46951 6.45966H13.384C13.5779 6.45966 13.762 6.3744 13.8873 6.22647C14.0126 6.07855 14.0665 5.88289 14.0346 5.69178L13.8694 4.70094H16.6817L16.6815 21.9365Z" fill="white"/>
</svg>
