<svg width="24" height="24" viewBox="0 0 24 24" fill="none" xmlns="http://www.w3.org/2000/svg">
<path d="M2.57186 5.00088C2.41425 5.01731 2.26851 5.09158 2.16282 5.2092C2.05714 5.32683 1.99912 5.47937 2.00001 5.63724V8.60667C2.00001 8.77549 2.06724 8.93735 2.18701 9.0566C2.30663 9.176 2.469 9.24303 2.63834 9.24303H2.85102V18.3636C2.85102 18.5325 2.91825 18.6942 3.03802 18.8136C3.1578 18.933 3.32001 19 3.48935 19H20.5107C20.68 19 20.8422 18.933 20.962 18.8136C21.0818 18.6942 21.149 18.5325 21.149 18.3636V9.24303H21.3617C21.531 9.24303 21.6934 9.176 21.813 9.0566C21.9328 8.93735 22 8.77549 22 8.60667V5.63724C22 5.46843 21.9328 5.30671 21.813 5.18731C21.6934 5.06791 21.531 5.00089 21.3617 5.00089H2.63824C2.61597 4.9997 2.59386 4.9997 2.57175 5.00089L2.57186 5.00088ZM3.27654 6.2736H20.7234V7.9705H3.27654V6.2736ZM4.12768 9.24303H19.8724V17.7273H4.12768V9.24303ZM9.80588 10.0915C9.63654 10.1003 9.47774 10.1757 9.3642 10.3012C9.25066 10.4268 9.19189 10.5922 9.20065 10.7609C9.20955 10.9297 9.28524 11.0882 9.41125 11.2012C9.53725 11.3144 9.70303 11.373 9.87238 11.3641H14.1277C14.2985 11.3665 14.4633 11.3006 14.585 11.1809C14.7065 11.0614 14.7751 10.8982 14.7751 10.7277C14.7751 10.5575 14.7065 10.3943 14.585 10.2747C14.4633 10.155 14.2985 10.089 14.1277 10.0915H9.87238C9.85027 10.0904 9.828 10.0904 9.80589 10.0915L9.80588 10.0915Z" fill="#94959E"/>
</svg>
