<svg width="18" height="24" viewBox="0 0 18 24" fill="none" xmlns="http://www.w3.org/2000/svg">
<path d="M7.95445 21.1795C7.84479 21.0698 7.67597 21.0698 7.56611 21.1795C7.38881 21.3568 7.1271 21.6185 7.00046 21.7451C6.95825 21.7958 6.92453 21.8548 6.92453 21.9139L6.78943 23.7035C6.77247 23.8808 6.92453 24.0159 7.09335 23.999L8.8153 23.8049C8.87447 23.7964 8.93344 23.7712 8.97565 23.729L9.5413 23.1547C9.65096 23.045 9.65096 22.8677 9.5413 22.7664L7.95445 21.1795ZM15.3827 16.9253L13.7958 15.3384C13.6862 15.2288 13.5089 15.2288 13.4075 15.3384L8.95891 19.787C8.84925 19.8966 8.84925 20.0739 8.95891 20.1753L10.5458 21.7621C10.6554 21.8717 10.8327 21.8717 10.9341 21.7621L15.3827 17.3136C15.4923 17.2037 15.4923 17.0349 15.3827 16.9253V16.9253ZM14.1924 5.61431C14.1924 5.00646 13.6944 4.50849 13.0866 4.50849H12.4872C12.3353 4.50849 12.2087 4.6351 12.2087 4.78697V6.44145C12.2087 6.59331 12.0821 6.71993 11.9302 6.71993H2.56055C2.40868 6.71993 2.28207 6.59331 2.28207 6.44145L2.28188 4.77848C2.28188 4.62662 2.15526 4.5 2.0034 4.5H1.45472C0.846858 4.5 0.348877 4.99797 0.348877 5.60582V19.998C0.348877 20.6058 0.846858 21.1038 1.45472 21.1038H5.75972C5.83565 20.9772 5.91158 20.859 6.02143 20.7492L14.1925 12.5783L14.1924 5.61431ZM7.81958 13.5739H3.94513C3.56528 13.5739 3.25286 13.2615 3.25286 12.8817C3.25286 12.5018 3.56526 12.1894 3.94513 12.1894H7.81958C8.19943 12.1894 8.51185 12.5018 8.51185 12.8817C8.51185 13.2615 8.20793 13.5739 7.81958 13.5739ZM10.5882 10.8054H3.94474C3.56489 10.8054 3.25247 10.493 3.25247 10.1131C3.25247 9.73326 3.56487 9.42086 3.94474 9.42086H10.5882C10.968 9.42086 11.2805 9.73326 11.2805 10.1131C11.2805 10.493 10.9765 10.8054 10.5882 10.8054Z" fill="#D96BC1"/>
<path d="M9.3558 2.693C8.94222 2.5579 8.64679 2.16956 8.65528 1.73926C8.66357 0.979378 8.05572 0.363281 7.29601 0.363281H7.23685C6.50237 0.363281 5.85254 0.945662 5.87777 1.68013C5.89473 2.1359 5.60757 2.54945 5.17725 2.69305C4.29941 2.98848 3.65784 3.25869 3.65784 4.23765V5.06478C3.65784 5.21664 3.78445 5.34325 3.93632 5.34325H10.588C10.7398 5.34325 10.8664 5.21664 10.8664 5.06478L10.8668 4.23765C10.8668 3.25845 10.2337 2.98848 9.3559 2.69305L9.3558 2.693ZM17.5688 14.7381L15.982 13.1513C15.8723 13.0416 15.695 13.0416 15.5936 13.1513L14.758 13.9869C14.6484 14.0965 14.6484 14.2738 14.758 14.3752L16.3449 15.962C16.4545 16.0717 16.6318 16.0717 16.7332 15.962L17.5688 15.1264C17.6785 15.0167 17.6785 14.8394 17.5688 14.7381Z" fill="#D96BC1"/>
</svg>
