<svg width="25" height="25" viewBox="0 0 25 25" fill="none" xmlns="http://www.w3.org/2000/svg">
<path d="M19.6604 10.9101L20.2408 9.34549C20.367 9.01736 20.1146 8.66406 19.7613 8.66406H8.75821C6.99171 8.66406 5.52795 9.9764 5.35121 11.7429L4.89704 15.9322C4.84652 16.336 5.12413 16.7145 5.52795 16.8155C5.98212 16.9164 6.58788 16.9923 7.1936 17.068L7.57207 23.7304C7.59725 24.2856 8.07675 24.7146 8.632 24.7146H11.8371C12.3923 24.7146 12.8464 24.2856 12.897 23.7304L13.4522 12.2983C13.4522 11.7179 13.9317 11.2636 14.4869 11.2636H19.1557C19.4079 11.2382 19.6098 11.112 19.6602 10.9101L19.6604 10.9101Z" fill="#94959E"/>
<path d="M13.7801 4.2227C13.7801 6.15995 12.2094 7.73056 10.2722 7.73056C8.33476 7.73056 6.76416 6.15995 6.76416 4.2227C6.76416 2.28545 8.33476 0.714844 10.2722 0.714844C12.2094 0.714844 13.7801 2.28545 13.7801 4.2227Z" fill="#94959E"/>
<path d="M20.3422 15.8061C20.3422 14.3424 19.1561 13.1562 17.6923 13.1562C16.2286 13.1562 15.0425 14.3424 15.0425 15.8061C15.0425 16.9922 15.8501 18.0016 16.9352 18.3298V20.4244H15.9258C15.5977 20.4244 15.3455 20.6768 15.3455 21.0048C15.3455 21.3329 15.5979 21.5852 15.9258 21.5852H16.9352V22.3169H15.9258C15.5977 22.3169 15.3455 22.5694 15.3455 22.8973C15.3455 23.2254 15.5979 23.4777 15.9258 23.4777H16.9352V23.8058C16.9352 24.2097 17.2633 24.5376 17.667 24.5376C18.0708 24.5376 18.3987 24.2095 18.3987 23.8058L18.3989 18.3295C19.5347 18.0016 20.3422 17.0174 20.3422 15.8059L20.3422 15.8061ZM17.6923 16.9671C17.0614 16.9671 16.5314 16.437 16.5314 15.8061C16.5314 15.1752 17.0614 14.6452 17.6923 14.6452C18.3233 14.6452 18.8533 15.1752 18.8533 15.8061C18.8533 16.437 18.3486 16.9671 17.6923 16.9671Z" fill="#94959E"/>
</svg>
