<svg width="55" height="32" viewBox="0 0 55 32" fill="none" xmlns="http://www.w3.org/2000/svg">
<path d="M53.7415 14.4314C53.3012 13.8668 41.9737 0 27.5 0C13.0263 0 1.69898 13.8667 1.25847 14.4314L0 16L1.25847 17.5686C1.69876 18.1332 13.0263 32 27.5 32C41.9737 32 53.301 18.1333 53.7415 17.5686L55 16L53.7415 14.4314ZM27.5 25.4118C22.4655 25.4118 18.3754 21.2078 18.3754 16C18.3754 10.7922 22.4655 6.58824 27.5 6.58824C32.5345 6.58824 36.6246 10.7922 36.6246 16C36.6246 21.2078 32.5345 25.4118 27.5 25.4118Z" fill="white" fill-opacity="0.7"/>
</svg>
