<svg width="18" height="18" viewBox="0 0 18 18" fill="none" xmlns="http://www.w3.org/2000/svg">
<path d="M13.1379 6.19909C13.1379 8.42003 11.3375 10.2205 9.11657 10.2205C6.89563 10.2205 5.09521 8.42003 5.09521 6.19909C5.09521 3.97815 6.89563 2.17773 9.11657 2.17773C11.3375 2.17773 13.1379 3.97815 13.1379 6.19909Z" fill="#94959E"/>
<path d="M11.635 11.2129H6.59824C5.66281 11.2141 4.76585 11.5863 4.10442 12.2477C3.44288 12.9093 3.0707 13.8061 3.06958 14.7417C3.0707 15.1412 3.23003 15.524 3.51256 15.8066C3.79509 16.0892 4.17792 16.2484 4.57759 16.2497H13.6558C14.0555 16.2484 14.4383 16.0892 14.7208 15.8066C15.0034 15.524 15.1627 15.1412 15.1638 14.7417C15.1627 13.8061 14.7905 12.9093 14.129 12.2477C13.4676 11.5863 12.5706 11.2141 11.6352 11.2129H11.635Z" fill="#94959E"/>
</svg>
