<svg width="25" height="25" viewBox="0 0 25 25" fill="none" xmlns="http://www.w3.org/2000/svg">
<path d="M13.9716 6.13959C13.9716 5.7724 13.8289 5.42018 13.5749 5.1604C13.3207 4.90077 12.9761 4.75488 12.6168 4.75488C12.2575 4.75488 11.9129 4.90077 11.6587 5.1604C11.4047 5.42019 11.262 5.77241 11.262 6.13959C11.262 6.50678 11.4047 6.85901 11.6587 7.11878C11.9129 7.37841 12.2575 7.5243 12.6168 7.5243C12.9761 7.52384 13.3204 7.3778 13.5744 7.1183C13.8283 6.85867 13.9712 6.50678 13.9716 6.13959ZM11.9394 6.13959C11.9394 5.956 12.0108 5.77981 12.1378 5.65C12.2648 5.52018 12.4372 5.44724 12.6168 5.44724C12.7964 5.44724 12.9688 5.52018 13.0958 5.65C13.2228 5.77981 13.2942 5.956 13.2942 6.13959C13.2942 6.32319 13.2228 6.49937 13.0958 6.62919C12.9688 6.759 12.7964 6.83195 12.6168 6.83195C12.4372 6.83179 12.2651 6.75869 12.1381 6.62888C12.0111 6.49906 11.9395 6.32319 11.9394 6.1396L11.9394 6.13959Z" fill="#3263C9"/>
<path d="M20.7457 7.99181C20.1758 7.99258 19.6253 8.20291 19.1945 8.58419C18.7637 8.9656 18.4815 9.4926 18.3993 10.0689H14.5605L14.5784 10.0455C15.7489 8.49545 16.3425 7.26825 16.3425 6.39675C16.3425 5.03629 15.6324 3.77925 14.4796 3.09896C13.3268 2.41883 11.9066 2.41883 10.7538 3.09896C9.60099 3.77925 8.8909 5.03633 8.8909 6.39675C8.8909 7.26821 9.48455 8.49545 10.6552 10.0455L10.673 10.0689H6.83413C6.7183 9.25336 6.20494 8.55372 5.47128 8.21186C4.73762 7.86999 3.88418 7.9326 3.20587 8.37815C2.52756 8.82355 2.11732 9.59084 2.1167 10.415V19.4156C2.11746 20.0581 2.36741 20.6741 2.81196 21.1283C3.25635 21.5826 3.8591 21.8381 4.48767 21.8389H20.7457C21.3743 21.8381 21.977 21.5826 22.4214 21.1283C22.866 20.6741 23.1159 20.0581 23.1167 19.4156V10.415C23.1159 9.77259 22.866 9.15655 22.4214 8.70237C21.977 8.24802 21.3743 7.99257 20.7457 7.99177L20.7457 7.99181ZM9.56832 6.39678C9.56832 5.28375 10.1493 4.25511 11.0925 3.69862C12.0357 3.14212 13.1977 3.14212 14.1409 3.69862C15.0841 4.25511 15.6651 5.28375 15.6651 6.39678C15.6651 7.10041 15.1053 8.21376 14.0461 9.61714C13.4884 10.3559 12.925 10.9954 12.6155 11.3351C11.5824 10.2078 9.56832 7.73433 9.56832 6.39678ZM10.5844 10.7614H11.2186C11.8405 11.5213 12.3479 12.0513 12.3749 12.0795C12.4386 12.1459 12.5257 12.1833 12.6167 12.1833C12.7077 12.1833 12.7948 12.1459 12.8585 12.0795C12.8856 12.0513 13.3929 11.5213 14.0148 10.7614H18.3747V14.2232H10.5843L10.5844 10.7614ZM6.85864 10.7614H7.87477V14.2232H6.85864V10.7614ZM2.79412 10.4152C2.79412 9.79688 3.11695 9.22539 3.6409 8.91628C4.16483 8.60704 4.81051 8.60704 5.33445 8.91628C5.85838 9.22537 6.18122 9.79688 6.18122 10.4152V17.7217C5.7359 17.2555 5.12518 16.9926 4.48767 16.9926C3.85016 16.9926 3.23944 17.2555 2.79412 17.7217V10.4152ZM13.9715 21.1467H4.48767C4.03856 21.1467 3.6078 20.9643 3.29007 20.6398C2.97253 20.3151 2.79412 19.8748 2.79412 19.4158C2.79412 18.9568 2.97255 18.5166 3.29007 18.1918C3.60776 17.8673 4.03856 17.6849 4.48767 17.6849C4.93678 17.6849 5.36754 17.8673 5.68527 18.1918C6.00281 18.5165 6.18122 18.9568 6.18122 19.4158C6.18122 19.607 6.33288 19.762 6.51993 19.762C6.70697 19.762 6.85864 19.607 6.85864 19.4158V16.9926H13.9715V21.1467ZM16.0038 16.6464V21.1467H14.649V16.6464C14.649 16.5546 14.6133 16.4665 14.5498 16.4016C14.4863 16.3367 14.4001 16.3002 14.3103 16.3002H6.85864V14.9155H8.21348C8.3033 14.9155 8.38949 14.879 8.45299 14.8141C8.5165 14.7492 8.55219 14.6611 8.55219 14.5693V10.7614H9.90703V14.5693C9.90703 14.6611 9.94271 14.7492 10.0062 14.8141C10.0697 14.879 10.1559 14.9155 10.2457 14.9155H18.3748V16.3002H16.3425C16.1555 16.3002 16.0038 16.4552 16.0038 16.6464ZM20.7457 21.1467H16.6812V16.9926H18.3748V19.4158C18.3748 19.607 18.5264 19.762 18.7135 19.762C18.9005 19.762 19.0522 19.607 19.0522 19.4158C19.0522 18.9568 19.2306 18.5166 19.5481 18.1918C19.8658 17.8673 20.2966 17.6849 20.7457 17.6849C21.1948 17.6849 21.6256 17.8673 21.9433 18.1918C22.2609 18.5165 22.4393 18.9568 22.4393 19.4158C22.4393 19.8748 22.2609 20.3151 21.9433 20.6398C21.6256 20.9644 21.1948 21.1467 20.7457 21.1467ZM22.4393 17.7217C21.994 17.2555 21.3832 16.9926 20.7457 16.9926C20.1082 16.9926 19.4975 17.2555 19.0522 17.7217V10.4152C19.0522 9.79688 19.375 9.22539 19.899 8.91628C20.4229 8.60704 21.0686 8.60704 21.5925 8.91628C22.1164 9.22537 22.4393 9.79688 22.4393 10.4152V17.7217Z" fill="#3263C9"/>
</svg>
