<svg width="25" height="24" viewBox="0 0 25 24" fill="none" xmlns="http://www.w3.org/2000/svg">
<path d="M20.1819 6.96407L16.3385 3.07998L16.319 3.06018C16.294 3.03515 16.2646 3.0151 16.2323 3.00105H16.1764H16.1765C16.1654 2.99965 16.1541 2.99965 16.1429 3.00105H7.94504C7.58043 3.00552 7.23191 3.15354 6.97407 3.41343C6.71635 3.67345 6.56956 4.02491 6.56515 4.39259V5.72489H5.63785C5.39634 5.72489 5.1647 5.82157 4.99401 5.99385C4.82317 6.16601 4.72729 6.39959 4.72729 6.64313V9.2542C4.72729 9.49801 4.82316 9.73184 4.99375 9.90453C5.16447 10.0772 5.3961 10.1746 5.63786 10.1753H6.56515V19.6086C6.56959 19.9763 6.71637 20.3276 6.97408 20.5876C7.23192 20.8476 7.58044 20.9957 7.94504 21H18.8971C19.2623 20.9992 19.6122 20.8522 19.87 20.5913C20.1277 20.3304 20.272 19.9769 20.2713 19.6086V7.20071C20.2803 7.11195 20.2472 7.02421 20.1819 6.96406L20.1819 6.96407ZM16.3972 3.93615L19.3188 6.88247H17.2184C17.0011 6.88247 16.7927 6.79563 16.6387 6.64084C16.4848 6.48618 16.3979 6.27623 16.3972 6.05708L16.3972 3.93615ZM5.28593 9.25422V6.6149C5.28517 6.52065 5.32203 6.42984 5.38813 6.36318C5.45437 6.29638 5.54429 6.25922 5.63787 6.25999H12.4002C12.4938 6.25922 12.5837 6.29639 12.6499 6.36318C12.716 6.42985 12.7529 6.52065 12.7521 6.6149V9.25422C12.7529 9.34885 12.7162 9.43991 12.6501 9.50709C12.5839 9.57427 12.494 9.61194 12.4002 9.61194H5.63787C5.54403 9.61194 5.45411 9.57427 5.38801 9.50709C5.3219 9.43991 5.28517 9.34886 5.28593 9.25422ZM18.8971 20.4367H7.94508C7.72725 20.4367 7.51842 20.3495 7.36443 20.1942C7.21043 20.0389 7.1238 19.8283 7.1238 19.6086V10.1753H12.4003C12.642 10.1746 12.8737 10.0772 13.0442 9.90454C13.215 9.73187 13.3108 9.49801 13.3108 9.25421V6.61489C13.3108 6.37135 13.215 6.13788 13.0441 5.96561C12.8734 5.79346 12.6418 5.69665 12.4003 5.69665H7.12381V4.36435C7.12381 4.14469 7.21043 3.9341 7.36443 3.7788C7.51843 3.6235 7.72725 3.53627 7.94508 3.53627H15.8386V6.07136C15.8393 6.43983 15.9851 6.79306 16.2437 7.05347C16.5024 7.31375 16.853 7.45999 17.2184 7.45999H19.7127V19.6086C19.7135 19.8275 19.628 20.0377 19.475 20.193C19.322 20.3483 19.1142 20.4359 18.8971 20.4367L18.8971 20.4367Z" fill="#52516A"/>
<path d="M6.8865 6.89892H6.18262V8.96926H6.529V8.36366H6.89208C7.12991 8.3795 7.36649 8.31615 7.5652 8.18333C7.72287 8.04144 7.8038 7.83213 7.78303 7.62001C7.80101 7.4089 7.72161 7.20122 7.56799 7.05668C7.36498 6.9282 7.12473 6.87265 6.8865 6.89896V6.89892ZM7.33342 7.93543C7.22236 8.0224 7.08191 8.06174 6.94236 8.04539H6.529V7.21717H6.88093C7.02404 7.20632 7.16739 7.23659 7.29429 7.30453C7.39295 7.37694 7.44449 7.49802 7.42828 7.61998C7.43626 7.73339 7.40244 7.84565 7.33342 7.93543Z" fill="#52516A"/>
<path d="M8.89467 6.89875H8.19092V8.96909H8.8725H8.87237C9.19101 8.99553 9.5071 8.89438 9.7523 8.68736C9.94758 8.48379 10.0489 8.20679 10.0316 7.92401C10.0471 7.64087 9.93897 7.36487 9.73546 7.1691C9.49838 6.97664 9.1986 6.88021 8.89466 6.89873L8.89467 6.89875ZM9.49245 8.46488C9.33351 8.58978 9.13517 8.65287 8.93384 8.64228H8.5372V7.23387H8.88359C9.42271 7.23387 9.6908 7.47052 9.6908 7.94369V7.94382C9.70295 8.13833 9.63064 8.3285 9.49247 8.46491L9.49245 8.46488Z" fill="#52516A"/>
<path d="M10.4868 8.96876H10.8332V8.11527H11.7438V7.79421H10.8332V7.22513H11.8527L11.8555 6.89844H10.4868L10.4868 8.96876Z" fill="#52516A"/>
<path d="M17.6963 12.3828H9.14375C8.9895 12.3828 8.8645 12.5089 8.8645 12.6644C8.8645 12.82 8.9895 12.9462 9.14375 12.9462H17.6963C17.8506 12.9462 17.9757 12.82 17.9757 12.6644C17.9757 12.5089 17.8506 12.3828 17.6963 12.3828Z" fill="#52516A"/>
<path d="M17.6963 14.1445H9.14375C8.9895 14.1445 8.8645 14.2707 8.8645 14.4263C8.8645 14.5818 8.9895 14.708 9.14375 14.708H17.6963C17.8506 14.708 17.9757 14.5818 17.9757 14.4263C17.9757 14.2707 17.8506 14.1445 17.6963 14.1445Z" fill="#52516A"/>
<path d="M17.6963 15.9043H9.14375C8.9895 15.9043 8.8645 16.0304 8.8645 16.186C8.8645 16.3416 8.9895 16.4676 9.14375 16.4676H17.6963C17.8506 16.4676 17.9757 16.3416 17.9757 16.186C17.9757 16.0304 17.8506 15.9043 17.6963 15.9043Z" fill="#52516A"/>
<path d="M17.6963 17.6621H9.14375C8.9895 17.6621 8.8645 17.7882 8.8645 17.9437C8.8645 18.0993 8.9895 18.2255 9.14375 18.2255H17.6963C17.8506 18.2255 17.9757 18.0993 17.9757 17.9437C17.9757 17.7882 17.8506 17.6621 17.6963 17.6621Z" fill="#52516A"/>
</svg>
