<svg width="15" height="16" viewBox="0 0 15 16" fill="none" xmlns="http://www.w3.org/2000/svg">
<path d="M3.43752 5.03522V7.22274H2.50003C1.80936 7.22274 1.25 7.7821 1.25 8.47276V14.7226C1.25 15.4133 1.80936 15.9727 2.50003 15.9727H12.4999C13.1905 15.9727 13.7499 15.4133 13.7499 14.7226V8.47276C13.7499 7.7821 13.1905 7.22274 12.4999 7.22274H11.5624V5.03522C11.5624 2.7915 9.74369 0.972656 7.49981 0.972656C5.2561 0.972656 3.43725 2.79134 3.43725 5.03522H3.43752ZM5.00008 7.22263V5.03511C5.00008 3.65389 6.1188 2.53516 7.50003 2.53516C8.88125 2.53516 9.99997 3.65389 9.99997 5.03511V7.22263H4.99992H5.00008ZM6.25 10.6603C6.25 9.96962 6.80936 9.41026 7.50003 9.41026C8.19069 9.41026 8.75005 9.96962 8.75005 10.6603C8.75005 11.1009 8.52196 11.4884 8.17813 11.7102C8.17813 11.7102 8.30034 12.4478 8.43751 13.3164C8.43751 13.5758 8.22814 13.7852 7.96876 13.7852H7.03127C6.77189 13.7852 6.56252 13.5758 6.56252 13.3164L6.8219 11.7102C6.47819 11.4883 6.24998 11.1009 6.24998 10.6603H6.25Z" fill="#D96BC1"/>
</svg>
