<svg width="31" height="31" viewBox="0 0 31 31" fill="none" xmlns="http://www.w3.org/2000/svg">
<path d="M14.5711 24.7127C14.4615 24.603 14.2927 24.603 14.1828 24.7127C14.0055 24.89 13.7438 25.1517 13.6172 25.2783C13.575 25.329 13.5412 25.388 13.5412 25.4471L13.4061 27.2367C13.3892 27.414 13.5412 27.5491 13.71 27.5322L15.432 27.3381C15.4912 27.3296 15.5501 27.3044 15.5923 27.2622L16.158 26.6879C16.2677 26.5782 16.2677 26.4009 16.158 26.2996L14.5711 24.7127ZM21.9994 20.4585L20.4125 18.8716C20.3029 18.762 20.1256 18.762 20.0242 18.8716L15.5756 23.3202C15.4659 23.4298 15.4659 23.6071 15.5756 23.7085L17.1625 25.2953C17.2721 25.4049 17.4494 25.4049 17.5508 25.2953L21.9994 20.8468C22.109 20.7369 22.109 20.5681 21.9994 20.4585ZM20.8091 9.14751C20.8091 8.53966 20.3111 8.04169 19.7033 8.04169H19.1039C18.952 8.04169 18.8254 8.16831 18.8254 8.32017V9.97465C18.8254 10.1265 18.6988 10.2531 18.5469 10.2531H9.17725C9.02538 10.2531 8.89876 10.1265 8.89876 9.97465L8.89858 8.31168C8.89858 8.15982 8.77196 8.0332 8.62009 8.0332H8.07142C7.46356 8.0332 6.96558 8.53117 6.96558 9.13902V23.5312C6.96558 24.139 7.46356 24.637 8.07142 24.637H12.3764C12.4523 24.5104 12.5283 24.3922 12.6381 24.2824L20.8092 16.1115L20.8091 9.14751ZM14.4363 17.1071H10.5618C10.182 17.1071 9.86956 16.7947 9.86956 16.4149C9.86956 16.035 10.182 15.7226 10.5618 15.7226H14.4363C14.8161 15.7226 15.1286 16.035 15.1286 16.4149C15.1286 16.7947 14.8246 17.1071 14.4363 17.1071ZM17.2049 14.3386H10.5614C10.1816 14.3386 9.86917 14.0262 9.86917 13.6463C9.86917 13.2665 10.1816 12.9541 10.5614 12.9541H17.2049C17.5847 12.9541 17.8972 13.2665 17.8972 13.6463C17.8972 14.0262 17.5932 14.3386 17.2049 14.3386Z" fill="#94959E"/>
<path d="M15.9724 6.2262C15.5588 6.09111 15.2634 5.70276 15.2719 5.27246C15.2801 4.51258 14.6723 3.89648 13.9126 3.89648H13.8534C13.1189 3.89648 12.4691 4.47887 12.4943 5.21333C12.5113 5.6691 12.2242 6.08266 11.7938 6.22625C10.916 6.52169 10.2744 6.79189 10.2744 7.77086V8.59798C10.2744 8.74984 10.401 8.87646 10.5529 8.87646H17.2045C17.3564 8.87646 17.483 8.74984 17.483 8.59798L17.4834 7.77086C17.4834 6.79165 16.8503 6.52169 15.9725 6.22625L15.9724 6.2262ZM24.1854 18.2713L22.5986 16.6845C22.4889 16.5748 22.3116 16.5748 22.2102 16.6845L21.3746 17.5201C21.2649 17.6297 21.2649 17.807 21.3746 17.9084L22.9614 19.4952C23.0711 19.6049 23.2484 19.6049 23.3498 19.4952L24.1854 18.6596C24.2951 18.5499 24.2951 18.3726 24.1854 18.2713Z" fill="#94959E"/>
</svg>
