<svg width="25" height="25" viewBox="0 0 25 25" fill="none" xmlns="http://www.w3.org/2000/svg">
<path d="M5.55668 6.50515C5.55668 5.96943 5.1224 5.53516 4.58669 5.53516V5.53516C4.05098 5.53516 3.6167 5.96944 3.6167 6.50515V19.195C3.6167 19.7473 4.06441 20.195 4.6167 20.195H20.2265C20.7622 20.195 21.1965 19.7607 21.1965 19.225V19.225C21.1965 18.6893 20.7622 18.255 20.2265 18.255H6.55668C6.00439 18.255 5.55668 17.8073 5.55668 17.255V6.50515Z" fill="#94959E"/>
<path d="M19.8567 17.3742V17.3742C20.3427 17.3742 20.7367 16.9802 20.7367 16.4942V8.20961C20.7367 8.03549 20.8778 7.89434 21.052 7.89434V7.89434C21.2987 7.89434 21.4498 7.62366 21.3203 7.41362L20.756 6.49835C20.3983 5.9183 19.555 5.91832 19.1974 6.49838L18.6331 7.41361C18.5036 7.62366 18.6547 7.89434 18.9015 7.89434V7.89434C19.0756 7.89434 19.2168 8.0355 19.2168 8.20962V8.6293C19.2168 8.83632 19.1295 9.03373 18.9763 9.17302L15.1546 12.6488C14.815 12.9576 14.3089 12.9957 13.927 12.7411L11.9021 11.3912C11.5318 11.1443 11.0428 11.1719 10.7026 11.4589L6.77218 14.7747C6.54695 14.9647 6.41699 15.2444 6.41699 15.539V16.3744C6.41699 16.9267 6.86471 17.3744 7.417 17.3744L19.8567 17.3742Z" fill="#94959E"/>
</svg>
