<svg width="26" height="25" viewBox="0 0 26 25" fill="none" xmlns="http://www.w3.org/2000/svg">
<path d="M21.1273 4.215H4.10611C3.00084 4.215 2.1167 5.10381 2.1167 6.21492V19.2149C2.1167 20.326 3.00084 21.2148 4.10611 21.2148H21.1273C22.2326 21.2148 23.1167 20.326 23.1167 19.2149V6.21492C23.1167 5.10381 22.2326 4.21484 21.1273 4.21484V4.215ZM19.3588 8.83722C19.3588 9.68171 18.6736 10.3927 17.8115 10.3927C16.9714 10.3927 16.2641 9.70389 16.2641 8.83722C16.2641 7.97056 16.9494 7.28171 17.8115 7.28171C18.6736 7.30403 19.3588 7.9929 19.3588 8.83722ZM21.1273 19.5928H4.10611C3.9072 19.5928 3.73034 19.415 3.73034 19.215L3.73018 13.6372L6.95765 10.3927C7.31138 10.0371 7.90811 10.0371 8.26184 10.3927L14.7829 16.9261C14.9378 17.0817 15.1367 17.1705 15.3576 17.1705C15.5566 17.1705 15.7777 17.0817 15.9323 16.9261C16.2418 16.615 16.2418 16.1039 15.9323 15.7705L14.6502 14.4816L16.3302 12.7927C16.706 12.415 17.3029 12.415 17.7007 12.7927L21.5249 16.6371V19.1705C21.5032 19.4151 21.3263 19.5929 21.1274 19.5929L21.1273 19.5928Z" fill="#94959E"/>
</svg>
