<svg width="25" height="24" viewBox="0 0 25 24" fill="none" xmlns="http://www.w3.org/2000/svg">
<path d="M21.0106 3.50016H3.98941C2.88414 3.50016 2 4.38897 2 5.50008V18.5001C2 19.6112 2.88414 20.5 3.98941 20.5H21.0106C22.1159 20.5 23 19.6112 23 18.5001V5.50008C23 4.38897 22.1159 3.5 21.0106 3.5V3.50016ZM19.2421 8.12238C19.2421 8.96687 18.5569 9.6779 17.6948 9.6779C16.8547 9.6779 16.1474 8.98905 16.1474 8.12238C16.1474 7.25571 16.8327 6.56686 17.6948 6.56686C18.5569 6.58919 19.2421 7.27806 19.2421 8.12238ZM21.0106 18.8779H3.98941C3.7905 18.8779 3.61364 18.7001 3.61364 18.5002L3.61348 12.9224L6.84096 9.67788C7.19468 9.32229 7.79141 9.32229 8.14514 9.67788L14.6662 16.2112C14.8211 16.3668 15.02 16.4557 15.2409 16.4557C15.4399 16.4557 15.661 16.3668 15.8156 16.2112C16.1251 15.9001 16.1251 15.389 15.8156 15.0556L14.5335 13.7667L16.2135 12.0779C16.5893 11.7001 17.1862 11.7001 17.584 12.0779L21.4082 15.9223V18.4556C21.3865 18.7002 21.2096 18.878 21.0107 18.878L21.0106 18.8779Z" fill="white"/>
</svg>
