<svg width="31" height="31" viewBox="0 0 31 31" fill="none" xmlns="http://www.w3.org/2000/svg">
<path d="M22.5039 15.6397C22.6467 15.7625 22.7288 15.9413 22.7288 16.1296V23.2137C22.7288 23.766 22.281 24.2137 21.7287 24.2137L18.861 24.2136C18.3087 24.2136 17.861 23.7659 17.861 23.2136V17.059C17.861 16.879 17.7147 16.7327 17.5344 16.7327L12.6992 16.7325C12.5191 16.7325 12.3725 16.8789 12.3725 17.0588V23.2134C12.3725 23.7657 11.9248 24.2134 11.3726 24.2134L8.50443 24.2135C7.95213 24.2135 7.50439 23.7658 7.50439 23.2135V16.1301C7.50439 15.9417 7.58652 15.7626 7.72933 15.6397L7.95426 15.4463L14.4644 9.84528C14.8394 9.52269 15.3939 9.52269 15.7688 9.84528L22.279 15.4463L22.5039 15.6397Z" fill="#94959E"/>
<path d="M24.863 14.814C24.863 14.814 24.8631 14.8141 24.863 14.8141C24.8269 14.9113 24.7327 14.9761 24.6292 14.9761H23.1127C22.8902 14.9761 22.6751 14.8963 22.5065 14.7512L22.2791 14.5557L15.7689 8.95504C15.394 8.63248 14.8395 8.63248 14.4646 8.95504L7.95436 14.5557L7.72702 14.7514C7.55837 14.8965 7.34326 14.9763 7.12076 14.9763H5.60449C5.50086 14.9763 5.40671 14.9111 5.37056 14.8142C5.33441 14.717 5.36253 14.6061 5.44077 14.5382L14.4644 6.77493C14.8394 6.45236 15.3938 6.45235 15.7688 6.77492L18.3233 8.9725C18.8082 9.38966 19.5591 9.04514 19.5591 8.40548C19.5591 8.34234 19.6103 8.29092 19.6736 8.29092H21.7192C21.7823 8.29092 21.8337 8.34218 21.8337 8.40548V11.5336C21.8337 11.8249 21.9607 12.1017 22.1815 12.2917L24.792 14.5375C24.8709 14.6063 24.899 14.7171 24.8629 14.814C24.8629 14.814 24.8629 14.814 24.863 14.814Z" fill="#94959E"/>
</svg>
