<svg width="24" height="25" viewBox="0 0 24 25" fill="none" xmlns="http://www.w3.org/2000/svg">
<path d="M11.4377 17.9712H16.2189C16.0144 18.2779 15.8865 18.6616 15.8865 19.0705C15.8865 20.1444 16.7558 21.0137 17.8296 21.0137C18.9035 21.0137 19.7728 20.1444 19.7728 19.0705C19.7728 17.9967 18.9035 17.1274 17.8296 17.1274H8.34378C7.73009 17.1274 7.21872 16.6161 7.21872 16.0023V14.4938C7.55117 14.7239 7.93464 14.8518 8.34378 14.8518H18.3154C19.4148 14.8518 20.2842 13.9568 20.2842 12.883V8.68976H19.4405V12.883C19.4405 13.4967 18.9292 14.008 18.3154 14.008H8.34378C7.73009 14.008 7.21872 13.4967 7.21872 12.883V4.39427L4.0482 3.01367L3.71576 3.80625L6.37478 4.95678V16.0023C6.37478 17.0507 7.19306 17.8944 8.2157 17.9711C7.98562 18.2779 7.85775 18.6615 7.85775 19.0705C7.85775 20.1443 8.72703 21.0136 9.8009 21.0136C10.8748 21.0136 11.7441 20.1443 11.7441 19.0705C11.7958 18.6615 11.6679 18.2779 11.4378 17.9711L11.4377 17.9712ZM18.9547 19.0705C18.9547 19.6842 18.4689 20.1699 17.8554 20.1699C17.2417 20.1699 16.7561 19.684 16.7561 19.0705C16.7561 18.4568 17.2419 17.9712 17.8554 17.9712C18.4689 17.9712 18.9547 18.457 18.9547 19.0705ZM9.82684 20.1701C9.21316 20.1701 8.7275 19.6842 8.7275 19.0707C8.7275 18.457 9.21334 17.9714 9.82684 17.9714C10.4405 17.9714 10.9262 18.4572 10.9262 19.0707C10.9519 19.6843 10.4405 20.1701 9.82684 20.1701ZM13.79 3.06482V8.8177L14.9917 7.64146L15.6054 8.25515L13.381 10.4796L11.1821 8.28067L11.7958 7.66699L12.972 8.84322L12.9717 3.06477L13.79 3.06482ZM16.8581 12.1416H9.85241V11.2978H16.8581V12.1416Z" fill="#3263C9"/>
</svg>
