<svg width="24" height="22" viewBox="0 0 24 22" fill="none" xmlns="http://www.w3.org/2000/svg">
<path d="M11.0771 13.592C11.0771 13.8106 10.9903 14.0204 10.8357 14.175C10.6812 14.3295 10.4716 14.4164 10.2528 14.4164H0.893686C0.599087 14.4164 0.326949 14.2593 0.179742 14.0042C0.032534 13.7492 0.032534 13.4349 0.179742 13.1799C0.326949 12.9248 0.599097 12.7677 0.893686 12.7677H10.2528C10.4716 12.7677 10.6812 12.8545 10.8357 13.0091C10.9903 13.1637 11.0771 13.3734 11.0771 13.592ZM10.2528 16.0651H3.36677C3.07217 16.0651 2.80004 16.2223 2.65283 16.4773C2.50562 16.7323 2.50562 17.0466 2.65283 17.3017C2.80004 17.5567 3.07218 17.7138 3.36677 17.7138H10.2528C10.5474 17.7138 10.8195 17.5567 10.9667 17.3017C11.1141 17.0466 11.1141 16.7323 10.9667 16.4773C10.8195 16.2223 10.5474 16.0651 10.2528 16.0651ZM10.2528 19.3626H5.84005C5.54545 19.3626 5.27331 19.5197 5.1261 19.7747C4.9789 20.0298 4.9789 20.3441 5.1261 20.5991C5.27331 20.8541 5.54546 21.0113 5.84005 21.0113H10.2528C10.5474 21.0113 10.8195 20.8542 10.9667 20.5991C11.1141 20.3441 11.1141 20.0298 10.9667 19.7747C10.8195 19.5197 10.5474 19.3626 10.2528 19.3626ZM14.6219 13.3725L17.9376 10.0611C18.1398 9.85167 18.2165 9.5512 18.1396 9.2704C18.0627 8.9896 17.8434 8.77027 17.5626 8.69334C17.2818 8.61643 16.9813 8.69316 16.7719 8.89539L13.4581 12.2044C13.2989 12.3581 13.2084 12.5691 13.2063 12.7901C13.2045 13.0113 13.2913 13.224 13.4477 13.3802C13.6042 13.5367 13.8167 13.6237 14.0378 13.6217C14.259 13.6198 14.4701 13.5291 14.6236 13.3701L14.6219 13.3725ZM14.8635 3.75716V2.21904H15.6434C15.938 2.21904 16.2101 2.06189 16.3573 1.80686C16.5045 1.55182 16.5045 1.23753 16.3573 0.982494C16.2101 0.727455 15.9379 0.570312 15.6434 0.570312H12.4366C12.142 0.570312 11.8699 0.727455 11.7227 0.982494C11.5755 1.23753 11.5755 1.55182 11.7227 1.80686C11.8699 2.06189 12.142 2.21904 12.4366 2.21904H13.2165V3.75551C11.3063 3.92443 9.49932 4.69636 8.05692 5.95995L6.97366 4.87669C6.76536 4.6682 6.46175 4.58669 6.17709 4.66268C5.89243 4.73868 5.66994 4.96096 5.59339 5.24544C5.51703 5.5301 5.59818 5.83389 5.80629 6.04238L6.92413 7.15932C6.24311 8.02047 5.72385 8.99812 5.39171 10.0446C5.31295 10.3226 5.38545 10.6215 5.58289 10.8323C5.78015 11.0432 6.07346 11.1356 6.3561 11.0756C6.63855 11.0156 6.86913 10.8121 6.96368 10.5392C7.4362 9.0351 8.37706 7.72149 9.64912 6.79001C10.9212 5.85872 12.4577 5.3584 14.0343 5.36226H14.0475C16.6996 5.36318 19.1496 6.77875 20.4752 9.07613C21.8004 11.3733 21.7995 14.2032 20.4726 16.4996C19.1459 18.7961 16.6947 20.2102 14.0426 20.2093C13.899 20.2093 13.7548 20.2019 13.5884 20.1936C13.3717 20.1859 13.1608 20.2639 13.0013 20.4106C12.8417 20.5574 12.7464 20.7611 12.7359 20.9775C12.7278 21.1972 12.8068 21.4112 12.9556 21.573C13.1045 21.7347 13.3111 21.8311 13.5307 21.8414C13.7012 21.8497 13.8727 21.858 14.0426 21.858C16.3853 21.8718 18.6426 20.9784 20.3412 19.3648C22.0399 17.7514 23.0481 15.543 23.1547 13.2024C23.2612 10.8618 22.4578 8.57126 20.9129 6.81004C19.3679 5.04869 17.2012 3.95384 14.8668 3.75477L14.8635 3.75716Z" fill="#3263C9"/>
</svg>
