<svg width="24" height="24" viewBox="0 0 24 24" fill="none" xmlns="http://www.w3.org/2000/svg">
<path d="M17.1444 2.5C15.2994 2.5 13.7892 3.92534 13.7892 5.66667C13.7892 5.97429 13.8412 6.26897 13.929 6.55066L8.93133 9.51941C8.35902 9.09145 7.63769 8.83333 6.85521 8.83333C5.0102 8.83333 3.5 10.2587 3.5 12C3.5 13.7413 5.0102 15.1667 6.85521 15.1667C7.64113 15.1667 8.36478 14.9053 8.93816 14.474L13.929 17.4427C13.8401 17.7263 13.7892 18.0235 13.7892 18.3333C13.7892 20.0747 15.2994 21.5 17.1444 21.5C18.9895 21.5 20.4997 20.0747 20.4997 18.3333C20.4997 16.592 18.9895 15.1667 17.1444 15.1667C16.1066 15.1667 15.1749 15.6167 14.5581 16.3212L9.81211 13.4976C10.0685 13.0508 10.2106 12.5412 10.2106 12C10.2106 11.4579 10.0624 10.9498 9.80526 10.5024C11.3769 9.55767 12.9747 8.61743 14.5585 7.67882C15.1752 8.38333 16.1069 8.83333 17.1448 8.83333C18.9898 8.83333 20.5 7.40799 20.5 5.66667C20.5 3.92534 18.9898 2.5 17.1448 2.5H17.1444ZM17.1444 3.76674C18.2642 3.76674 19.1575 4.60994 19.1575 5.66667C19.1575 6.72354 18.264 7.56659 17.1444 7.56659C16.0246 7.56659 15.1314 6.72339 15.1314 5.66667C15.1314 4.60979 16.0248 3.76674 17.1444 3.76674V3.76674ZM6.85509 10.1001C7.97489 10.1001 8.86814 10.9433 8.86814 12C8.86814 13.0569 7.97473 13.8999 6.85509 13.8999C5.73529 13.8999 4.84204 13.0567 4.84204 12C4.84204 10.9431 5.73545 10.1001 6.85509 10.1001V10.1001ZM17.1444 16.4334C18.2642 16.4334 19.1575 17.2766 19.1575 18.3333C19.1575 19.3902 18.264 20.2333 17.1444 20.2333C16.0246 20.2333 15.1314 19.3901 15.1314 18.3333C15.1314 17.2765 16.0248 16.4334 17.1444 16.4334V16.4334Z" fill="#263C6B"/>
</svg>
