<svg width="24" height="25" viewBox="0 0 24 25" fill="none" xmlns="http://www.w3.org/2000/svg">
<path d="M19.5 6.38871V20.4513C19.5 20.6999 19.4011 20.9384 19.2253 21.1142C19.0496 21.29 18.8111 21.3887 18.5624 21.3887H5.43761C5.18884 21.3887 4.95044 21.29 4.77466 21.1142C4.59888 20.9384 4.5 20.6999 4.5 20.4513V6.38871C4.5 6.1401 4.59888 5.90154 4.77466 5.72576C4.95044 5.54998 5.18886 5.45126 5.43761 5.45126H7.31251V6.38871H5.43761V20.4513H18.5624V6.38871H16.6875V5.45126H18.5625H18.5624C18.8112 5.45126 19.0496 5.54998 19.2253 5.72576C19.4011 5.90154 19.5 6.14008 19.5 6.38871ZM13.875 4.51365C13.875 3.84379 13.5176 3.2248 12.9374 2.88987C12.3573 2.55494 11.6425 2.55494 11.0625 2.88987C10.4822 3.22479 10.1249 3.84379 10.1249 4.51365H8.24995V7.32616H15.7501L15.75 4.51365H13.875ZM17.6249 9.2013H6.37489V10.1388H17.6249V9.2013ZM17.6249 12.0138H6.37489V12.9513H17.6249V12.0138ZM17.6249 14.8263H6.37489V15.7638H17.6249V14.8263ZM17.6249 17.6388H6.37489V18.5763H17.6249V17.6388Z" fill="#3263C9"/>
</svg>
