<svg width="31" height="31" viewBox="0 0 31 31" fill="none" xmlns="http://www.w3.org/2000/svg">
<path d="M22.3942 18.1408C21.9022 18.3573 21.0756 18.5934 20.1702 18.8493C19.875 19.4004 19.2846 19.8728 18.3595 20.0695C18.143 20.1286 17.9069 20.1482 17.6313 20.168C16.9819 20.2074 16.2143 20.168 15.3681 20.1483H15.191C14.9941 20.1287 14.7974 19.9909 14.7776 19.7941C14.7382 19.5382 14.9547 19.3218 15.2106 19.3218H15.4074C16.5096 19.3808 17.533 19.4202 18.1825 19.2627C19.3635 18.9872 19.6783 18.2393 19.58 17.6292C19.5013 17.1371 19.1076 16.6647 18.5173 16.7238C17.6708 16.8418 16.6669 16.8024 15.7026 16.7828C14.6005 16.7434 13.459 16.7632 12.652 16.8812C11.7664 17.0189 9.97532 17.7668 8.4205 18.928C7.65293 19.4987 6.80656 20.168 6.29492 20.5812C6.03902 20.7977 5.99975 21.1717 6.21625 21.4274L8.67642 24.36C8.89292 24.6159 9.26689 24.6355 9.50303 24.4387L10.3296 23.7301C10.5265 23.5727 10.7823 23.5136 11.0382 23.5727C12.6323 24.0058 14.325 24.2617 15.4074 24.2617C17.8086 24.2813 22.2959 21.2701 23.5752 20.3057C24.8545 19.3413 23.8311 17.5503 22.3944 18.1407L22.3942 18.1408Z" fill="#94959E"/>
<path d="M12.6519 9.75721H13.4785V14.6185C13.4785 14.9334 13.7344 15.1892 14.0492 15.1892H16.1944C16.3322 15.1892 16.4503 15.0711 16.4503 14.9333V11.8041C16.4503 11.6467 16.5881 11.509 16.7455 11.509H18.4775C18.6349 11.509 18.7726 11.6468 18.7726 11.8041V14.9138C18.7726 15.0516 18.8907 15.1697 19.0285 15.1697H21.1737C21.4887 15.1697 21.7444 14.9138 21.7444 14.599V9.73771H22.571C22.7679 9.73771 22.9056 9.58024 22.9056 9.40314V8.98976C22.9056 8.8717 22.8466 8.75363 22.7285 8.6946L17.8082 5.89974C17.7097 5.84071 17.572 5.84071 17.4736 5.89974L15.722 6.88381L15.7023 6.54925C15.7023 6.41141 15.5843 6.29335 15.4464 6.29335H14.7183C14.5804 6.29335 14.4624 6.41141 14.4624 6.54925V7.59236L12.4942 8.71426C12.3958 8.7733 12.3171 8.89136 12.3171 9.00943V9.4228C12.3171 9.61954 12.4746 9.75723 12.6517 9.75723L12.6519 9.75721Z" fill="#94959E"/>
</svg>
