<svg width="24" height="24" viewBox="0 0 24 24" fill="none" xmlns="http://www.w3.org/2000/svg">
<path d="M23.1588 11.1035C21.9145 9.56049 17.4845 4.5332 12.0093 4.5332C6.53409 4.5332 2.10414 9.56045 0.859777 11.1035C0.436715 11.6262 0.436715 12.3727 0.859777 12.8954C2.10414 14.4383 6.53409 19.4656 12.0093 19.4656C17.4845 19.4656 21.9145 14.4384 23.1588 12.8954C23.5571 12.3726 23.5571 11.6261 23.1588 11.1035ZM12.0093 17.4746C7.70384 17.4746 3.94581 13.4429 2.70144 11.9994C3.92097 10.5559 7.7038 6.52419 12.0093 6.52419C16.3148 6.52419 20.0728 10.5559 21.3172 11.9994C20.0728 13.4429 16.3148 17.4746 12.0093 17.4746V17.4746Z" fill="#263C6B" stroke="white" stroke-width="0.7"/>
<path d="M12.0094 7.32031C9.42119 7.32031 7.33057 9.4108 7.33057 11.9991C7.33057 14.5873 9.42124 16.678 12.0094 16.678C14.5975 16.678 16.6882 14.5873 16.6882 11.9991C16.6882 9.41098 14.5975 7.32031 12.0094 7.32031ZM12.0094 14.687C10.5161 14.687 9.32155 13.4674 9.32155 11.9991C9.32155 10.5308 10.5161 9.3113 12.0094 9.3113C13.5027 9.3113 14.6972 10.5058 14.6972 11.9991C14.6972 13.4924 13.5027 14.687 12.0094 14.687Z" fill="#263C6B" stroke="white" stroke-width="0.7"/>
</svg>
