<svg width="24" height="24" viewBox="0 0 24 24" fill="none" xmlns="http://www.w3.org/2000/svg">
<path fill-rule="evenodd" clip-rule="evenodd" d="M3.83049 4.22137C4.7756 3.20742 6.12152 2.63989 7.71078 2.63989H15.8081C17.4011 2.63989 18.7475 3.2071 19.6923 4.22164C20.6315 5.23037 21.1199 6.62283 21.1199 8.18522V15.8145C21.1199 17.3769 20.6315 18.7694 19.6921 19.7782C18.7473 20.7927 17.4006 21.3599 15.8072 21.3599H7.71078C7.52012 21.3599 7.33299 21.3517 7.14967 21.3357C7.10698 21.3354 7.06374 21.3314 7.02032 21.3232L7.01827 21.3228C5.72699 21.1816 4.63129 20.6421 3.82701 19.7781C2.88799 18.7693 2.3999 17.3769 2.3999 15.8145V8.18522C2.3999 7.46129 2.50515 6.77401 2.71151 6.14455L2.71211 6.14157C2.72539 6.07721 2.74688 6.01664 2.77524 5.96073C3.01524 5.30507 3.36864 4.71686 3.83049 4.22137ZM3.93962 7.12993C3.87433 7.45902 3.8399 7.81146 3.8399 8.18522V15.8145C3.8399 17.0796 4.23217 18.0998 4.88103 18.7969C5.31144 19.2593 5.87863 19.6056 6.57732 19.7841L8.77136 8.12657L3.93962 7.12993ZM9.71357 6.85061L4.45802 5.76654C4.58358 5.56052 4.72618 5.37237 4.88385 5.20321C5.52874 4.51135 6.47825 4.07989 7.71078 4.07989H15.8081C17.0453 4.07989 17.9947 4.51165 18.6384 5.20294C19.2875 5.90002 19.6799 6.92022 19.6799 8.18522V8.90637L9.79728 6.86788C9.77961 6.86312 9.76157 6.85901 9.74323 6.85556C9.73334 6.8537 9.72345 6.85205 9.71357 6.85061ZM10.1819 8.41752L8.01706 19.9199H15.8072C17.0449 19.9199 17.9945 19.4881 18.6383 18.7968C19.2875 18.0997 19.6799 17.0795 19.6799 15.8145V10.3767L10.1819 8.41752ZM14.2798 12.4709C13.2577 12.4709 12.4293 13.2993 12.4293 14.3214C12.4293 14.9725 12.8297 15.6993 13.3787 16.3173C13.6425 16.6141 13.9142 16.8557 14.1328 17.0173C14.1882 17.0582 14.2375 17.092 14.2798 17.1192C14.3221 17.092 14.3714 17.0582 14.4268 17.0173C14.6454 16.8557 14.9171 16.6141 15.181 16.3173C15.7299 15.6993 16.1303 14.9725 16.1303 14.3214C16.1303 13.2993 15.3019 12.4709 14.2798 12.4709ZM14.1312 17.2012C14.1312 17.2012 14.135 17.1993 14.142 17.197C14.1346 17.2003 14.1312 17.2012 14.1312 17.2012ZM14.4176 17.197C14.4246 17.1993 14.4284 17.2012 14.4284 17.2012C14.4284 17.2012 14.425 17.2003 14.4176 17.197ZM10.9893 14.3214C10.9893 12.504 12.4624 11.0309 14.2798 11.0309C16.0972 11.0309 17.5703 12.504 17.5703 14.3214C17.5703 15.4991 16.891 16.5606 16.2574 17.2737C15.93 17.6423 15.5848 17.952 15.2829 18.1752C15.1327 18.2863 14.9823 18.3839 14.8414 18.4575C14.7354 18.5128 14.5208 18.6178 14.2798 18.6178C14.0388 18.6178 13.8242 18.5128 13.7181 18.4575C13.5772 18.3839 13.4269 18.2863 13.2767 18.1752C12.9748 17.952 12.6297 17.6423 12.3021 17.2737C11.6686 16.5606 10.9893 15.4991 10.9893 14.3214ZM14.2797 13.5791C14.6774 13.5791 14.9997 13.9015 14.9997 14.2991V14.3289C14.9997 14.7267 14.6774 15.0489 14.2797 15.0489C13.8821 15.0489 13.5597 14.7267 13.5597 14.3289V14.2991C13.5597 13.9015 13.8821 13.5791 14.2797 13.5791Z" fill="white"/>
</svg>
