<svg width="24" height="24" viewBox="0 0 24 24" fill="none" xmlns="http://www.w3.org/2000/svg">
<path d="M11.8936 17.3521H10.5025C10.3116 17.3521 10.1284 17.2762 9.99344 17.1411C9.85837 17.0062 9.78253 16.823 9.78253 16.6321C9.78253 16.4411 9.85837 16.2579 9.99344 16.123C10.1284 15.9879 10.3116 15.9121 10.5025 15.9121H11.8936C12.0302 15.9224 12.1674 15.9047 12.2968 15.8599C12.4262 15.8151 12.545 15.7442 12.6459 15.6515C12.7468 15.559 12.8277 15.4467 12.8833 15.3215C12.939 15.1964 12.9684 15.0612 12.9697 14.9242C12.9682 14.691 12.8865 14.4654 12.7382 14.2853C12.59 14.1052 12.3842 13.9817 12.1557 13.9354C11.0836 13.6335 9.97568 13.4775 8.86191 13.4717C7.44045 13.6227 6.09786 14.2 5.01039 15.1277L4.52175 15.4599C4.44323 15.5138 4.35483 15.5515 4.26163 15.571C4.16844 15.5904 4.07231 15.5911 3.97881 15.5732C3.88532 15.5553 3.79632 15.5189 3.71694 15.4664C3.63757 15.4138 3.56941 15.346 3.51642 15.2669C3.46342 15.1878 3.42663 15.099 3.40818 15.0056C3.38973 14.9122 3.38999 14.8161 3.40894 14.7228C3.42788 14.6295 3.46515 14.5409 3.51856 14.4621C3.57198 14.3834 3.6405 14.3159 3.72015 14.2637L4.20015 13.9383C5.51342 12.8481 7.12725 12.1831 8.82735 12.0317C10.0708 12.0394 11.3079 12.2098 12.507 12.5386C13.0999 12.6704 13.6221 13.0189 13.9715 13.5158C14.3207 14.0127 14.4718 14.6221 14.3951 15.2246C14.3185 15.8271 14.0196 16.3792 13.5571 16.7728C13.0944 17.1663 12.5006 17.3729 11.8936 17.3521Z" fill="white"/>
<path d="M11.3654 21.3448C9.88752 21.2962 8.41779 21.1033 6.97732 20.7688C6.03407 20.6011 5.07606 20.531 4.11844 20.5595C3.92748 20.5595 3.74434 20.4837 3.60932 20.3487C3.4743 20.2136 3.39844 20.0306 3.39844 19.8395C3.39844 19.6486 3.4743 19.4655 3.60932 19.3304C3.74434 19.1955 3.92748 19.1195 4.11844 19.1195C5.14733 19.0901 6.17655 19.1647 7.19044 19.3422C9.7824 19.8539 11.9549 20.285 14.2858 19.3778C15.7989 18.6843 17.1422 17.6687 18.2218 16.4018L18.4224 16.1992C18.59 16.0298 18.684 15.8011 18.684 15.5627C18.684 15.3244 18.59 15.0958 18.4224 14.9262C18.2707 14.7755 18.0699 14.6843 17.8565 14.6691C17.6432 14.654 17.4314 14.7159 17.2598 14.8437C17.0131 15.029 16.7654 15.2325 16.5149 15.4389C15.4808 16.4994 14.1182 17.1788 12.649 17.3666C12.3686 17.3723 12.0931 17.3666 11.8147 17.3522C11.4113 17.3234 11.0062 17.331 10.6042 17.3752C10.5106 17.3889 10.4152 17.384 10.3235 17.3608C10.2318 17.3377 10.1456 17.2967 10.0696 17.2401C9.99379 17.1836 9.92985 17.1127 9.88137 17.0314C9.83289 16.9502 9.80093 16.8603 9.7872 16.7666C9.77357 16.673 9.77846 16.5776 9.8016 16.4859C9.82483 16.3942 9.86582 16.308 9.92237 16.232C9.97891 16.1562 10.0498 16.0923 10.1311 16.0438C10.2123 15.9953 10.3022 15.9633 10.3958 15.9496C10.8852 15.8919 11.3789 15.8796 11.8704 15.9131C12.119 15.9227 12.3677 15.9333 12.6144 15.9266C13.7556 15.7254 14.8025 15.1651 15.6029 14.3272C15.8698 14.1083 16.1338 13.8923 16.3949 13.6955C16.8678 13.3427 17.4566 13.1819 18.0432 13.2456C18.6298 13.3092 19.1704 13.5926 19.5565 14.0386C19.9427 14.4847 20.1456 15.0604 20.1246 15.6501C20.1035 16.2397 19.8599 16.7995 19.4429 17.2168L19.2422 17.4184C18.0235 18.8313 16.5077 19.9577 14.8032 20.717C13.7073 21.1416 12.5408 21.3546 11.3654 21.3448Z" fill="white"/>
<path d="M12.5114 9.28044C11.853 9.28035 11.2094 9.08504 10.662 8.71921C10.1147 8.35337 9.68793 7.83344 9.43602 7.22515C9.18407 6.61687 9.11814 5.94753 9.24656 5.30177C9.37498 4.65602 9.69197 4.06285 10.1575 3.59724C10.7912 2.99232 11.6335 2.65479 12.5095 2.65479C13.3856 2.65479 14.2279 2.99232 14.8615 3.59724C15.3531 4.08851 15.677 4.72251 15.7869 5.40877C15.8028 5.50229 15.8002 5.59804 15.7789 5.69052C15.7578 5.78299 15.7186 5.87037 15.6635 5.94762C15.6083 6.02488 15.5386 6.09048 15.458 6.14067C15.3776 6.19086 15.2879 6.22465 15.1943 6.24009C15.1007 6.25551 15.005 6.25229 14.9125 6.2306C14.8202 6.20892 14.733 6.16919 14.6561 6.1137C14.5791 6.05822 14.514 5.98807 14.4641 5.90728C14.4144 5.82651 14.3811 5.73669 14.3661 5.643C14.3044 5.25422 14.1216 4.89481 13.8439 4.6158C13.4841 4.2722 13.0056 4.08048 12.508 4.08048C12.0106 4.08048 11.5321 4.2722 11.1722 4.6158C10.8865 4.90146 10.6998 5.27123 10.6397 5.6708C10.5795 6.07037 10.6491 6.4787 10.8381 6.83582C11.0271 7.19295 11.3257 7.48005 11.6899 7.65499C12.0541 7.82993 12.4649 7.8835 12.8618 7.80781C12.9547 7.79015 13.0502 7.79098 13.1428 7.81023C13.2354 7.82947 13.3233 7.86678 13.4015 7.91999C13.4796 7.97321 13.5466 8.04131 13.5985 8.12039C13.6503 8.19948 13.6861 8.28801 13.7037 8.38093C13.7214 8.47383 13.7206 8.56932 13.7013 8.66191C13.6821 8.7545 13.6448 8.8424 13.5916 8.92058C13.5383 8.99876 13.4702 9.06568 13.3911 9.11755C13.312 9.16941 13.2235 9.20519 13.1306 9.22285C12.9265 9.26123 12.7191 9.2805 12.5114 9.28044Z" fill="white"/>
<path d="M15.57 11.4193C14.9116 11.4193 14.2679 11.2241 13.7204 10.8582C13.1729 10.4924 12.7461 9.97242 12.4942 9.36408C12.2422 8.75574 12.1762 8.08633 12.3047 7.44051C12.4331 6.7947 12.7502 6.20148 13.2158 5.73587C13.6814 5.27026 14.2747 4.95318 14.9205 4.82471C15.5663 4.69625 16.2357 4.76219 16.844 5.01417C17.4524 5.26616 17.9723 5.69288 18.3382 6.24038C18.704 6.78787 18.8993 7.43155 18.8993 8.09003C18.8982 8.9727 18.5472 9.81892 17.9231 10.4431C17.2989 11.0672 16.4526 11.4183 15.57 11.4193ZM15.57 6.20075C15.1963 6.20075 14.8311 6.31155 14.5204 6.51914C14.2097 6.72674 13.9675 7.02181 13.8246 7.36703C13.6815 7.71225 13.6442 8.09212 13.717 8.4586C13.7899 8.82509 13.9699 9.16173 14.2341 9.42595C14.4983 9.69017 14.835 9.87011 15.2014 9.943C15.5679 10.0159 15.9478 9.97848 16.293 9.83549C16.6382 9.6925 16.9333 9.45035 17.1409 9.13965C17.3485 8.82896 17.4593 8.46369 17.4593 8.09003C17.4587 7.58912 17.2595 7.10886 16.9054 6.75466C16.5511 6.40047 16.071 6.20126 15.57 6.20075Z" fill="white"/>
</svg>
