<svg width="24" height="24" viewBox="0 0 24 24" fill="none" xmlns="http://www.w3.org/2000/svg">
<path fill-rule="evenodd" clip-rule="evenodd" d="M19.2188 12.7258C19.6008 12.6158 19.9998 12.8364 20.1098 13.2185L20.7001 15.2698C20.8101 15.6519 20.5895 16.0508 20.2074 16.1608C19.8252 16.2707 19.4263 16.0501 19.3163 15.6681L18.9251 14.3087L17.5658 14.6999C17.1837 14.8099 16.7848 14.5893 16.6748 14.2071C16.5648 13.8251 16.7855 13.4261 17.1675 13.3161L19.2188 12.7258Z" fill="white"/>
<path fill-rule="evenodd" clip-rule="evenodd" d="M19.7769 12.7925C20.1221 12.9898 20.2421 13.4295 20.0448 13.7748L17.3425 18.504C17.1763 18.7948 16.8317 18.9326 16.5109 18.8365L12.306 17.5777L10.4331 20.5988C10.2236 20.9368 9.77982 21.041 9.44182 20.8314C9.10384 20.622 8.99971 20.1781 9.20922 19.8401L11.3726 16.3504C11.5439 16.074 11.8793 15.9468 12.191 16.0401L16.376 17.2931L18.7945 13.0604C18.9918 12.7152 19.4316 12.5952 19.7769 12.7925Z" fill="white"/>
<path fill-rule="evenodd" clip-rule="evenodd" d="M8.52393 9.1326C8.52393 8.0826 9.37533 7.23193 10.4255 7.23193H12.6187C13.0163 7.23193 13.3387 7.55429 13.3387 7.95193C13.3387 8.34959 13.0163 8.67193 12.6187 8.67193H10.4255C10.1698 8.67193 9.96392 8.87863 9.96392 9.1326C9.96392 9.38786 10.1702 9.59419 10.4255 9.59419H11.7752C12.8249 9.59419 13.6759 10.4452 13.6759 11.4948C13.6759 12.5451 12.8252 13.3965 11.7752 13.3965H9.58206C9.18441 13.3965 8.86206 13.0741 8.86206 12.6765C8.86206 12.2788 9.18441 11.9565 9.58206 11.9565H11.7752C12.0292 11.9565 12.2359 11.7505 12.2359 11.4948C12.2359 11.2405 12.0295 11.0342 11.7752 11.0342H10.4255C9.37496 11.0342 8.52393 10.1832 8.52393 9.1326Z" fill="white"/>
<path fill-rule="evenodd" clip-rule="evenodd" d="M11.0999 6.23438C11.4975 6.23438 11.8199 6.55673 11.8199 6.95437V7.95476C11.8199 8.3524 11.4975 8.67476 11.0999 8.67476C10.7023 8.67476 10.3799 8.3524 10.3799 7.95476V6.95437C10.3799 6.55673 10.7023 6.23438 11.0999 6.23438ZM11.0999 11.9556C11.4975 11.9556 11.8199 12.2779 11.8199 12.6756V13.6675C11.8199 14.0652 11.4975 14.3875 11.0999 14.3875C10.7023 14.3875 10.3799 14.0652 10.3799 13.6675V12.6756C10.3799 12.2779 10.7023 11.9556 11.0999 11.9556Z" fill="white"/>
<path fill-rule="evenodd" clip-rule="evenodd" d="M2.79199 10.5274C2.79199 5.93958 6.51055 2.21997 11.0994 2.21997C15.6873 2.21997 19.4068 5.93952 19.4068 10.5274C19.4068 10.9251 19.0844 11.2474 18.6868 11.2474C18.2892 11.2474 17.9668 10.9251 17.9668 10.5274C17.9668 6.73481 14.892 3.65997 11.0994 3.65997C7.30596 3.65997 4.23199 6.73475 4.23199 10.5274C4.23199 12.8974 5.43122 14.9871 7.25996 16.2226C7.58945 16.4452 7.6761 16.8928 7.45348 17.2223C7.23088 17.5518 6.78331 17.6384 6.45382 17.4158C4.24551 15.9239 2.79199 13.3956 2.79199 10.5274Z" fill="white"/>
</svg>
