<svg width="41" height="29" viewBox="0 0 41 29" fill="none" xmlns="http://www.w3.org/2000/svg">
<path d="M27.3127 0.824707L20.4944 4.91552L13.6705 0.824707L0 9.02028V21.5809H7.93387V18.8243H3.35816V10.4242L13.6705 4.24147L17.6403 6.62157L13.6365 9.02028V21.5809H19.0277H23.19H27.341V9.02028L23.3372 6.62157L27.307 4.24147L37.6193 10.4242V18.8243H32.6755V21.5809H40.9888V9.02028L27.3127 0.824707ZM23.9828 10.4242V18.8243H23.1957H19.0334H17.0003V10.4242L20.4888 8.33228L23.9828 10.4242Z" fill="white"/>
<path d="M1.41802 25.5811C0.684091 25.5811 0.190277 25.9435 0.190277 26.5188C0.190277 27.6424 1.88012 27.2935 1.88012 27.8916C1.88012 28.0864 1.70343 28.1951 1.40896 28.1951C1.07371 28.1951 0.611605 28.0094 0.285416 27.7194L0 28.3038C0.357902 28.6074 0.878899 28.8067 1.3999 28.8067C2.10211 28.8067 2.64123 28.4715 2.64123 27.8508C2.64576 26.7091 0.955915 27.0353 0.955915 26.4509C0.955915 26.2787 1.11901 26.1927 1.35912 26.1927C1.61282 26.1927 2.0115 26.3195 2.34675 26.5188L2.6231 25.9254C2.30598 25.717 1.862 25.5811 1.41802 25.5811Z" fill="white"/>
<path d="M5.71157 26.2063L5.7161 25.6128H3.4373V28.7841H4.15311V27.5835H5.58471V26.9855H4.15311V26.2063H5.71157Z" fill="white"/>
<path d="M8.37421 28.7841H9.18515L8.51012 27.7375C8.8952 27.5563 9.1036 27.2029 9.1036 26.7137C9.1036 26.0114 8.63244 25.6128 7.80337 25.6128H6.42613V28.7841H7.14194V27.878H7.80337H7.87133L8.37421 28.7841ZM7.14194 27.28V26.2063H7.80337C8.19752 26.2063 8.42404 26.3829 8.42404 26.7363C8.42404 27.0987 8.19752 27.28 7.80337 27.28H7.14194Z" fill="white"/>
<path d="M14.8665 28.1679L15.1157 28.7841H15.8813L14.5267 25.6128H13.7883L12.411 28.7841H13.1495L13.3987 28.1679H14.8665ZM14.6355 27.5926H13.6343L14.1371 26.3603L14.6355 27.5926Z" fill="white"/>
<path d="M19.3778 28.7841V25.6128H18.6983V27.6514L17.158 25.6128H16.5056V28.7841H17.1897V26.7499L18.7255 28.7841H19.3778Z" fill="white"/>
<path d="M22.4634 28.1679L22.7126 28.7841H23.4783L22.1237 25.6128H21.3852L20.008 28.7841H20.7464L20.9956 28.1679H22.4634ZM22.2324 27.5926H21.2312L21.7341 26.3603L22.2324 27.5926Z" fill="white"/>
<path d="M24.8183 28.1589V25.6128H24.1025V28.7841H26.1774V28.1589H24.8183Z" fill="white"/>
<path d="M28.4234 27.7602L29.5787 25.6128H28.8583L28.0655 27.0353L27.2546 25.6128H26.5342L27.7076 27.7783V28.7841H28.4234V27.7602Z" fill="white"/>
<path d="M32.5461 26.2198V25.6128H29.8959V26.2198H30.8608V28.7841H31.5766V26.2198H32.5461Z" fill="white"/>
<path d="M33.9396 28.7841V25.6128H33.2238V28.7841H33.9396Z" fill="white"/>
<path d="M36.4018 25.5901C35.4413 25.5901 34.712 26.2787 34.712 27.1939C34.712 28.1136 35.4278 28.8158 36.3746 28.8158C36.8367 28.8158 37.3215 28.5938 37.6567 28.2495L37.2354 27.7919C37.0089 28.0184 36.6963 28.1634 36.4109 28.1634C35.8672 28.1634 35.4459 27.7375 35.4459 27.1848C35.4459 26.6321 35.8672 26.2108 36.4109 26.2108C36.7053 26.2108 37.0179 26.3739 37.2354 26.623L37.6522 26.1156C37.3396 25.794 36.8594 25.5901 36.4018 25.5901Z" fill="white"/>
<path d="M39.5384 25.5811C38.8044 25.5811 38.3106 25.9435 38.3106 26.5188C38.3106 27.6424 40.0005 27.2935 40.0005 27.8916C40.0005 28.0864 39.8238 28.1951 39.5293 28.1951C39.1941 28.1951 38.7319 28.0094 38.4058 27.7194L38.1203 28.3038C38.4782 28.6074 38.9992 28.8067 39.5202 28.8067C40.2225 28.8067 40.7616 28.4715 40.7616 27.8508C40.7661 26.7091 39.0763 27.0353 39.0763 26.4509C39.0763 26.2787 39.2394 26.1927 39.4795 26.1927C39.7332 26.1927 40.1318 26.3195 40.4671 26.5188L40.7435 25.9254C40.4263 25.717 39.9823 25.5811 39.5384 25.5811Z" fill="white"/>
</svg>
