<svg width="91" height="59" viewBox="0 0 91 59" fill="none" xmlns="http://www.w3.org/2000/svg">
<path d="M60.6373 0L45.5 9.06607L30.3501 0L0 18.163V46H17.6141V39.8907H7.45551V21.2744L30.3501 7.57223L39.1634 12.847L30.2747 18.163V46H42.2437H51.4845H60.7002V18.163L51.8114 12.847L60.6248 7.57223L83.5193 21.2744V39.8907H72.5435V46H91V18.163L60.6373 0ZM53.2447 21.2744V39.8907H51.4971H42.2563H37.7427V21.2744L45.4874 16.6383L53.2447 21.2744Z" fill="#3263C9"/>
<path d="M3.16571 50C1.52723 50 0.424792 50.7843 0.424792 52.0294C0.424792 54.4608 4.19735 53.7059 4.19735 55C4.19735 55.4216 3.8029 55.6569 3.14549 55.6569C2.39704 55.6569 1.3654 55.2549 0.637188 54.6275L0 55.8922C0.799014 56.549 1.96214 56.9804 3.12526 56.9804C4.69294 56.9804 5.89652 56.2549 5.89652 54.9118C5.90664 52.4412 2.13408 53.1471 2.13408 51.8824C2.13408 51.5098 2.49818 51.3235 3.03423 51.3235C3.60062 51.3235 4.49066 51.598 5.23911 52.0294L5.85607 50.7451C5.14808 50.2941 4.1569 50 3.16571 50Z" fill="#3263C9"/>
<path d="M12.751 51.3529L12.7612 50.0686H7.67376V56.9314H9.27179V54.3333H12.4678V53.0392H9.27179V51.3529H12.751Z" fill="#3263C9"/>
<path d="M18.6954 56.9314H20.5058L18.9988 54.6667C19.8585 54.2745 20.3237 53.5098 20.3237 52.451C20.3237 50.9314 19.2719 50.0686 17.421 50.0686H14.3463V56.9314H15.9443V54.9706H17.421H17.5727L18.6954 56.9314ZM15.9443 53.6765V51.3529H17.421C18.3009 51.3529 18.8066 51.7353 18.8066 52.5C18.8066 53.2843 18.3009 53.6765 17.421 53.6765H15.9443Z" fill="#3263C9"/>
<path d="M33.1894 55.598L33.7457 56.9314H35.455L32.4309 50.0686H30.7823L27.7076 56.9314H29.3562L29.9125 55.598H33.1894ZM32.6736 54.3529H30.4384L31.5611 51.6863L32.6736 54.3529Z" fill="#3263C9"/>
<path d="M43.2609 56.9314V50.0686H41.7438V54.4804L38.305 50.0686H36.8486V56.9314H38.3758V52.5294L41.8045 56.9314H43.2609Z" fill="#3263C9"/>
<path d="M50.1495 55.598L50.7058 56.9314H52.4151L49.391 50.0686H47.7424L44.6677 56.9314H46.3163L46.8725 55.598H50.1495ZM49.6337 54.3529H47.3985L48.5211 51.6863L49.6337 54.3529Z" fill="#3263C9"/>
<path d="M55.4067 55.5784V50.0686H53.8087V56.9314H58.4409V55.5784H55.4067Z" fill="#3263C9"/>
<path d="M63.4551 54.7157L66.0342 50.0686H64.426L62.6561 53.1471L60.8456 50.0686H59.2375L61.8571 54.7549V56.9314H63.4551V54.7157Z" fill="#3263C9"/>
<path d="M72.6591 51.3824V50.0686H66.7423V51.3824H68.8966V56.9314H70.4947V51.3824H72.6591Z" fill="#3263C9"/>
<path d="M75.77 56.9314V50.0686H74.172V56.9314H75.77Z" fill="#3263C9"/>
<path d="M81.2668 50.0196C79.1226 50.0196 77.4942 51.5098 77.4942 53.4902C77.4942 55.4804 79.0923 57 81.2061 57C82.2378 57 83.32 56.5196 84.0684 55.7745L83.1278 54.7843C82.6221 55.2745 81.9242 55.5882 81.287 55.5882C80.0733 55.5882 79.1327 54.6667 79.1327 53.4706C79.1327 52.2745 80.0733 51.3627 81.287 51.3627C81.9445 51.3627 82.6423 51.7157 83.1278 52.2549L84.0583 51.1569C83.3604 50.4608 82.2883 50.0196 81.2668 50.0196Z" fill="#3263C9"/>
<path d="M88.2692 50C86.6307 50 85.5283 50.7843 85.5283 52.0294C85.5283 54.4608 89.3008 53.7059 89.3008 55C89.3008 55.4216 88.9064 55.6569 88.2489 55.6569C87.5005 55.6569 86.4689 55.2549 85.7406 54.6275L85.1035 55.8922C85.9025 56.549 87.0656 56.9804 88.2287 56.9804C89.7964 56.9804 91 56.2549 91 54.9118C91.0101 52.4412 87.2375 53.1471 87.2375 51.8824C87.2375 51.5098 87.6016 51.3235 88.1377 51.3235C88.7041 51.3235 89.5941 51.598 90.3426 52.0294L90.9595 50.7451C90.2515 50.2941 89.2604 50 88.2692 50Z" fill="#3263C9"/>
</svg>
