<svg width="14" height="18" viewBox="0 0 14 18" fill="none" xmlns="http://www.w3.org/2000/svg">
<g opacity="0.3">
<path d="M5.5303 15.937C5.66061 16.3623 5.96539 16.7107 6.36712 16.8936C6.76885 17.0767 7.22909 17.0767 7.6308 16.8936C8.03253 16.7107 8.33731 16.3623 8.46762 15.937C7.49104 16.0363 6.50699 16.0363 5.53027 15.937H5.5303Z" fill="white"/>
<path d="M12.3164 11.1886V8.34592C12.3124 7.18827 11.9396 6.06267 11.2534 5.1357C10.5671 4.20864 9.60369 3.52946 8.5057 3.19848V2.43501C8.48656 1.90504 8.19567 1.42342 7.73799 1.16393C7.28031 0.904341 6.7219 0.904341 6.26422 1.16393C5.80654 1.42341 5.51566 1.90504 5.49652 2.43501V3.1986V3.19849C4.39852 3.52947 3.43508 4.20864 2.74882 5.1357C2.06244 6.06276 1.68977 7.18835 1.68578 8.34592V11.1886C1.11948 11.6076 0.794434 12.1093 0.794434 12.6452C0.794434 14.2106 3.5723 15.4779 7.00014 15.4779C10.428 15.4779 13.2058 14.2106 13.2058 12.6452C13.2058 12.1093 12.8808 11.6076 12.3165 11.1886L12.3164 11.1886Z" fill="white"/>
</g>
</svg>
