<svg width="16" height="16" viewBox="0 0 16 16" fill="none" xmlns="http://www.w3.org/2000/svg">
<g opacity="0.3">
<path d="M15.8419 14.9159L11.6385 10.7125C12.7 9.40754 13.2203 7.74508 13.0923 6.06769C12.9642 4.3904 12.1975 2.82628 10.95 1.69762C9.70272 0.56907 8.06984 -0.0378751 6.38816 0.0018323C4.70645 0.0417086 3.10408 0.72516 1.91151 1.9115C0.7252 3.10412 0.0417294 4.70652 0.00183436 6.38816C-0.0378956 8.06987 0.569035 9.70272 1.69762 10.95C2.82632 12.1975 4.39044 12.9642 6.06769 13.0923C7.74497 13.2203 9.40747 12.7 10.7125 11.6385L14.9159 15.8419C15.0851 15.9868 15.316 16.036 15.5295 15.973C15.7429 15.9098 15.9099 15.7428 15.9731 15.5294C16.0361 15.3159 15.9869 15.085 15.842 14.9158L15.8419 14.9159ZM2.83754 10.2726C1.85176 9.28744 1.29777 7.95086 1.29747 6.55724C1.29717 5.16346 1.85059 3.82673 2.83592 2.8411C3.8214 1.85547 5.15798 1.30174 6.55176 1.30174C7.94538 1.30174 9.28211 1.85547 10.2674 2.8411C11.2529 3.82673 11.8063 5.16346 11.8061 6.55724C11.8058 7.95086 11.2516 9.28744 10.2658 10.2726C9.28489 11.2653 7.9473 11.824 6.55176 11.824C5.15607 11.824 3.81848 11.2653 2.83754 10.2726Z" fill="white"/>
</g>
</svg>
