<svg width="13" height="13" viewBox="0 0 13 13" fill="none" xmlns="http://www.w3.org/2000/svg">
<g clip-path="url(#clip0_1_994)">
<path d="M12.1329 6.87222C12.1329 3.53772 9.44635 0.834717 6.13285 0.834717C2.81785 0.835467 0.131348 3.53772 0.131348 6.87297C0.131348 9.88572 2.32585 12.3832 5.19385 12.8362V8.61747H3.67135V6.87297H5.19535V5.54172C5.19535 4.02897 6.0916 3.19347 7.46185 3.19347C8.11885 3.19347 8.8051 3.31122 8.8051 3.31122V4.79622H8.04835C7.3036 4.79622 7.0711 5.26197 7.0711 5.73972V6.87222H8.7346L8.4691 8.61672H7.07035V12.8355C9.93835 12.3825 12.1329 9.88497 12.1329 6.87222Z" fill="#699BF7"/>
</g>
<defs>
<clipPath id="clip0_1_994">
<rect width="12" height="12" fill="white" transform="translate(0.132812 0.835449)"/>
</clipPath>
</defs>
</svg>
  