<svg width="13" height="13" viewBox="0 0 13 13" fill="none" xmlns="http://www.w3.org/2000/svg">
<g clip-path="url(#clip0_1_985)">
<path d="M3.07567 5.38657C3.30623 4.68903 3.75119 4.08212 4.34707 3.65243C4.94295 3.22273 5.65931 2.99219 6.39396 2.9937C7.22674 2.9937 7.97968 3.28936 8.571 3.77325L10.2917 2.05301C9.24314 1.13892 7.89936 0.574707 6.39396 0.574707C4.06318 0.574707 2.05663 1.90419 1.0918 3.8516L3.07567 5.38657Z" fill="#EA4335"/>
<path d="M8.38475 9.45088C7.84764 9.79729 7.16565 9.98208 6.39398 9.98208C5.66225 9.98358 4.94859 9.75488 4.35404 9.32836C3.75948 8.90183 3.31416 8.29909 3.08111 7.60547L1.09033 9.11678C1.57878 10.1054 2.3347 10.9373 3.27221 11.5178C4.20973 12.0984 5.29127 12.4044 6.39398 12.4011C7.83926 12.4011 9.21999 11.8871 10.2543 10.9228L8.38524 9.45088H8.38475Z" fill="#3263C9"/>
<path d="M10.2541 10.9228C11.3358 9.91365 12.0379 8.41169 12.0379 6.48794C12.0379 6.13807 11.9842 5.76209 11.9039 5.41272H6.3938V7.69768H9.56524C9.40904 8.4659 8.98871 9.06067 8.38507 9.45094L10.2541 10.9228Z" fill="#3263C9"/>
<path d="M3.0811 7.60546C2.96054 7.2452 2.8993 6.86775 2.89976 6.48786C2.89976 6.10252 2.96136 5.73245 3.07568 5.38653L1.0918 3.85156C0.685947 4.67088 0.476731 5.57354 0.48077 6.48786C0.48077 7.43397 0.700051 8.32588 1.09032 9.11677L3.0811 7.60546Z" fill="#FBBC05"/>
</g>
<defs>
<clipPath id="clip0_1_985">
<rect width="11.8264" height="11.8264" fill="white" transform="translate(0.480713 0.574707)"/>
</clipPath>
</defs>
</svg>
