<svg width="19" height="19" viewBox="0 0 19 19" fill="none" xmlns="http://www.w3.org/2000/svg">
<path fill-rule="evenodd" clip-rule="evenodd" d="M2.17863 3.07278C1.39618 3.07278 0.75 3.71502 0.75 4.49751V8.64262C0.75 9.42508 1.39618 10.0703 2.17863 10.0703H8.72217C8.85483 10.0708 8.9822 10.0187 9.07636 9.92521C9.17053 9.83188 9.22368 9.70493 9.22423 9.57227C9.22465 9.43905 9.17192 9.31099 9.07776 9.21682C8.98345 9.12252 8.85553 9.06979 8.72217 9.07035H2.17863C1.93283 9.07035 1.74994 8.88844 1.74994 8.64262V4.49751C1.74994 4.25171 1.93283 4.06979 2.17863 4.06979H16.3214C16.5672 4.06979 16.7491 4.2517 16.7491 4.49751V8.64262C16.7491 8.84378 16.6216 8.99933 16.4464 9.05178H16.4462C16.3189 9.08972 16.2117 9.17691 16.1487 9.29395C16.0856 9.41113 16.0718 9.54854 16.1105 9.67575C16.1894 9.93926 16.4666 10.0894 16.7305 10.0117C17.3206 9.8352 17.75 9.28321 17.75 8.6426V4.49749C17.75 3.71504 17.1038 3.07275 16.3214 3.07275L2.17863 3.07278ZM10.5992 7.30967H10.5993C10.5066 7.30688 10.4149 7.32989 10.3346 7.37607C10.1708 7.47163 10.0751 7.65158 10.0875 7.8409L10.4312 13.4734C10.4414 13.6457 10.5396 13.8007 10.6911 13.8833C10.8426 13.9659 11.0261 13.9645 11.1765 13.8797L12.2174 13.285L13.6157 15.6803H13.6156C13.7544 15.9167 14.0575 15.9971 14.2954 15.861L15.7787 15.0163H15.7785C15.8946 14.9502 15.9794 14.8406 16.0142 14.7117C16.0488 14.5826 16.0305 14.4452 15.9631 14.3299L14.5687 11.9453L15.6018 11.3554H15.6019C15.7529 11.2689 15.8482 11.1102 15.8533 10.9362C15.8586 10.7623 15.773 10.5982 15.6272 10.5029L10.8589 7.39081C10.7813 7.34031 10.6915 7.31227 10.5992 7.30976L10.5992 7.30967ZM11.1431 8.77151L14.3949 10.8896L13.6342 11.3251C13.5188 11.3918 13.4348 11.5018 13.4009 11.6307C13.367 11.7596 13.386 11.8967 13.4535 12.0116L14.8452 14.3962L14.2329 14.7467L12.8297 12.3514C12.6909 12.1156 12.3884 12.0351 12.1508 12.1707L11.3794 12.6102L11.1431 8.77151Z" fill="#3263C9"/>
</svg>
