<svg width="174" height="125" viewBox="0 0 174 125" fill="none" xmlns="http://www.w3.org/2000/svg">
<g clip-path="url(#clip0_1_22255)">
<rect x="0.5" width="173" height="125" rx="16" fill="#FCFCFC"/>
<path d="M124.75 98.3879H49.2505C47.3274 98.3879 45.4834 97.6243 44.1236 96.2644C42.7643 94.9045 42 93.0605 42 91.1374V31.9624C42 30.0393 42.7642 28.1953 44.1236 26.8355C45.4834 25.4756 47.3274 24.7119 49.2505 24.7119H124.75C126.673 24.7119 128.517 25.4756 129.876 26.8355C131.236 28.1953 132 30.0393 132 31.9624V91.1374C132 93.0605 131.236 94.9045 129.876 96.2644C128.517 97.6242 126.673 98.3879 124.75 98.3879ZM49.2505 30.3652C48.3686 30.3652 47.6532 31.0801 47.6532 31.9626V91.1376C47.6532 92.02 48.3686 92.7349 49.2505 92.7349H124.75C125.626 92.7272 126.333 92.0144 126.333 91.1376V31.9626C126.333 31.0858 125.626 30.373 124.75 30.3652H49.2505Z" fill="#1F3559" fill-opacity="0.3"/>
<path d="M59.0746 86.1339H114.914C115.514 86.1508 116.097 85.9422 116.55 85.5485C117.003 85.1553 117.29 84.606 117.357 84.0104C117.422 83.4142 117.263 82.8155 116.907 82.3319L109.205 71.8736C108.798 71.3103 108.166 70.9526 107.474 70.8925C106.782 70.8329 106.098 71.0775 105.601 71.5627L97.6863 79.0958L79.3133 54.1512C78.8493 53.519 78.1036 53.1542 77.3194 53.1768C76.5351 53.1994 75.812 53.6059 75.3844 54.2642L57.0115 82.4453C56.6939 82.9346 56.5664 83.522 56.6528 84.098C56.7386 84.6747 57.032 85.1999 57.4786 85.5746C57.9247 85.9498 58.4917 86.1488 59.0746 86.1339Z" fill="#1F3559" fill-opacity="0.3"/>
<path d="M112.75 46.0812C112.75 50.7097 108.998 54.4623 104.369 54.4623C99.7404 54.4623 95.9883 50.7097 95.9883 46.0812C95.9883 41.4523 99.7405 37.7002 104.369 37.7002C108.998 37.7002 112.75 41.4524 112.75 46.0812Z" fill="#1F3559" fill-opacity="0.3"/>
</g>
<rect x="1" y="0.5" width="172" height="124" rx="15.5" stroke="#1F3559" stroke-opacity="0.3"/>
<defs>
<clipPath id="clip0_1_22255">
<rect x="0.5" width="173" height="125" rx="16" fill="white"/>
</clipPath>
</defs>
</svg>
