<svg width="13" height="18" viewBox="0 0 13 18" fill="none" xmlns="http://www.w3.org/2000/svg">
<path d="M11.6883 2.04688H10.3912C10.2048 2.75972 9.55828 3.29016 8.78749 3.29016H4.22904C3.45825 3.29016 2.80974 2.75972 2.62529 2.04688H1.32825C0.870366 2.04688 0.499512 2.41773 0.499512 2.87561V16.9654C0.499512 17.4212 0.870366 17.7941 1.32825 17.7941H11.6884C12.1442 17.7941 12.5171 17.4212 12.5171 16.9654V2.87561C12.5171 2.41773 12.1442 2.04688 11.6884 2.04688H11.6883ZM6.30102 4.94763H8.37304C8.60098 4.94763 8.78741 5.13206 8.78741 5.362C8.78741 5.58993 8.60096 5.77637 8.37304 5.77637L6.30102 5.77651C6.07107 5.77651 5.88666 5.59006 5.88666 5.36214C5.88666 5.13205 6.07108 4.94763 6.30102 4.94763V4.94763ZM4.64352 15.7221C4.64352 15.9501 4.45707 16.1365 4.22915 16.1365H2.15698C1.92703 16.1365 1.74261 15.9501 1.74261 15.7221V13.6501C1.74261 13.4202 1.92704 13.2358 2.15698 13.2358H4.229C4.45693 13.2358 4.64337 13.4202 4.64337 13.6501L4.64352 15.7221ZM4.64352 11.5781C4.64352 11.806 4.45707 11.9925 4.22915 11.9925H2.15698C1.92703 11.9925 1.74261 11.806 1.74261 11.5781V9.50608C1.74261 9.27613 1.92704 9.09171 2.15698 9.09171H4.229C4.45693 9.09171 4.64337 9.27614 4.64337 9.50608L4.64352 11.5781ZM4.64352 7.43406C4.64352 7.66199 4.45707 7.84843 4.22915 7.84843H2.15698C1.92703 7.84843 1.74261 7.66198 1.74261 7.43406V5.36204C1.74261 5.13209 1.92704 4.94767 2.15698 4.94767H4.229C4.45693 4.94767 4.64337 5.13209 4.64337 5.36204L4.64352 7.43406ZM10.8596 16.1366H6.30114C6.07119 16.1366 5.88677 15.9501 5.88677 15.7222C5.88677 15.4922 6.07119 15.3078 6.30114 15.3078H10.8596C11.0875 15.3078 11.2739 15.4922 11.2739 15.7222C11.2741 15.9501 11.0876 16.1366 10.8597 16.1366H10.8596ZM5.88673 13.6502C5.88673 13.4202 6.07116 13.2358 6.3011 13.2358H8.37312C8.60105 13.2358 8.78749 13.4202 8.78749 13.6502C8.78749 13.8781 8.60104 14.0645 8.37312 14.0645H6.3011C6.07115 14.0645 5.88673 13.8781 5.88673 13.6502ZM10.8596 11.9925H6.30114C6.07119 11.9925 5.88677 11.8061 5.88677 11.5781C5.88677 11.3482 6.07119 11.1638 6.30114 11.1638H10.8596C11.0875 11.1638 11.2739 11.3482 11.2739 11.5781C11.2741 11.8061 11.0876 11.9925 10.8597 11.9925H10.8596ZM5.88673 9.50612C5.88673 9.27617 6.07116 9.09175 6.3011 9.09175H8.37312C8.60105 9.09175 8.78749 9.27618 8.78749 9.50612C8.78749 9.73405 8.60104 9.92049 8.37312 9.92049H6.3011C6.07115 9.92049 5.88673 9.73404 5.88673 9.50612ZM10.8596 7.84846H6.30114C6.07119 7.84846 5.88677 7.66201 5.88677 7.4341C5.88677 7.20415 6.07119 7.01973 6.30114 7.01973H10.8596C11.0875 7.01973 11.2739 7.20415 11.2739 7.4341C11.2741 7.66203 11.0876 7.84846 10.8597 7.84846H10.8596Z" fill="#7E7E8A"/>
<path d="M4.22961 2.45156H8.78806C9.24391 2.45156 9.6168 2.07867 9.6168 1.62282C9.6168 1.16494 9.24391 0.79409 8.78806 0.79409L4.22961 0.793945C3.77173 0.793945 3.40088 1.1648 3.40088 1.62268C3.40088 2.07867 3.77173 2.45156 4.22961 2.45156V2.45156Z" fill="#7E7E8A"/>
</svg>
