<svg width="24" height="24" viewBox="0 0 24 24" fill="none" xmlns="http://www.w3.org/2000/svg">
<path d="M3.54162 23H19.5604C20.835 23 21.8779 21.9572 21.8779 20.6826V4.48996C21.8779 3.21535 20.835 2.17253 19.5604 2.17253H17.0693V1.15858C17.0693 0.521305 16.548 0 15.9107 0C15.2734 0 14.7521 0.521305 14.7521 1.15858V2.17253H8.35037V1.15858C8.35037 0.521305 7.82906 0 7.19178 0C6.55451 0 6.0332 0.521305 6.0332 1.15858V2.17253H3.54203C2.26743 2.17253 1.22461 3.21535 1.22461 4.48996V20.6536C1.22441 21.9571 2.26722 22.9999 3.54182 22.9999L3.54162 23ZM3.54162 20.6826V10.8917H19.5604V20.6536L3.54162 20.6538V20.6826ZM6.03279 4.48996V6.0832C6.03279 6.72048 6.55409 7.24178 7.19137 7.24178C7.82865 7.24178 8.34995 6.72048 8.34995 6.0832V4.48996H14.7807V6.0832C14.7807 6.72048 15.302 7.24178 15.9392 7.24178C16.5765 7.24178 17.0978 6.72048 17.0978 6.0832V4.48996H19.589V8.57437H3.54172V4.48996H6.03279Z" fill="#3263C9" fill-opacity="0.4"/>
</svg>
