<svg width="24" height="24" viewBox="0 0 24 24" fill="none" xmlns="http://www.w3.org/2000/svg">
<path d="M11.5885 19.7145C11.8309 19.9011 12.1685 19.9011 12.4109 19.7145C12.6874 19.5022 19.1721 14.4296 19.1721 8.38695C19.1721 5.82461 17.805 3.45692 15.5862 2.17581C13.3671 0.894522 10.6328 0.894522 8.41385 2.17581C6.19499 3.4571 4.82788 5.82479 4.82788 8.38695C4.82788 14.4302 11.3261 19.5026 11.5891 19.7145H11.5885ZM11.9997 4.85105C12.8641 4.85105 13.6931 5.19453 14.3044 5.80577C14.9154 6.41678 15.2589 7.24601 15.2589 8.11022C15.2589 8.97466 14.9154 9.80365 14.3044 10.4149C13.6931 11.0261 12.8641 11.3694 11.9997 11.3694C11.1353 11.3694 10.3063 11.0261 9.69502 10.4149C9.08402 9.80365 8.74054 8.97466 8.74054 8.11022C8.74148 7.24625 9.0852 6.41774 9.69622 5.80674C10.3072 5.19574 11.1355 4.85202 11.9997 4.85105ZM17.3924 22.111C17.3924 22.2897 17.3214 22.4613 17.195 22.5876C17.0685 22.7141 16.8971 22.7851 16.7182 22.7851H7.28109C6.9087 22.7851 6.60684 22.4834 6.60684 22.111C6.60684 21.7387 6.9087 21.437 7.28109 21.437H16.7182C16.8971 21.437 17.0685 21.508 17.195 21.6345C17.3214 21.7608 17.3924 21.9324 17.3924 22.1111V22.111Z" fill="#52516A"/>
</svg>
