<svg width="25" height="25" viewBox="0 0 25 25" fill="none" xmlns="http://www.w3.org/2000/svg">
<path d="M19.3921 5.21777H5.60779C4.97539 5.21777 4.369 5.46889 3.92194 5.91608C3.47473 6.36314 3.22363 6.96953 3.22363 7.60193V17.3983C3.22363 18.0307 3.47475 18.6371 3.92194 19.0842C4.369 19.5314 4.97539 19.7825 5.60779 19.7825H19.3921C20.0245 19.7825 20.6309 19.5314 21.0779 19.0842C21.5251 18.6371 21.7763 18.0307 21.7763 17.3983V7.60193C21.7763 6.96953 21.5251 6.36314 21.0779 5.91608C20.6309 5.46888 20.0245 5.21777 19.3921 5.21777ZM20.4758 17.3982C20.4758 17.6856 20.3616 17.9614 20.1584 18.1646C19.9552 18.3678 19.6796 18.4819 19.3921 18.4819H5.60778C5.32023 18.4819 5.04462 18.3678 4.84143 18.1646C4.63824 17.9614 4.5241 17.6857 4.5241 17.3982V7.60185C4.5241 7.31445 4.63824 7.03869 4.84143 6.8355C5.04462 6.63231 5.32022 6.51817 5.60778 6.51817H19.3921C19.6796 6.51817 19.9552 6.63231 20.1584 6.8355C20.3616 7.03869 20.4758 7.31445 20.4758 7.60185V17.3982Z" fill="#7E7E8A"/>
<path d="M18.2868 10.1161H14.2339C14.0596 10.1101 13.8907 10.1766 13.7673 10.2999C13.6441 10.4232 13.5776 10.5922 13.5836 10.7663C13.5836 10.9388 13.6521 11.1042 13.7741 11.2261C13.896 11.3481 14.0614 11.4166 14.2339 11.4166H18.2868C18.4575 11.4111 18.6199 11.3408 18.7405 11.2202C18.8613 11.0994 18.9316 10.937 18.937 10.7663C18.937 10.594 18.8686 10.4286 18.7466 10.3066C18.6247 10.1847 18.4593 10.1161 18.2868 10.1161V10.1161Z" fill="#7E7E8A"/>
<path d="M18.2868 13.5835H14.2339C14.0614 13.5835 13.896 13.652 13.7741 13.774C13.6521 13.8958 13.5836 14.0612 13.5836 14.2337C13.5776 14.4079 13.6441 14.5769 13.7673 14.7001C13.8907 14.8235 14.0596 14.89 14.2339 14.884H18.2868C18.4593 14.884 18.6247 14.8153 18.7466 14.6935C18.8686 14.5715 18.937 14.4061 18.937 14.2337C18.9316 14.0631 18.8613 13.9007 18.7405 13.7799C18.6199 13.6592 18.4575 13.5889 18.2868 13.5835V13.5835Z" fill="#7E7E8A"/>
<path d="M11.9149 8.51221H6.71323C6.54255 8.51765 6.38018 8.5878 6.25952 8.70859C6.13873 8.82939 6.06843 8.9916 6.06299 9.16246V15.8379C6.06843 16.0087 6.13873 16.1709 6.25952 16.2917C6.38017 16.4125 6.54254 16.4827 6.71323 16.4881H11.9149C12.0874 16.4881 12.2528 16.4196 12.3746 16.2978C12.4966 16.1758 12.5651 16.0104 12.5651 15.8379V9.16246C12.5651 8.98997 12.4966 8.82457 12.3746 8.70256C12.2528 8.58071 12.0874 8.51222 11.9149 8.51222V8.51221ZM11.2646 15.1876H7.3634L7.36355 9.81261H11.2648L11.2646 15.1876Z" fill="#7E7E8A"/>
</svg>
