<svg width="35" height="34" viewBox="0 0 35 34" fill="none" xmlns="http://www.w3.org/2000/svg">
<path fill-rule="evenodd" clip-rule="evenodd" d="M21.4868 29.5588C21.4868 29.798 21.2931 29.9921 21.0535 29.9921H20.1868C19.9472 29.9921 19.7535 29.798 19.7535 29.5588C19.7535 29.3196 19.9472 29.1254 20.1868 29.1254H21.0535C21.2931 29.1254 21.4868 29.3196 21.4868 29.5588ZM30.1536 29.5588C30.1536 29.798 29.9599 29.9921 29.7203 29.9921H22.7867C22.5471 29.9921 22.3534 29.798 22.3534 29.5588C22.3534 29.3196 22.5471 29.1254 22.7867 29.1254H29.7203C29.9599 29.1254 30.1536 29.3196 30.1536 29.5588ZM18.0205 29.5588C18.0205 29.798 17.8268 29.9921 17.587 29.9921H13.2538C13.0142 29.9921 12.8205 29.798 12.8205 29.5588C12.8205 29.3196 13.0142 29.1254 13.2538 29.1254H17.587C17.8268 29.1254 18.0205 29.3196 18.0205 29.5588ZM24.9536 18.2921C24.9536 18.5313 24.7599 18.7253 24.5203 18.7253H21.0536C20.814 18.7253 20.6204 18.5313 20.6204 18.2921C20.6204 18.0529 20.8141 17.8588 21.0536 17.8588H24.5203C24.7599 17.8588 24.9536 18.0529 24.9536 18.2921ZM21.0536 15.2588H25.3869C25.6266 15.2588 25.8203 15.4529 25.8203 15.6921C25.8203 15.9313 25.6266 16.1254 25.3869 16.1254H21.0536C20.814 16.1254 20.6204 15.9313 20.6204 15.6921C20.6204 15.4529 20.8141 15.2588 21.0536 15.2588ZM20.6204 13.0921C20.6204 12.8529 20.8141 12.6588 21.0536 12.6588H23.6536C23.8932 12.6588 24.0869 12.8529 24.0869 13.0921C24.0869 13.3313 23.8932 13.5254 23.6536 13.5254H21.0536C20.814 13.5254 20.6204 13.3313 20.6204 13.0921ZM18.0204 14.8254V17.8588H16.7204V16.5588C16.7204 16.3196 16.5267 16.1254 16.2869 16.1254C16.0474 16.1254 15.8537 16.3196 15.8537 16.5588V17.8588H14.5537V14.8254C14.5537 14.7523 14.5306 14.6868 14.4991 14.6261L16.2869 12.8382L18.075 14.6261C18.0433 14.6868 18.0204 14.7523 18.0204 14.8254H18.0204ZM16.5935 11.9191C16.4239 11.7497 16.15 11.7497 15.9806 11.9191L12.9474 14.9523C12.778 15.1219 12.778 15.3957 12.9474 15.5651C13.1168 15.7345 13.3906 15.7345 13.56 15.5651L13.687 15.4382V18.2921C13.687 18.5313 13.8807 18.7253 14.1204 18.7253H18.4537C18.6932 18.7253 18.8869 18.5313 18.8869 18.2921V15.4382L19.0139 15.5651C19.0984 15.6496 19.2094 15.6921 19.3204 15.6921C19.4312 15.6921 19.5422 15.6496 19.6267 15.5651C19.7961 15.3957 19.7961 15.1219 19.6267 14.9523L16.5935 11.9191ZM14.5537 9.62541C14.5537 9.3862 14.7474 9.19215 14.9869 9.19215H23.6537C23.8933 9.19215 24.087 9.3862 24.087 9.62541C24.087 9.86463 23.8933 10.0589 23.6537 10.0589H14.9869C14.7474 10.0589 14.5537 9.86463 14.5537 9.62541ZM24.9536 7.45889V9.62541C24.9536 9.86463 25.1473 10.0589 25.3869 10.0589H26.2536C26.9704 10.0589 27.5536 10.6421 27.5536 11.3589V20.0252C27.5536 20.7419 26.9704 21.3251 26.2536 21.3251H12.3869C11.6701 21.3251 11.0869 20.7419 11.0869 20.0252V11.3589C11.0869 10.6421 11.6701 10.0589 12.3869 10.0589H13.2536C13.4932 10.0589 13.6869 9.86463 13.6869 9.62541V7.45889H24.9536ZM12.3869 9.19215C11.1923 9.19215 10.2203 10.1641 10.2203 11.3589V20.0252C10.2203 21.2199 11.1923 22.1919 12.3869 22.1919H26.2536C27.4482 22.1919 28.4203 21.2199 28.4203 20.0252V11.3589C28.4203 10.1641 27.4482 9.19215 26.2536 9.19215H25.8203V7.45889H29.7203C29.9599 7.45889 30.1536 7.26465 30.1536 7.02544C30.1536 6.78623 29.9599 6.59217 29.7203 6.59217H8.4868V5.29218C8.4868 4.57542 7.90357 3.99219 7.18681 3.99219C6.47005 3.99219 5.88682 4.57542 5.88682 5.29218V29.1252H4.58683C4.34725 29.1252 4.15356 29.3194 4.15356 29.5586C4.15356 29.7978 4.34726 29.9919 4.58683 29.9919H10.6536C10.8932 29.9919 11.0869 29.7978 11.0869 29.5586C11.0869 29.3194 10.8932 29.1252 10.6536 29.1252H8.4869V8.75897C8.4869 8.51976 8.2932 8.32553 8.05363 8.32553C7.81405 8.32553 7.62036 8.51976 7.62036 8.75897V29.1252H6.75364V5.29218C6.75364 5.05333 6.94769 4.85891 7.18691 4.85891C7.42612 4.85891 7.62036 5.05333 7.62036 5.29218V7.02544C7.62036 7.26465 7.81405 7.45889 8.05362 7.45889H12.8204V9.19215H12.3869Z" fill="#94959E"/>
</svg>
