<svg width="34" height="34" viewBox="0 0 34 34" fill="none" xmlns="http://www.w3.org/2000/svg">
<path d="M20.7541 11.6448C21.3317 12.1965 20.5403 13.1179 19.9252 12.5662L15.8727 9.00485C15.6364 8.78745 15.3271 8.66676 15.0062 8.66676C14.6852 8.66676 14.3759 8.78745 14.1396 9.00485L6.81749 15.4805C6.5044 15.733 6.33314 16.1219 6.35833 16.5234V27.3575C6.34825 27.7161 6.48203 28.064 6.73005 28.3234C6.97807 28.5827 7.31959 28.7322 7.67843 28.7382H24.8066C24.8862 28.7429 24.9642 28.7146 25.0222 28.6598C25.0802 28.6052 25.1129 28.5291 25.1129 28.4493V23.4293C25.1129 23.0487 25.2398 22.679 25.4737 22.3786C25.7074 22.0782 26.0348 21.8646 26.4039 21.7713C26.5571 21.7107 26.8025 21.5576 26.7708 21.3438L26.1932 15.1425C26.1644 14.8969 25.8263 14.7756 25.5809 14.7756H22.0454C21.8288 14.7756 21.4677 14.8969 21.4677 15.1425L20.8784 21.3324C20.8466 21.5462 21.0634 21.6993 21.2453 21.76C21.6142 21.8531 21.9416 22.0668 22.1755 22.3672C22.4094 22.6674 22.5364 23.0371 22.5364 23.4179V27.0832C22.5364 27.8804 21.3087 27.8804 21.3087 27.0832V23.4294C21.3093 23.1971 21.1375 23.0006 20.9072 22.9702C20.1706 22.7536 19.5583 22.0489 19.6508 21.2371L20.2284 15.0358C20.2891 14.1144 21.1788 13.5021 22.0395 13.5021L25.5748 13.5019C26.0203 13.4854 26.4561 13.6345 26.798 13.9204C27.1399 14.2063 27.3638 14.6089 27.4265 15.0501L28.0041 21.2514C28.022 21.6445 27.9035 22.0317 27.6688 22.3476C27.4341 22.6633 27.0974 22.8884 26.7158 22.9845C26.4994 23.03 26.3457 23.2227 26.3489 23.4439V28.4639C26.3475 28.8717 26.1843 29.2622 25.895 29.5497C25.6059 29.8372 25.2144 29.9984 24.8066 29.9976H7.67837C6.98526 29.9923 5.75175 30.0522 5.26759 29.5565C5.09904 29.5565 5.08815 28.0505 5.09904 27.3576V16.5235C5.08695 15.7686 5.41335 15.0481 5.98856 14.5593L13.3251 8.08362C13.7863 7.66172 14.3885 7.4278 15.0135 7.4278C15.6382 7.4278 16.2407 7.66171 16.7016 8.08362L20.7541 11.6448ZM10.7773 16.8615H14.3704C14.7913 16.8696 15.1925 17.0406 15.4899 17.3386C15.7872 17.6364 15.9575 18.0379 15.9649 18.4588V21.558C15.9575 21.9785 15.787 22.3798 15.4897 22.6772C15.1923 22.9745 14.7909 23.145 14.3705 23.1525H10.7773C10.352 23.1511 9.94398 22.9836 9.64013 22.6858C9.33631 22.3879 9.16081 21.9833 9.15114 21.558V18.4588C9.15497 18.0313 9.32844 17.6229 9.63349 17.3233C9.93832 17.0237 10.3497 16.8577 10.7773 16.8615ZM14.3704 18.0891H10.7773C10.575 18.0921 10.412 18.2563 10.4104 18.4588V21.558C10.412 21.7599 10.5754 21.9233 10.7773 21.9249H14.3704C14.5671 21.911 14.7234 21.7546 14.7373 21.558V18.4588C14.7236 18.2616 14.5675 18.1042 14.3704 18.0891ZM23.8243 7.43969C24.5067 7.41652 25.1691 7.6714 25.6602 8.14606C26.151 8.62054 26.4282 9.27414 26.4282 9.95693C26.4282 10.6397 26.151 11.2931 25.6602 11.7678C25.1692 12.2423 24.5067 12.4972 23.8243 12.474C22.9452 12.4443 22.1453 11.9582 21.7142 11.1916C21.283 10.425 21.283 9.48886 21.7142 8.72225C22.1454 7.95563 22.9452 7.46951 23.8243 7.43969ZM23.8243 8.66732C23.4816 8.66732 23.1531 8.80331 22.911 9.04569C22.6688 9.28807 22.5328 9.61666 22.5332 9.9594C22.5334 10.3019 22.6698 10.6303 22.9124 10.8723C23.1548 11.1143 23.4836 11.2501 23.8261 11.2495C24.1688 11.2489 24.497 11.1123 24.739 10.8697C24.9808 10.6269 25.1162 10.2981 25.1154 9.95534C25.1131 9.61444 24.9765 9.28802 24.7356 9.04709C24.4944 8.80592 24.168 8.66952 23.8271 8.6673L23.8243 8.66732ZM20.5402 7.96255C21.1525 8.48235 20.3236 9.40675 19.7113 8.88111L15.9042 5.56801C15.6548 5.35928 15.3399 5.24504 15.0147 5.24504C14.6895 5.24504 14.3746 5.35928 14.1251 5.56801L9.85598 9.28249C9.66619 9.44105 9.40165 9.47491 9.17799 9.36973C8.95435 9.26436 8.8119 9.0387 8.81331 8.79149V7.56386C8.81411 7.49859 8.78833 7.43572 8.74219 7.38938C8.69605 7.34325 8.63299 7.31766 8.56771 7.31846H6.6037C6.53822 7.31766 6.47536 7.34325 6.42922 7.38938C6.38288 7.43572 6.35729 7.49859 6.3581 7.56386V12.0437C6.33976 12.2323 6.25232 12.4072 6.1125 12.5349L3.04218 15.1749C2.91928 15.2912 2.75306 15.3508 2.58422 15.3393C2.41518 15.3278 2.25863 15.2462 2.15265 15.1143C1.93546 14.8564 1.96226 14.4727 2.2133 14.2477L5.00638 11.8243C5.06521 11.7812 5.09966 11.7123 5.09886 11.6394V7.19413C5.10329 6.9024 5.22136 6.62393 5.42788 6.41803C5.63439 6.21192 5.91324 6.09446 6.20496 6.09083H8.94022C9.19993 6.08418 9.45318 6.17001 9.65546 6.33301C9.85754 6.496 9.99515 6.72549 10.0437 6.98037C10.0459 7.06942 10.1096 7.14497 10.1968 7.1625C10.2772 7.20098 10.3729 7.1899 10.4422 7.13349L13.2988 4.64663C13.7691 4.23178 14.3745 4.00293 15.0015 4.00293C15.6287 4.00293 16.2341 4.23181 16.7044 4.64663L20.5402 7.96255Z" fill="#94959E" stroke="white" stroke-width="0.4"/>
<rect x="15.3423" y="28.9316" width="7.72192" height="0.861572" rx="0.430786" fill="#94959E"/>
<rect x="24.0645" y="28.9316" width="5.20593" height="0.861572" rx="0.430786" fill="#94959E"/>
<rect x="30.27" y="28.9316" width="1.72412" height="0.861572" rx="0.430786" fill="#94959E"/>
<rect x="2.29395" y="28.9414" width="6.93262" height="0.861572" rx="0.430786" fill="#94959E"/>
</svg>
