<svg width="35" height="34" viewBox="0 0 35 34" fill="none" xmlns="http://www.w3.org/2000/svg">
<path d="M10.7013 16.4018L14.0785 17.9676L14.0783 17.9678C14.271 18.0458 14.491 17.9603 14.5805 17.7729C14.6702 17.5853 14.5982 17.3606 14.4165 17.2599L11.0393 15.6941C10.6088 15.4803 10.2709 16.1564 10.7013 16.4018V16.4018ZM25.9635 23.3352C25.9635 23.9794 24.9495 23.9794 24.9495 23.3352V16.5236C24.962 16.0851 24.7827 15.6631 24.4584 15.3679L17.0572 8.81882C16.792 8.58023 16.4476 8.44804 16.0909 8.44804C15.734 8.44804 15.3896 8.58023 15.1245 8.81882L10.9471 12.5342C10.456 12.9646 9.7916 12.1962 10.271 11.7658L14.4484 8.08231C14.8962 7.6817 15.4757 7.46021 16.0765 7.46021C16.6772 7.46021 17.2568 7.68168 17.7043 8.08231L25.103 14.6226C25.6598 15.0962 25.9774 15.7928 25.9696 16.5237L25.9635 23.3352ZM28.9103 14.3135C29.4014 14.744 28.7571 15.5123 28.2661 15.0819L17.0571 5.35197C16.7788 5.12789 16.4322 5.00557 16.0749 5.00557C15.7174 5.00557 15.3708 5.12789 15.0925 5.35197L10.7938 9.10761C10.6479 9.2388 10.4385 9.27185 10.2592 9.19184C10.0801 9.11204 9.9646 8.93411 9.9648 8.73783V7.34538C9.96561 7.28009 9.94001 7.21721 9.89367 7.17086C9.84752 7.12472 9.78465 7.09913 9.71916 7.09993H7.47751C7.40557 7.08905 7.33242 7.10981 7.27701 7.15676C7.22179 7.20391 7.18935 7.27263 7.18854 7.34538V11.982C7.20104 12.1342 7.13716 12.2825 7.01806 12.3778L3.91532 15.0819C3.42423 15.5124 2.77998 14.744 3.27109 14.3135L6.12534 11.8291C6.18015 11.7825 6.2136 11.7158 6.21783 11.6441V7.09992C6.21925 6.83694 6.32222 6.58505 6.50539 6.39642C6.68857 6.20801 6.93744 6.09757 7.20002 6.08871H9.96482C10.231 6.09596 10.4843 6.20478 10.6728 6.39279C10.8614 6.5808 10.9708 6.83371 10.9789 7.09991C10.9793 7.19401 11.0341 7.27946 11.1195 7.31895C11.2048 7.35865 11.3055 7.34515 11.3775 7.28469L14.4483 4.61544C14.9015 4.21826 15.4839 3.99943 16.0864 4C16.6898 4.00988 17.2711 4.22711 17.7332 4.61544L28.9103 14.3135ZM4.06822 27.3596H14.0783C14.3401 27.3555 14.5922 27.4579 14.7774 27.6429C14.9624 27.8279 15.0645 28.0802 15.0607 28.3417V29.0178C15.0591 29.2778 14.9551 29.5268 14.7713 29.7106C14.5873 29.8946 14.3385 29.9984 14.0783 30H4.06821C3.80825 29.9984 3.55918 29.8946 3.37539 29.7106C3.1914 29.5268 3.08763 29.2778 3.08601 29.0178V28.3417C3.08279 28.0804 3.18536 27.8287 3.37015 27.6437C3.55513 27.4589 3.80683 27.3564 4.06818 27.3596L4.06822 27.3596ZM13.8327 28.3417H4.34525C4.27996 28.3409 4.21708 28.3665 4.17094 28.4129C4.12459 28.459 4.099 28.5219 4.0998 28.5874V28.7405C4.099 28.8058 4.12459 28.8687 4.17094 28.9148C4.21708 28.9612 4.27996 28.9868 4.34525 28.986H13.8327C13.9647 28.9775 14.0699 28.8723 14.0782 28.7405V28.5874C14.0699 28.4554 13.9647 28.3502 13.8327 28.3417ZM22.2482 24.0749L28.6358 27.0532C28.8285 27.177 28.9712 27.365 29.0385 27.584C29.1056 27.8031 29.0929 28.0388 29.0026 28.2492L28.4509 29.4482C28.3408 29.6725 28.1484 29.8456 27.9134 29.9313C27.6787 30.0169 27.4199 30.0085 27.1914 29.9075L20.8962 26.961C20.6531 26.839 20.478 26.6139 20.4196 26.3484C20.3936 26.2766 20.3378 26.2198 20.2664 26.1924L14.5087 23.4913C14.4136 23.4492 14.3034 23.4613 14.2197 23.5231C14.0378 23.6926 13.8129 23.8091 13.5695 23.8601C13.3263 23.9108 13.0735 23.8943 12.8388 23.8119L12.6193 23.7079C12.4924 23.6499 12.3425 23.7039 12.2812 23.8292L12.0819 24.2222C12.0539 24.2917 12.0539 24.3693 12.0819 24.4388C12.2435 24.7915 12.2328 25.1987 12.0531 25.5425C12.0478 25.5748 12.037 25.606 12.0212 25.6348C11.6226 26.2503 10.9147 26.5563 10.2417 26.2126L6.86164 24.6468C6.53438 24.4856 6.2817 24.2045 6.15634 23.8617C6.03099 23.5189 6.04248 23.141 6.18858 22.8065C6.18858 22.8065 6.2174 22.7431 6.24924 22.7431C6.58718 22.2232 7.13892 22.0988 7.19979 21.9457L9.5948 16.7889H9.5946C9.64619 16.6996 9.64619 16.5894 9.5946 16.5001C9.46341 16.1582 9.4741 15.7779 9.62443 15.4438C9.77456 15.1097 10.052 14.8493 10.3948 14.7205C10.705 14.628 11.0352 14.628 11.3454 14.7205L14.812 16.3469C15.126 16.4952 15.3747 16.7538 15.5105 17.0734C15.6463 17.393 15.6598 17.7513 15.5488 18.0804C15.52 18.1122 15.52 18.1729 15.4881 18.2045C15.1818 18.8776 14.5984 18.8487 14.4741 19.0712L14.2921 19.4698H14.2919C14.2341 19.5968 14.2879 19.7469 14.4133 19.808C14.6873 19.9111 14.9227 20.0963 15.0877 20.3383C15.2525 20.5802 15.3388 20.8671 15.335 21.1599C15.3321 21.2575 15.3789 21.3498 15.4591 21.4054L21.2369 24.0746V24.0748C21.3046 24.1067 21.383 24.1067 21.4507 24.0748C21.7036 23.9533 21.998 23.9533 22.251 24.0748L22.2482 24.0749ZM27.8352 27.79L22.1239 25.1205C21.997 25.0627 21.847 25.1165 21.786 25.2421L21.4797 25.8575V25.8573C21.4237 25.9834 21.4773 26.1314 21.601 26.1924L27.353 28.8647C27.4076 28.8891 27.4699 28.8895 27.5247 28.8659C27.5797 28.8423 27.6222 28.7968 27.642 28.7406L27.9511 28.0964C27.9805 28.0399 27.9838 27.9734 27.96 27.9144C27.936 27.8553 27.8872 27.81 27.827 27.7901L27.8352 27.79ZM20.682 24.9358L14.93 22.2635L14.8982 22.3269V22.3271C14.8706 22.3838 14.8686 22.4495 14.8921 22.5079C14.9159 22.5661 14.9631 22.6119 15.0223 22.6332L20.5489 25.2102C20.5769 25.2245 20.61 25.2261 20.6392 25.2144C20.6684 25.2027 20.6914 25.1792 20.7021 25.1495L20.7339 25.0889C20.7472 25.0607 20.7482 25.0282 20.7367 24.9992C20.7252 24.97 20.7023 24.9472 20.6732 24.9357L20.682 24.9358ZM13.6475 22.6623L14.2946 21.2813H14.2948C14.3402 21.188 14.346 21.0804 14.3113 20.9826C14.2765 20.8847 14.2039 20.8051 14.1098 20.7612L13.9857 20.7293V20.7295C13.9293 20.6999 13.8628 20.6967 13.8037 20.7207C13.7449 20.7446 13.6993 20.7932 13.6794 20.8537L12.908 22.4887C12.8864 22.544 12.8876 22.6054 12.9116 22.6596C12.9354 22.714 12.9799 22.7563 13.0352 22.7777L13.1565 22.8384C13.2459 22.8801 13.3485 22.8841 13.441 22.8492C13.5335 22.8146 13.6079 22.7439 13.6476 22.6536L13.6475 22.6623ZM7.60095 23.0667C7.50744 23.0256 7.40165 23.0234 7.30654 23.0607C7.21142 23.0978 7.13505 23.1711 7.09394 23.2646C7.0087 23.4593 7.09716 23.6862 7.29182 23.7716L10.64 25.3374C11.0992 25.5512 11.4084 24.8463 10.9779 24.6614L7.60095 23.0667ZM13.2808 18.7044L10.6808 17.4765H10.6806C10.5547 17.4189 10.4056 17.4729 10.3455 17.598L8.28583 21.989C8.2556 22.0501 8.25197 22.1208 8.27535 22.1847C8.29892 22.2486 8.34749 22.3002 8.40996 22.3272L11.0099 23.555L11.0101 23.5548C11.1376 23.6124 11.288 23.5572 11.348 23.4307L13.402 19.0221C13.4296 18.9659 13.4323 18.9004 13.4091 18.8422C13.3861 18.784 13.3394 18.738 13.2807 18.716L13.2808 18.7044Z" fill="#94959E"/>
<rect x="23.9839" y="23.0703" width="5.20593" height="0.861572" rx="0.430786" fill="#94959E"/>
<rect x="30.1899" y="23.0703" width="1.72412" height="0.861572" rx="0.430786" fill="#94959E"/>
</svg>
