<svg width="27" height="26" viewBox="0 0 27 26" fill="none" xmlns="http://www.w3.org/2000/svg">
<path d="M15.3999 7.49739V6.65304C15.3999 6.41987 15.211 6.23096 14.978 6.23096C14.7451 6.23096 14.5562 6.41987 14.5562 6.65304V7.49739C14.5562 7.73037 14.7451 7.91928 14.978 7.91928C15.211 7.91928 15.3999 7.73037 15.3999 7.49739Z" fill="#3263C9"/>
<path d="M14.5562 20.1641V21.0086C14.5562 21.2416 14.7451 21.4305 14.978 21.4305C15.211 21.4305 15.3999 21.2416 15.3999 21.0086V20.1641C15.3999 19.9311 15.211 19.7422 14.978 19.7422C14.7451 19.7422 14.5562 19.9311 14.5562 20.1641Z" fill="#3263C9"/>
<path d="M21.3073 14.253H22.1513C22.3841 14.2525 22.5724 14.0636 22.5724 13.8308C22.5724 13.598 22.3841 13.4091 22.1513 13.4087H21.3073C21.0745 13.4091 20.886 13.598 20.886 13.8308C20.886 14.0636 21.0745 14.2525 21.3073 14.253Z" fill="#3263C9"/>
<path d="M7.80487 14.253H8.64884C8.88164 14.2525 9.06998 14.0636 9.06998 13.8308C9.06998 13.598 8.88164 13.4091 8.64884 13.4087H7.80487C7.57208 13.4091 7.38354 13.598 7.38354 13.8308C7.38354 14.0636 7.57208 14.2525 7.80487 14.253Z" fill="#3263C9"/>
<path d="M19.752 8.457L19.1553 9.05406C18.9905 9.21886 18.9905 9.48612 19.1553 9.65112C19.3218 9.8114 19.5853 9.8114 19.752 9.65112L20.3487 9.05406C20.5135 8.88926 20.5137 8.622 20.3489 8.45719C20.1841 8.29239 19.9168 8.2922 19.752 8.45701L19.752 8.457Z" fill="#3263C9"/>
<path d="M9.60773 19.2046C9.77329 19.3677 10.039 19.3677 10.2046 19.2046L10.8013 18.6074C10.9661 18.4426 10.9661 18.1753 10.8013 18.0105C10.6365 17.8455 10.3692 17.8455 10.2044 18.0103L9.60773 18.6075C9.44293 18.7725 9.44293 19.0398 9.60773 19.2046V19.2046Z" fill="#3263C9"/>
<path d="M19.1556 18.0103C18.9908 18.1753 18.9908 18.4425 19.1554 18.6073L19.7521 19.2046C19.9171 19.3694 20.1843 19.3694 20.3492 19.2046C20.4283 19.1253 20.4727 19.0179 20.4727 18.906C20.4727 18.7942 20.4283 18.6868 20.349 18.6075L19.7523 18.0103C19.6732 17.9312 19.566 17.8867 19.454 17.8867C19.3421 17.8867 19.2347 17.9312 19.1556 18.0103L19.1556 18.0103Z" fill="#3263C9"/>
<path d="M10.2047 9.65112C10.3714 9.81102 10.6347 9.81102 10.8014 9.65112C10.9662 9.48613 10.9662 9.21887 10.8014 9.05406L10.2047 8.457C10.0399 8.2922 9.77269 8.29239 9.60788 8.45719C9.44308 8.62199 9.44327 8.88925 9.60807 9.05406L10.2047 9.65112Z" fill="#3263C9"/>
<path d="M12.8184 19.2899C13.0352 19.3738 13.2789 19.2683 13.3663 19.0532L14.8535 15.3023C14.8936 15.3057 14.9339 15.3084 14.9782 15.3085C15.2961 15.308 15.6053 15.2051 15.8602 15.0149C16.115 14.8249 16.3016 14.5576 16.3928 14.2531H19.5142C19.747 14.2525 19.9355 14.0636 19.9355 13.8308C19.9355 13.598 19.747 13.4091 19.5142 13.4087H16.3932C16.3019 13.1042 16.115 12.8371 15.8602 12.6468C15.6053 12.4568 15.2961 12.3538 14.9783 12.353C14.5659 12.3532 14.1722 12.5257 13.8927 12.829C13.613 13.1322 13.4731 13.5385 13.5064 13.9496C13.5398 14.3606 13.7434 14.739 14.0682 14.9932L12.582 18.7418H12.5818C12.496 18.9584 12.6018 19.2039 12.8184 19.2899L12.8184 19.2899ZM14.98 13.1974C15.3298 13.1983 15.6125 13.4825 15.6116 13.8323C15.6107 14.182 15.3264 14.4649 14.9767 14.464C14.6301 14.4557 14.3515 14.1756 14.3455 13.8291C14.3468 13.4795 14.6307 13.1972 14.98 13.1974Z" fill="#3263C9"/>
<path d="M15.8369 24.9865C15.7694 24.9916 15.7018 24.9963 15.634 25.0003V25.0005C15.5223 25.007 15.4178 25.0577 15.3434 25.1413C15.269 25.225 15.231 25.3348 15.2375 25.4465C15.2554 25.677 15.4523 25.8521 15.6834 25.8433C15.7562 25.8391 15.8289 25.8343 15.9015 25.8286C16.1335 25.8103 16.307 25.6075 16.2893 25.3754C16.2714 25.1432 16.0691 24.9694 15.8369 24.9865L15.8369 24.9865Z" fill="#3263C9"/>
<path d="M14.0089 24.9782C13.9416 24.9725 13.8744 24.9663 13.8075 24.9589V24.9591C13.5764 24.9362 13.3704 25.104 13.3459 25.3349C13.3214 25.5656 13.4877 25.773 13.7184 25.799C13.7913 25.8065 13.864 25.8135 13.9371 25.8199C14.1695 25.8396 14.3739 25.6673 14.3938 25.4349C14.4136 25.2025 14.2413 24.9981 14.0089 24.9782L14.0089 24.9782Z" fill="#3263C9"/>
<path d="M17.641 24.6993C17.5755 24.7153 17.5096 24.7307 17.4435 24.7456C17.2161 24.7968 17.0732 25.0226 17.1244 25.25C17.1798 25.4743 17.4022 25.6152 17.6286 25.5694C17.6998 25.5534 17.771 25.5366 17.8416 25.5193C18.0682 25.4639 18.2068 25.2353 18.1515 25.0089C18.0961 24.7825 17.8674 24.6437 17.641 24.6993L17.641 24.6993Z" fill="#3263C9"/>
<path d="M12.2085 24.6721C12.1424 24.6552 12.0766 24.6379 12.0111 24.6198C11.7864 24.5589 11.5547 24.6912 11.4933 24.9159C11.4319 25.1404 11.5638 25.3722 11.7881 25.4342C11.858 25.4534 11.928 25.472 11.9985 25.4903C12.2241 25.5477 12.4537 25.4116 12.5117 25.1859C12.5696 24.9603 12.4339 24.7305 12.2085 24.6721L12.2085 24.6721Z" fill="#3263C9"/>
<path d="M19.3724 24.1194C19.3104 24.1461 19.2481 24.1723 19.1853 24.1977C18.9695 24.2863 18.8661 24.5326 18.9544 24.7485C19.0458 24.9609 19.2889 25.063 19.5046 24.9796C19.5718 24.9519 19.6387 24.9242 19.7052 24.8954H19.7053C19.9191 24.8033 20.018 24.5552 19.9261 24.3413C19.8344 24.1273 19.5865 24.0281 19.3724 24.1194L19.3724 24.1194Z" fill="#3263C9"/>
<path d="M10.4809 24.0745C10.4189 24.047 10.3571 24.0191 10.2955 23.9905C10.084 23.8931 9.83354 23.9852 9.7358 24.1965C9.63787 24.4077 9.7294 24.6583 9.94053 24.7566C10.0068 24.7873 10.0735 24.8175 10.1406 24.8471H10.1404C10.3538 24.9375 10.6003 24.8418 10.6967 24.631C10.7907 24.4176 10.6941 24.1686 10.4809 24.0745L10.4809 24.0745Z" fill="#3263C9"/>
<path d="M20.9842 23.264C20.9277 23.3003 20.8706 23.3359 20.8134 23.3711C20.6147 23.493 20.5523 23.7529 20.674 23.9516C20.7983 24.1469 21.055 24.2087 21.2543 24.091C21.3166 24.0527 21.3786 24.0139 21.4402 23.9742V23.9744C21.6361 23.8484 21.6927 23.5875 21.5669 23.3915C21.4411 23.1954 21.1804 23.1383 20.9842 23.2639L20.9842 23.264Z" fill="#3263C9"/>
<path d="M8.87518 23.2008C8.81868 23.1639 8.76274 23.1264 8.70699 23.0882C8.5145 22.958 8.25308 23.0077 8.1218 23.1995C7.99071 23.3912 8.03911 23.653 8.23028 23.785C8.29074 23.8265 8.35176 23.8674 8.41316 23.9075C8.60885 24.0318 8.86783 23.9775 8.9972 23.7852C9.1249 23.5901 9.07009 23.3285 8.87516 23.2008L8.87518 23.2008Z" fill="#3263C9"/>
<path d="M22.4381 22.155C22.3878 22.2004 22.3371 22.2452 22.2861 22.2895C22.11 22.4422 22.0908 22.7087 22.2433 22.885C22.3983 23.0564 22.6607 23.0753 22.8385 22.9278C22.8937 22.8801 22.9481 22.8317 23.0024 22.7831V22.7829C23.1758 22.6272 23.1902 22.3603 23.0342 22.1869C22.8784 22.0134 22.6116 21.9993 22.4381 22.155L22.4381 22.155Z" fill="#3263C9"/>
<path d="M7.28482 21.9389C7.20383 21.8614 7.09534 21.8193 6.98328 21.8219C6.87121 21.8245 6.7648 21.8716 6.68758 21.9526C6.61017 22.0338 6.56835 22.1423 6.57118 22.2543C6.574 22.3664 6.62128 22.4728 6.70265 22.5498C6.75519 22.6001 6.80849 22.65 6.86236 22.6994H6.86217C7.03488 22.854 7.29951 22.8427 7.45846 22.674C7.6161 22.5022 7.6048 22.2353 7.43322 22.0775C7.38312 22.0315 7.33378 21.9854 7.28481 21.9389L7.28482 21.9389Z" fill="#3263C9"/>
<path d="M24.2865 20.7606C24.1993 20.6903 24.0878 20.6578 23.9765 20.67C23.8652 20.6822 23.7635 20.7382 23.6934 20.8256C23.6508 20.8785 23.6079 20.9312 23.5644 20.9834C23.4156 21.1629 23.4401 21.429 23.6194 21.578C23.7996 21.7236 24.0629 21.6993 24.2136 21.5232C24.2601 21.4671 24.3061 21.4108 24.3515 21.3541C24.4972 21.1723 24.4682 20.9068 24.2865 20.7606L24.2865 20.7606Z" fill="#3263C9"/>
<path d="M6.06672 20.5744C5.9993 20.485 5.89891 20.426 5.78798 20.4108C5.67704 20.3953 5.56441 20.4247 5.47514 20.4923C5.38586 20.5599 5.3271 20.6603 5.31203 20.7713C5.29678 20.8824 5.32635 20.9948 5.39415 21.0841C5.43803 21.1423 5.48248 21.1999 5.52731 21.257C5.67346 21.4359 5.93507 21.4676 6.11964 21.3284C6.3029 21.1841 6.33473 20.9187 6.19084 20.7353C6.14902 20.682 6.10759 20.6283 6.06672 20.5744L6.06672 20.5744Z" fill="#3263C9"/>
<path d="M25.2928 19.1495C25.0898 19.0353 24.8327 19.1071 24.718 19.3099C24.6846 19.3691 24.6507 19.428 24.6163 19.4866C24.4984 19.6876 24.5654 19.9462 24.7662 20.0644C24.9675 20.1789 25.2235 20.1125 25.3438 19.9145C25.3807 19.8514 25.4173 19.7883 25.453 19.7247C25.5676 19.5216 25.4958 19.2642 25.2928 19.1494L25.2928 19.1495Z" fill="#3263C9"/>
<path d="M5.08695 19.0321C4.97827 18.8258 4.72307 18.7467 4.51684 18.8554C4.31061 18.9641 4.23169 19.2193 4.34017 19.4255C4.37389 19.4899 4.40836 19.554 4.44357 19.6176C4.55978 19.8169 4.81178 19.89 5.01672 19.7839C5.22088 19.6715 5.29527 19.4148 5.18283 19.2106C5.15044 19.1514 5.11842 19.0919 5.08697 19.032L5.08695 19.0321Z" fill="#3263C9"/>
<path d="M26.0239 17.3957C25.8048 17.316 25.5626 17.4287 25.4827 17.6477C25.4594 17.7115 25.4357 17.7756 25.4112 17.8389V17.8387C25.3274 18.0562 25.4357 18.3007 25.653 18.3847C25.8705 18.4657 26.1127 18.3583 26.1986 18.1427C26.2248 18.0745 26.2506 18.0059 26.2756 17.9372C26.3553 17.7181 26.2427 17.4757 26.0238 17.3957L26.0239 17.3957Z" fill="#3263C9"/>
<path d="M26.4583 15.5458C26.2291 15.5031 26.0087 15.6541 25.9658 15.8831C25.9533 15.9498 25.9401 16.0163 25.9266 16.0828C25.8793 16.3111 26.026 16.5342 26.2543 16.5817C26.482 16.6258 26.7035 16.48 26.7529 16.2534C26.7675 16.1821 26.7817 16.1105 26.7952 16.0385C26.8382 15.8095 26.6873 15.589 26.4583 15.5458V15.5458Z" fill="#3263C9"/>
<path d="M26.5878 13.652C26.4757 13.649 26.3672 13.6908 26.2861 13.7682C26.2051 13.8456 26.1584 13.9522 26.1561 14.0641C26.1546 14.1319 26.1523 14.1995 26.1495 14.2671V14.2673C26.1448 14.4928 26.3158 14.6832 26.5405 14.7028C26.6539 14.7118 26.7661 14.6743 26.8515 14.599C26.9368 14.5237 26.9876 14.4169 26.9925 14.3031C26.9956 14.23 26.998 14.1571 26.9997 14.0839V14.0841C27.0025 13.972 26.9605 13.8637 26.8833 13.7827C26.8061 13.7017 26.6997 13.6546 26.5878 13.652Z" fill="#3263C9"/>
<path d="M26.4139 11.7609C26.183 11.7929 26.0217 12.0059 26.0536 12.2368C26.0628 12.3039 26.0715 12.3711 26.0796 12.4385H26.0794C26.1142 12.6658 26.3193 12.8273 26.5483 12.8079C26.7798 12.78 26.945 12.57 26.9173 12.3385C26.9086 12.266 26.8994 12.1937 26.8894 12.1215H26.8896C26.8744 12.0106 26.8158 11.9102 26.7265 11.8426C26.6374 11.7748 26.5248 11.7454 26.4139 11.7609H26.4139Z" fill="#3263C9"/>
<path d="M25.6579 10.4529C25.6779 10.5175 25.6973 10.5823 25.7161 10.6473H25.7163C25.7875 10.8659 26.0163 10.9918 26.2391 10.9349C26.4629 10.8697 26.5915 10.6354 26.5266 10.4116C26.5064 10.3418 26.4855 10.2723 26.4642 10.2029C26.3951 9.98032 26.1587 9.85583 25.9361 9.92477C25.7135 9.99389 25.589 10.2303 25.6579 10.4529L25.6579 10.4529Z" fill="#3263C9"/>
<path d="M25.0657 8.93938C25.1699 9.14561 25.418 9.2332 25.6285 9.1377C25.8387 9.03694 25.9274 8.78494 25.8269 8.57454C25.7956 8.509 25.7636 8.44364 25.731 8.37866V8.37885C25.6809 8.27865 25.5931 8.20237 25.4869 8.16715C25.3807 8.13175 25.2646 8.14003 25.1644 8.19013C25.0644 8.24042 24.9883 8.32819 24.9531 8.4346C24.9179 8.54083 24.9262 8.65685 24.9765 8.75686C25.0068 8.81751 25.0366 8.87834 25.0658 8.93937L25.0657 8.93938Z" fill="#3263C9"/>
<path d="M24.8384 6.87575C24.7968 6.81605 24.7546 6.75672 24.712 6.69777C24.5753 6.50905 24.3114 6.46704 24.1227 6.60379C23.9339 6.74071 23.8917 7.00458 24.0287 7.19332C24.0684 7.24832 24.1076 7.30351 24.1464 7.35907C24.2829 7.54496 24.5415 7.5911 24.7339 7.4636C24.925 7.33006 24.9717 7.06694 24.8384 6.8758L24.8384 6.87575Z" fill="#3263C9"/>
<path d="M22.9823 5.94912C23.1468 6.11166 23.4102 6.11524 23.579 5.95703C23.7461 5.7943 23.7496 5.52723 23.5871 5.35997C23.5364 5.30799 23.4854 5.2562 23.4338 5.20497V5.20516C23.2684 5.04092 23.0012 5.04167 22.8369 5.20723C22.6727 5.37259 22.6736 5.63967 22.839 5.8039C22.8872 5.85193 22.9349 5.90033 22.9823 5.94911L22.9823 5.94912Z" fill="#3263C9"/>
<path d="M21.4416 4.62528C21.4967 4.66445 21.5514 4.70438 21.6058 4.74469C21.7939 4.87992 22.0554 4.84093 22.1961 4.65692C22.3349 4.46971 22.2955 4.20527 22.1083 4.06647C22.0495 4.02277 21.9904 3.97983 21.9311 3.93764C21.741 3.80241 21.4775 3.84686 21.3425 4.03671C21.2072 4.22656 21.2515 4.49024 21.4415 4.62528L21.4416 4.62528Z" fill="#3263C9"/>
<path d="M19.8709 3.68954C19.9321 3.71949 19.993 3.75 20.0536 3.78107C20.2614 3.88316 20.5128 3.80179 20.6213 3.59706C20.7273 3.38951 20.645 3.13524 20.4374 3.02903C20.3726 2.99588 20.3077 2.9633 20.2423 2.93128C20.0329 2.82882 19.7799 2.91527 19.6775 3.12471C19.5748 3.33415 19.6615 3.58709 19.8707 3.68956L19.8709 3.68954Z" fill="#3263C9"/>
<path d="M4.02971 11.5089C4.60753 8.68746 6.25064 6.1974 8.61722 4.55612C10.9838 2.9149 13.8916 2.24889 16.7368 2.69643L16.0309 2.92075C15.8086 2.99138 15.6858 3.22869 15.7563 3.45074C15.8318 3.66865 16.0646 3.78919 16.2861 3.72553L18.646 2.97592C18.792 2.9294 18.9014 2.80754 18.9319 2.65743C18.9624 2.50732 18.9093 2.3525 18.7929 2.25268L16.9033 0.632716C16.8181 0.559828 16.7076 0.523854 16.5961 0.532518C16.4844 0.541182 16.3808 0.593729 16.3079 0.678864C16.1563 0.855908 16.177 1.12241 16.3541 1.27404L17.0814 1.89767C13.963 1.34979 10.7541 2.05267 8.15039 3.85379C5.54634 5.65509 3.7569 8.40962 3.16968 11.5211C3.18663 11.436 4.01645 11.5742 4.03004 11.509L4.02971 11.5089Z" fill="#3263C9"/>
<path d="M3.34271 13.1976H6.32873C6.56152 13.197 6.75006 13.0081 6.75006 12.7753C6.75006 12.5425 6.56152 12.3536 6.32873 12.353H3.34271C3.10992 12.3536 2.92139 12.5425 2.92139 12.7753C2.92139 13.0081 3.10992 13.197 3.34271 13.1976Z" fill="#3263C9"/>
<path d="M6.75062 16.9973C6.75081 16.7643 6.5619 16.5752 6.32873 16.5752H3.34271C3.10992 16.5756 2.92139 16.7645 2.92139 16.9973C2.92139 17.2303 3.10992 17.419 3.34271 17.4195H6.32873C6.5619 17.4195 6.75081 17.2304 6.75062 16.9973Z" fill="#3263C9"/>
<path d="M6.75045 14.8866C6.75064 14.6535 6.56173 14.4644 6.32856 14.4644H0.421138C0.188346 14.4649 0 14.6538 0 14.8866C0 15.1194 0.188341 15.3083 0.421138 15.3087H6.32856C6.56173 15.3087 6.75064 15.1196 6.75045 14.8866Z" fill="#3263C9"/>
<path d="M24.2611 13.8311C24.2627 11.571 23.4394 9.38775 21.9458 7.69132C20.4522 5.99469 18.391 4.90159 16.1488 4.61658C13.9066 4.33162 11.6374 4.87443 9.76694 6.14349C7.89649 7.41234 6.55344 9.32029 5.9895 11.509C6.2756 11.4918 6.56187 11.5389 6.82745 11.6466C7.33786 9.73686 8.50199 8.06661 10.1169 6.92654C11.7319 5.78666 13.6956 5.24915 15.6661 5.40754C17.6365 5.56613 19.4891 6.41068 20.9009 7.79423C22.3129 9.1776 23.1949 11.0127 23.3936 12.9794C23.5921 14.9463 23.0947 16.9203 21.9878 18.558C20.8807 20.1958 19.2346 21.3937 17.3355 21.9429C15.4367 22.4921 13.4052 22.3578 11.595 21.5636C9.78478 20.7695 8.31043 19.3656 7.42841 17.5965C7.27435 17.8492 7.04156 18.0449 6.76602 18.1534C7.73073 19.9911 9.28362 21.4523 11.1765 22.3036C13.0693 23.1547 15.1929 23.3468 17.2078 22.849C19.2227 22.3512 21.0125 21.1922 22.2912 19.5575C23.5699 17.9227 24.2636 15.9064 24.2615 13.8309L24.2611 13.8311Z" fill="#3263C9"/>
</svg>
