<svg width="24" height="24" viewBox="0 0 24 24" fill="none" xmlns="http://www.w3.org/2000/svg">
<path d="M13.0625 10.4062C13.0625 10.547 13.0066 10.6822 12.907 10.7818C12.8072 10.8814 12.6722 10.9375 12.5313 10.9375H7.21876C6.92528 10.9375 6.68746 10.6995 6.68746 10.4062C6.68746 10.1129 6.92528 9.87486 7.21876 9.87486H12.5313C12.6722 9.87486 12.8072 9.9309 12.907 10.0305C13.0066 10.1301 13.0625 10.2653 13.0625 10.4062ZM12.5312 11.9997H7.21904C6.92555 11.9997 6.68774 12.2375 6.68774 12.531C6.68774 12.8243 6.92555 13.0623 7.21904 13.0623H12.5316C12.8249 13.0623 13.0627 12.8243 13.0627 12.531C13.0627 12.2375 12.8249 11.9997 12.5316 11.9997H12.5312ZM12.5312 14.125H7.21904C6.92555 14.125 6.68774 14.363 6.68774 14.6563C6.68774 14.9498 6.92555 15.1876 7.21904 15.1876H12.5316C12.8249 15.1876 13.0627 14.9498 13.0627 14.6563C13.0627 14.363 12.8249 14.125 12.5316 14.125H12.5312ZM12.5313 16.2498H7.21876C6.92528 16.2498 6.68746 16.4878 6.68746 16.7811C6.68746 17.0744 6.92528 17.3124 7.21876 17.3124H12.5313C12.8247 17.3124 13.0625 17.0744 13.0625 16.7811C13.0625 16.4878 12.8247 16.2498 12.5313 16.2498ZM20.5 5.62505V15.1875C20.5 15.751 20.2761 16.2915 19.8776 16.6901C19.479 17.0886 18.9385 17.3125 18.375 17.3125H16.2499V18.375C16.2499 18.9385 16.0262 19.479 15.6276 19.8776C15.2291 20.2761 14.6886 20.5 14.1251 20.5H5.62503C5.06154 20.5 4.52099 20.2761 4.12237 19.8776C3.72394 19.479 3.5 18.9385 3.5 18.375V8.81252C3.5 8.24902 3.72394 7.70847 4.12237 7.30986C4.52098 6.91142 5.06154 6.68748 5.62503 6.68748H7.75007V5.62505C7.75007 5.06155 7.97383 4.52099 8.37244 4.12238C8.77088 3.72394 9.31142 3.5 9.87492 3.5H18.375C18.9385 3.5 19.479 3.72394 19.8776 4.12238C20.2761 4.52099 20.5 5.06155 20.5 5.62505ZM15.1874 8.81252C15.1871 8.53077 15.075 8.26077 14.8758 8.06155C14.6767 7.86234 14.4065 7.75028 14.125 7.7501H5.62495C5.3432 7.75028 5.0732 7.86234 4.87399 8.06155C4.67477 8.26077 4.56271 8.5308 4.56254 8.81252V18.375C4.56271 18.6567 4.67477 18.9267 4.87399 19.1259C5.0732 19.3251 5.34323 19.4372 5.62495 19.4374H14.125C14.4066 19.4372 14.6767 19.3251 14.8758 19.1259C15.075 18.9267 15.1871 18.6567 15.1874 18.375V8.81252ZM19.4373 5.62505C19.4371 5.3433 19.3251 5.07329 19.1259 4.87408C18.9266 4.67486 18.6566 4.5628 18.3749 4.56262H9.87484C9.59327 4.5628 9.32309 4.67486 9.12406 4.87408C8.92484 5.07329 8.81278 5.34332 8.81242 5.62505V6.68748H14.125C14.6885 6.68748 15.2291 6.91142 15.6275 7.30986C16.0261 7.70847 16.2499 8.24902 16.2499 8.81252V16.2498H18.3749C18.6566 16.2496 18.9266 16.1376 19.1259 15.9384C19.3251 15.7391 19.4371 15.4691 19.4373 15.1874L19.4373 5.62505Z" fill="#7E7E8A"/>
</svg>
