<svg width="24" height="20" viewBox="0 0 24 20" fill="none" xmlns="http://www.w3.org/2000/svg">
<path d="M12.0055 6.63574C11.0673 6.63574 10.1676 6.98926 9.50438 7.61861C8.84094 8.24776 8.46826 9.10124 8.46826 9.99121C8.46826 10.8812 8.84094 11.7347 9.50438 12.3638C10.1676 12.9932 11.0673 13.3467 12.0055 13.3467C12.9437 13.3467 13.8434 12.9932 14.5067 12.3638C15.1701 11.7347 15.5428 10.8812 15.5428 9.99121C15.5428 9.10124 15.1701 8.24776 14.5067 7.61861C13.8434 6.98926 12.9437 6.63574 12.0055 6.63574ZM12.0055 11.6689C11.5365 11.6689 11.0866 11.4922 10.7548 11.1776C10.4232 10.8628 10.2369 10.4361 10.2369 9.99121C10.2369 9.54632 10.4232 9.11955 10.7548 8.80481C11.0867 8.49024 11.5365 8.31348 12.0055 8.31348C12.4745 8.31348 12.9244 8.49024 13.2562 8.80481C13.5878 9.11957 13.7741 9.54632 13.7741 9.99121C13.7741 10.4361 13.5878 10.8629 13.2562 11.1776C12.9244 11.4922 12.4745 11.6689 12.0055 11.6689Z" fill="#3263C9"/>
<path d="M8.18535 5.91398C8.4019 5.71044 8.49249 5.41536 8.42518 5.13316C8.35788 4.85098 8.14212 4.62179 7.85432 4.5265C7.56653 4.431 7.24713 4.48305 7.00927 4.66412C5.42362 6.00276 4.50833 7.9149 4.48978 9.92837C4.47143 11.9418 5.35121 13.869 6.912 15.2338C7.08452 15.3851 7.3131 15.4653 7.54779 15.4567C7.78249 15.4479 8.00377 15.3512 8.16328 15.1878C8.32277 15.0241 8.40725 14.8073 8.39817 14.5847C8.38909 14.362 8.28704 14.1519 8.11472 14.0006C6.91932 12.9574 6.24482 11.4832 6.25846 9.94241C6.27189 8.40173 6.97203 6.93822 8.18541 5.91399L8.18535 5.91398Z" fill="#3263C9"/>
<path d="M15.8435 14.0513C15.6082 14.2522 15.5036 14.5568 15.5693 14.8504C15.6348 15.1442 15.8606 15.3826 16.1617 15.4755C16.4627 15.5685 16.7931 15.502 17.0284 15.3011C18.62 13.9472 19.5292 12.0149 19.5292 9.98703C19.5292 7.95894 18.62 6.02676 17.0284 4.67293C16.8563 4.51077 16.6214 4.42314 16.379 4.43007C16.1364 4.437 15.9076 4.5383 15.7462 4.71C15.5845 4.88152 15.5046 5.10865 15.5245 5.33805C15.5446 5.56743 15.6633 5.77883 15.8524 5.92281C17.0716 6.95716 17.7686 8.43548 17.7686 9.98719C17.7686 11.5387 17.0716 13.017 15.8524 14.0514L15.8435 14.0513Z" fill="#3263C9"/>
<path d="M7.96395 18.3798C5.69414 17.393 3.91132 15.6162 2.98415 13.417C2.05719 11.2178 2.05719 8.76449 2.98415 6.56517C3.91132 4.36595 5.69414 2.58918 7.96395 1.60244C8.25155 1.4781 8.44717 1.21764 8.47736 0.919166C8.50756 0.62088 8.36781 0.329898 8.11041 0.155941C7.85321 -0.0181978 7.51767 -0.048718 7.23004 0.0756116C4.5396 1.23862 2.42472 3.33991 1.32484 5.94336C0.224953 8.54682 0.225155 11.4521 1.32484 14.0554C2.42452 16.6589 4.53935 18.7604 7.23004 19.9232C7.34393 19.9724 7.4675 19.9981 7.59265 19.9987C7.87511 20.0138 8.1481 19.9 8.32734 19.6921C8.50637 19.4843 8.56973 19.2077 8.49788 18.9482C8.42603 18.6886 8.22765 18.4773 7.96396 18.3797L7.96395 18.3798Z" fill="#3263C9"/>
<path d="M16.7899 0.0755769C16.5765 -0.0167368 16.3332 -0.0247899 16.1134 0.0531072C15.8935 0.131002 15.7155 0.288479 15.6182 0.49089C15.5209 0.693301 15.5122 0.924181 15.5943 1.1326C15.6764 1.34101 15.8424 1.51009 16.0558 1.6024C18.3258 2.5892 20.1086 4.36596 21.0356 6.56514C21.9626 8.76431 21.9626 11.2177 21.0356 13.417C20.1086 15.6163 18.3258 17.393 16.0558 18.3797C15.8428 18.4713 15.6766 18.6393 15.5937 18.8467C15.5108 19.0542 15.5181 19.2845 15.6137 19.4871C15.6835 19.6343 15.7964 19.7592 15.9391 19.847C16.0819 19.9348 16.2483 19.9816 16.4184 19.982C16.5475 19.9824 16.6748 19.9535 16.7899 19.8981C19.4736 18.7325 21.582 16.6323 22.6779 14.0323C23.774 11.4325 23.774 8.53266 22.6779 5.93265C21.5818 3.33293 19.4735 1.23275 16.7899 0.0672959L16.7899 0.0755769Z" fill="#3263C9"/>
</svg>
