<svg width="19" height="20" viewBox="0 0 19 20" fill="none" xmlns="http://www.w3.org/2000/svg">
<path d="M2.83433 12.7692L6.53321 10.077C6.61227 10.0193 6.61227 9.88464 6.53321 9.82696L2.83433 7.2116C2.7354 7.13474 2.57715 7.2116 2.57715 7.32697V12.6538C2.57715 12.7884 2.73541 12.8461 2.83433 12.7692V12.7692Z" fill="#7E7E8A"/>
<path d="M11.5375 10.5961C11.4782 10.5576 11.399 10.5576 11.3595 10.5961L10.3112 11.3653C10.0738 11.5383 9.77706 11.6345 9.50014 11.6345C9.22321 11.6345 8.94629 11.5576 8.68912 11.3844L7.46279 10.5191C7.40346 10.4806 7.32426 10.4806 7.2848 10.5191L2.63648 13.8846C2.59688 13.9231 2.57715 13.9615 2.57715 14V14.0576C2.57715 14.5769 3.01231 15 3.54641 15H15.4342C15.9683 15 16.4035 14.5769 16.4035 14.0576V14.0768L11.5375 10.5961Z" fill="#7E7E8A"/>
<path d="M15.454 5.00004H3.54641C3.01231 5.00004 2.57715 5.42312 2.57715 5.94238V5.98088C2.57715 6.03856 2.59688 6.07706 2.63648 6.09624L9.14413 10.7308C9.34198 10.8847 9.61888 10.8655 9.81661 10.7308L16.3836 5.92316L16.4232 5.96153C16.4232 5.42307 15.988 5 15.4539 5L15.454 5.00004Z" fill="#7E7E8A"/>
<path d="M16.1659 7.07696L12.2693 9.92319C12.1902 9.98087 12.1902 10.1155 12.2693 10.1732L16.1659 12.9425C16.2649 13.0193 16.4231 12.9425 16.4231 12.8271V7.1922C16.4231 7.07684 16.2649 6.99997 16.1659 7.07684V7.07696Z" fill="#7E7E8A"/>
</svg>
