<svg width="24" height="25" viewBox="0 0 24 25" fill="none" xmlns="http://www.w3.org/2000/svg">
<path d="M10.2622 15.1379V16.8756H6.78686V15.1379H10.2622ZM13.7375 11.6626H6.78701V13.4003H13.7379L13.7375 11.6626ZM13.7375 8.18721H6.78701V9.92496H13.7379L13.7375 8.18721ZM12 2.97412H8.52446V3.84292H4.18047C3.94992 3.84292 3.72898 3.93441 3.56607 4.09746C3.40316 4.26037 3.31152 4.48133 3.31152 4.71171V19.4823C3.31152 19.7127 3.40316 19.9338 3.56607 20.0967C3.72898 20.2596 3.94994 20.3511 4.18047 20.3511H10.2623V18.6135H5.04919V5.58074H15.4754V13.4004H17.2131V4.71164C17.2131 4.48124 17.1215 4.2603 16.9586 4.09739C16.7957 3.93434 16.5747 3.84285 16.3442 3.84285H12.0002L12 2.97412ZM17.213 15.1381L13.7377 18.6135L14.9714 19.8472L16.3441 18.4657V22.0888H18.0818V18.4657L19.4634 19.8472L20.6884 18.6135L17.213 15.1381Z" fill="#94959E"/>
</svg>
