<svg width="20" height="20" viewBox="0 0 20 20" fill="none" xmlns="http://www.w3.org/2000/svg">
<path d="M18.5152 0.0419922C18.2692 0.0497853 18.0359 0.152845 17.8644 0.329536L6.19717 11.9982V6.70823C6.20226 6.43436 6.0887 6.17161 5.88592 5.98763C5.68298 5.80362 5.4107 5.71614 5.1386 5.74764C4.90433 5.77483 4.6885 5.88823 4.5333 6.06587C4.37807 6.24336 4.29441 6.47238 4.29871 6.70822V14.2033C4.26976 14.4937 4.37568 14.7816 4.5861 14.9839L4.58801 14.9858C4.67357 15.0672 4.77345 15.1319 4.88271 15.1768C4.89321 15.1817 4.90371 15.1865 4.91436 15.1911C5.0198 15.2309 5.13161 15.2515 5.24422 15.2522H12.84C13.0952 15.2576 13.3421 15.1601 13.5245 14.9815C13.7069 14.8027 13.8098 14.5581 13.8098 14.3029C13.8098 14.0474 13.7069 13.8028 13.5245 13.6242C13.3421 13.4455 13.0952 13.348 12.84 13.3534H7.53565L19.2102 1.67697C19.3957 1.4979 19.5003 1.25106 19.5 0.993097C19.4998 0.735295 19.3947 0.488608 19.209 0.309873C19.0232 0.131137 18.7727 0.0355283 18.515 0.0452304L18.5152 0.0419922ZM1.35471 0.0563058C1.12028 0.0798434 0.903016 0.189579 0.745084 0.364365C0.586996 0.539151 0.499683 0.766418 0.500001 1.00195V16.1957C0.500001 17.7571 1.78476 19.042 3.34589 19.042H18.5374V19.0418C18.7877 19.0409 19.0277 18.941 19.2048 18.7638C19.3819 18.5867 19.4818 18.3467 19.4829 18.0962V14.2969C19.4755 13.9628 19.2929 13.6571 19.0023 13.492C18.7116 13.3271 18.3556 13.3271 18.065 13.492C17.7743 13.6571 17.5917 13.9627 17.5844 14.2969V17.1432H3.34601C2.80369 17.1432 2.40049 16.738 2.40049 16.1957V1.95511H5.2445H5.24434C5.49976 1.96052 5.74644 1.86303 5.92884 1.68427C6.11142 1.50566 6.21416 1.26104 6.21416 1.00564C6.21416 0.750384 6.11142 0.505631 5.92884 0.327018C5.74642 0.148417 5.49975 0.0507642 5.24434 0.0563339H1.44561C1.41539 0.0549025 1.38501 0.0549025 1.35479 0.0563339L1.35471 0.0563058Z" fill="#7E7E8A"/>
</svg>
  