<svg width="24" height="25" viewBox="0 0 24 25" fill="none" xmlns="http://www.w3.org/2000/svg">
<path d="M8.07713 4.19434C6.96045 4.19434 6.01103 4.94821 5.70387 5.98119H3.16313C2.77227 5.98119 2.49316 6.28831 2.49316 6.67918C2.49316 7.07004 2.80029 7.37717 3.19115 7.37717H5.73188C6.01116 8.41014 6.98822 9.16402 8.10515 9.16402C9.2499 9.16402 10.1991 8.41014 10.5062 7.37717H20.8086C21.1994 7.37717 21.5065 7.07004 21.5065 6.67918C21.5065 6.28831 21.1994 5.98119 20.8086 5.98119H10.5062C10.1711 4.94821 9.22163 4.19434 8.07708 4.19434H8.07713ZM8.10498 5.59031C8.69139 5.59031 9.19384 6.06492 9.19384 6.67918C9.19384 7.29341 8.69139 7.76804 8.10498 7.76804C7.51857 7.76804 7.01612 7.29343 7.01612 6.67918C7.01612 6.06495 7.51857 5.59031 8.10498 5.59031Z" fill="#7E7E8A"/>
<path d="M16.481 9.77832C15.3643 9.77832 14.4149 10.5322 14.1077 11.5652H3.19115C2.77225 11.5652 2.49316 11.8723 2.49316 12.2632C2.49316 12.654 2.80029 12.9612 3.19115 12.9612H14.1077C14.387 13.9941 15.364 14.748 16.481 14.748C17.6257 14.748 18.5749 13.9941 18.8821 12.9612H20.8086C21.1994 12.9612 21.5065 12.654 21.5065 12.2632C21.5065 11.8723 21.1994 11.5652 20.8086 11.5652H18.8821C18.5747 10.5322 17.6255 9.77832 16.4808 9.77832H16.481ZM16.5088 11.1743C17.0952 11.1743 17.5977 11.6489 17.5977 12.2632C17.5977 12.8774 17.0952 13.352 16.5088 13.352C15.9224 13.352 15.42 12.8774 15.42 12.2632C15.42 11.6489 15.8946 11.1743 16.5088 11.1743Z" fill="#7E7E8A"/>
<path d="M11.4275 15.9209C10.3108 15.9209 9.36143 16.6748 9.05426 17.7078H3.19115C2.77225 17.7078 2.49316 18.0149 2.49316 18.4057C2.49316 18.7966 2.80029 19.1037 3.19115 19.1037H9.08218C9.36146 20.1367 10.3385 20.8906 11.4554 20.8906C12.6002 20.8906 13.5494 20.1367 13.8565 19.1037H20.8085C21.1994 19.1037 21.5065 18.7966 21.5065 18.4057C21.5065 18.0149 21.1994 17.7078 20.8085 17.7078H13.8286C13.5215 16.6746 12.5723 15.9209 11.4275 15.9209ZM11.4554 17.3169C12.0418 17.3169 12.5442 17.7915 12.5442 18.4057C12.5442 19.02 12.0418 19.4946 11.4554 19.4946C10.869 19.4946 10.3665 19.02 10.3665 18.4057C10.3944 17.7915 10.8692 17.3169 11.4554 17.3169Z" fill="#7E7E8A"/>
</svg>
