<svg width="20" height="21" viewBox="0 0 20 21" fill="none" xmlns="http://www.w3.org/2000/svg">
<path d="M2.67531 20.5371V1.37254C2.67531 0.937938 2.32757 0.546875 1.84964 0.546875C1.37153 0.546875 0.980469 0.937955 0.980469 1.37254V20.5371H2.67531Z" fill="#7E7E8A"/>
<path d="M19.8409 3.15438C19.8409 2.58943 19.4063 2.11133 18.7978 2.11133H3.58789V4.19723H7.67285V6.19629H5.36957C5.15235 6.19629 4.93496 6.4135 4.93496 6.63089V15.3222C4.93496 15.5394 5.15218 15.7568 5.36957 15.7568H18.5804C18.7976 15.7568 19.015 15.5396 19.015 15.3222V6.63089C19.015 6.41368 18.7978 6.19629 18.5804 6.19629H16.2771V4.19723H18.8411C19.3629 4.15388 19.8408 3.71928 19.8408 3.15434L19.8409 3.15438ZM16.1037 12.6281H7.75981C7.49909 12.6281 7.32521 12.4542 7.32521 12.1935C7.32521 11.9328 7.49907 11.7589 7.75981 11.7589H16.1037C16.3644 11.7589 16.5383 11.9328 16.5383 12.1935C16.5383 12.4542 16.3644 12.6281 16.1037 12.6281ZM16.5383 9.71654C16.5383 9.97726 16.3644 10.1511 16.1037 10.1511H7.75981C7.49909 10.1511 7.32521 9.97728 7.32521 9.71654C7.32521 9.45583 7.49907 9.28194 7.75981 9.28194H16.1037C16.3644 9.28194 16.5383 9.45581 16.5383 9.71654ZM15.3649 4.15385V6.15291H8.49876V4.15385H15.3649Z" fill="#7E7E8A"/>
</svg>
