<svg width="24" height="25" viewBox="0 0 24 25" fill="none" xmlns="http://www.w3.org/2000/svg">
<path d="M6.77241 20.9263C6.77241 21.2317 6.52266 21.4814 6.21735 21.4814H4.4596C4.15428 21.4814 3.90454 21.2316 3.90454 20.9263V15.9081C3.90454 15.6028 4.15429 15.353 4.4596 15.353H6.21735C6.52267 15.353 6.77241 15.6028 6.77241 15.9081V20.9263Z" fill="#94959E"/>
<path d="M11.2133 20.9262C11.2133 21.2316 10.9635 21.4813 10.6582 21.4813H8.90047C8.59515 21.4813 8.34541 21.2315 8.34541 20.9262L8.34521 12.9847C8.34521 12.6794 8.59497 12.4297 8.90027 12.4297H10.658C10.9633 12.4297 11.2131 12.6794 11.2131 12.9847L11.2133 20.9262Z" fill="#94959E"/>
<path d="M15.6544 20.9261C15.6544 21.2314 15.4047 21.4812 15.0994 21.4812H13.3416C13.0363 21.4812 12.7866 21.2314 12.7866 20.9261L12.7864 13.6185C12.7864 13.3132 13.0361 13.0635 13.3414 13.0635H15.0992C15.4045 13.0635 15.6542 13.3132 15.6542 13.6185L15.6544 20.9261Z" fill="#94959E"/>
<path d="M20.0956 20.9262C20.0956 21.2315 19.8458 21.4813 19.5405 21.4813H17.7825C17.4772 21.4813 17.2275 21.2315 17.2275 20.9262L17.2273 11.9984C17.2273 11.6931 17.477 11.4434 17.7824 11.4434H19.5403C19.8456 11.4434 20.0954 11.6931 20.0954 11.9984L20.0956 20.9262Z" fill="#94959E"/>
<path d="M19.2162 4.85886C19.2162 4.88112 19.2162 4.9032 19.2135 4.92546L19.2108 4.95044L19.0386 6.79899C19.0106 7.08766 18.7691 7.30141 18.4863 7.30141C18.4694 7.30141 18.453 7.30141 18.4336 7.2987C18.1283 7.27102 17.9066 7.00171 17.9341 6.69641L17.984 6.16068L14.5754 9.00283C14.4558 9.10002 14.3034 9.14707 14.1509 9.12499L9.9682 8.60304L5.71876 12.5888C5.61053 12.6887 5.47443 12.7387 5.33851 12.7387C5.19137 12.7387 5.04152 12.6804 4.9333 12.5638C4.72517 12.3391 4.7362 11.9892 4.95827 11.7784L9.39922 7.61506C9.52138 7.50122 9.68518 7.44855 9.84877 7.47082L14.051 7.99549L17.282 5.30323L16.738 5.25057C16.4325 5.22288 16.2079 4.95358 16.2354 4.64828C16.266 4.34296 16.5324 4.1182 16.8408 4.14586L18.7085 4.32358H18.7143C18.7778 4.3292 18.8361 4.34585 18.8921 4.37082C18.9087 4.37915 18.9226 4.38476 18.9393 4.39309C18.9449 4.3987 18.9503 4.40141 18.9559 4.40412C18.984 4.42077 19.0115 4.44304 19.0365 4.46802C19.0617 4.48738 19.0837 4.50964 19.1004 4.53462C19.117 4.55688 19.131 4.57895 19.1447 4.60122C19.1587 4.6262 19.1724 4.65117 19.1807 4.67886C19.1918 4.70654 19.2001 4.73713 19.2057 4.76772C19.2134 4.79502 19.2162 4.82832 19.2162 4.85891L19.2162 4.85886Z" fill="#94959E"/>
</svg>
