<svg width="24" height="23" viewBox="0 0 24 23" fill="none" xmlns="http://www.w3.org/2000/svg">
<path d="M15.8365 5.64711C15.574 5.38456 15.1484 5.38456 14.8859 5.64711C14.6233 5.90954 14.6233 6.33516 14.8859 6.59771L17.0995 8.81131L14.8859 11.0248C14.6233 11.2874 14.6233 11.713 14.8859 11.9755C15.1484 12.238 15.574 12.238 15.8365 11.9755L18.5254 9.28655C18.7879 9.02411 18.7879 8.5985 18.5254 8.33595L15.8365 5.64711Z" fill="#7E7E8A"/>
<path d="M5.95002 5.4502C5.57875 5.4502 5.27783 5.75111 5.27783 6.12238C5.27783 6.49365 5.57875 6.79468 5.95002 6.79468H11.3279C11.6992 6.79468 12.0001 6.49365 12.0001 6.12238C12.0001 5.75111 11.6992 5.4502 11.3279 5.4502H5.95002Z" fill="#7E7E8A"/>
<path d="M5.95002 10.8281C5.57875 10.8281 5.27783 11.129 5.27783 11.5003C5.27783 11.8716 5.57875 12.1725 5.95002 12.1725H11.3279C11.6992 12.1725 12.0001 11.8716 12.0001 11.5003C12.0001 11.129 11.6992 10.8281 11.3279 10.8281H5.95002Z" fill="#7E7E8A"/>
<path d="M5.27783 16.8784C5.27783 16.5071 5.57875 16.2061 5.95002 16.2061H18.05C18.4213 16.2061 18.7222 16.5071 18.7222 16.8784C18.7222 17.2496 18.4213 17.5505 18.05 17.5505H5.95002C5.57875 17.5505 5.27783 17.2496 5.27783 16.8784Z" fill="#7E7E8A"/>
</svg>
