<svg width="175" height="174" viewBox="0 0 175 174" fill="none" xmlns="http://www.w3.org/2000/svg">
  <path d="M89.5837 173.287C136.213 173.287 174.013 150.892 174.013 123.267C174.013 95.6417 136.213 73.2471 89.5837 73.2471C42.9549 73.2471 5.15479 95.6417 5.15479 123.267C5.15479 150.892 42.9549 173.287 89.5837 173.287Z" fill="#E072C8" fill-opacity="0.1"/>
  <path d="M69.9967 159.218C79.3536 159.218 86.9388 154.724 86.9388 149.18C86.9388 143.636 79.3536 139.142 69.9967 139.142C60.6399 139.142 53.0547 143.636 53.0547 149.18C53.0547 154.724 60.6399 159.218 69.9967 159.218Z" fill="#E072C8" fill-opacity="0.18"/>
  <path d="M40.915 159.651C48.3568 159.651 54.3896 156.077 54.3896 151.668C54.3896 147.259 48.3568 143.685 40.915 143.685C33.4732 143.685 27.4404 147.259 27.4404 151.668C27.4404 156.077 33.4732 159.651 40.915 159.651Z" fill="#E072C8" fill-opacity="0.18"/>
  <path d="M149.819 111.192L114.892 131.448C113.343 132.346 111.435 132.346 109.887 131.448L106.804 130.313C105.483 129.547 105.483 127.624 106.804 126.858L141.731 106.603C143.279 105.704 145.187 105.704 146.736 106.603L149.819 107.738C151.14 108.504 151.14 110.423 149.819 111.192Z" fill="#E072C8" fill-opacity="0.18"/>
  <path d="M133.895 147.472L118.861 156.186C117.48 156.987 115.778 156.987 114.401 156.186L102.767 149.43C101.588 148.746 101.588 147.035 102.767 146.351L117.8 137.638C119.182 136.836 120.883 136.836 122.261 137.638L133.895 144.393C135.074 145.077 135.074 146.788 133.895 147.472Z" fill="#E072C8" fill-opacity="0.18"/>
  <path d="M107.686 126.73L91.9404 135.085C90.5592 135.887 88.8575 135.887 87.4798 135.085L75.8457 128.33C74.6673 127.646 74.6673 125.935 75.8457 125.251L91.5916 116.895C92.9728 116.093 94.6745 116.093 96.0522 116.895L107.686 123.651C108.865 124.335 108.865 126.046 107.686 126.73Z" fill="#E072C8" fill-opacity="0.18"/>
  <path d="M42.8908 54.5408C42.9371 53.8999 43.2077 53.2985 43.6562 52.8403L46.1091 50.3522C46.4829 49.9727 46.6395 49.4321 46.5327 48.913L45.9133 45.9058C45.8741 45.7125 45.7495 45.5693 45.5964 45.4905L45.6 45.4869L42.1254 43.7793L42.04 43.7363C41.8477 43.6576 41.6092 43.679 41.4277 43.833L40.4166 44.6707L41.449 41.5131C41.5736 41.1301 41.3885 40.7327 41.0503 40.5644H41.0645L37.5935 38.8568L37.5864 38.8532C37.501 38.8067 37.4084 38.7744 37.3087 38.7637L35.0766 38.4809C34.7598 38.4415 34.4501 38.5453 34.2293 38.7565V38.7601C34.1261 38.8532 34.0371 38.9713 33.9801 39.1074L32.3283 42.8986C32.1717 43.2638 31.9011 43.5681 31.57 43.7757L31.4525 43.4678C31.392 43.3139 31.2781 43.2029 31.1464 43.142L27.7359 41.4666L27.6255 41.4129L27.622 41.4093C27.4155 41.327 27.1663 41.3628 26.9919 41.5418L24.0655 44.5132C23.8591 44.7208 23.7095 44.975 23.6205 45.2507C23.5458 45.5084 23.5209 45.7805 23.5636 46.0562L23.9837 48.7626C24.0335 49.0956 23.9623 49.4393 23.7807 49.7221L22.1182 52.3319C22.0221 52.4858 21.8975 52.6147 21.7587 52.715C21.5273 52.8832 21.246 52.9763 20.9541 52.9763H19.0566C18.9427 52.9763 18.8252 52.9906 18.7184 53.0228C18.3126 53.1302 17.9779 53.431 17.832 53.8391L16.1588 58.4358C16.0377 58.7687 16.1801 59.1339 16.4756 59.3022H16.4792C16.4827 59.3057 16.4863 59.3057 16.4899 59.3093L18.9641 60.5301C18.9925 60.6375 19.0032 60.7485 18.9925 60.8666L18.7149 63.4478C18.6935 63.6125 18.6543 63.7736 18.5903 63.9239C18.5048 64.1387 18.3802 64.3321 18.22 64.5003L15.6782 67.1352C15.4966 67.3214 15.372 67.5433 15.2973 67.7868C15.2189 68.0481 15.2083 68.3238 15.2652 68.5958L15.9843 71.8715C16.0199 72.0326 16.1267 72.1436 16.2585 72.2045L16.2549 72.2081L19.7117 73.9086C19.8719 73.9981 20.0819 73.9945 20.2421 73.862L21.3635 72.9312L20.4237 76.1998C20.4023 76.2714 20.3916 76.3501 20.3952 76.4217C20.4023 76.7045 20.5696 76.9587 20.8259 77.0804L20.8331 77.0912L24.1973 78.7344V78.7308C24.2969 78.8024 24.4109 78.8561 24.5426 78.874L26.4863 79.1175C27.0203 79.1855 27.5365 78.8919 27.7537 78.3979L29.4091 74.6818C29.5764 74.3059 29.8612 74.0016 30.2137 73.7976L30.2991 74.0446C30.3596 74.2236 30.4949 74.3453 30.6551 74.4026L30.6515 74.4062L34.0691 76.0924C34.0727 76.0959 34.0798 76.0959 34.0834 76.0995L34.1012 76.1067V76.1031C34.3041 76.1962 34.5569 76.1783 34.742 76.0064L37.7181 73.2677C38.0777 72.9348 38.2521 72.4479 38.1845 71.961L37.7644 68.9682C37.6932 68.4634 37.8071 67.9479 38.0813 67.5183L39.4447 65.4025C39.7972 64.8583 40.3988 64.529 41.0432 64.529H42.8552C43.3073 64.529 43.7132 64.2461 43.8698 63.8201L45.511 59.3666C45.6676 58.9442 45.4861 58.4895 45.1229 58.2747H45.1265L45.1087 58.264C45.0873 58.2532 45.0624 58.2425 45.0411 58.2317L42.7627 57.1148C42.7377 57.0217 42.7271 56.9215 42.7342 56.8212L42.8908 54.5408ZM31.9687 52.3999C32.816 51.7985 33.6384 51.4476 34.4038 51.3223C34.742 51.9524 34.9698 52.7543 35.0588 53.7245C35.4291 57.7305 33.083 62.8643 29.8185 65.1948C28.9712 65.7999 28.1631 66.1614 27.4226 66.3046C27.0631 65.6602 26.8174 64.844 26.7284 63.8738C26.3582 59.8606 28.7042 54.7269 31.9687 52.3999Z" fill="#3263C9"/>
  <path opacity="0.2" d="M22.5276 65.7356L18.7683 69.5806L15.2937 67.7798C15.3685 67.54 15.4931 67.318 15.6746 67.1283L18.2165 64.4934C18.3767 64.3251 18.5048 64.1318 18.5867 63.917L22.5276 65.7356Z" fill="white"/>
  <path opacity="0.2" d="M25.2618 54.4293L25.187 54.8589H21.9261L18.7185 53.0188C18.8253 52.9866 18.9392 52.9723 19.0567 52.9723H20.9542C21.2461 52.9723 21.5273 52.8792 21.7587 52.7109L25.2618 54.4293Z" fill="white"/>
  <path opacity="0.2" d="M31.1428 43.1384L29.6725 44.5954H29.6689L27.0666 47.1694L23.6205 45.2577L23.6169 45.2506C23.7024 44.9749 23.8519 44.7207 24.0619 44.5131L26.9883 41.5417C27.1627 41.3627 27.4083 41.3269 27.6184 41.4092L27.6219 41.4128L27.7323 41.4665L31.1428 43.1384Z" fill="white"/>
  <path opacity="0.2" d="M41.0644 40.5643H37.6397L34.2292 38.7599V38.7564C34.45 38.5487 34.7597 38.4413 35.0765 38.4807L37.3086 38.7635C37.4083 38.7743 37.5009 38.8101 37.5863 38.853L37.5934 38.8566L41.0644 40.5643Z" fill="white"/>
  <path d="M43.6561 52.8404L46.109 50.3523C46.4828 49.9728 46.6394 49.4322 46.5326 48.9131L45.9132 45.9059C45.8206 45.4513 45.2795 45.2615 44.9235 45.5551L42.3781 47.6601C42.104 47.8857 41.7017 47.8642 41.456 47.6064L40.7227 46.8403C40.2599 46.357 40.0997 45.6553 40.3097 45.0145L41.456 41.5133C41.6091 41.0407 41.2994 40.5467 40.8081 40.4822L38.576 40.1994C38.1132 40.1421 37.6646 40.3963 37.476 40.8259L35.8241 44.6171C35.6212 45.079 35.2545 45.4477 34.7917 45.641L33.3072 46.2711C32.9441 46.425 32.524 46.246 32.3816 45.8773L31.456 43.4644C31.3029 43.0634 30.7903 42.956 30.4877 43.2603L27.5614 46.2317C27.1626 46.6363 26.9775 47.2126 27.063 47.7747L27.4795 50.4812C27.5293 50.8141 27.4581 51.1578 27.2766 51.4442L25.614 54.054C25.3613 54.455 24.9198 54.6948 24.4499 54.6948H22.556C22.0078 54.6948 21.5165 55.0385 21.3278 55.5576L19.6546 60.1543C19.5158 60.5374 19.7258 60.9634 20.1138 61.0816L21.8511 61.6114C22.2676 61.7403 22.5382 62.1484 22.4884 62.5816L22.2071 65.1592C22.1644 65.5566 21.99 65.9289 21.7123 66.2153L19.1704 68.8502C18.8002 69.2368 18.6436 69.7845 18.7575 70.3072L19.4766 73.5829C19.5514 73.9302 19.9679 74.0734 20.242 73.8478L22.7411 71.775C23.1576 71.4313 23.7735 71.4922 24.1117 71.9111L24.7454 72.6915C25.0551 73.0746 25.1619 73.5865 25.0231 74.0626L23.9159 77.9111C23.7878 78.3551 24.0832 78.8061 24.5389 78.8634L26.4827 79.1069C27.0167 79.1749 27.5329 78.8813 27.75 78.3873L29.4054 74.6712C29.5941 74.2488 29.9252 73.9087 30.3417 73.7082L31.7906 73.0137C32.2712 72.781 32.848 73.0244 33.0224 73.5328L33.7914 75.7524C33.9302 76.1534 34.4286 76.2787 34.7419 75.9923L37.718 73.2536C38.0776 72.9206 38.252 72.4337 38.1844 71.9469L37.7643 68.954C37.6931 68.4492 37.807 67.9337 38.0812 67.5041L39.4446 65.3883C39.7971 64.8441 40.3987 64.5148 41.0431 64.5148H42.8551C43.3072 64.5148 43.7131 64.232 43.8697 63.8059L45.5109 59.3524C45.696 58.8512 45.4112 58.3035 44.9021 58.1639L43.4069 57.7593C42.9833 57.6448 42.702 57.2474 42.7341 56.807L42.8943 54.5373C42.9334 53.9001 43.2076 53.2986 43.6561 52.8404ZM33.3143 66.9098C30.0498 69.2368 27.1021 67.8728 26.7319 63.8668C26.3616 59.8608 28.7077 54.7271 31.9722 52.4001C35.2367 50.0731 38.1844 51.437 38.5582 55.4431C38.9249 59.4491 36.5788 64.5864 33.3143 66.9098Z" fill="#3263C9"/>
  <path opacity="0.5" d="M43.6561 52.8404L46.109 50.3523C46.4828 49.9728 46.6394 49.4322 46.5326 48.9131L45.9132 45.9059C45.8206 45.4513 45.2795 45.2615 44.9235 45.5551L42.3781 47.6601C42.104 47.8857 41.7017 47.8642 41.456 47.6064L40.7227 46.8403C40.2599 46.357 40.0997 45.6553 40.3097 45.0145L41.456 41.5133C41.6091 41.0407 41.2994 40.5467 40.8081 40.4822L38.576 40.1994C38.1132 40.1421 37.6646 40.3963 37.476 40.8259L35.8241 44.6171C35.6212 45.079 35.2545 45.4477 34.7917 45.641L33.3072 46.2711C32.9441 46.425 32.524 46.246 32.3816 45.8773L31.456 43.4644C31.3029 43.0634 30.7903 42.956 30.4877 43.2603L27.5614 46.2317C27.1626 46.6363 26.9775 47.2126 27.063 47.7747L27.4795 50.4812C27.5293 50.8141 27.4581 51.1578 27.2766 51.4442L25.614 54.054C25.3613 54.455 24.9198 54.6948 24.4499 54.6948H22.556C22.0078 54.6948 21.5165 55.0385 21.3278 55.5576L19.6546 60.1543C19.5158 60.5374 19.7258 60.9634 20.1138 61.0816L21.8511 61.6114C22.2676 61.7403 22.5382 62.1484 22.4884 62.5816L22.2071 65.1592C22.1644 65.5566 21.99 65.9289 21.7123 66.2153L19.1704 68.8502C18.8002 69.2368 18.6436 69.7845 18.7575 70.3072L19.4766 73.5829C19.5514 73.9302 19.9679 74.0734 20.242 73.8478L22.7411 71.775C23.1576 71.4313 23.7735 71.4922 24.1117 71.9111L24.7454 72.6915C25.0551 73.0746 25.1619 73.5865 25.0231 74.0626L23.9159 77.9111C23.7878 78.3551 24.0832 78.8061 24.5389 78.8634L26.4827 79.1069C27.0167 79.1749 27.5329 78.8813 27.75 78.3873L29.4054 74.6712C29.5941 74.2488 29.9252 73.9087 30.3417 73.7082L31.7906 73.0137C32.2712 72.781 32.848 73.0244 33.0224 73.5328L33.7914 75.7524C33.9302 76.1534 34.4286 76.2787 34.7419 75.9923L37.718 73.2536C38.0776 72.9206 38.252 72.4337 38.1844 71.9469L37.7643 68.954C37.6931 68.4492 37.807 67.9337 38.0812 67.5041L39.4446 65.3883C39.7971 64.8441 40.3987 64.5148 41.0431 64.5148H42.8551C43.3072 64.5148 43.7131 64.232 43.8697 63.8059L45.5109 59.3524C45.696 58.8512 45.4112 58.3035 44.9021 58.1639L43.4069 57.7593C42.9833 57.6448 42.702 57.2474 42.7341 56.807L42.8943 54.5373C42.9334 53.9001 43.2076 53.2986 43.6561 52.8404ZM33.3143 66.9098C30.0498 69.2368 27.1021 67.8728 26.7319 63.8668C26.3616 59.8608 28.7077 54.7271 31.9722 52.4001C35.2367 50.0731 38.1844 51.437 38.5582 55.4431C38.9249 59.4491 36.5788 64.5864 33.3143 66.9098Z" fill="white"/>
  <path d="M61.9546 23.1872C61.9866 22.7182 62.186 22.2779 62.5171 21.9449L64.3113 20.1263C64.5819 19.8506 64.6993 19.4533 64.621 19.0738L64.1689 16.8721C64.1404 16.7289 64.0514 16.6286 63.9375 16.5678L63.9411 16.5642L61.3992 15.3148L61.3387 15.2826C61.1963 15.2253 61.0254 15.2396 60.8901 15.3542L60.1497 15.9663L60.9044 13.6572C60.9969 13.3744 60.8581 13.0844 60.6125 12.9627H60.6231L58.0849 11.7133L58.0813 11.7097C58.0208 11.6775 57.9531 11.6524 57.8784 11.6453L56.2479 11.4376C56.0165 11.409 55.7887 11.4842 55.6285 11.6381V11.6417C55.5537 11.7097 55.4896 11.7956 55.4469 11.8959L54.2365 14.6668C54.1226 14.9353 53.9268 15.1573 53.6811 15.3076L53.5957 15.0821C53.553 14.9675 53.4675 14.8888 53.3714 14.8458L50.8759 13.6214L50.794 13.5821L50.7904 13.5785C50.6373 13.5176 50.4558 13.5463 50.3312 13.6751L48.1916 15.8482C48.0385 16.0021 47.9317 16.1883 47.8677 16.3888C47.8107 16.5785 47.7965 16.779 47.8249 16.9795L48.1311 18.9592C48.1667 19.2027 48.1169 19.4533 47.9816 19.6609L46.7641 21.569C46.6929 21.68 46.6039 21.7767 46.5006 21.8483C46.3333 21.97 46.1268 22.038 45.9132 22.038H44.5248C44.4394 22.038 44.3575 22.0488 44.2792 22.0702C43.9837 22.149 43.7381 22.371 43.6313 22.6681L42.4066 26.0297C42.3176 26.2732 42.4209 26.5417 42.638 26.6634C42.6416 26.6634 42.6451 26.667 42.6451 26.667L44.4572 27.5584C44.4785 27.6371 44.4857 27.7195 44.475 27.8018L44.2721 29.6885C44.2578 29.8066 44.2293 29.9248 44.1831 30.0393C44.1225 30.1968 44.03 30.34 43.9125 30.4618L42.0506 32.3878C41.9189 32.5238 41.8263 32.6885 41.7729 32.8639C41.716 33.0537 41.7089 33.2577 41.7516 33.4546L42.2785 35.8497C42.3034 35.9678 42.3817 36.0501 42.4778 36.0931H42.4743L45.0019 37.3389C45.1193 37.4034 45.2724 37.4034 45.3899 37.3031L46.2123 36.6229L45.5252 39.0144C45.5074 39.0681 45.5038 39.1254 45.5038 39.1791C45.5074 39.3867 45.632 39.5729 45.8171 39.6588L45.8207 39.6659L48.2806 40.8688V40.8652C48.3518 40.9189 48.4373 40.9583 48.5334 40.9691L49.9538 41.1481C50.3454 41.1982 50.7192 40.9834 50.883 40.6218L52.0934 37.9046C52.2144 37.6289 52.4245 37.407 52.6808 37.2566L52.7413 37.4356C52.7876 37.5681 52.8873 37.654 53.0012 37.6969L52.9976 37.7005L55.4967 38.932C55.5003 38.9356 55.5039 38.9356 55.5074 38.9392L55.5217 38.9464C55.6712 39.0144 55.8563 39.0001 55.9916 38.8748L58.1667 36.8735C58.4302 36.6301 58.5583 36.2721 58.5085 35.9177L58.1988 33.7303C58.1454 33.3616 58.2308 32.9821 58.4302 32.6706L59.427 31.1205C59.6833 30.7231 60.1247 30.4797 60.5982 30.4797H61.9225C62.2536 30.4797 62.5491 30.272 62.6666 29.9606L63.8663 26.7028C63.9802 26.3949 63.8485 26.0619 63.5815 25.9044H63.5851L63.5708 25.8973C63.553 25.8865 63.5388 25.8794 63.521 25.8722L61.8549 25.0595C61.8371 24.9915 61.83 24.9199 61.8335 24.8447L61.9546 23.1872ZM53.9659 21.6227C54.5854 21.1824 55.187 20.9246 55.7459 20.8351C55.9916 21.297 56.1589 21.8805 56.2265 22.5929C56.4971 25.5249 54.7812 29.2768 52.3924 30.9809C51.773 31.4212 51.182 31.6861 50.6409 31.7899C50.3775 31.3174 50.1995 30.7231 50.1318 30.0107C49.8613 27.0787 51.5772 23.3232 53.9659 21.6227Z" fill="#3263C9"/>
  <path opacity="0.2" d="M47.0596 31.3747L44.3077 34.185L41.7659 32.8676C41.8193 32.6922 41.9118 32.5275 42.0435 32.3915L43.9054 30.4654C44.0229 30.3437 44.1155 30.2005 44.176 30.043L47.0596 31.3747Z" fill="white"/>
  <path opacity="0.2" d="M49.0602 23.1046L49.0032 23.4196H46.618L44.272 22.0735C44.3503 22.052 44.4357 22.0413 44.5176 22.0413H45.906C46.1196 22.0413 46.3261 21.9733 46.4934 21.8516L49.0602 23.1046Z" fill="white"/>
  <path opacity="0.2" d="M53.3608 14.8458L52.2857 15.9091H52.2822L50.3776 17.7921L47.8571 16.3924L47.8535 16.3888C47.9176 16.1883 48.028 16.0021 48.1775 15.8482L50.317 13.6751C50.4452 13.5463 50.6268 13.5176 50.7763 13.5785L50.7798 13.5821L50.8617 13.6214L53.3608 14.8458Z" fill="white"/>
  <path opacity="0.2" d="M60.6159 12.9627H58.1132L55.6177 11.6417V11.6381C55.7814 11.4842 56.0057 11.409 56.2371 11.4376L57.8676 11.6453C57.9424 11.6524 58.01 11.6775 58.0705 11.7097L58.0741 11.7133L60.6159 12.9627Z" fill="white"/>
  <path d="M62.5135 21.9453L64.3077 20.1267C64.5783 19.851 64.6958 19.4536 64.6174 19.0742L64.1653 16.8725C64.0977 16.5395 63.7025 16.3999 63.4426 16.6147L61.5808 18.1541C61.3814 18.3188 61.0859 18.3045 60.9044 18.1147L60.3668 17.5527C60.0286 17.1982 59.9111 16.6863 60.0642 16.2173L60.9008 13.654C61.0147 13.3104 60.7869 12.9452 60.4273 12.9022L58.7968 12.6946C58.4586 12.6516 58.1311 12.8378 57.9923 13.1528L56.7854 15.9238C56.6395 16.2603 56.3689 16.5288 56.0307 16.672L54.9449 17.1338C54.6779 17.2484 54.3718 17.1159 54.2685 16.8438L53.5921 15.0789C53.4782 14.7853 53.1044 14.7066 52.8837 14.9285L50.7441 17.1016C50.4522 17.3987 50.3169 17.8176 50.381 18.2329L50.6872 20.2126C50.7263 20.456 50.6729 20.7066 50.5412 20.9143L49.3237 22.8224C49.1386 23.116 48.8146 23.2914 48.4693 23.2914H47.0844C46.6822 23.2914 46.3262 23.542 46.1873 23.9215L44.9627 27.2831C44.8594 27.5659 45.0125 27.8738 45.2973 27.9597L46.5682 28.3464C46.8744 28.4394 47.0702 28.7366 47.0346 29.0588L46.8317 30.9454C46.7996 31.2354 46.6715 31.5075 46.4721 31.7187L44.6138 33.6448C44.3432 33.9276 44.2293 34.3285 44.3112 34.7116L44.8381 37.1066C44.895 37.3608 45.1976 37.4646 45.397 37.2999L47.2268 35.7856C47.5294 35.535 47.9816 35.578 48.2308 35.8858L48.6936 36.4551C48.9214 36.7343 48.9962 37.1102 48.8965 37.4575L48.0848 40.2713C47.9922 40.5935 48.2094 40.9265 48.5405 40.9659L49.9609 41.1449C50.3525 41.195 50.7263 40.9802 50.8901 40.6186L52.1005 37.9014C52.2393 37.5935 52.4814 37.3429 52.784 37.1997L53.8449 36.6913C54.1973 36.5231 54.6174 36.6985 54.7456 37.0708L55.308 38.6961C55.4077 38.9897 55.7744 39.0828 56.0022 38.8716L58.1774 36.8703C58.4408 36.6269 58.569 36.2689 58.5192 35.9145L58.2094 33.7271C58.156 33.3584 58.2415 32.9789 58.4408 32.6674L59.4376 31.1173C59.694 30.7199 60.1354 30.4765 60.6089 30.4765H61.9332C62.2643 30.4765 62.5598 30.2688 62.6772 29.9574L63.877 26.6996C64.0122 26.3344 63.8058 25.9334 63.432 25.8296L62.339 25.5325C62.0293 25.4501 61.8228 25.1566 61.8478 24.838L61.9652 23.1804C61.9866 22.7186 62.186 22.2783 62.5135 21.9453ZM54.9485 32.2342C52.5597 33.9347 50.4024 32.9395 50.1318 30.0075C49.8612 27.0755 51.5772 23.32 53.9659 21.6195C56.3547 19.919 58.512 20.9143 58.7826 23.8463C59.0532 26.7783 57.3372 30.5337 54.9485 32.2342Z" fill="#3263C9"/>
  <path opacity="0.5" d="M62.5135 21.9453L64.3077 20.1267C64.5783 19.851 64.6958 19.4536 64.6174 19.0742L64.1653 16.8725C64.0977 16.5395 63.7025 16.3999 63.4426 16.6147L61.5808 18.1541C61.3814 18.3188 61.0859 18.3045 60.9044 18.1147L60.3668 17.5527C60.0286 17.1982 59.9111 16.6863 60.0642 16.2173L60.9008 13.654C61.0147 13.3104 60.7869 12.9452 60.4273 12.9022L58.7968 12.6946C58.4586 12.6516 58.1311 12.8378 57.9923 13.1528L56.7854 15.9238C56.6395 16.2603 56.3689 16.5288 56.0307 16.672L54.9449 17.1338C54.6779 17.2484 54.3718 17.1159 54.2685 16.8438L53.5921 15.0789C53.4782 14.7853 53.1044 14.7066 52.8837 14.9285L50.7441 17.1016C50.4522 17.3987 50.3169 17.8176 50.381 18.2329L50.6872 20.2126C50.7263 20.456 50.6729 20.7066 50.5412 20.9143L49.3237 22.8224C49.1386 23.116 48.8146 23.2914 48.4693 23.2914H47.0844C46.6822 23.2914 46.3262 23.542 46.1873 23.9215L44.9627 27.2831C44.8594 27.5659 45.0125 27.8738 45.2973 27.9597L46.5682 28.3464C46.8744 28.4394 47.0702 28.7366 47.0346 29.0588L46.8317 30.9454C46.7996 31.2354 46.6715 31.5075 46.4721 31.7187L44.6138 33.6448C44.3432 33.9276 44.2293 34.3285 44.3112 34.7116L44.8381 37.1066C44.895 37.3608 45.1976 37.4646 45.397 37.2999L47.2268 35.7856C47.5294 35.535 47.9816 35.578 48.2308 35.8858L48.6936 36.4551C48.9214 36.7343 48.9962 37.1102 48.8965 37.4575L48.0848 40.2713C47.9922 40.5935 48.2094 40.9265 48.5405 40.9659L49.9609 41.1449C50.3525 41.195 50.7263 40.9802 50.8901 40.6186L52.1005 37.9014C52.2393 37.5935 52.4814 37.3429 52.784 37.1997L53.8449 36.6913C54.1973 36.5231 54.6174 36.6985 54.7456 37.0708L55.308 38.6961C55.4077 38.9897 55.7744 39.0828 56.0022 38.8716L58.1774 36.8703C58.4408 36.6269 58.569 36.2689 58.5192 35.9145L58.2094 33.7271C58.156 33.3584 58.2415 32.9789 58.4408 32.6674L59.4376 31.1173C59.694 30.7199 60.1354 30.4765 60.6089 30.4765H61.9332C62.2643 30.4765 62.5598 30.2688 62.6772 29.9574L63.877 26.6996C64.0122 26.3344 63.8058 25.9334 63.432 25.8296L62.339 25.5325C62.0293 25.4501 61.8228 25.1566 61.8478 24.838L61.9652 23.1804C61.9866 22.7186 62.186 22.2783 62.5135 21.9453ZM54.9485 32.2342C52.5597 33.9347 50.4024 32.9395 50.1318 30.0075C49.8612 27.0755 51.5772 23.32 53.9659 21.6195C56.3547 19.919 58.512 20.9143 58.7826 23.8463C59.0532 26.7783 57.3372 30.5337 54.9485 32.2342Z" fill="white"/>
  <path d="M104.575 126.35L93.1938 132.865C92.4355 133.302 91.6025 133.549 90.7623 133.613C89.6053 133.703 88.427 133.449 87.3874 132.847L80.093 128.608L79.26 128.125C77.5013 127.101 76.4155 125.211 76.4155 123.167V102.048L93.4964 92.2715V113.841C93.4964 115.61 94.4327 117.238 95.9528 118.123L104.589 123.138C105.814 123.851 105.81 125.641 104.575 126.35Z" fill="#263238"/>
  <path d="M90.7588 133.613C91.5989 133.549 92.4355 133.302 93.1903 132.865L104.572 126.349C105.807 125.64 105.81 123.85 104.582 123.138L98.6869 119.712H90.7588V133.613Z" fill="#37474F"/>
  <path d="M104.372 121.721L104.686 121.975C105.202 122.387 105.501 123.017 105.501 123.679V124.746H104.362L104.372 121.721Z" fill="#37484F"/>
  <path d="M94.8029 93.9043V113.311C94.8029 115.019 95.7107 116.602 97.181 117.457L104.372 121.724C105.565 122.415 105.558 124.148 104.361 124.832L103.543 125.301L93.3433 131.136C91.5989 132.135 89.4593 132.128 87.7221 131.118L80.6483 126.919C79.1781 126.063 78.2703 124.485 78.2703 122.773V103.366L94.8029 93.9043Z" fill="#455A64"/>
  <path d="M94.803 113.311V93.9043L78.2668 103.366V122.773C78.2668 124.481 79.1746 126.063 80.6449 126.919L96.9355 117.303C95.6112 116.419 94.803 114.922 94.803 113.311Z" fill="#263238"/>
  <path d="M125.967 13.4683C125.967 12.1509 125.276 10.9301 124.152 10.2571L124.002 10.1676C122.966 9.54821 121.781 9.21885 120.574 9.21885C120.207 9.21527 119.83 9.30477 119.474 9.50883L38.4837 56.346C36.4581 57.5238 35.2085 59.6969 35.2085 62.0525V137.712C35.2085 139.373 36.9956 140.412 38.4267 139.581L119.417 92.7474C121.442 91.5696 122.692 89.3965 122.692 87.0409V13.4683H125.967Z" fill="#455A64"/>
  <path d="M45.2014 64.8846V135.647L42.4816 137.226L40.6019 138.318V141.772C39.3951 141.772 38.2131 141.446 37.1736 140.824L37.0277 140.734C36.1483 140.208 35.5396 139.345 35.3117 138.364C35.2512 138.16 35.2085 137.942 35.2085 137.713V62.0528C35.2085 61.0074 35.4577 59.9979 35.9063 59.0957L45.2014 64.8846Z" fill="#263238"/>
  <path d="M42.4816 137.229L40.6019 138.321V141.775C39.3951 141.775 38.2131 141.449 37.1736 140.827L37.0277 140.737C36.1483 140.211 35.5396 139.348 35.3117 138.367C35.2512 138.163 35.2085 137.945 35.2085 137.716V133.008L42.4816 137.229Z" fill="#37474F"/>
  <path d="M122.692 94.6484L41.6985 141.482C40.2673 142.313 38.4802 141.274 38.4802 139.613V63.9535C38.4802 61.5979 39.7298 59.4248 41.7554 58.247L122.749 11.4134C124.18 10.5829 125.967 11.6211 125.967 13.2822V88.9419C125.967 91.2975 124.718 93.4706 122.692 94.6484Z" fill="#37474F"/>
  <path d="M38.4802 134.905V139.613C38.4802 141.274 40.2673 142.312 41.6985 141.482L122.688 94.6482C124.714 93.4704 125.964 91.2974 125.964 88.9417V84.1123L38.4802 134.905Z" fill="#455A64"/>
  <path d="M121.272 16.5469C121.286 16.5469 121.282 16.5469 121.257 16.5469V16.5505C121.136 16.5505 120.599 16.5612 120.193 16.7975L44.073 60.8028C42.2823 61.841 41.1787 63.7635 41.1787 65.8435V126.299C41.1787 126.575 41.2357 126.829 41.3318 127.058C41.759 128.05 42.9943 128.544 44.0196 127.949L120.14 83.944C121.93 82.9058 123.034 80.9833 123.034 78.9033V18.4479C123.034 17.3846 122.208 16.6185 121.272 16.5469Z" fill="#2C91B7"/>
  <path opacity="0.4" d="M121.272 16.5469C121.286 16.5469 121.282 16.5469 121.257 16.5469V16.5505C121.136 16.5505 120.599 16.5612 120.193 16.7975L44.073 60.8028C42.2823 61.841 41.1787 63.7635 41.1787 65.8435V126.299C41.1787 126.575 41.2357 126.829 41.3318 127.058C41.759 128.05 42.9943 128.544 44.0196 127.949L120.14 83.944C121.93 82.9058 123.034 80.9833 123.034 78.9033V18.4479C123.034 17.3846 122.208 16.6185 121.272 16.5469Z" fill="black"/>
  <path d="M48.5584 130.682V73.6846L46.2551 72.3457V128.681C46.2551 129.969 47.4014 130.854 48.5584 130.682Z" fill="#E0E0E0"/>
  <path d="M47.2839 130.445L49.6585 131.795V127.592L47.2839 130.445Z" fill="#DFDFDF"/>
  <path d="M130.542 22.4798V82.6417C130.542 84.847 129.37 86.8876 127.466 87.9938L51.5096 131.913C50.1675 132.69 48.4907 131.72 48.4907 130.163V70.0008C48.4907 67.7919 49.662 65.7549 51.5666 64.6487L127.523 20.7256C128.861 19.9452 130.542 20.9225 130.542 22.4798Z" fill="#FAFAFA"/>
  <path d="M128.591 20.6432C129.388 20.6432 130.25 21.2804 130.25 22.3114V82.4733C130.25 84.5462 129.139 86.4794 127.356 87.514L51.3994 131.437C51.1395 131.587 50.8618 131.663 50.5735 131.663C49.776 131.663 48.9145 131.025 48.9145 129.994V69.8324C48.9145 67.7595 50.0252 65.8263 51.8088 64.7917L127.768 20.8687C128.025 20.7183 128.302 20.6432 128.591 20.6432ZM128.591 20.2852C128.256 20.2852 127.911 20.3711 127.587 20.5608L51.6308 64.4838C49.7297 65.5865 48.5549 67.6235 48.5549 69.8359V129.998C48.5549 131.179 49.5197 132.024 50.5699 132.024C50.9045 132.024 51.2499 131.938 51.5738 131.752L127.53 87.829C129.431 86.7264 130.606 84.6858 130.606 82.4769V22.3114C130.609 21.13 129.641 20.2852 128.591 20.2852Z" fill="#E0E0E0"/>
  <path d="M127.355 19.2861C126.761 18.9138 125.978 18.8422 125.284 19.2467L49.3274 63.1698C47.4264 64.2724 46.2551 66.313 46.2551 68.5219V72.3453L48.5584 73.6842L128.302 27.3877V21.9282L129.641 20.5821L127.355 19.2861Z" fill="#3263C9"/>
  <path opacity="0.4" d="M127.355 19.2861C126.761 18.9138 125.978 18.8422 125.284 19.2467L49.3274 63.1698C47.4264 64.2724 46.2551 66.313 46.2551 68.5219V72.3453L48.5584 73.6842L128.302 27.3877V21.9282L129.641 20.5821L127.355 19.2861Z" fill="white"/>
  <path d="M130.609 22.3114V26.0489L48.5583 73.6844V69.8359C48.5583 67.627 49.7296 65.59 51.6342 64.4838L127.59 20.5572C128.929 19.7803 130.609 20.7541 130.609 22.3114Z" fill="#3263C9"/>
  <path opacity="0.6" d="M130.609 22.3114V26.0489L48.5583 73.6844V69.8359C48.5583 67.627 49.7296 65.59 51.6342 64.4838L127.59 20.5572C128.929 19.7803 130.609 20.7541 130.609 22.3114Z" fill="white"/>
  <path d="M47.0454 65.4932C46.5364 66.4025 46.2551 67.4407 46.2551 68.5218V72.3453L48.5584 73.6842V69.8357C48.5584 68.7617 48.8397 67.7271 49.3417 66.8213L47.0454 65.4932Z" fill="#3263C9"/>
  <path d="M76.394 103.893C76.184 103.893 75.9846 103.843 75.8066 103.739C75.3225 103.46 75.0483 102.826 75.0483 102.006C75.0483 100.517 75.9597 98.7736 77.0775 98.1256L106.896 80.8127C107.419 80.5084 107.932 80.4726 108.341 80.7089C108.826 80.9881 109.1 81.6218 109.1 82.4416C109.1 83.9309 108.188 85.6743 107.071 86.3223L106.982 86.1684L107.071 86.3223L77.252 103.635C76.9601 103.803 76.6681 103.893 76.394 103.893ZM107.754 80.9129C107.544 80.9129 107.313 80.9845 107.074 81.1206L77.2555 98.4335C76.2338 99.0242 75.4043 100.628 75.4043 102.006C75.4043 102.697 75.6179 103.213 75.9846 103.428C76.2801 103.599 76.6681 103.564 77.0775 103.324L106.896 86.0109C107.918 85.4202 108.747 83.8163 108.747 82.438C108.747 81.7471 108.534 81.2316 108.167 81.0168C108.042 80.9487 107.904 80.9129 107.754 80.9129Z" fill="#3263C9"/>
  <path opacity="0.5" d="M76.394 103.893C76.184 103.893 75.9846 103.843 75.8066 103.739C75.3225 103.46 75.0483 102.826 75.0483 102.006C75.0483 100.517 75.9597 98.7736 77.0775 98.1256L106.896 80.8127C107.419 80.5084 107.932 80.4726 108.341 80.7089C108.826 80.9881 109.1 81.6218 109.1 82.4416C109.1 83.9309 108.188 85.6743 107.071 86.3223L106.982 86.1684L107.071 86.3223L77.252 103.635C76.9601 103.803 76.6681 103.893 76.394 103.893ZM107.754 80.9129C107.544 80.9129 107.313 80.9845 107.074 81.1206L77.2555 98.4335C76.2338 99.0242 75.4043 100.628 75.4043 102.006C75.4043 102.697 75.6179 103.213 75.9846 103.428C76.2801 103.599 76.6681 103.564 77.0775 103.324L106.896 86.0109C107.918 85.4202 108.747 83.8163 108.747 82.438C108.747 81.7471 108.534 81.2316 108.167 81.0168C108.042 80.9487 107.904 80.9129 107.754 80.9129Z" fill="black"/>
  <path d="M77.7254 99.0991C77.4299 99.271 77.1629 99.586 76.9671 99.9619C76.7713 100.331 76.6538 100.76 76.6538 101.158C76.6538 101.952 77.1344 102.318 77.7254 101.974L95.7212 91.5489V88.6777L77.7254 99.0991Z" fill="#3263C9"/>
  <path opacity="0.3" d="M77.7254 99.0991C77.4299 99.271 77.1629 99.586 76.9671 99.9619C76.7713 100.331 76.6538 100.76 76.6538 101.158C76.6538 101.952 77.1344 102.318 77.7254 101.974L95.7212 91.5489V88.6777L77.7254 99.0991Z" fill="black"/>
  <path d="M106.423 82.4741L95.7212 88.671V91.5422L106.423 85.3452C106.718 85.1734 106.985 84.8583 107.181 84.4824C107.377 84.1137 107.494 83.6805 107.494 83.2867C107.494 82.4955 107.014 82.1304 106.423 82.4741Z" fill="#3263C9"/>
  <path d="M93.4109 59.8807C93.4109 60.8473 92.7381 62.0179 91.9051 62.5012C91.072 62.9845 90.3992 62.5943 90.3992 61.6277C90.3992 60.6611 91.072 59.4904 91.9051 59.0071C92.7381 58.5238 93.4109 58.9141 93.4109 59.8807Z" fill="#3263C9"/>
  <path d="M98.6903 58.416C98.6903 59.3003 98.0744 60.3779 97.309 60.8182C96.5472 61.2621 95.9277 60.9005 95.9277 60.0163C95.9277 59.132 96.5472 58.0544 97.309 57.6141C98.0744 57.1738 98.6903 57.5318 98.6903 58.416Z" fill="#3263C9"/>
  <path d="M102.14 60.6753C102.14 61.5202 101.549 62.5477 100.823 62.9701C100.097 63.3925 99.5056 63.0489 99.5056 62.204C99.5056 61.3591 100.097 60.3316 100.823 59.9092C101.549 59.4868 102.14 59.8304 102.14 60.6753Z" fill="#3263C9"/>
  <path opacity="0.5" d="M93.4109 59.8807C93.4109 60.8473 92.7381 62.0179 91.9051 62.5012C91.072 62.9845 90.3992 62.5943 90.3992 61.6277C90.3992 60.6611 91.072 59.4904 91.9051 59.0071C92.7381 58.5238 93.4109 58.9141 93.4109 59.8807Z" fill="black"/>
  <path opacity="0.5" d="M98.6903 58.416C98.6903 59.3003 98.0744 60.3779 97.309 60.8182C96.5472 61.2621 95.9277 60.9005 95.9277 60.0163C95.9277 59.132 96.5472 58.0544 97.309 57.6141C98.0744 57.1738 98.6903 57.5318 98.6903 58.416Z" fill="black"/>
  <path opacity="0.5" d="M102.14 60.6753C102.14 61.5202 101.549 62.5477 100.823 62.9701C100.097 63.3925 99.5056 63.0489 99.5056 62.204C99.5056 61.3591 100.097 60.3316 100.823 59.9092C101.549 59.4868 102.14 59.8304 102.14 60.6753Z" fill="black"/>
  <path d="M102.671 65.7296C102.671 66.5351 102.108 67.5125 101.417 67.9134C100.723 68.3144 100.164 67.9886 100.164 67.1867C100.164 66.3812 100.727 65.4039 101.417 65.0029C102.108 64.5984 102.671 64.9241 102.671 65.7296Z" fill="#3263C9"/>
  <path d="M101.122 72.1166C101.122 72.8792 100.588 73.81 99.9292 74.193C99.2706 74.5761 98.7366 74.2646 98.7366 73.5021C98.7366 72.7396 99.2706 71.8088 99.9292 71.4257C100.588 71.0426 101.122 71.3541 101.122 72.1166Z" fill="#3263C9"/>
  <path d="M97.8752 77.7162C97.8752 78.4393 97.3697 79.32 96.7467 79.6816C96.1237 80.0432 95.6182 79.7496 95.6182 79.0265C95.6182 78.3033 96.1237 77.4226 96.7467 77.061C97.3697 76.6995 97.8752 76.993 97.8752 77.7162Z" fill="#3263C9"/>
  <path opacity="0.3" d="M102.671 65.7296C102.671 66.5351 102.108 67.5125 101.417 67.9134C100.723 68.3144 100.164 67.9886 100.164 67.1867C100.164 66.3812 100.727 65.4039 101.417 65.0029C102.108 64.5984 102.671 64.9241 102.671 65.7296Z" fill="black"/>
  <path opacity="0.3" d="M101.122 72.1166C101.122 72.8792 100.588 73.81 99.9292 74.193C99.2706 74.5761 98.7366 74.2646 98.7366 73.5021C98.7366 72.7396 99.2706 71.8088 99.9292 71.4257C100.588 71.0426 101.122 71.3541 101.122 72.1166Z" fill="black"/>
  <path opacity="0.3" d="M97.8752 77.7162C97.8752 78.4393 97.3697 79.32 96.7467 79.6816C96.1237 80.0432 95.6182 79.7496 95.6182 79.0265C95.6182 78.3033 96.1237 77.4226 96.7467 77.061C97.3697 76.6995 97.8752 76.993 97.8752 77.7162Z" fill="black"/>
  <path d="M92.9731 82.3089C92.9731 82.9927 92.4961 83.8232 91.9087 84.1669C91.3213 84.507 90.8442 84.2313 90.8442 83.5476C90.8442 82.8638 91.3213 82.0332 91.9087 81.6895C92.4961 81.3494 92.9731 81.6251 92.9731 82.3089Z" fill="#3263C9"/>
  <path d="M87.6082 83.6766C87.6082 84.321 87.1596 85.1014 86.6043 85.4236C86.0489 85.7458 85.6003 85.4845 85.6003 84.8401C85.6003 84.1957 86.0489 83.4153 86.6043 83.0931C87.1596 82.7709 87.6082 83.0322 87.6082 83.6766Z" fill="#3263C9"/>
  <path d="M84.4361 81.2101C84.4361 81.8151 84.016 82.5454 83.4962 82.8497C82.9765 83.1504 82.5564 82.907 82.5564 82.302C82.5564 81.7005 82.9765 80.9666 83.4962 80.6623C84.016 80.3616 84.4361 80.6086 84.4361 81.2101Z" fill="#3263C9"/>
  <path opacity="0.2" d="M92.9731 82.3089C92.9731 82.9927 92.4961 83.8232 91.9087 84.1669C91.3213 84.507 90.8442 84.2313 90.8442 83.5476C90.8442 82.8638 91.3213 82.0332 91.9087 81.6895C92.4961 81.3494 92.9731 81.6251 92.9731 82.3089Z" fill="black"/>
  <path opacity="0.2" d="M87.6082 83.6766C87.6082 84.321 87.1596 85.1014 86.6043 85.4236C86.0489 85.7458 85.6003 85.4845 85.6003 84.8401C85.6003 84.1957 86.0489 83.4153 86.6043 83.0931C87.1596 82.7709 87.6082 83.0322 87.6082 83.6766Z" fill="black"/>
  <path opacity="0.2" d="M84.4361 81.2101C84.4361 81.8151 84.016 82.5454 83.4962 82.8497C82.9765 83.1504 82.5564 82.907 82.5564 82.302C82.5564 81.7005 82.9765 80.9666 83.4962 80.6623C84.016 80.3616 84.4361 80.6086 84.4361 81.2101Z" fill="black"/>
  <path d="M83.2364 76.8747C83.2364 77.4368 82.8448 78.1242 82.3571 78.4034C81.8729 78.6862 81.4778 78.4571 81.4778 77.895C81.4778 77.333 81.8694 76.6456 82.3571 76.3664C82.8413 76.0836 83.2364 76.3127 83.2364 76.8747Z" fill="#3263C9"/>
  <path d="M84.6818 70.2262C84.6818 70.7489 84.3151 71.3862 83.8665 71.6475C83.418 71.9088 83.0513 71.6976 83.0513 71.1749C83.0513 70.6523 83.418 70.015 83.8665 69.7537C84.3151 69.4923 84.6818 69.7036 84.6818 70.2262Z" fill="#3263C9"/>
  <path d="M87.608 64.8492C87.608 65.3325 87.2698 65.9196 86.8569 66.1595C86.4404 66.3994 86.1057 66.206 86.1057 65.7227C86.1057 65.2394 86.4439 64.6523 86.8569 64.4125C87.2734 64.1726 87.608 64.3659 87.608 64.8492Z" fill="#3263C9"/>
  <path d="M96.3658 69.503L92.1009 64.917L87.2522 74.7942L89.7157 73.3658V78.5998L93.9023 76.1689V70.935L96.3658 69.503Z" fill="#3263C9"/>
  <path d="M111.777 58.8763C111.777 57.0648 112.738 55.3894 114.297 54.4836L146.362 35.8676C147.309 35.3163 148.459 35.8354 148.762 36.802C148.587 36.0466 148.121 35.3843 147.441 34.9762L147.327 34.9082C146.53 34.432 145.618 34.1779 144.689 34.1779C144.408 34.1743 144.116 34.2423 143.842 34.4034L111.777 53.0194C110.218 53.9251 109.256 55.6006 109.256 57.4121V127.15C109.256 128.429 110.634 129.227 111.734 128.59L111.777 128.565V58.8763Z" fill="#37484F"/>
  <path d="M146.323 111.434L114.258 130.05C113.158 130.691 111.781 129.889 111.781 128.611V58.8728C111.781 57.0613 112.742 55.3859 114.301 54.4801L146.366 35.8641C147.466 35.2233 148.844 36.0252 148.844 37.3033V107.042C148.844 108.853 147.882 110.529 146.323 111.434Z" fill="#455A64"/>
  <path d="M111.777 128.616V58.8772C111.777 58.1039 111.955 57.3557 112.275 56.6826L109.798 55.1396C109.449 55.8342 109.26 56.611 109.26 57.4165V127.008V127.155V127.738C109.26 128.301 109.555 128.823 110.036 129.11L111.314 129.876C111.756 130.141 112.265 130.28 112.777 130.28H113.407C112.557 130.266 111.777 129.575 111.777 128.616Z" fill="#253239"/>
  <path d="M145.22 42.5693V101.185C145.22 102.785 144.372 104.263 142.995 105.062L114.678 121.501C114.451 121.634 114.212 121.694 113.977 121.698C114.305 122.464 115.255 122.844 116.045 122.385L144.362 105.946C145.739 105.148 146.587 103.669 146.587 102.069V44.0336C146.587 43.2137 145.942 42.6195 145.22 42.5693Z" fill="#37484F"/>
  <path d="M113.973 121.698C114.208 121.694 114.447 121.634 114.675 121.501L142.991 105.062C144.369 104.263 145.216 102.785 145.216 101.185V42.5693C145.348 42.5765 144.792 42.5335 144.397 42.7627L116.081 59.202C114.703 60.0004 113.856 61.4789 113.856 63.0792V121.115C113.856 121.329 113.899 121.53 113.977 121.705C113.977 121.705 113.973 121.702 113.973 121.698Z" fill="#3263C9"/>
  <g opacity="0.7">
  <path d="M113.973 121.698C114.208 121.694 114.447 121.634 114.675 121.501L142.991 105.062C144.369 104.263 145.216 102.785 145.216 101.185V42.5693C145.348 42.5765 144.792 42.5335 144.397 42.7627L116.081 59.202C114.703 60.0004 113.856 61.4789 113.856 63.0792V121.115C113.856 121.329 113.899 121.53 113.977 121.705C113.977 121.705 113.973 121.702 113.973 121.698Z" fill="white"/>
  </g>
  <path d="M125.825 50.6133C125.825 50.9391 125.597 51.3365 125.315 51.5012C125.034 51.6659 124.806 51.5334 124.806 51.204C124.806 50.8783 125.034 50.4809 125.315 50.3162C125.593 50.1515 125.825 50.2876 125.825 50.6133Z" fill="#253239"/>
  <path d="M127.719 49.5112C127.719 49.837 127.491 50.2343 127.21 50.399C126.928 50.5637 126.7 50.4312 126.7 50.1019C126.7 49.7761 126.928 49.3787 127.21 49.214C127.491 49.0529 127.719 49.1854 127.719 49.5112Z" fill="#253239"/>
  <path d="M135.376 45.6591L129.21 49.2391C128.965 49.3823 128.769 49.2319 128.769 48.9026C128.769 48.5768 128.968 48.1973 129.21 48.0541L135.376 44.4741C135.622 44.3309 135.818 44.4813 135.818 44.8106C135.818 45.1364 135.622 45.5159 135.376 45.6591Z" fill="#253239"/>
  <path d="M134.333 113.636C134.7 113.636 134.938 114.03 134.938 114.638C134.938 115.594 134.344 116.747 133.639 117.155L130.688 118.866C130.531 118.959 130.382 119.006 130.25 119.006C129.88 119.006 129.645 118.612 129.645 118.004C129.645 117.048 130.239 115.895 130.944 115.487L133.895 113.776C134.052 113.679 134.198 113.636 134.333 113.636ZM134.333 113.382C134.159 113.382 133.97 113.436 133.767 113.554L130.816 115.265C130.029 115.723 129.392 116.948 129.392 118C129.392 118.784 129.744 119.253 130.25 119.253C130.424 119.253 130.613 119.199 130.816 119.081L133.767 117.37C134.554 116.912 135.191 115.687 135.191 114.635C135.191 113.851 134.839 113.382 134.333 113.382Z" fill="#253239"/>
  <path d="M117.42 102.273C117.256 102.273 117.103 102.234 116.964 102.155C116.59 101.936 116.376 101.449 116.376 100.816C116.376 99.6631 117.081 98.317 117.946 97.8122L141.008 84.423C141.414 84.1867 141.809 84.1581 142.126 84.3442C142.5 84.5626 142.713 85.0495 142.713 85.6832C142.713 86.8359 142.008 88.182 141.143 88.6868L141.076 88.5651L141.143 88.6868L118.082 102.076C117.854 102.205 117.63 102.273 117.42 102.273ZM141.674 84.4982C141.51 84.4982 141.332 84.5519 141.147 84.6593L118.085 98.0485C117.295 98.5067 116.654 99.7454 116.654 100.812C116.654 101.346 116.818 101.747 117.103 101.911C117.331 102.044 117.63 102.015 117.946 101.833L141.008 88.4433C141.798 87.9851 142.439 86.7464 142.439 85.6796C142.439 85.1462 142.275 84.7452 141.991 84.5805C141.895 84.5268 141.788 84.4982 141.674 84.4982Z" fill="#3263C9"/>
  <path opacity="0.5" d="M117.42 102.273C117.256 102.273 117.103 102.234 116.964 102.155C116.59 101.936 116.376 101.449 116.376 100.816C116.376 99.6631 117.081 98.317 117.946 97.8122L141.008 84.423C141.414 84.1867 141.809 84.1581 142.126 84.3442C142.5 84.5626 142.713 85.0495 142.713 85.6832C142.713 86.8359 142.008 88.182 141.143 88.6868L141.076 88.5651L141.143 88.6868L118.082 102.076C117.854 102.205 117.63 102.273 117.42 102.273ZM141.674 84.4982C141.51 84.4982 141.332 84.5519 141.147 84.6593L118.085 98.0485C117.295 98.5067 116.654 99.7454 116.654 100.812C116.654 101.346 116.818 101.747 117.103 101.911C117.331 102.044 117.63 102.015 117.946 101.833L141.008 88.4433C141.798 87.9851 142.439 86.7464 142.439 85.6796C142.439 85.1462 142.275 84.7452 141.991 84.5805C141.895 84.5268 141.788 84.4982 141.674 84.4982Z" fill="black"/>
  <path d="M118.448 98.5644C118.221 98.6969 118.014 98.9403 117.865 99.2303C117.715 99.5167 117.623 99.8461 117.623 100.154C117.623 100.77 117.993 101.049 118.452 100.784L132.372 92.7183V90.4951L118.448 98.5644Z" fill="#3263C9"/>
  <path opacity="0.3" d="M118.448 98.5644C118.221 98.6969 118.014 98.9403 117.865 99.2303C117.715 99.5167 117.623 99.8461 117.623 100.154C117.623 100.77 117.993 101.049 118.452 100.784L132.372 92.7183V90.4951L118.448 98.5644Z" fill="black"/>
  <path d="M140.645 85.7084L132.368 90.502V92.7216L140.645 87.928C140.873 87.7955 141.079 87.5521 141.229 87.2621C141.379 86.9757 141.471 86.6427 141.471 86.3384C141.475 85.7227 141.101 85.4434 140.645 85.7084Z" fill="#3263C9"/>
  <path d="M130.581 68.2311C130.581 68.9793 130.061 69.8851 129.417 70.2574C128.772 70.6297 128.253 70.329 128.253 69.5808C128.253 68.8325 128.772 67.9268 129.417 67.5545C130.058 67.1822 130.581 67.4865 130.581 68.2311Z" fill="#3263C9"/>
  <path d="M134.664 67.0995C134.664 67.7833 134.187 68.6174 133.596 68.9575C133.005 69.3012 132.528 69.022 132.528 68.3382C132.528 67.6544 133.005 66.8203 133.596 66.4802C134.187 66.1365 134.664 66.4157 134.664 67.0995Z" fill="#3263C9"/>
  <path d="M137.331 68.8463C137.331 69.4978 136.875 70.2926 136.313 70.622C135.75 70.9477 135.294 70.6828 135.294 70.0313C135.294 69.3797 135.75 68.5849 136.313 68.2556C136.875 67.9298 137.331 68.1947 137.331 68.8463Z" fill="#3263C9"/>
  <path opacity="0.5" d="M130.581 68.2311C130.581 68.9793 130.061 69.8851 129.417 70.2574C128.772 70.6297 128.253 70.329 128.253 69.5808C128.253 68.8325 128.772 67.9268 129.417 67.5545C130.058 67.1822 130.581 67.4865 130.581 68.2311Z" fill="black"/>
  <path opacity="0.5" d="M134.664 67.0995C134.664 67.7833 134.187 68.6174 133.596 68.9575C133.005 69.3012 132.528 69.022 132.528 68.3382C132.528 67.6544 133.005 66.8203 133.596 66.4802C134.187 66.1365 134.664 66.4157 134.664 67.0995Z" fill="black"/>
  <path opacity="0.5" d="M137.331 68.8463C137.331 69.4978 136.875 70.2926 136.313 70.622C135.75 70.9477 135.294 70.6828 135.294 70.0313C135.294 69.3797 135.75 68.5849 136.313 68.2556C136.875 67.9298 137.331 68.1947 137.331 68.8463Z" fill="black"/>
  <path d="M137.744 72.7564C137.744 73.3793 137.309 74.1347 136.775 74.4462C136.238 74.7576 135.803 74.5034 135.803 73.8841C135.803 73.2612 136.238 72.5058 136.775 72.1943C137.309 71.8829 137.744 72.1335 137.744 72.7564Z" fill="#3263C9"/>
  <path d="M136.544 77.6961C136.544 78.2868 136.131 79.0064 135.622 79.3C135.113 79.5935 134.7 79.3573 134.7 78.7666C134.7 78.1759 135.113 77.4563 135.622 77.1627C136.131 76.8656 136.544 77.1054 136.544 77.6961Z" fill="#3263C9"/>
  <path d="M134.034 82.0284C134.034 82.5869 133.643 83.2707 133.162 83.5499C132.681 83.8292 132.29 83.6036 132.29 83.0416C132.29 82.4795 132.681 81.7993 133.162 81.5201C133.643 81.2408 134.034 81.4664 134.034 82.0284Z" fill="#3263C9"/>
  <path opacity="0.3" d="M137.744 72.7564C137.744 73.3793 137.309 74.1347 136.775 74.4462C136.238 74.7576 135.803 74.5034 135.803 73.8841C135.803 73.2612 136.238 72.5058 136.775 72.1943C137.309 71.8829 137.744 72.1335 137.744 72.7564Z" fill="black"/>
  <path opacity="0.3" d="M136.544 77.6961C136.544 78.2868 136.131 79.0064 135.622 79.3C135.113 79.5935 134.7 79.3573 134.7 78.7666C134.7 78.1759 135.113 77.4563 135.622 77.1627C136.131 76.8656 136.544 77.1054 136.544 77.6961Z" fill="black"/>
  <path opacity="0.3" d="M134.034 82.0284C134.034 82.5869 133.643 83.2707 133.162 83.5499C132.681 83.8292 132.29 83.6036 132.29 83.0416C132.29 82.4795 132.681 81.7993 133.162 81.5201C133.643 81.2408 134.034 81.4664 134.034 82.0284Z" fill="black"/>
  <path d="M130.239 85.5799C130.239 86.1097 129.869 86.7506 129.413 87.0155C128.958 87.2804 128.587 87.0656 128.587 86.5358C128.587 86.0059 128.958 85.3651 129.413 85.1002C129.873 84.8388 130.239 85.0501 130.239 85.5799Z" fill="#3263C9"/>
  <path d="M126.092 86.6394C126.092 87.137 125.743 87.742 125.316 87.9926C124.888 88.2432 124.54 88.0392 124.54 87.5415C124.54 87.0439 124.888 86.4389 125.316 86.1883C125.746 85.9377 126.092 86.1418 126.092 86.6394Z" fill="#3263C9"/>
  <path d="M123.639 84.7309C123.639 85.1963 123.315 85.7655 122.913 85.9982C122.51 86.2309 122.187 86.0411 122.187 85.5757C122.187 85.1103 122.514 84.5411 122.913 84.3084C123.311 84.0757 123.639 84.2655 123.639 84.7309Z" fill="#3263C9"/>
  <path opacity="0.2" d="M130.239 85.5799C130.239 86.1097 129.869 86.7506 129.413 87.0155C128.958 87.2804 128.587 87.0656 128.587 86.5358C128.587 86.0059 128.958 85.3651 129.413 85.1002C129.873 84.8388 130.239 85.0501 130.239 85.5799Z" fill="black"/>
  <path opacity="0.2" d="M126.092 86.6394C126.092 87.137 125.743 87.742 125.316 87.9926C124.888 88.2432 124.54 88.0392 124.54 87.5415C124.54 87.0439 124.888 86.4389 125.316 86.1883C125.746 85.9377 126.092 86.1418 126.092 86.6394Z" fill="black"/>
  <path opacity="0.2" d="M123.639 84.7309C123.639 85.1963 123.315 85.7655 122.913 85.9982C122.51 86.2309 122.187 86.0411 122.187 85.5757C122.187 85.1103 122.514 84.5411 122.913 84.3084C123.311 84.0757 123.639 84.2655 123.639 84.7309Z" fill="black"/>
  <path d="M122.71 81.3763C122.71 81.8131 122.407 82.3429 122.03 82.5577C121.656 82.7761 121.35 82.6007 121.35 82.1639C121.35 81.7272 121.652 81.1973 122.03 80.9825C122.404 80.7642 122.71 80.9396 122.71 81.3763Z" fill="#3263C9"/>
  <path d="M123.828 76.236C123.828 76.6405 123.546 77.131 123.197 77.3351C122.849 77.5356 122.567 77.3745 122.567 76.9699C122.567 76.5654 122.849 76.0749 123.197 75.8708C123.546 75.6668 123.828 75.8315 123.828 76.236Z" fill="#3263C9"/>
  <path d="M126.092 72.0756C126.092 72.4479 125.832 72.9025 125.511 73.0887C125.191 73.2749 124.931 73.1245 124.931 72.7522C124.931 72.3799 125.191 71.9252 125.511 71.739C125.832 71.5529 126.092 71.7032 126.092 72.0756Z" fill="#3263C9"/>
  <path d="M132.866 75.6777L129.566 72.1299L125.818 79.7696L127.722 78.6634V82.7124L130.962 80.8329V76.7839L132.866 75.6777Z" fill="#3263C9"/>
  <path d="M78.2523 96.9757L80.2495 99.3743L75.5752 106.953L77.252 108.915L83.8308 101.111C84.6105 100.187 84.6674 98.8444 83.9661 97.8599L81.3887 94.2334L78.2523 96.9757Z" fill="#BB8F8F"/>
  <path d="M72.6025 88.2221L74.4395 88.0539C75.8813 87.9214 77.2875 88.5372 78.1739 89.6864L82.2145 94.9131C82.2145 94.9131 81.6805 96.9001 78.3733 97.9705L73.5958 91.2043L72.6025 88.2221Z" fill="#3263C9"/>
  <path opacity="0.2" d="M72.6025 88.2221L74.4395 88.0539C75.8813 87.9214 77.2875 88.5372 78.1739 89.6864L82.2145 94.9131C82.2145 94.9131 81.6805 96.9001 78.3733 97.9705L73.5958 91.2043L72.6025 88.2221Z" fill="black"/>
  <path d="M73.6633 145.738C73.6633 145.738 73.2076 146.769 73.3215 148.348C73.35 148.749 74.6601 149.092 75.0339 149.178C75.4041 149.264 76.5718 149.98 77.1449 150.381C77.7145 150.782 78.9712 151.699 80.9363 151.699C82.9015 151.699 83.8164 151.011 83.8164 150.324C83.8164 149.636 82.5348 148.863 81.5629 148.72C80.9363 148.627 77.8 146.769 77.2304 145.337L73.6633 145.738Z" fill="#263238"/>
  <path d="M73.6633 145.248C73.6633 145.248 73.2076 146.279 73.3215 147.857C73.35 148.258 74.6601 148.602 75.0339 148.688C75.4041 148.774 76.5718 149.49 77.1449 149.891C77.7145 150.292 78.9712 151.208 80.9363 151.208C82.9015 151.208 83.8164 150.521 83.8164 149.834C83.8164 149.146 82.5348 148.373 81.5629 148.23C80.9363 148.137 77.8 146.279 77.2304 144.847L73.6633 145.248Z" fill="#455A64"/>
  <path d="M79.3343 150.009C79.3058 150.367 79.3307 150.95 79.3343 150.99C79.8042 151.119 80.3311 151.212 80.9327 151.212C82.9014 151.212 83.8128 150.524 83.8128 149.837C83.8128 149.15 82.5312 148.376 81.5593 148.233C81.5593 148.229 79.4802 148.111 79.3343 150.009Z" fill="#FAFAFA"/>
  <path d="M78.2805 148.234C78.2485 148.234 78.2129 148.226 78.1808 148.209C78.0847 148.155 78.0491 148.03 78.1025 147.933C78.5475 147.131 79.5835 147.034 79.6297 147.031C79.7401 147.024 79.8398 147.102 79.8469 147.217C79.8576 147.328 79.7757 147.428 79.6618 147.439C79.6547 147.439 78.7967 147.525 78.4549 148.137C78.4193 148.194 78.3517 148.234 78.2805 148.234Z" fill="#FAFAFA"/>
  <path d="M77.3408 147.575C77.3088 147.575 77.2732 147.568 77.2411 147.55C77.145 147.496 77.1094 147.371 77.1628 147.274C77.6078 146.472 78.6438 146.376 78.69 146.372C78.8004 146.361 78.9001 146.444 78.9072 146.558C78.9179 146.669 78.836 146.769 78.7221 146.78C78.715 146.78 77.857 146.866 77.5152 147.478C77.4832 147.536 77.412 147.575 77.3408 147.575Z" fill="#FAFAFA"/>
  <path d="M76.4863 146.773C76.4543 146.773 76.4187 146.765 76.3866 146.748C76.2905 146.694 76.2549 146.569 76.3083 146.472C76.7533 145.67 77.7893 145.573 77.8355 145.57C77.9495 145.563 78.0456 145.645 78.0527 145.756C78.0634 145.867 77.9815 145.967 77.8676 145.978C77.8605 145.978 77.0025 146.064 76.6607 146.676C76.6251 146.737 76.5575 146.773 76.4863 146.773Z" fill="#FAFAFA"/>
  <path d="M70.2812 106.988L72.0506 127.101C72.0506 127.101 71.8085 129.51 72.3033 135.127C72.7982 140.748 73.3678 145.563 73.3678 145.563C73.3678 145.563 76.0663 146.594 77.6647 145.105C77.6647 145.105 78.1168 131.386 78.1204 126.811C78.1239 121.903 77.6647 107.182 77.6647 107.182L70.2812 106.988Z" fill="#37474F"/>
  <path d="M71.5238 121.101L72.3996 114.22C72.3996 114.22 75.3437 113.816 75.8563 112.362C76.4936 110.554 76.1411 108.234 76.1411 108.234L70.3704 108.02L71.5238 121.101Z" fill="#263238"/>
  <path d="M63.6738 148.229C63.6738 148.229 63.0615 151.724 63.0615 152.926C63.0615 154.129 63.7913 155.687 65.8063 155.687C67.8212 155.687 67.7322 153.338 67.6148 152.372C67.4973 151.401 67.0024 148.233 67.0024 148.233H63.6738V148.229Z" fill="#263238"/>
  <path d="M63.7131 147.857C63.7131 147.857 63.115 151.269 63.115 152.443C63.115 153.618 63.827 155.139 65.7957 155.139C67.7644 155.139 67.6789 152.844 67.565 151.899C67.4511 150.954 66.9669 147.857 66.9669 147.857H63.7131Z" fill="#455A64"/>
  <path d="M65.557 152.042H65.2793C64.5175 152.042 63.8055 152.432 63.3961 153.08L63.2466 153.316C63.5278 154.258 64.2968 155.139 65.7955 155.139C67.038 155.139 67.4581 154.226 67.5755 153.316C67.1982 152.536 66.415 152.042 65.557 152.042Z" fill="#FAFAFA"/>
  <path d="M64.3966 106.648L63.4853 126.449C63.4853 126.449 62.2677 132.335 62.7234 138.378C63.1791 144.417 63.2574 148.545 63.2574 148.545C63.2574 148.545 65.8811 149.92 67.2126 148.316L69.9111 125.877L71.7729 113.604C71.7729 113.604 75.3828 113.415 76.1055 111.503C76.8281 109.591 76.9421 107.375 76.9421 107.375L64.3966 106.648Z" fill="#37474F"/>
  <path d="M64.5497 151.062C64.4785 151.062 64.4073 151.022 64.3717 150.954C64.3183 150.854 64.3539 150.732 64.4536 150.679C64.4963 150.654 65.55 150.092 66.4649 150.686C66.5575 150.747 66.586 150.872 66.5255 150.969C66.4649 151.062 66.3404 151.09 66.2442 151.029C65.5251 150.564 64.6529 151.033 64.6458 151.037C64.6137 151.055 64.5817 151.062 64.5497 151.062Z" fill="#FAFAFA"/>
  <path d="M64.5497 150.181C64.4785 150.181 64.4073 150.141 64.3717 150.073C64.3183 149.973 64.3539 149.851 64.4536 149.798C64.4963 149.773 65.55 149.211 66.4649 149.805C66.5575 149.866 66.586 149.991 66.5255 150.088C66.4649 150.181 66.3404 150.209 66.2442 150.149C65.5251 149.683 64.6529 150.152 64.6458 150.156C64.6137 150.17 64.5817 150.181 64.5497 150.181Z" fill="#FAFAFA"/>
  <path d="M64.5497 149.297C64.4785 149.297 64.4073 149.258 64.3717 149.19C64.3183 149.089 64.3539 148.968 64.4536 148.914C64.4963 148.889 65.55 148.327 66.4649 148.921C66.5575 148.982 66.586 149.107 66.5255 149.204C66.4649 149.297 66.3404 149.326 66.2442 149.265C65.5251 148.799 64.6529 149.268 64.6458 149.272C64.6137 149.29 64.5817 149.297 64.5497 149.297Z" fill="#FAFAFA"/>
  <path d="M77.4405 92.4752L77.9674 108.481C77.9674 108.481 72.5811 112.412 64.0051 109.434L63.9944 91.4585C63.9944 90.1196 65.0019 88.9954 66.3262 88.8594L72.6025 88.2186C75.1336 87.9644 77.3551 89.9155 77.4405 92.4752Z" fill="#3263C9"/>
  <path d="M59.7758 96.3057L58.1809 100.777L47.0061 102.957V105.825L59.7331 105.105C60.6373 105.055 61.4383 104.5 61.8086 103.67L63.9944 98.7723L59.7758 96.3057Z" fill="#BB8F8F"/>
  <path d="M66.3263 88.8633V90.9719C66.3263 92.6652 65.9988 94.3443 65.3651 95.9123L63.546 100.412C63.546 100.412 59.484 99.5388 58.7649 97.5484L61.3708 91.4373C62.0009 89.9623 63.4143 88.9814 65.0091 88.917L66.3263 88.8633Z" fill="#3263C9"/>
  <path opacity="0.2" d="M66.3263 88.8633V90.9719C66.3263 92.6652 65.9988 94.3443 65.3651 95.9123L63.546 100.412C63.546 100.412 59.484 99.5388 58.7649 97.5484L61.3708 91.4373C62.0009 89.9623 63.4143 88.9814 65.0091 88.917L66.3263 88.8633Z" fill="black"/>
  <path d="M76.1518 76.5586C76.1518 76.5586 78.4693 78.6028 76.4544 83.1637L74.0977 76.9989L76.1518 76.5586Z" fill="#263238"/>
  <path d="M68.5083 88.641L72.4207 91.5801V82.2256H68.5083V88.641Z" fill="#BB8F8F"/>
  <path d="M72.4208 87.592C70.979 87.0335 69.1456 86.1027 69.1456 85.2149L68.6721 82.2256H72.4208V87.592Z" fill="#A06B6B"/>
  <path d="M71.6092 75.2949C73.0332 75.2949 76.0557 76.0933 76.4046 79.8344C76.7534 83.5755 76.2088 86.7581 74.4964 86.7581C71.1322 86.7581 67.9033 86.3285 67.8784 80.7938C67.8534 75.9107 70.2244 75.2949 71.6092 75.2949Z" fill="#BB8F8F"/>
  <path d="M68.5084 84.0729L69.0566 82.3832C69.2417 82.5407 69.523 82.4082 69.523 82.1684V79.154C69.523 79.154 70.922 78.7566 70.7725 77.5717C70.7725 77.5717 71.4881 78.2161 74.2328 78.2161C76.9776 78.2161 77.6433 75.8783 77.3692 74.5752C77.3692 74.5752 76.8601 75.1015 75.4076 75.1015C73.9587 75.1015 67.921 73.2685 67.7643 76.938C67.7643 76.938 67.2552 76.1862 66.4329 76.938L67.4902 77.5717C67.4902 77.5717 66.2371 77.5323 66.4329 79.3831C66.586 80.8438 67.1912 83.6111 67.4439 84.7245C67.5116 85.0324 67.6967 85.3009 67.9566 85.4763L68.5155 85.8522V84.0729H68.5084Z" fill="#263238"/>
  <path d="M73.7488 80.9551V83.1639L75.0339 82.7666L73.7488 80.9551Z" fill="#A06B6B"/>
  <path d="M71.4668 81.3378C71.4668 81.5848 71.6662 81.7889 71.9154 81.7889C72.161 81.7889 72.3639 81.5884 72.3639 81.3378C72.3639 81.0908 72.1646 80.8867 71.9154 80.8867C71.6662 80.8903 71.4668 81.0908 71.4668 81.3378Z" fill="#263238"/>
  <path d="M74.8132 81.0263C74.8132 81.2733 75.0126 81.4774 75.2618 81.4774C75.5074 81.4774 75.7104 81.2769 75.7104 81.0263C75.7104 80.7793 75.511 80.5752 75.2618 80.5752C75.0126 80.5752 74.8132 80.7757 74.8132 81.0263Z" fill="#263238"/>
  <path d="M75.803 80.0884L74.9272 79.5657C74.9272 79.5657 75.2619 79.2148 75.5965 79.4261C75.9312 79.6373 75.803 80.0884 75.803 80.0884Z" fill="#263238"/>
  <path d="M71.0041 80.4145L71.8799 79.8918C71.8799 79.8918 71.5452 79.541 71.2106 79.7522C70.8759 79.9634 71.0041 80.4145 71.0041 80.4145Z" fill="#263238"/>
  <path d="M74.3504 84.0582C74.3504 84.0582 73.642 84.1226 73.1471 83.7324C73.1471 83.7324 73.0653 84.3697 73.5957 84.4914C74.1297 84.6131 74.3504 84.0582 74.3504 84.0582Z" fill="#A06B6B"/>
  <path d="M68.8395 81.7492C69.345 82.6299 69.2169 83.7039 68.5084 84.0691C68.0527 84.3053 66.7142 83.797 66.2087 82.9127C65.7031 82.032 65.9879 81.2731 66.675 80.8721C67.3621 80.4783 68.334 80.8685 68.8395 81.7492Z" fill="#BB8F8F"/>
  <path d="M69.0957 82.408L67.5471 80.7183L68.6578 80.0488L69.0957 82.408Z" fill="#253239"/>
  <path d="M62.2753 69.1656L60.15 67.2073C60.15 67.2073 60.15 67.2073 60.15 67.2038L54.3009 77.5321L49.4699 79.2827L48.6476 77.5786L55.6252 67.5295L53.4999 65.5713C53.2756 65.6393 53.0549 65.7181 52.827 65.8076C47.4799 67.9019 42.4425 74.217 41.5703 79.9235C41.1645 82.562 41.7269 84.6133 42.9801 85.8377L43.1937 86.0274L44.8882 87.5632L45.4578 88.1038L37.843 137.995C34.3506 140.93 31.5809 145.337 30.9579 149.429C30.6304 151.581 30.9401 153.335 31.7411 154.574L31.7518 154.556L31.7447 154.574L33.87 156.532L34.4076 149.862L37.5902 144.242L38.5194 143.909L42.4247 142.495L44.2154 146.189L40.7515 152.15L38.3948 156.203L40.5201 158.164L43.2791 153.417C46.8427 150.482 49.6835 146.007 50.3172 141.854C50.5557 140.289 50.4561 138.94 50.0751 137.841H50.9723L48.9751 136.008C48.2631 135.277 47.3161 134.819 46.1912 134.683L53.952 83.8615C57.4871 80.9259 60.303 76.4724 60.9367 72.3411C60.9901 71.9974 61.0186 71.6716 61.0399 71.3494L62.2753 69.1656Z" fill="#3263C9"/>
  <path d="M48.3128 136.649L56.0736 85.8273C59.6086 82.8882 62.4282 78.4382 63.0583 74.3069C63.3858 72.1589 63.0761 70.4047 62.2751 69.1624L56.426 79.4943L51.5986 81.2449L49.8044 77.5468L55.625 67.5371C55.4043 67.6087 55.1836 67.6839 54.9557 67.7734C49.6086 69.8677 44.5676 76.1864 43.6954 81.8893C43.0724 85.9813 44.7599 88.6412 47.7396 89.0493L39.9646 139.961C36.4758 142.9 33.7061 147.307 33.0795 151.399C32.752 153.547 33.0617 155.301 33.8627 156.543L39.7118 146.211L44.5392 144.461L46.3334 148.159L40.5128 158.168C40.7335 158.097 40.9542 158.022 41.1821 157.932C46.5292 155.838 51.5702 149.519 52.4424 143.816C53.0725 139.688 51.3423 137.014 48.3128 136.649Z" fill="#3263C9"/>
  <path d="M50.9577 137.844H50.9684L48.9712 136.011C48.8182 135.854 48.6508 135.711 48.4728 135.578L48.3091 136.645C49.37 136.777 50.2635 137.189 50.9577 137.844Z" fill="#3263C9"/>
  <path opacity="0.4" d="M50.9577 137.844H50.9684L48.9712 136.011C48.8182 135.854 48.6508 135.711 48.4728 135.578L48.3091 136.645C49.37 136.777 50.2635 137.189 50.9577 137.844Z" fill="#DCE6E9"/>
  <path d="M43.2753 153.421L46.3334 148.158L44.5391 144.46L43.5388 144.822L44.2045 146.196L40.7442 152.153L38.3875 156.21L40.5128 158.168L43.2753 153.421Z" fill="#3263C9"/>
  <path opacity="0.2" d="M43.1935 86.0343L44.8881 87.5701L44.9201 87.5987C43.8023 86.3564 43.3146 84.391 43.699 81.8886C44.5712 76.1857 49.6122 69.867 54.9593 67.7727C55.1872 67.6832 55.4079 67.608 55.6286 67.5364L55.625 67.5435L55.6322 67.5364L53.5068 65.5781C53.2825 65.6461 53.0618 65.7249 52.834 65.8144C47.4869 67.9087 42.4495 74.2238 41.5773 79.9303C41.1714 82.5688 41.7339 84.6201 42.987 85.8445L43.1935 86.0343Z" fill="#DCE6E9"/>
  <path opacity="0.2" d="M60.1462 67.2041L54.2971 77.536L56.426 79.4942L62.2751 69.1659L60.1462 67.2041Z" fill="#DCE6E9"/>
  <path opacity="0.4" d="M54.2972 77.5361L56.4261 79.4944L51.5952 81.245L50.4702 78.9216L54.2972 77.5361Z" fill="#DCE6E9"/>
  <path opacity="0.3" d="M47.7395 89.0457C46.8388 88.924 46.0591 88.591 45.4219 88.0791L45.454 88.1077L37.8391 137.999L39.9644 139.957L47.7395 89.0457Z" fill="#DCE6E9"/>
  <path opacity="0.2" d="M30.9506 149.433C30.6231 151.585 30.9328 153.339 31.7338 154.578L31.7445 154.56L31.7374 154.578L33.8627 156.536C33.0617 155.297 32.752 153.543 33.0795 151.391C33.7025 147.3 36.4757 142.893 39.9645 139.953L37.8392 137.995C34.3469 140.938 31.5772 145.345 30.9506 149.433Z" fill="#DCE6E9"/>
  <path opacity="0.4" d="M44.2045 146.196L46.3334 148.158L44.5392 144.46L43.5388 144.822L44.2045 146.196Z" fill="#DCE6E9"/>
  <path opacity="0.2" d="M38.3875 156.21L40.5128 158.168L46.3334 148.158L44.2045 146.196L38.3875 156.21Z" fill="#DCE6E9"/>
  <path d="M131.275 127.788L123.852 123.492C123.439 123.188 122.87 123.181 122.243 123.543L108.794 131.351C107.911 131.863 107.145 132.972 106.761 134.175C106.761 134.179 106.757 134.186 106.757 134.19C106.725 134.29 106.697 134.39 106.672 134.49C106.668 134.508 106.665 134.522 106.661 134.54C106.64 134.63 106.618 134.719 106.601 134.809C106.593 134.841 106.59 134.873 106.583 134.906C106.569 134.981 106.554 135.056 106.544 135.127C106.536 135.181 106.533 135.231 106.526 135.285C106.519 135.339 106.512 135.392 106.508 135.446C106.501 135.554 106.497 135.657 106.497 135.761V147.471C106.497 147.944 106.579 148.345 106.722 148.663C106.75 148.728 106.782 148.792 106.818 148.85C106.871 148.943 106.932 149.025 106.999 149.097C107.006 149.104 107.014 149.115 107.021 149.125C107.024 149.132 107.031 149.136 107.038 149.14C107.131 149.233 107.234 149.311 107.348 149.369L114.774 153.658C114.849 153.715 114.927 153.758 115.009 153.794C115.397 153.965 115.878 153.922 116.401 153.618L129.851 145.81C131.118 145.073 132.147 143.1 132.147 141.4V129.689C132.147 128.716 131.805 128.043 131.275 127.788Z" fill="#3263C9"/>
  <path opacity="0.2" d="M123.852 123.492C123.439 123.188 122.87 123.181 122.243 123.543L108.793 131.351C108.227 131.68 107.711 132.256 107.312 132.94L114.974 137.25C115.365 136.606 115.86 136.069 116.398 135.754L129.847 127.946C130.385 127.635 130.88 127.595 131.271 127.785L123.852 123.492Z" fill="black"/>
  <path opacity="0.4" d="M107.313 132.943C107.088 133.326 106.9 133.745 106.761 134.178C106.761 134.182 106.757 134.189 106.757 134.193C106.725 134.293 106.697 134.393 106.672 134.493C106.668 134.511 106.665 134.526 106.661 134.544C106.64 134.633 106.618 134.723 106.601 134.812C106.593 134.844 106.59 134.877 106.583 134.909C106.569 134.984 106.554 135.059 106.544 135.131C106.536 135.184 106.533 135.235 106.526 135.288C106.519 135.342 106.512 135.396 106.508 135.449C106.501 135.557 106.497 135.661 106.497 135.764V147.475C106.497 147.947 106.579 148.348 106.722 148.667C106.75 148.731 106.782 148.796 106.818 148.853C106.871 148.946 106.932 149.028 106.999 149.1C107.006 149.107 107.014 149.118 107.021 149.129C107.024 149.136 107.031 149.139 107.038 149.143C107.131 149.236 107.234 149.315 107.348 149.372L114.774 153.661C114.361 153.346 114.105 152.726 114.105 151.878V140.168C114.105 139.19 114.447 138.124 114.974 137.254L107.313 132.943Z" fill="black"/>
  <path d="M114.116 132.904C113.439 132.904 112.887 132.353 112.887 131.669V123.532C112.887 119.937 115.312 115.713 118.409 113.916C120.114 112.924 121.784 112.802 123.108 113.569C124.433 114.338 125.159 115.853 125.159 117.832V125.97C125.159 126.65 124.611 127.205 123.931 127.205C123.254 127.205 122.702 126.653 122.702 125.97V117.832C122.702 116.787 122.403 116.01 121.88 115.706C121.357 115.402 120.538 115.527 119.637 116.053C117.309 117.403 115.344 120.829 115.344 123.532V131.669C115.344 132.353 114.796 132.904 114.116 132.904Z" fill="#37474F"/>
  <path d="M124.653 139.989L125.949 143.737L121.392 146.383L122.531 141.754L122.692 141.099C121.923 141.12 121.389 140.522 121.389 139.47C121.389 139.065 121.463 138.643 121.602 138.22C121.969 137.111 122.756 136.029 123.667 135.5C124.924 134.769 125.945 135.36 125.945 136.821C125.945 137.873 125.411 139.094 124.643 139.964L124.653 139.989Z" fill="#455A64"/>
  <path d="M122.535 141.754L122.695 141.099C121.926 141.121 121.392 140.523 121.392 139.47C121.392 139.066 121.467 138.643 121.606 138.221L124.653 139.989L125.949 143.737L122.535 141.754Z" fill="#37474F"/>
  </svg>
  