<svg width="15" height="23" viewBox="0 0 15 23" fill="none" xmlns="http://www.w3.org/2000/svg">
<path d="M7.26063 19.2564C7.50302 19.4431 7.84062 19.4431 8.08301 19.2564C8.35949 19.0442 14.8442 13.9716 14.8442 7.92894C14.8442 5.36661 13.4771 2.99891 11.2583 1.7178C9.03917 0.436514 6.30495 0.436514 4.08597 1.7178C1.86711 2.99909 0.5 5.36679 0.5 7.92894C0.5 13.9722 6.99762 19.0446 7.26063 19.2564ZM7.67182 4.39305C8.53626 4.39305 9.36526 4.73652 9.9765 5.34777C10.5875 5.95877 10.931 6.788 10.931 7.65221C10.931 8.51665 10.5875 9.34564 9.9765 9.95689C9.36526 10.5681 8.53626 10.9114 7.67182 10.9114C6.80738 10.9114 5.97838 10.5681 5.36714 9.95689C4.75614 9.34564 4.41266 8.51665 4.41266 7.65221C4.4136 6.78825 4.75731 5.95973 5.36834 5.34873C5.97934 4.73773 6.80762 4.39401 7.67182 4.39305ZM13.0646 21.653C13.0646 21.8317 12.9936 22.0033 12.8671 22.1296C12.7406 22.2561 12.5692 22.3271 12.3903 22.3271H2.95321C2.58082 22.3271 2.27895 22.0254 2.27895 21.653C2.27895 21.2807 2.58082 20.979 2.95321 20.979H12.3903C12.5692 20.979 12.7406 21.05 12.8671 21.1765C12.9936 21.3028 13.0646 21.4743 13.0646 21.653Z" fill="#7E7E8A"/>
</svg>
