<svg width="24" height="25" viewBox="0 0 24 25" fill="none" xmlns="http://www.w3.org/2000/svg">
<path d="M18.1583 5.18708H4.30198C4.09784 5.18708 3.90196 5.26814 3.75762 5.41247C3.61329 5.55681 3.53223 5.75268 3.53223 5.95683V15.1944C3.53223 15.3985 3.61329 15.5944 3.75762 15.7387C3.90196 15.883 4.09783 15.9641 4.30198 15.9641H11.2301V14.4246H5.07166V6.86534L11.2301 10.7144L17.3886 6.86534V12.1152H18.9282L18.9281 5.95676C18.9281 5.75263 18.847 5.55674 18.7027 5.41241C18.5584 5.26807 18.3625 5.18701 18.1583 5.18701L18.1583 5.18708ZM11.2301 8.89726L7.75846 6.72641H14.6866L11.2301 8.89726ZM20.4677 16.734L19.3823 17.8271L18.1583 16.603V19.8131H16.6186V16.603L15.4024 17.8271L14.3093 16.734L17.3884 13.6549L20.4677 16.734Z" fill="#94959E"/>
</svg>
