<svg width="18" height="19" viewBox="0 0 18 19" fill="none" xmlns="http://www.w3.org/2000/svg">
<path d="M9 0.5C4.03579 0.5 0 4.53579 0 9.5C0 14.4642 4.03579 18.5 9 18.5C13.9642 18.5 18 14.4642 18 9.5C18 4.53579 13.9642 0.5 9 0.5ZM13.1874 9.5C13.1874 10.0685 12.7137 10.5421 12.1452 10.5421H10.0421V12.6453C10.0421 13.2138 9.56839 13.6874 8.99993 13.6874C8.43148 13.6874 7.95779 13.2138 7.95779 12.6453V10.5421H5.85464C5.28618 10.5421 4.8125 10.0685 4.8125 9.5C4.8125 8.93155 5.28618 8.45786 5.85464 8.45786H7.95779V6.3547C7.95779 5.78625 8.43148 5.31256 8.99993 5.31256C9.56839 5.31256 10.0421 5.78625 10.0421 6.3547V8.45786H12.1452C12.7137 8.45786 13.1874 8.93155 13.1874 9.5Z" fill="#F4F7F8"/>
</svg>
