<svg width="18" height="18" viewBox="0 0 18 18" fill="none" xmlns="http://www.w3.org/2000/svg">
<path d="M11.2455 6.53233C11.0492 6.33595 10.7308 6.33595 10.5343 6.53233C10.3379 6.72872 10.3379 7.04713 10.5343 7.24363L11.2455 7.95493C11.3437 8.05312 11.4725 8.10221 11.6012 8.10221C11.7299 8.10221 11.8587 8.05312 11.9569 7.95493L13.3793 6.53246C13.5757 6.33607 13.5757 6.01766 13.3793 5.82116C13.183 5.62466 12.8645 5.62478 12.668 5.82116L11.6012 6.888L11.2455 6.53233Z" fill="white"/>
<path d="M12.6679 8.36901L11.601 9.43585L11.2453 9.08019C11.0489 8.8838 10.7305 8.8838 10.534 9.08019C10.3376 9.27657 10.3376 9.59498 10.534 9.79148L11.2453 10.5028C11.3435 10.601 11.4722 10.6501 11.601 10.6501C11.7297 10.6501 11.8584 10.601 11.9566 10.5028L13.3791 9.08031C13.5755 8.88392 13.5755 8.56551 13.3791 8.36901C13.1827 8.17251 12.8643 8.17263 12.6679 8.36901Z" fill="white"/>
<path d="M9.00007 6.38477H4.97656C4.69875 6.38477 4.47363 6.60989 4.47363 6.8877C4.47363 7.1655 4.69876 7.39063 4.97656 7.39063H9.00007C9.27789 7.39063 9.50301 7.1655 9.50301 6.8877C9.50301 6.60989 9.27788 6.38477 9.00007 6.38477Z" fill="white"/>
<path d="M9.00007 8.93359H4.97656C4.69875 8.93359 4.47363 9.15872 4.47363 9.43652C4.47363 9.71433 4.69876 9.93946 4.97656 9.93946H9.00007C9.27789 9.93946 9.50301 9.71433 9.50301 9.43652C9.50301 9.15872 9.27788 8.93359 9.00007 8.93359Z" fill="white"/>
<path d="M9.00007 11.4814H4.97656C4.69875 11.4814 4.47363 11.7066 4.47363 11.9844C4.47363 12.2622 4.69876 12.4873 4.97656 12.4873H9.00007C9.27789 12.4873 9.50301 12.2622 9.50301 11.9844C9.50301 11.7066 9.27788 11.4814 9.00007 11.4814Z" fill="white"/>
<path d="M9.00007 14.0293H4.97656C4.69875 14.0293 4.47363 14.2544 4.47363 14.5322C4.47363 14.81 4.69876 15.0352 4.97656 15.0352H9.00007C9.27789 15.0352 9.50301 14.81 9.50301 14.5322C9.50301 14.2544 9.27788 14.0293 9.00007 14.0293Z" fill="white"/>
<path d="M15.0355 2.42861H12.1753C11.9857 2.02651 11.5793 1.75803 11.1146 1.75803H10.6503L10.8293 1.04183C10.8669 0.891665 10.8331 0.732392 10.7378 0.610384C10.6425 0.488376 10.4963 0.416992 10.3413 0.416992H7.65899C7.50415 0.416992 7.35794 0.488361 7.26262 0.610384C7.1673 0.732408 7.13353 0.891671 7.17113 1.04183L7.35015 1.75803H6.88587C6.42114 1.75803 6.01459 2.0265 5.82514 2.42861H2.96485C2.68703 2.42861 2.46191 2.65374 2.46191 2.93154V17.0808C2.46191 17.3586 2.68704 17.5837 2.96485 17.5837H15.0354C15.3132 17.5837 15.5383 17.3586 15.5383 17.0808V2.93154C15.5383 2.65373 15.3132 2.42861 15.0354 2.42861H15.0355ZM6.88606 2.76392H7.99444C8.14927 2.76392 8.29548 2.69255 8.39081 2.57053C8.48613 2.4485 8.5199 2.28924 8.4823 2.13909L8.30328 1.42289H9.69739L9.51837 2.13909C9.48077 2.28925 9.51454 2.44852 9.60986 2.57053C9.70518 2.69255 9.85139 2.76392 10.0064 2.76392H11.1147C11.197 2.76392 11.2666 2.82284 11.2801 2.90402L11.4244 3.76979H6.57656L6.72085 2.90402C6.73439 2.82284 6.80396 2.76392 6.88622 2.76392H6.88606ZM14.5327 16.5778H3.468V3.43435H5.61255L5.48658 4.18994C5.46227 4.3358 5.50334 4.48488 5.5989 4.59769C5.69446 4.71049 5.8348 4.77552 5.9827 4.77552H12.0181C12.166 4.77552 12.3064 4.71049 12.4019 4.59769C12.4975 4.48489 12.5386 4.33568 12.5143 4.18994L12.3883 3.43435H14.5328L14.5327 16.5778Z" fill="white"/>
</svg>
