<svg width="18" height="24" viewBox="0 0 18 24" fill="none" xmlns="http://www.w3.org/2000/svg">
<path d="M12.3708 8.76349C12.1132 8.50597 11.6957 8.50597 11.438 8.76349C11.1805 9.02102 11.1805 9.43857 11.438 9.69624L12.3708 10.629C12.4995 10.7578 12.6683 10.8221 12.8372 10.8221C13.006 10.8221 13.1748 10.7578 13.3036 10.629L15.1689 8.76365C15.4264 8.50613 15.4264 8.08858 15.1689 7.8309C14.9114 7.57321 14.4938 7.57337 14.2362 7.8309L12.8372 9.22989L12.3708 8.76349Z" fill="white"/>
<path d="M14.2358 11.1727L12.8367 12.5717L12.3703 12.1053C12.1128 11.8478 11.6952 11.8478 11.4375 12.1053C11.18 12.3628 11.18 12.7804 11.4375 13.038L12.3703 13.9708C12.499 14.0996 12.6679 14.1639 12.8367 14.1639C13.0055 14.1639 13.1743 14.0996 13.3031 13.9708L15.1684 12.1054C15.4259 11.8479 15.4259 11.4304 15.1684 11.1727C14.9109 10.915 14.4933 10.9152 14.2358 11.1727Z" fill="white"/>
<path d="M9.4262 8.57031H4.14999C3.78568 8.57031 3.49048 8.86553 3.49048 9.22983C3.49048 9.59412 3.7857 9.88934 4.14999 9.88934H9.4262C9.79051 9.88934 10.0857 9.59412 10.0857 9.22983C10.0857 8.86553 9.7905 8.57031 9.4262 8.57031Z" fill="white"/>
<path d="M9.4262 11.9116H4.14999C3.78568 11.9116 3.49048 12.2068 3.49048 12.5711C3.49048 12.9354 3.7857 13.2307 4.14999 13.2307H9.4262C9.79051 13.2307 10.0857 12.9354 10.0857 12.5711C10.0857 12.2068 9.7905 11.9116 9.4262 11.9116Z" fill="white"/>
<path d="M9.4262 15.2539H4.14999C3.78568 15.2539 3.49048 15.5491 3.49048 15.9134C3.49048 16.2777 3.7857 16.5729 4.14999 16.5729H9.4262C9.79051 16.5729 10.0857 16.2777 10.0857 15.9134C10.0857 15.5491 9.7905 15.2539 9.4262 15.2539Z" fill="white"/>
<path d="M9.4262 18.5952H4.14999C3.78568 18.5952 3.49048 18.8904 3.49048 19.2547C3.49048 19.619 3.7857 19.9142 4.14999 19.9142H9.4262C9.79051 19.9142 10.0857 19.619 10.0857 19.2547C10.0857 18.8904 9.7905 18.5952 9.4262 18.5952Z" fill="white"/>
<path d="M17.3406 3.38207H13.5899C13.3413 2.85477 12.8084 2.5027 12.1989 2.5027H11.5901L11.8248 1.56351C11.8741 1.3666 11.8299 1.15774 11.7049 0.997744C11.5799 0.83775 11.3881 0.744141 11.1849 0.744141H7.66745C7.46441 0.744141 7.27267 0.837729 7.14767 0.997744C7.02267 1.15776 6.97839 1.36661 7.02769 1.56351L7.26245 2.5027H6.65363C6.0442 2.5027 5.51107 2.85476 5.26264 3.38207H1.51181C1.1475 3.38207 0.852295 3.67728 0.852295 4.04158V22.5961C0.852295 22.9604 1.14751 23.2556 1.51181 23.2556H17.3404C17.7047 23.2556 17.9999 22.9604 17.9999 22.5961V4.04158C17.9999 3.67727 17.7047 3.38207 17.3404 3.38207H17.3406ZM6.65388 3.82177H8.10734C8.31038 3.82177 8.50211 3.72818 8.62712 3.56817C8.75211 3.40815 8.79639 3.1993 8.74709 3.0024L8.51233 2.06321H10.3405L10.1057 3.0024C10.0564 3.19931 10.1007 3.40817 10.2257 3.56817C10.3507 3.72818 10.5424 3.82177 10.7456 3.82177H12.1991C12.307 3.82177 12.3982 3.89903 12.416 4.00549L12.6052 5.14081H6.24801L6.43723 4.00549C6.45497 3.89903 6.54621 3.82177 6.65409 3.82177H6.65388ZM16.6813 21.9365H2.17162V4.70094H4.98386L4.81867 5.69178C4.78679 5.88304 4.84065 6.07854 4.96596 6.22647C5.09127 6.3744 5.27531 6.45966 5.46926 6.45966H13.3838C13.5777 6.45966 13.7617 6.3744 13.8871 6.22647C14.0124 6.07855 14.0662 5.88289 14.0344 5.69178L13.8692 4.70094H16.6814L16.6813 21.9365Z" fill="white"/>
</svg>
