<svg width="24" height="23" viewBox="0 0 24 23" fill="none" xmlns="http://www.w3.org/2000/svg">
<path fill-rule="evenodd" clip-rule="evenodd" d="M19.9375 21.3963L19.1903 19.0967L17.6722 14.4247C17.6208 14.2609 17.518 14.1179 17.3789 14.0169C17.2399 13.9159 17.0723 13.8623 16.9004 13.8641H16.1085C15.5287 14.5708 14.9565 15.2432 14.4705 15.8746L13.4204 17.2383C13.0783 17.6825 12.5495 17.9429 11.9886 17.9429C11.4277 17.9429 10.8989 17.6825 10.5568 17.2383L9.50668 15.8744C9.02063 15.2432 8.44805 14.5708 7.86873 13.8641H7.07642C6.90471 13.8623 6.73685 13.9159 6.59789 14.0169C6.45894 14.1179 6.35622 14.2609 6.30495 14.4247L4.78684 19.0964L4.03963 21.3959C3.95946 21.643 4.00244 21.9134 4.15488 22.1234C4.30752 22.3335 4.55151 22.4578 4.81111 22.458H19.1653C19.4251 22.458 19.6691 22.3337 19.8219 22.1236C19.9746 21.9136 20.0175 21.643 19.9374 21.3959L19.9375 21.3963ZM11.9888 0.458008C13.8022 0.458008 15.5411 1.17843 16.8231 2.46041C18.1053 3.74259 18.8257 5.48153 18.8257 7.29487C18.8257 10.2515 15.8321 13.1606 14.0136 15.5229L12.9636 16.8866V16.8864C12.7306 17.189 12.3704 17.3663 11.9884 17.3663C11.6066 17.3663 11.2464 17.189 11.0134 16.8864L9.96401 15.5227C8.14549 13.1604 5.1519 10.2515 5.1519 7.29468V7.29487C5.1519 5.48153 5.87213 3.74259 7.1543 2.46041C8.43648 1.17823 10.1754 0.458008 11.9888 0.458008H11.9888ZM11.9888 3.202C10.9849 3.202 10.0223 3.60055 9.31227 4.31036C8.60245 5.02018 8.20371 5.983 8.20371 6.98671C8.20371 7.99063 8.60245 8.95325 9.31227 9.66326C10.0221 10.3731 10.9847 10.7718 11.9886 10.7718C12.9925 10.7718 13.9552 10.3729 14.665 9.66306C15.3748 8.95325 15.7735 7.99043 15.7733 6.98652C15.7735 5.9828 15.3748 5.02018 14.665 4.31036C13.9552 3.60055 12.9925 3.202 11.9888 3.202Z" fill="#52516A"/>
</svg>
