<svg width="25" height="25" viewBox="0 0 25 25" fill="none" xmlns="http://www.w3.org/2000/svg">
<path d="M3.81152 20.0012C3.81152 20.2242 4.04622 20.3693 4.24569 20.2695L9.36165 17.7115L14.1609 20.1112C14.2454 20.1534 14.3448 20.1534 14.4293 20.1112L19.6794 17.4861C19.781 17.4353 19.8452 17.3314 19.8452 17.2178V4.17682C19.8452 3.9538 19.6105 3.80875 19.4111 3.90849L14.2951 6.46647L9.49581 4.06683C9.41135 4.0246 9.31194 4.0246 9.22748 4.06683L3.97736 6.69189C3.87572 6.74271 3.81152 6.84659 3.81152 6.96022V20.0012ZM14.9118 18.4916V7.53621L18.6119 5.68617V16.6416L14.9118 18.4916ZM13.6784 18.4916L9.97833 16.6416V5.68617L13.6784 7.53621V18.4916ZM5.04488 18.4916V7.53621L8.74497 5.68617V16.6416L5.04488 18.4916Z" fill="#7E7E8A"/>
</svg>
