<svg width="24" height="25" viewBox="0 0 24 25" fill="none" xmlns="http://www.w3.org/2000/svg">
<path d="M12 4.45801C10.9604 4.45801 10.1177 5.30067 10.1177 6.34031V10.5757H5.8823C4.84266 10.5757 4 11.4184 4 12.458C4 13.4977 4.84266 14.3403 5.8823 14.3403H10.1177V18.5757C10.1177 19.6153 10.9604 20.458 12 20.458C13.0396 20.458 13.8823 19.6153 13.8823 18.5757V14.3403H18.1177C19.1573 14.3403 20 13.4977 20 12.458C20 11.4184 19.1573 10.5757 18.1177 10.5757H13.8823V6.34031C13.8823 5.30067 13.0396 4.45801 12 4.45801Z" fill="#52516A"/>
</svg>
