<?xml version="1.0" standalone="no"?>
<!DOCTYPE svg PUBLIC "-//W3C//DTD SVG 20010904//EN"
 "http://www.w3.org/TR/2001/REC-SVG-20010904/DTD/svg10.dtd">
<svg version="1.0" xmlns="http://www.w3.org/2000/svg"
 width="225.000000pt" height="225.000000pt" viewBox="0 0 225.000000 225.000000"
 preserveAspectRatio="xMidYMid meet">

<g transform="translate(0.000000,225.000000) scale(0.100000,-0.100000)"
fill="#000000" stroke="none">
<path d="M325 2232 c-53 -34 -283 -276 -290 -305 -4 -15 -4 -39 0 -54 4 -18
93 -115 248 -270 291 -293 293 -294 399 -195 l49 46 46 -47 47 -46 -71 -74
c-111 -117 -110 -159 10 -284 76 -79 79 -85 64 -101 -14 -14 -21 -14 -35 -4
-110 78 -203 113 -317 119 -111 7 -187 -11 -301 -68 -112 -56 -154 -95 -154
-145 1 -37 10 -49 166 -208 l166 -169 -45 -46 c-52 -54 -61 -75 -45 -104 15
-29 27 -37 63 -37 22 0 42 12 77 47 l48 47 160 -158 c151 -151 161 -158 191
-152 45 9 102 57 148 126 59 88 75 147 76 265 0 120 -24 207 -84 305 -39 64
-39 65 -21 84 19 19 20 18 93 -51 115 -109 166 -108 279 4 l68 68 47 -47 47
-47 -47 -50 c-50 -53 -63 -85 -52 -129 7 -31 451 -484 499 -509 58 -31 88 -14
238 134 75 75 142 149 149 164 26 63 14 79 -243 336 -158 157 -253 244 -270
249 -44 10 -76 -3 -129 -53 l-50 -47 -47 47 -46 47 141 143 c181 182 198 214
198 367 0 100 -1 108 -34 168 -41 75 -103 135 -179 170 -50 24 -70 27 -157 27
-148 0 -182 -18 -362 -198 l-143 -141 -47 46 -47 47 46 49 c99 105 98 108
-195 400 -222 222 -247 244 -283 248 -28 4 -48 0 -69 -14z m1221 -541 c62 -28
109 -72 142 -136 38 -73 38 -178 0 -255 -37 -74 -501 -540 -538 -540 -36 0
-390 355 -390 391 0 19 56 80 248 271 136 135 258 251 272 259 85 43 181 47
266 10z m-1015 -765 c176 -38 334 -185 389 -362 26 -85 26 -208 2 -281 -19
-53 -70 -127 -107 -155 -21 -16 -30 -8 -368 330 l-347 347 52 35 c88 57 198
95 288 99 14 0 55 -6 91 -13z"/>
<path d="M14 344 c-16 -24 -16 -29 0 -82 44 -140 143 -237 264 -257 59 -10 92
12 92 60 0 40 -23 59 -83 69 -54 10 -118 76 -146 152 -29 76 -36 84 -77 84
-25 0 -38 -7 -50 -26z"/>
</g>
</svg>
