<svg width="24" height="24" viewBox="0 0 24 24" fill="none" xmlns="http://www.w3.org/2000/svg">
<path d="M14.75 12.458C14.75 13.9768 13.5188 15.208 12 15.208C10.4812 15.208 9.25 13.9768 9.25 12.458C9.25 10.9392 10.4812 9.70801 12 9.70801C13.5188 9.70801 14.75 10.9392 14.75 12.458Z" fill="#52516A"/>
<path d="M21.6647 11.6723C21.5089 11.6723 21.3795 11.5525 21.3618 11.3977C20.8619 7.0234 17.4342 3.59573 13.0603 3.09615C12.9055 3.07847 12.7857 2.94907 12.7857 2.79328V1.75801C12.7857 1.59232 12.6514 1.45801 12.4857 1.45801H11.5143C11.3486 1.45801 11.2143 1.59232 11.2143 1.75801V2.7933C11.2143 2.94908 11.0945 3.07848 10.9397 3.09617C6.5654 3.59614 3.13772 7.0238 2.63814 11.3977C2.62046 11.5525 2.49106 11.6723 2.33527 11.6723H1.3C1.13431 11.6723 1 11.8066 1 11.9723V12.9437C1 13.1094 1.13431 13.2437 1.3 13.2437H2.33529C2.49108 13.2437 2.62046 13.3635 2.63821 13.5183C3.13956 17.8919 6.60174 21.3192 10.94 21.8196C11.0947 21.8375 11.2143 21.9668 11.2143 22.1225V23.158C11.2143 23.3237 11.3486 23.458 11.5143 23.458H12.4857C12.6514 23.458 12.7857 23.3237 12.7857 23.158V22.1227C12.7857 21.9669 12.9055 21.8375 13.0603 21.8198C17.4339 21.3184 20.8612 17.8563 21.3616 13.518C21.3795 13.3634 21.5088 13.2437 21.6645 13.2437H22.7C22.8657 13.2437 23 13.1094 23 12.9437V11.9723C23 11.8066 22.8657 11.6723 22.7 11.6723H21.6647ZM19.4877 13.2437C19.6647 13.2437 19.8037 13.3963 19.7793 13.5716C19.3009 17.0035 16.5453 19.7592 13.1136 20.2373C12.9383 20.2617 12.7857 20.1227 12.7857 19.9457V19.0436C12.7857 18.8779 12.6514 18.7436 12.4857 18.7436H11.5143C11.3486 18.7436 11.2143 18.8779 11.2143 19.0436V19.9457C11.2143 20.1227 11.0617 20.2617 10.8864 20.2373C7.45453 19.759 4.69884 17.0033 4.22072 13.5716C4.1963 13.3963 4.33531 13.2437 4.51229 13.2437H5.41438C5.58007 13.2437 5.71438 13.1094 5.71438 12.9437V11.9723C5.71438 11.8066 5.58007 11.6723 5.41438 11.6723H4.5123C4.33532 11.6723 4.1963 11.5197 4.22074 11.3444C4.69905 7.91254 7.45474 5.15684 10.8864 4.67872C11.0617 4.6543 11.2143 4.79332 11.2143 4.97029V5.87239C11.2143 6.03807 11.3486 6.17239 11.5143 6.17239H12.4857C12.6514 6.17239 12.7857 6.03807 12.7857 5.87239V4.97031C12.7857 4.79333 12.9383 4.65431 13.1136 4.67874C16.5455 5.15706 19.3012 7.91275 19.7793 11.3444C19.8037 11.5197 19.6647 11.6723 19.4877 11.6723H18.5856C18.4199 11.6723 18.2856 11.8066 18.2856 11.9723V12.9437C18.2856 13.1094 18.4199 13.2437 18.5856 13.2437H19.4877Z" fill="#52516A" stroke="#52516A"/>
</svg>
