<svg width="22" height="23" viewBox="0 0 22 23" fill="none" xmlns="http://www.w3.org/2000/svg">
<path d="M13.1029 2.55263C13.1023 1.99668 12.8808 1.46374 12.4874 1.07081C12.0939 0.678035 11.5605 0.457527 11.0044 0.458009C10.4484 0.458322 9.91531 0.679607 9.52238 1.07301C9.12945 1.46641 8.90878 1.99965 8.90894 2.55576C8.90909 3.11171 9.13022 3.6448 9.52346 4.0379C9.9167 4.43114 10.4499 4.65194 11.0059 4.65194C11.5624 4.65132 12.0956 4.42987 12.4888 4.03634C12.8821 3.64263 13.1029 3.10906 13.1029 2.55263Z" fill="#52516A"/>
<path d="M3 18.5624C3 21.1107 7.02759 22.4577 11.0063 22.4577C14.985 22.4577 19.0126 21.1105 19.0126 18.5624C19.0126 16.7865 17.0661 15.6011 14.5448 15.042L14.2845 16.9886C16.0491 17.413 17.055 18.1112 17.055 18.5602C17.055 19.2338 14.7582 20.4977 11.0068 20.4977C7.25511 20.4977 4.95818 19.2472 4.95818 18.5624C4.95818 18.1134 5.96408 17.4107 7.73091 16.9908L7.46812 15.0489C4.94472 15.6011 3.00032 16.7866 3.00032 18.5624H3Z" fill="#52516A"/>
<path d="M7.63886 8.46668L7.69054 11.1069V11.1071C7.69696 11.4904 7.90634 11.8417 8.24055 12.0298L8.86462 12.3823L9.61681 18.0088V18.0086C9.63952 18.2058 9.73396 18.3875 9.88227 18.5193C10.0306 18.651 10.2223 18.7234 10.4205 18.7226H11.5835C11.7818 18.7229 11.9732 18.6502 12.1213 18.5187C12.2696 18.387 12.3642 18.2055 12.3874 18.0086L13.1396 12.3821L13.7636 12.0296V12.0298C14.0978 11.8417 14.3071 11.4904 14.3136 11.107L14.3743 8.46665C14.3863 7.73951 14.1055 7.03791 13.595 6.51984C13.0846 6.00178 12.3872 5.71064 11.6599 5.71192H10.3532C9.62586 5.71067 8.9285 6.0018 8.4181 6.51984C7.90757 7.03791 7.62677 7.73951 7.6388 8.46665L7.63886 8.46668Z" fill="#52516A"/>
</svg>
