<svg width="18" height="22" viewBox="0 0 18 22" fill="none" xmlns="http://www.w3.org/2000/svg">
<path d="M17.3771 7.61715C17.1954 7.84723 16.9298 7.99568 16.6387 8.03016C16.3474 8.06464 16.0545 7.98209 15.8241 7.80084L9.06535 2.47047L2.31324 7.80084C2.08377 7.9911 1.78716 8.08066 1.4907 8.04938C1.19425 8.01826 0.92298 7.86858 0.738192 7.63469C0.553424 7.4008 0.470881 7.1022 0.509178 6.80653C0.547474 6.51099 0.703406 6.24322 0.941716 6.0641L8.26916 0.281041C8.49604 0.102225 8.77646 0.00488281 9.0653 0.00488281C9.35414 0.00488281 9.63454 0.102225 9.86143 0.281041L12.67 2.499V1.4862C12.67 1.24453 12.8658 1.04878 13.1074 1.04878H14.433C14.549 1.04878 14.6602 1.09486 14.7423 1.17694C14.8244 1.25888 14.8704 1.37025 14.8704 1.48621V4.24443L17.1758 6.06434V6.06419C17.4085 6.24346 17.5604 6.5077 17.5983 6.79896C17.6359 7.09022 17.5565 7.38453 17.377 7.61721L17.3771 7.61715ZM13.322 10.4038C13.6595 10.4039 13.9852 10.2797 14.237 10.055C14.4888 9.83024 14.6491 9.52081 14.6872 9.18545C14.7254 8.85009 14.6387 8.51247 14.4439 8.23691C14.2491 7.96136 13.9595 7.7673 13.6307 7.69145C13.3017 7.61577 12.9564 7.66383 12.6608 7.82632C12.3649 7.98897 12.1394 8.25476 12.0271 8.57301C12.5277 8.99657 12.8033 9.62838 12.7731 10.2834C12.9456 10.3613 13.1327 10.4022 13.322 10.4037L13.322 10.4038ZM9.06539 8.38704C9.50054 8.38704 9.91765 8.21417 10.2254 7.90657C10.533 7.59883 10.7059 7.18168 10.7059 6.74656C10.7059 6.31145 10.533 5.8943 10.2254 5.58655C9.91765 5.27897 9.5005 5.10609 9.06539 5.10609C8.63027 5.10609 8.21312 5.27896 7.90538 5.58655C7.59779 5.8943 7.42491 6.31145 7.42491 6.74656C7.42491 7.18168 7.59778 7.59883 7.90538 7.90657C8.21312 8.21416 8.63027 8.38704 9.06539 8.38704ZM4.80875 10.4038C4.99871 10.4033 5.18652 10.363 5.35999 10.2857C5.32886 9.63038 5.6035 8.99763 6.10363 8.57302C5.99179 8.25429 5.76659 7.98803 5.47076 7.82512C5.17507 7.66202 4.8298 7.61365 4.50054 7.68902C4.17144 7.76455 3.88169 7.95847 3.68655 8.23417C3.49141 8.50972 3.40459 8.84751 3.44274 9.18302C3.48088 9.51853 3.64123 9.82828 3.89313 10.053C4.14518 10.2777 4.47108 10.4018 4.8087 10.4015L4.80875 10.4038ZM5.7712 13.4813L5.4453 11.1256L4.90945 11.7971C4.88245 11.8296 4.84232 11.8483 4.80006 11.8483C4.75779 11.8483 4.71767 11.8296 4.69066 11.7971L3.97983 10.9091V10.909C3.9693 10.8955 3.95313 10.8874 3.93604 10.8871H3.49862C3.16753 10.8868 2.85216 11.028 2.63155 11.2748C2.41108 11.5217 2.30626 11.8509 2.34364 12.1799L2.68053 14.6385V14.6383C2.70143 14.8206 2.77268 14.9935 2.88635 15.1375C2.99986 15.2817 3.15121 15.3912 3.32361 15.4543L3.89227 19.3455V19.3453C3.91744 19.5695 4.10435 19.7405 4.32985 19.7457H5.23093C5.45644 19.7405 5.64336 19.5695 5.66835 19.3453L6.23701 15.4585H6.23717C6.37097 15.4121 6.49334 15.3377 6.59587 15.2399L6.55437 14.8505H6.55421C6.11129 14.5257 5.82737 14.0279 5.77335 13.4813L5.7712 13.4813ZM12.0007 10.36C12.0449 9.96771 11.9198 9.57513 11.6566 9.28066C11.3936 8.9862 11.0175 8.81789 10.6226 8.81789H10.0868C10.0662 8.8182 10.0468 8.82796 10.0343 8.84414L9.18567 9.90498H9.18552C9.15363 9.9448 9.10542 9.96784 9.05431 9.96784C9.00334 9.96784 8.95513 9.9448 8.92309 9.90498L8.07446 8.84414C8.06179 8.82796 8.04257 8.8182 8.02197 8.81789H7.5101C7.11526 8.81789 6.73916 8.98618 6.4761 9.28066C6.21306 9.57513 6.08795 9.96771 6.13205 10.36L6.53455 13.385C6.55942 13.6023 6.64409 13.8084 6.77927 13.9802C6.91445 14.1522 7.0948 14.2831 7.30016 14.3583L7.97162 20.603C8.00275 20.8752 8.23359 21.0805 8.50747 21.0798H9.5903C9.86417 21.0804 10.095 20.8752 10.1261 20.603L10.8042 14.3778V14.3777C11.0173 14.3054 11.2053 14.1732 11.3455 13.9972C11.4859 13.8212 11.5728 13.6086 11.596 13.3847L12.0007 10.36ZM14.6254 10.885H14.177C14.1599 10.8853 14.1439 10.8934 14.1334 10.9068L13.4226 11.7948L13.4224 11.7949C13.3954 11.8274 13.3554 11.8462 13.3132 11.8462C13.2707 11.8462 13.2308 11.8274 13.2038 11.7949L12.6853 11.1387L12.3594 13.4813C12.2943 14.0419 11.9896 14.5469 11.5239 14.8657L11.4846 15.2179C11.5853 15.3221 11.7078 15.4028 11.8433 15.4542L12.4119 19.3455V19.3453C12.4371 19.5694 12.624 19.7405 12.8493 19.7457H13.7506C13.9759 19.7405 14.1628 19.5694 14.188 19.3453L14.7567 15.4585C14.9326 15.3973 15.0874 15.2876 15.2035 15.142C15.3196 14.9966 15.3923 14.8212 15.4129 14.6361L15.7804 12.1798C15.8184 11.8506 15.714 11.5207 15.4934 11.2732C15.2728 11.0259 14.957 10.8846 14.6254 10.8849L14.6254 10.885Z" fill="#7E7E8A"/>
</svg>
