<svg width="16" height="16" viewBox="0 0 16 16" fill="none" xmlns="http://www.w3.org/2000/svg">
<path d="M7.9995 1C4.14151 1 1 4.1378 1 7.997C1 11.8564 4.14124 15 7.9995 15C11.8578 15 15 11.8565 15 7.997C15 4.13763 11.8576 0.999667 7.9995 1ZM7.9995 2.16208C11.2272 2.16208 13.8336 4.76833 13.8336 7.9973C13.8336 11.2262 11.2272 13.8335 7.9995 13.8335C4.77171 13.8335 2.16636 11.2262 2.16636 7.9973C2.16636 4.76849 4.77155 2.16241 7.9995 2.16208ZM7.9995 3.91458C7.84485 3.91458 7.69645 3.97604 7.58711 4.08543C7.47776 4.19481 7.41632 4.34327 7.41632 4.49797C7.41632 4.65267 7.47776 4.80112 7.58711 4.91051C7.69645 5.01989 7.84485 5.08136 7.9995 5.08136C8.15415 5.08136 8.30255 5.01989 8.41189 4.91051C8.52124 4.80112 8.58268 4.65267 8.58268 4.49797C8.58268 4.34327 8.52124 4.19481 8.41189 4.08543C8.30255 3.97604 8.15415 3.91458 7.9995 3.91458ZM7.9995 6.2493C7.84485 6.24865 7.69619 6.30959 7.58644 6.41859C7.4767 6.52745 7.41461 6.67564 7.41409 6.83036V11.4988C7.41461 11.6535 7.4767 11.8017 7.58644 11.9107C7.69618 12.0197 7.84484 12.0805 7.9995 12.08C8.15363 12.0796 8.30124 12.0184 8.41033 11.9094C8.51941 11.8005 8.58098 11.653 8.5815 11.4988V6.83036C8.58098 6.6763 8.51941 6.52863 8.41033 6.41978C8.30124 6.31092 8.15362 6.24956 7.9995 6.2493Z" fill="#52516A"/>
</svg>
