<svg width="22" height="21" viewBox="0 0 22 21" fill="none" xmlns="http://www.w3.org/2000/svg">
<path d="M6.24222 1.53048C6.24222 1.37603 6.3674 1.25085 6.52185 1.25065H7.35706H7.35687C7.4312 1.25065 7.50227 1.28012 7.55484 1.3327C7.60722 1.38508 7.63669 1.45614 7.63669 1.53048V2.38516C7.6365 2.41867 7.65614 2.4491 7.68695 2.46277C7.71777 2.47626 7.75359 2.47009 7.77805 2.44698L10.2404 0.196085V0.196278C10.3473 0.0986366 10.511 0.0986366 10.6179 0.196278L15.9414 5.06246H15.9412C16.0265 5.14045 16.055 5.26274 16.0132 5.37021C15.9713 5.47786 15.8676 5.54873 15.7521 5.54854H5.105C4.98964 5.54873 4.88584 5.47786 4.84405 5.37021C4.80206 5.26274 4.83076 5.14045 4.91588 5.06246L6.21467 3.87519C6.23239 3.85939 6.24259 3.83686 6.24279 3.81317L6.24222 1.53048Z" fill="#7E7E8A"/>
<path d="M11.1961 9.71185V12.7779H12.6731V10.8471V10.8473C12.6763 10.4989 12.9596 10.2183 13.308 10.2183C13.6562 10.2183 13.9395 10.4989 13.9428 10.8473V12.7781H15.2968C15.3192 12.7783 15.3407 12.7697 15.3567 12.7539C15.3725 12.7381 15.3816 12.7165 15.3816 12.6942V6.58476C15.3816 6.56242 15.3725 6.54104 15.3567 6.52525C15.3407 6.50946 15.3192 6.5006 15.2968 6.50099H5.60913V12.6942C5.60913 12.7166 5.61799 12.7381 5.63397 12.7539C5.64996 12.7697 5.67153 12.7784 5.69387 12.7782H7.65763V9.71188C7.66148 9.08231 7.99966 8.50208 8.54565 8.18838C9.09161 7.87466 9.76314 7.87466 10.3092 8.18838C10.8551 8.5021 11.1933 9.08236 11.1972 9.71188L11.1961 9.71185Z" fill="#7E7E8A"/>
<path d="M12.8696 19.8582H7.34535C6.66632 19.8582 6.01017 19.6144 5.49596 19.171L1.39488 15.635C1.08309 15.3663 0.931915 14.956 0.99431 14.5492C1.05671 14.1425 1.32421 13.7966 1.70203 13.6337C2.07988 13.4708 2.51511 13.5139 2.85366 13.7479L6.18361 16.0491C6.77523 16.4578 7.47698 16.6767 8.19609 16.6767H12.6118H12.6116C12.8127 16.6755 12.9748 16.5122 12.9748 16.3114C12.9748 16.1105 12.8127 15.9474 12.6116 15.9462H9.8359C9.44149 15.9462 9.07691 15.7357 8.8799 15.3943C8.6827 15.0527 8.6827 14.6319 8.8799 14.2904C9.07691 13.9488 9.44149 13.7385 9.8359 13.7385H15.6579H15.6577C16.5132 13.7385 17.3488 13.9967 18.0548 14.4795C18.761 14.9623 19.305 15.6472 19.6156 16.4443L21.1879 20.4791H21.1877C21.2303 20.5879 21.216 20.7108 21.1502 20.8072C21.0841 20.9037 20.9749 20.9615 20.858 20.9615H14.8373C14.3973 20.2987 13.6651 19.8881 12.8699 19.8582L12.8696 19.8582Z" fill="#7E7E8A"/>
</svg>
