<svg width="24" height="24" viewBox="0 0 24 24" fill="none" xmlns="http://www.w3.org/2000/svg">
<path fill-rule="evenodd" clip-rule="evenodd" d="M11.2392 5.59785V11.2392H5.59785L6.44874 10.3883C6.74643 10.0906 6.74821 9.60708 6.45104 9.30991C6.15182 9.0107 5.6711 9.01376 5.37279 9.3122L3.2252 11.4597C3.22482 11.46 3.22444 11.4604 3.22406 11.4608C3.22368 11.4612 3.22329 11.4616 3.22291 11.462C3.07375 11.6112 2.99974 11.8056 3 12C3.00089 12.1953 3.07477 12.3898 3.22291 12.538C3.22329 12.5384 3.22368 12.5388 3.22406 12.5392C3.22444 12.5396 3.22482 12.54 3.2252 12.5403L5.37279 14.6878C5.67047 14.9855 6.15387 14.9873 6.45104 14.6901C6.75025 14.3909 6.74719 13.9102 6.44874 13.6117L5.59785 12.7608H11.2392V18.4022L10.3883 17.5513C10.0906 17.2536 9.60708 17.2518 9.30991 17.549C9.0107 17.8482 9.01376 18.3289 9.3122 18.6272L11.4597 20.7748C11.46 20.7752 11.4604 20.7756 11.4608 20.7759C11.4612 20.7763 11.4616 20.7767 11.462 20.7771C11.6112 20.9262 11.8056 21.0003 12 21C12.1953 20.9991 12.3898 20.9252 12.538 20.7771C12.5384 20.7767 12.5388 20.7763 12.5392 20.7759C12.5396 20.7756 12.54 20.7752 12.5403 20.7748L14.6878 18.6272C14.9855 18.3295 14.9873 17.8461 14.6901 17.549C14.3909 17.2498 13.9101 17.2528 13.6117 17.5513L12.7608 18.4022V12.7608H18.4022L17.5513 13.6117C17.2536 13.9094 17.2518 14.3929 17.549 14.6901C17.8482 14.9893 18.3289 14.9862 18.6272 14.6878L20.7748 12.5403C20.7752 12.54 20.7756 12.5396 20.7759 12.5392C20.7763 12.5388 20.7767 12.5384 20.7771 12.538C20.9262 12.3888 21.0003 12.1944 21 12C20.9991 11.8047 20.9252 11.6102 20.7771 11.462C20.7767 11.4616 20.7763 11.4612 20.7759 11.4608C20.7756 11.4604 20.7752 11.46 20.7748 11.4597L18.6272 9.3122C18.3295 9.01452 17.8461 9.01274 17.549 9.30991C17.2497 9.60912 17.2528 10.0898 17.5513 10.3883L18.4022 11.2392H12.7608V5.59785L13.6117 6.44874C13.9094 6.74643 14.3929 6.74821 14.6901 6.45104C14.9893 6.15182 14.9862 5.6711 14.6878 5.37279L12.5403 3.2252C12.54 3.22482 12.5396 3.22444 12.5392 3.22406C12.5388 3.22368 12.5384 3.22329 12.538 3.22291C12.3888 3.07375 12.1944 2.99974 12 3C11.8047 3.00089 11.6102 3.07477 11.462 3.22291C11.4616 3.22329 11.4612 3.22368 11.4608 3.22406C11.4604 3.22444 11.46 3.22482 11.4597 3.2252L9.3122 5.37279C9.01452 5.67048 9.01274 6.15387 9.30991 6.45104C9.60912 6.75025 10.0898 6.74719 10.3883 6.44874L11.2392 5.59785Z" fill="#7E7E8A"/>
</svg>
