<svg width="18" height="19" viewBox="0 0 18 19" fill="none" xmlns="http://www.w3.org/2000/svg">
<path d="M10.5499 4.59507V2.87515C10.5499 2.42706 10.1848 2.06445 9.73924 2.06445H6.62305L8.26003 4.59507H10.5499Z" fill="#3263C9"/>
<path d="M14.4094 4.59507V2.87515C14.4094 2.42706 14.0443 2.06445 13.5987 2.06445H11.1328C11.2727 2.3053 11.3531 2.57996 11.3531 2.87515V4.59253H14.4095L14.4094 4.59507Z" fill="#3263C9"/>
<path d="M16.6269 5.39848H8.04261C7.90529 5.39848 7.77846 5.32856 7.70582 5.21454L5.13131 1.24121H0.810698C0.36514 1.24121 0 1.60637 0 2.05191V16.4305C0 16.8761 0.365154 17.2412 0.810698 17.2412H16.6241C17.0722 17.2412 17.4348 16.8761 17.4348 16.4305L17.435 6.20693C17.435 5.76137 17.0749 5.39873 16.6268 5.39873L16.6269 5.39848ZM14.4329 8.19594H10.4207C10.1979 8.19594 10.0218 8.01724 10.0218 7.797C10.0218 7.57422 10.1979 7.39299 10.4207 7.39299H14.4329C14.6557 7.39299 14.8319 7.5744 14.8319 7.797C14.8319 8.01724 14.6557 8.19594 14.4329 8.19594Z" fill="#3263C9"/>
</svg>
