<svg width="24" height="24" viewBox="0 0 24 24" fill="none" xmlns="http://www.w3.org/2000/svg">
<path fill-rule="evenodd" clip-rule="evenodd" d="M20.7561 9.33593C18.721 7.80428 15.574 6 11.9655 6C8.3569 6 5.2099 7.80428 3.17484 9.33578C2.41956 9.88133 2 10.7415 2 11.6856C2 12.6297 2.41956 13.4899 3.17484 14.0354C5.18899 15.5459 8.3569 17.3711 11.9655 17.3711C15.574 17.3711 18.721 15.5669 20.7561 14.0354C21.5113 13.4689 21.9309 12.6088 21.9309 11.6856C21.9309 10.7416 21.5113 9.88137 20.7561 9.33593ZM11.9655 15.7138C9.74161 15.7138 7.9373 13.9096 7.9373 11.6857C7.9373 9.46181 9.74157 7.65753 11.9655 7.65753C14.1893 7.65753 15.9936 9.46181 15.9936 11.6857C15.9936 13.9096 14.1893 15.7138 11.9655 15.7138Z" fill="#7E7E8A"/>
<path fill-rule="evenodd" clip-rule="evenodd" d="M14.483 11.6865C14.483 13.0769 13.3558 14.2041 11.9654 14.2041C10.575 14.2041 9.44788 13.0769 9.44788 11.6865C9.44788 10.2961 10.575 9.16895 11.9654 9.16895C13.3558 9.16895 14.483 10.2961 14.483 11.6865Z" fill="#7E7E8A"/>
</svg>
