<svg width="24" height="24" viewBox="0 0 24 24" fill="none" xmlns="http://www.w3.org/2000/svg">
<path d="M20 6.33304C20 5.17746 19.0667 4.24414 17.9111 4.24414H17.5555C17.4222 5.26643 16.5777 6.06642 15.4666 6.06642H8.48891C7.4223 6.06642 6.53334 5.26643 6.40001 4.24414H6.04442C4.93348 4.24414 4 5.17746 4 6.33304V20.0218C4 21.1774 4.93332 22.1107 6.0889 22.1107H17.911C19.0666 22.1107 19.9999 21.1774 19.9999 20.0218L20 6.33304ZM8.13347 19.3551H6.53349V17.7551H8.13347V19.3551ZM8.13347 16.1996H6.53349V14.5996H8.13347V16.1996ZM8.13347 13.0884H6.53349V11.4885H8.13347V13.0884ZM8.13347 9.97745H6.53349V8.37746H8.13347V9.97745ZM16.9778 18.9996H9.86679C9.60017 18.9996 9.37791 18.7773 9.37791 18.5107C9.37791 18.2441 9.60019 18.0218 9.86679 18.0218H16.9778C17.2444 18.0218 17.4667 18.2441 17.4667 18.5107C17.4667 18.8218 17.2444 18.9996 16.9778 18.9996ZM16.9778 15.8886H9.86679C9.60017 15.8886 9.37791 15.6663 9.37791 15.3997C9.37791 15.1331 9.60019 14.9108 9.86679 14.9108H16.9778C17.2444 14.9108 17.4667 15.1331 17.4667 15.3997C17.4667 15.6663 17.2444 15.8886 16.9778 15.8886ZM16.9778 12.7774H9.86679C9.60017 12.7774 9.37791 12.5551 9.37791 12.2885C9.37791 12.0219 9.60019 11.7996 9.86679 11.7996H16.9778C17.2444 11.7996 17.4667 12.0219 17.4667 12.2885C17.4667 12.5553 17.2444 12.7774 16.9778 12.7774ZM16.9778 9.66642H9.86679C9.60017 9.66642 9.37791 9.44413 9.37791 9.17753C9.37791 8.91093 9.60019 8.68865 9.86679 8.68865H16.9778C17.2444 8.68865 17.4667 8.91093 17.4667 9.17753C17.4667 9.44413 17.2444 9.66642 16.9778 9.66642Z" fill="#7E7E8A"/>
<path d="M12.7113 1.3111C12.5335 1.1333 12.2669 1 12.0001 1C11.4223 1 10.9778 1.4444 10.9778 2.02229V3.0001H8.48897C7.82227 3.0001 7.28906 3.53346 7.28906 4.2C7.28906 4.8667 7.82243 5.39991 8.48897 5.39991H15.5111C16.1778 5.39991 16.711 4.86654 16.711 4.2C16.711 3.5333 16.1776 3.0001 15.5111 3.0001H13.0223V2.06665C13.0223 1.75555 12.9333 1.53329 12.7112 1.31115L12.7113 1.3111Z" fill="#7E7E8A"/>
</svg>
