<svg width="24" height="24" viewBox="0 0 24 24" fill="none" xmlns="http://www.w3.org/2000/svg">
<path d="M10.9544 20.9969C10.8448 20.8872 10.676 20.8872 10.5661 20.9969C10.3888 21.1742 10.1271 21.4359 10.0005 21.5625C9.95825 21.6132 9.92453 21.6722 9.92453 21.7313L9.78943 23.5209C9.77247 23.6982 9.92453 23.8333 10.0934 23.8163L11.8153 23.6223C11.8745 23.6138 11.9334 23.5886 11.9756 23.5463L12.5413 22.9721C12.651 22.8624 12.651 22.6851 12.5413 22.5837L10.9544 20.9969ZM18.3827 16.7426L16.7958 15.1558C16.6862 15.0462 16.5089 15.0462 16.4075 15.1558L11.9589 19.6043C11.8492 19.714 11.8492 19.8913 11.9589 19.9927L13.5458 21.5795C13.6554 21.6891 13.8327 21.6891 13.9341 21.5795L18.3827 17.131C18.4923 17.0211 18.4923 16.8523 18.3827 16.7426ZM17.1924 5.43169C17.1924 4.82384 16.6944 4.32587 16.0866 4.32587H15.4872C15.3353 4.32587 15.2087 4.45249 15.2087 4.60435V6.25883C15.2087 6.41069 15.0821 6.53731 14.9302 6.53731H5.56055C5.40868 6.53731 5.28207 6.41069 5.28207 6.25883L5.28188 4.59586C5.28188 4.444 5.15526 4.31738 5.0034 4.31738H4.45472C3.84686 4.31738 3.34888 4.81535 3.34888 5.4232V19.8154C3.34888 20.4232 3.84686 20.9212 4.45472 20.9212H8.75972C8.83565 20.7946 8.91158 20.6764 9.02143 20.5666L17.1925 12.3957L17.1924 5.43169ZM10.8196 13.3913H6.94513C6.56528 13.3913 6.25286 13.0789 6.25286 12.6991C6.25286 12.3192 6.56526 12.0068 6.94513 12.0068H10.8196C11.1994 12.0068 11.5119 12.3192 11.5119 12.6991C11.5119 13.0789 11.2079 13.3913 10.8196 13.3913ZM13.5882 10.6228H6.94474C6.56489 10.6228 6.25247 10.3104 6.25247 9.93051C6.25247 9.55064 6.56487 9.23825 6.94474 9.23825H13.5882C13.968 9.23825 14.2805 9.55064 14.2805 9.93051C14.2805 10.3104 13.9765 10.6228 13.5882 10.6228Z" fill="#7E7E8A"/>
<path d="M12.3558 2.51136C11.9422 2.37626 11.6468 1.98792 11.6553 1.55762C11.6636 0.797738 11.0557 0.181641 10.296 0.181641H10.2368C9.50237 0.181641 8.85254 0.764022 8.87777 1.49849C8.89473 1.95426 8.60757 2.36781 8.17725 2.51141C7.29941 2.80684 6.65784 3.07705 6.65784 4.05601V4.88314C6.65784 5.035 6.78445 5.16161 6.93632 5.16161H13.588C13.7398 5.16161 13.8664 5.035 13.8664 4.88314L13.8668 4.05601C13.8668 3.07681 13.2337 2.80684 12.3559 2.51141L12.3558 2.51136ZM20.5688 14.5564L18.982 12.9696C18.8723 12.86 18.695 12.86 18.5936 12.9696L17.758 13.8052C17.6484 13.9149 17.6484 14.0922 17.758 14.1936L19.3449 15.7804C19.4545 15.89 19.6318 15.89 19.7332 15.7804L20.5688 14.9448C20.6785 14.8351 20.6785 14.6578 20.5688 14.5564Z" fill="#7E7E8A"/>
</svg>
