<svg width="24" height="24" viewBox="0 0 24 24" fill="none" xmlns="http://www.w3.org/2000/svg">
<path fill-rule="evenodd" clip-rule="evenodd" d="M17.7632 11.5342L13.046 7.00256C12.2846 6.96673 11.9503 7.30707 12.006 8.00565L16.1475 12L12.006 15.9943C11.9503 16.6929 12.2845 17.0333 13.046 16.9974L17.7632 12.4479C18.0789 12.1255 18.0789 11.8747 17.7632 11.5344V11.5342Z" fill="#7E7E8A"/>
<path fill-rule="evenodd" clip-rule="evenodd" d="M11.7632 11.5342L7.04601 7.00256C6.28455 6.96673 5.95028 7.30707 6.00595 8.00565L10.1475 12L6.00595 15.9943C5.95026 16.6929 6.28453 17.0333 7.04601 16.9974L11.7632 12.4479C12.0789 12.1255 12.0789 11.8747 11.7632 11.5344V11.5342Z" fill="#7E7E8A"/>
</svg>
