<svg width="16" height="25" viewBox="0 0 16 25" fill="none" xmlns="http://www.w3.org/2000/svg">
<path d="M14.8181 10.7372L15.3985 9.17264C15.5247 8.84451 15.2723 8.49121 14.919 8.49121H3.91592C2.14942 8.49121 0.685668 9.80355 0.508923 11.57L0.0547579 15.7593C0.00423555 16.1632 0.281845 16.5416 0.685667 16.6427C1.13983 16.7436 1.7456 16.8194 2.35131 16.8951L2.72979 23.5575C2.75496 24.1127 3.23447 24.5418 3.78971 24.5418H6.99478C7.54998 24.5418 8.00414 24.1128 8.05471 23.5575L8.60991 12.1255C8.60991 11.5451 9.08944 11.0907 9.64464 11.0907H14.3134C14.5656 11.0654 14.7675 10.9392 14.8179 10.7372L14.8181 10.7372Z" fill="#7E7E8A"/>
<path d="M8.93777 4.04985C8.93777 5.9871 7.36716 7.55771 5.42991 7.55771C3.49248 7.55771 1.92188 5.9871 1.92188 4.04985C1.92188 2.1126 3.49248 0.541992 5.42991 0.541992C7.36716 0.541992 8.93777 2.1126 8.93777 4.04985Z" fill="#7E7E8A"/>
<path d="M15.4999 15.6333C15.4999 14.1696 14.3138 12.9834 12.8501 12.9834C11.3864 12.9834 10.2002 14.1695 10.2002 15.6333C10.2002 16.8194 11.0078 17.8288 12.0929 18.1569V20.2515H11.0836C10.7554 20.2515 10.5032 20.504 10.5032 20.8319C10.5032 21.16 10.7556 21.4123 11.0836 21.4123H12.0929V22.1441H11.0836C10.7554 22.1441 10.5032 22.3965 10.5032 22.7245C10.5032 23.0526 10.7556 23.3049 11.0836 23.3049H12.0929V23.633C12.0929 24.0368 12.4211 24.3647 12.8247 24.3647C13.2285 24.3647 13.5565 24.0366 13.5565 23.633L13.5566 18.1567C14.6924 17.8287 15.4999 16.8445 15.4999 15.633L15.4999 15.6333ZM12.8501 16.7942C12.2192 16.7942 11.6891 16.2642 11.6891 15.6333C11.6891 15.0024 12.2192 14.4723 12.8501 14.4723C13.481 14.4723 14.011 15.0024 14.011 15.6333C14.011 16.2642 13.5063 16.7942 12.8501 16.7942Z" fill="#7E7E8A"/>
</svg>
