<svg width="25" height="25" viewBox="0 0 25 25" fill="none" xmlns="http://www.w3.org/2000/svg">
<path d="M13.3333 4.48819V2.33107L0 0V25H25V6.52919L13.3333 4.48819ZM5.99143 23.3442V20.6902H7.34152V23.3442H5.99143ZM11.6667 23.3442H9.00838V19.034H4.32495V23.3442H1.66667V1.97078L11.6667 3.72218V23.3442ZM17.6581 23.3442V20.6902H19.0082V23.3442H17.6581ZM23.3333 23.3442H20.675V19.034H15.9916V23.3442H13.3333V6.16946L23.3333 7.92086V23.3442Z" fill="#3263C9"/>
<path d="M19.1499 9.86719H21.6832V11.5234H19.1499V9.86719Z" fill="#3263C9"/>
<path d="M15.0044 9.86719H17.5377V11.5234H15.0044V9.86719Z" fill="#3263C9"/>
<path d="M19.1499 12.5957H21.6832V14.2519H19.1499V12.5957Z" fill="#3263C9"/>
<path d="M15.0044 12.5957H17.5377V14.2519H15.0044V12.5957Z" fill="#3263C9"/>
<path d="M19.1499 15.3237H21.6832V16.9799H19.1499V15.3237Z" fill="#3263C9"/>
<path d="M15.0044 15.3237H17.5377V16.9799H15.0044V15.3237Z" fill="#3263C9"/>
<path d="M7.47095 9.86719H10.0042V11.5234H7.47095V9.86719Z" fill="#3263C9"/>
<path d="M3.32471 9.86719H5.85799V11.5234H3.32471V9.86719Z" fill="#3263C9"/>
<path d="M7.47095 12.5957H10.0042V14.2519H7.47095V12.5957Z" fill="#3263C9"/>
<path d="M3.32471 12.5957H5.85799V14.2519H3.32471V12.5957Z" fill="#3263C9"/>
<path d="M7.47095 7.13818H10.0042V8.79438H7.47095V7.13818Z" fill="#3263C9"/>
<path d="M3.32471 7.13818H5.85799V8.79438H3.32471V7.13818Z" fill="#3263C9"/>
<path d="M7.47095 15.3237H10.0042V16.9799H7.47095V15.3237Z" fill="#3263C9"/>
<path d="M3.32471 15.3237H5.85799V16.9799H3.32471V15.3237Z" fill="#3263C9"/>
</svg>
