<svg width="25" height="24" viewBox="0 0 25 24" fill="none" xmlns="http://www.w3.org/2000/svg">
<path d="M21.5063 20.5524V13.1062C21.7838 13.3538 22.1327 13.4963 22.5079 13.4963C22.9093 13.4963 23.2844 13.3388 23.5696 13.0575C23.8547 12.7723 24.0084 12.3972 24.0084 11.9958C24.0084 11.5945 23.8509 11.2194 23.5696 10.9342L21.0073 8.37198V2.49352C21.0073 2.21599 20.7823 1.99459 20.5084 1.99459H17.5073C17.2298 1.99459 17.0084 2.21962 17.0084 2.49352V4.3729L13.0657 0.430406C12.4918 -0.143469 11.5202 -0.143469 10.9425 0.430406L0.439023 10.9339C0.157515 11.219 8.77012e-06 11.5942 8.77012e-06 11.9955C8.77012e-06 12.3969 0.157515 12.772 0.43885 13.0571C1.0053 13.6236 1.91306 13.6348 2.49834 13.1058V20.5525C1.08426 20.7927 0 22.0157 0 23.5011C0 23.7786 0.225031 24 0.498935 24H23.5061C23.7836 24 24.005 23.775 24.005 23.5011C24.0088 22.0156 22.9246 20.7927 21.5067 20.5525L21.5063 20.5524ZM18.0063 2.99218H20.0057V7.37369L18.0063 5.37066V2.99218ZM1.85288 12.3479C1.66153 12.5355 1.33512 12.5355 1.14394 12.3479C1.05016 12.2541 0.997661 12.1265 0.997661 11.9953C0.997661 11.8602 1.05016 11.7364 1.14394 11.6426L11.6474 1.1391C11.8276 0.958971 12.1764 0.958971 12.3564 1.1391L22.8599 11.6426C22.9536 11.7364 23.0061 11.864 23.0061 11.9953C23.0061 12.1303 22.9536 12.2541 22.8599 12.3479C22.6685 12.5355 22.3421 12.5355 22.1509 12.3479L12.3562 2.55315C12.2586 2.45557 12.1311 2.40687 12.0035 2.40687C11.8759 2.40687 11.7484 2.45557 11.6508 2.55315L1.85288 12.3479ZM16.5057 21.4976V22.9981L12.5031 22.9983V18.5041H18.5054C18.7829 18.5041 19.0043 18.2791 19.0043 18.0052V11.5002C19.0043 11.2227 18.7793 11.0013 18.5054 11.0013H5.503C5.22547 11.0013 5.00406 11.2263 5.00406 11.5002V18.0012C5.00406 18.2787 5.2291 18.5001 5.503 18.5001H11.5052V22.9943H7.50267V21.4938C7.50267 20.1134 6.38097 18.9917 5.00053 18.9917C4.44164 18.9917 3.92387 19.183 3.50005 19.5018L3.49988 12.1153L12.0041 3.61464L20.5083 12.1189V19.5129C20.0845 19.1941 19.5667 19.0027 19.0078 19.0027C17.6272 18.9989 16.5055 20.1205 16.5055 21.4973L16.5057 21.4976ZM6.0022 17.5025V11.9994H18.0067V17.5025H6.0022ZM2.96363 21.4976C2.98245 21.5014 3.03496 21.5051 3.05361 21.5051C3.30127 21.5163 3.49626 21.355 3.55254 21.1299C3.72127 20.4659 4.31781 20.0008 5.00049 20.0008C5.82947 20.0008 6.50097 20.6723 6.50097 21.5013V23.0018L1.06154 23.0019C1.28657 22.1391 2.06321 21.4977 2.96355 21.4977L2.96363 21.4976ZM17.5077 22.9982V21.4978C17.5077 20.6688 18.1792 19.9973 19.0081 19.9973C19.6908 19.9973 20.2836 20.4624 20.4561 21.1264C20.5124 21.3553 20.7112 21.5166 20.955 21.5015C20.9851 21.5015 21.0151 21.4977 21.0075 21.4941C21.9379 21.4941 22.7219 22.1319 22.9432 22.9946L17.5077 22.9944L17.5077 22.9982Z" fill="white"/>
<path d="M15.6579 13.1699H8.3505C8.07296 13.1699 7.85156 13.395 7.85156 13.6689C7.85156 13.9428 8.07659 14.1678 8.3505 14.1678H15.6619C15.9394 14.1678 16.1608 13.9428 16.1608 13.6689C16.1606 13.3949 15.9356 13.1699 15.6579 13.1699V13.1699Z" fill="white"/>
<path d="M13.9214 15.0908H10.0873C9.80978 15.0908 9.58838 15.3159 9.58838 15.5898C9.58838 15.8637 9.81341 16.0887 10.0873 16.0887H13.9212C14.1987 16.0887 14.4201 15.8637 14.4201 15.5898C14.4201 15.316 14.1989 15.0908 13.9214 15.0908Z" fill="white"/>
</svg>
