<svg width="19" height="19" viewBox="0 0 19 19" fill="none" xmlns="http://www.w3.org/2000/svg">
<path d="M5.06323 4.49219V7.75931C5.06323 8.16182 5.39054 8.48939 5.79291 8.48939H5.79331C6.19582 8.48939 6.52339 8.16182 6.52339 7.75931V4.49219H5.06323Z" fill="#7E7E8A"/>
<path d="M2.87305 4.49219V7.75931C2.87305 8.16182 3.20035 8.48939 3.60272 8.48939H3.60312C4.00563 8.48939 4.3332 8.16182 4.3332 7.75931V4.49219H2.87305Z" fill="#7E7E8A"/>
<path d="M15.2838 0.823242H3.23788C2.73408 0.823242 2.3252 1.23209 2.3252 1.73579V2.48204C2.3252 2.9857 2.73405 3.39458 3.23774 3.39458H15.2837C15.7874 3.39458 16.1962 2.98573 16.1962 2.48204L16.1965 2.46588V1.7358C16.1965 1.23214 15.7876 0.823257 15.2838 0.823257L15.2838 0.823242Z" fill="#7E7E8A"/>
<path d="M7.25342 4.49219V7.75931C7.25342 8.16182 7.58072 8.48939 7.98309 8.48939H7.98349C8.38601 8.48939 8.71358 8.16182 8.71358 7.75931V4.49219H7.25342Z" fill="#7E7E8A"/>
<path d="M9.44336 4.49219V7.75931C9.44336 8.16182 9.77066 8.48939 10.173 8.48939H10.1734C10.5759 8.48939 10.9035 8.16182 10.9035 7.75931V4.49219H9.44336Z" fill="#7E7E8A"/>
<path d="M14.1885 4.49219V7.75931C14.1885 8.16182 14.5158 8.48939 14.9182 8.48939H14.9185C15.3211 8.48939 15.6486 8.16182 15.6486 7.75931V4.49219H14.1885Z" fill="#7E7E8A"/>
<path d="M11.9983 4.49219V7.75931C11.9983 8.16182 12.3256 8.48939 12.728 8.48939H12.7284C13.1309 8.48939 13.4584 8.16182 13.4584 7.75931V4.49219H11.9983Z" fill="#7E7E8A"/>
<path d="M16.379 4.49219V7.75931C16.379 8.56461 15.7241 9.21947 14.9188 9.21947C14.4805 9.21947 14.0915 9.02153 13.8237 8.715C13.5558 9.02152 13.1668 9.21947 12.7285 9.21947C12.1751 9.21947 11.6985 8.90647 11.4509 8.45167C11.2033 8.90662 10.7268 9.21947 10.1734 9.21947C9.7351 9.21947 9.34611 9.02153 9.07823 8.715C8.81038 9.02152 8.42136 9.21947 7.98309 9.21947C7.54481 9.21947 7.15583 9.02153 6.88795 8.715C6.62009 9.02152 6.23108 9.21947 5.79281 9.21947C5.35453 9.21947 4.96554 9.02153 4.69766 8.715C4.42981 9.02152 4.0408 9.21947 3.60252 9.21947C2.79722 9.21947 2.14236 8.56461 2.14236 7.75931V4.49219H0.5V18.3451H7.43577L7.43564 13.9647C7.43564 12.9572 8.25324 12.1395 9.26086 12.1395C10.2684 12.1395 11.0861 12.9571 11.0861 13.9647V18.3451H18.0219L18.0217 4.49219H16.379ZM6.3407 16.1551H2.32539V13.0523C2.32539 11.9462 3.22709 11.0446 4.33305 11.0446C5.43903 11.0446 6.3407 11.9463 6.3407 13.0523V16.1551ZM16.1966 16.1551H12.1813V13.0523C12.1813 11.9462 13.083 11.0446 14.1889 11.0446C15.2949 11.0446 16.1966 11.9463 16.1966 13.0523V16.1551Z" fill="#7E7E8A"/>
</svg>
