<svg width="25" height="25" viewBox="0 0 25 25" fill="none" xmlns="http://www.w3.org/2000/svg">
<path d="M16.001 2.94629V6.00969C16.001 6.49306 16.3929 6.88501 16.8763 6.88501H19.9397" stroke="#D96BC1" stroke-width="1.36" stroke-miterlimit="10"/>
<path d="M15.6388 2.94642H5.93538C5.45201 2.94642 5.06006 3.33835 5.06006 3.82175V22.179C5.06006 22.6624 5.45199 23.0544 5.93538 23.0544H19.0646C19.548 23.0544 19.9399 22.6624 19.9399 22.179V7.2476C19.9399 7.01552 19.8477 6.7928 19.6836 6.62864L16.2576 3.20266C16.0933 3.03852 15.8707 2.94629 15.6386 2.94629L15.6388 2.94642Z" stroke="#D96BC1" stroke-width="1.36" stroke-miterlimit="10"/>
<path d="M9.81055 10.375L15.1896 15.754" stroke="#D96BC1" stroke-width="1.36" stroke-miterlimit="10" stroke-linecap="round"/>
<path d="M15.1891 10.375L12.4996 13.0645L9.81006 15.754" stroke="#D96BC1" stroke-width="1.36" stroke-miterlimit="10" stroke-linecap="round"/>
</svg>
