<svg width="16" height="17" viewBox="0 0 16 17" fill="none" xmlns="http://www.w3.org/2000/svg">
<path d="M15.8419 15.4159L11.6385 11.2125C12.7 9.90754 13.2203 8.24508 13.0923 6.56769C12.9642 4.8904 12.1975 3.32628 10.95 2.19762C9.70272 1.06907 8.06984 0.462125 6.38816 0.501832C4.70645 0.541709 3.10408 1.22516 1.91151 2.4115C0.7252 3.60412 0.0417294 5.20652 0.00183436 6.88816C-0.0378956 8.56987 0.569035 10.2027 1.69762 11.45C2.82632 12.6975 4.39044 13.4642 6.06769 13.5923C7.74497 13.7203 9.40747 13.2 10.7125 12.1385L14.9159 16.3419C15.0851 16.4868 15.316 16.536 15.5295 16.473C15.7429 16.4098 15.9099 16.2428 15.9731 16.0294C16.0361 15.8159 15.9868 15.5851 15.8419 15.4159ZM2.83754 10.7726C1.85176 9.78744 1.29777 8.45086 1.29747 7.05724C1.29717 5.66346 1.85059 4.32673 2.83592 3.3411C3.8214 2.35547 5.15798 1.80174 6.55176 1.80174C7.94538 1.80174 9.28211 2.35547 10.2674 3.3411C11.2529 4.32673 11.8064 5.66346 11.8061 7.05724C11.8058 8.45086 11.2516 9.78744 10.2658 10.7726C9.28489 11.7653 7.9473 12.324 6.55176 12.324C5.15607 12.324 3.81848 11.7653 2.83754 10.7726Z" fill="#52516A"/>
</svg>
