<svg width="24" height="24" viewBox="0 0 24 24" fill="none" xmlns="http://www.w3.org/2000/svg">
<path d="M12 2.5C11.372 2.5 10.7613 2.56732 10.1734 2.68209C10.0109 2.71236 9.88014 2.833 9.83636 2.99249L9.37811 4.70624C8.50111 5.02236 7.70285 5.49285 7.00549 6.08263L5.29352 5.6239C5.13374 5.58112 4.96358 5.63353 4.85541 5.75884C4.46259 6.21067 4.09789 6.70511 3.78376 7.25001C3.46992 7.79399 3.21685 8.35578 3.02204 8.92324C2.96998 9.08017 3.01181 9.25307 3.12991 9.36859L4.37685 10.6168C4.29515 11.0685 4.23527 11.5248 4.23527 12C4.23527 12.4752 4.29515 12.9315 4.37685 13.3832L3.12991 14.6314C3.01181 14.7469 2.96999 14.9198 3.02204 15.0768C3.21687 15.6443 3.46993 16.206 3.78376 16.75C4.0979 17.2949 4.46244 17.7893 4.85541 18.2412C4.96358 18.3665 5.13374 18.4189 5.29352 18.3761L7.00549 17.9174C7.70281 18.5072 8.50111 18.9776 9.37811 19.2938L9.83636 21.0075C9.88014 21.167 10.0109 21.2876 10.1734 21.3179C10.7613 21.4327 11.372 21.5 12 21.5C12.628 21.5 13.2387 21.4327 13.8266 21.3179C13.9891 21.2876 14.1199 21.167 14.1636 21.0075L14.6219 19.2938C15.4989 18.9776 16.2972 18.5072 16.9945 17.9174L18.7065 18.3761C18.8663 18.4189 19.0364 18.3665 19.1446 18.2412C19.5376 17.7893 19.9021 17.2949 20.2162 16.75C20.5301 16.206 20.7831 15.6442 20.978 15.0768C21.03 14.9198 20.9882 14.7469 20.8701 14.6314L19.6232 13.3832C19.7048 12.9315 19.7647 12.4752 19.7647 12C19.7647 11.5248 19.7048 11.0685 19.6232 10.6168L20.8701 9.36859C20.9882 9.25308 21.03 9.08018 20.978 8.92324C20.7831 8.35574 20.5301 7.79399 20.2162 7.25001C19.9021 6.70511 19.5374 6.21067 19.1446 5.75884C19.0364 5.63353 18.8663 5.58112 18.7065 5.6239L16.9945 6.08263C16.2972 5.49285 15.4989 5.02235 14.6219 4.70624L14.1636 2.99249C14.1199 2.833 13.9891 2.71236 13.8266 2.68209C13.2387 2.56732 12.628 2.5 12 2.5ZM12 3.36356C12.4759 3.36356 12.9424 3.42833 13.4019 3.50529L13.84 5.1314C13.8784 5.27177 13.9849 5.38337 14.1231 5.42825C15.0591 5.73097 15.9093 6.22615 16.6238 6.87211C16.7323 6.97317 16.885 7.01127 17.0282 6.97332L18.6526 6.53475C18.9499 6.8953 19.2365 7.26834 19.4748 7.68177C19.7142 8.09686 19.8909 8.53211 20.0545 8.97053L18.8682 10.1581C18.7646 10.2597 18.719 10.4067 18.747 10.5493C18.8467 11.0168 18.9019 11.5022 18.9019 12C18.9019 12.4977 18.8467 12.9831 18.747 13.4506C18.719 13.5933 18.7646 13.7402 18.8682 13.8419L20.0545 15.0294C19.8909 15.4678 19.7142 15.9031 19.4748 16.3182C19.2365 16.7316 18.9499 17.1046 18.6526 17.4652L17.0282 17.0266C16.885 16.9887 16.7323 17.0268 16.6238 17.1279C15.9093 17.7738 15.0591 18.269 14.1231 18.5717C13.9849 18.6166 13.8784 18.7282 13.84 18.8686L13.4019 20.4947C12.9424 20.5716 12.4759 20.6364 12 20.6364C11.5241 20.6364 11.0576 20.5716 10.5981 20.4947L10.16 18.8686C10.1216 18.7282 10.0151 18.6166 9.87686 18.5717C8.9409 18.269 8.09071 17.7738 7.37621 17.1279C7.26774 17.0268 7.11503 16.9887 6.9718 17.0266L5.34738 17.4652C5.05009 17.1047 4.76349 16.7316 4.52515 16.3182C4.28579 15.9031 4.10915 15.4678 3.94546 15.0294L5.13177 13.8419C5.23543 13.7402 5.28102 13.5932 5.25303 13.4506C5.15329 12.9831 5.09807 12.4977 5.09807 12C5.09807 11.5022 5.15329 11.0168 5.25303 10.5493C5.28102 10.4067 5.23543 10.2597 5.13177 10.1581L3.94546 8.97053C4.10915 8.53211 4.28578 8.09686 4.52515 7.68177C4.76347 7.26834 5.05008 6.89532 5.34738 6.53475L6.9718 6.97332C7.11503 7.01127 7.26774 6.97317 7.37621 6.87211C8.09071 6.22615 8.9409 5.73095 9.87686 5.42825C10.0151 5.38336 10.1216 5.27177 10.16 5.1314L10.5981 3.50529C11.0576 3.42833 11.5241 3.36356 12 3.36356ZM12 7.46586C9.50359 7.46586 7.4706 9.50101 7.4706 12C7.4706 14.499 9.50363 16.5341 12 16.5341C14.4964 16.5341 16.5294 14.499 16.5294 12C16.5294 9.50101 14.4964 7.46586 12 7.46586ZM12 8.32958C14.0302 8.32958 15.6666 9.96772 15.6666 12C15.6666 14.0323 14.0302 15.6705 12 15.6705C9.96982 15.6705 8.33338 14.0323 8.33338 12C8.33338 9.96772 9.96982 8.32958 12 8.32958Z" fill="#7E7E8A" stroke="#7E7E8A" stroke-width="0.5"/>
</svg>
