<svg width="24" height="24" viewBox="0 0 24 24" fill="none" xmlns="http://www.w3.org/2000/svg">
<path d="M15.928 20.9999C16.956 21.0021 17.9167 20.476 18.4863 19.5989C19.056 18.7217 19.1587 17.6103 18.76 16.6391C18.3615 15.6679 17.5143 14.9661 16.5042 14.7702C15.4943 14.5743 14.4555 14.9104 13.7383 15.6652L10.5306 13.3168C10.8768 12.846 11.0828 12.2827 11.1237 11.6947C11.1647 11.1066 11.0388 10.5191 10.7615 10.0026L14.0417 7.60095V7.60109C14.4917 7.9963 15.064 8.21474 15.6565 8.21731C16.3879 8.22375 17.0866 7.9074 17.5745 7.34887C18.0624 6.79034 18.2923 6.04371 18.2054 5.2992C18.1187 4.55488 17.7236 3.88465 17.1212 3.45969C16.5186 3.03469 15.7668 2.89599 15.0575 3.07877C14.3482 3.26171 13.75 3.74837 13.4152 4.41501C13.0806 5.08161 13.0419 5.8636 13.3091 6.56156L9.95884 9.01388L9.9587 9.01374C9.42244 8.57016 8.75476 8.3268 8.06559 8.3238C6.9703 8.3238 5.95826 8.92271 5.41067 9.89493C4.86311 10.8671 4.86311 12.065 5.41067 13.0372C5.95823 14.0094 6.9703 14.6083 8.06559 14.6083C8.59642 14.6049 9.11688 14.4587 9.57524 14.1845C9.5846 14.1922 9.58962 14.2037 9.59968 14.2114L13.0689 16.7509C12.7038 17.7144 12.828 18.8007 13.4006 19.6515C13.9731 20.5024 14.9195 21.0074 15.928 20.9999L15.928 20.9999ZM15.928 15.998C16.4093 15.998 16.8707 16.1939 17.211 16.5426C17.5512 16.8915 17.7424 17.3644 17.7424 17.8577C17.7424 18.351 17.5512 18.8239 17.211 19.1727C16.8707 19.5214 16.4093 19.7174 15.928 19.7174C15.4468 19.7174 14.9854 19.5214 14.645 19.1727C14.3048 18.8239 14.1137 18.351 14.1137 17.8577C14.1137 17.3644 14.3049 16.8915 14.645 16.5426C14.9854 16.1939 15.4468 15.998 15.928 15.998ZM15.6565 4.32674C15.9941 4.32659 16.3179 4.46387 16.5567 4.7085C16.7954 4.95313 16.9296 5.28491 16.9298 5.63091C16.9298 5.97688 16.7957 6.30869 16.557 6.55347C16.3182 6.7981 15.9945 6.93552 15.657 6.93552C15.3194 6.93538 14.9957 6.79782 14.757 6.55318C14.5184 6.3084 14.3845 5.97647 14.3846 5.63047C14.3852 5.28478 14.5192 4.95354 14.7578 4.70919C14.9962 4.46471 15.3193 4.32729 15.6566 4.3267L15.6565 4.32674ZM8.06558 13.3259C7.58434 13.3259 7.12294 13.1299 6.78259 12.7812C6.4424 12.4324 6.25123 11.9594 6.25123 11.4662C6.25123 10.9729 6.44241 10.5 6.78259 10.1511C7.12292 9.80241 7.58434 9.60646 8.06558 9.60646C8.54682 9.60646 9.00822 9.80242 9.34857 10.1511C9.68876 10.4999 9.87993 10.9729 9.87993 11.4662C9.87993 11.9594 9.68875 12.4324 9.34857 12.7812C9.00824 13.1299 8.54682 13.3259 8.06558 13.3259Z" fill="#7E7E8A"/>
</svg>
