<svg width="24" height="25" viewBox="0 0 24 25" fill="none" xmlns="http://www.w3.org/2000/svg">
<path d="M17.2131 16.2528L17.2131 9.30225L15.4754 9.30225L15.4754 16.2532L17.2131 16.2528Z" fill="#94959E"/>
<path d="M11.0091 3.93367L9.6342 3.9336L8.52446 3.93367H4.18047C3.94992 3.93367 3.72898 4.02516 3.56607 4.18821C3.40316 4.35112 3.31152 4.57208 3.31152 4.80246V19.573C3.31152 19.8034 3.40316 20.0245 3.56607 20.1874C3.72898 20.3503 3.94994 20.4418 4.18047 20.4418H10.2623V18.7042H5.04919V5.67148H15.4754V7.27658H17.2131V4.80239C17.2131 4.57199 17.1215 4.35105 16.9586 4.18814C16.7957 4.02508 16.5747 3.93359 16.3442 3.93359H12.0002L11.0091 3.93367Z" fill="#94959E"/>
<path d="M14.8123 12.7781L11.3369 9.30273L10.1032 10.5365L11.4847 11.9091L7.86157 11.9091L7.86157 13.6469L11.4847 13.6469L10.1032 15.0284L11.3369 16.2534L14.8123 12.7781Z" fill="#94959E"/>
</svg>
