<svg width="19" height="19" viewBox="0 0 19 19" fill="none" xmlns="http://www.w3.org/2000/svg">
<path d="M15.7901 16.7949H2.77482C2.5165 16.7949 2.27779 16.6572 2.14863 16.4335C2.01947 16.2098 2.01947 15.934 2.14863 15.7103C2.27779 15.4866 2.5165 15.3489 2.77482 15.3489H15.7901C16.0484 15.3489 16.2871 15.4866 16.4163 15.7103C16.5454 15.934 16.5454 16.2098 16.4163 16.4335C16.2871 16.6572 16.0484 16.7949 15.7901 16.7949Z" fill="#3263C9"/>
<path d="M15.7901 12.4565H2.77482C2.5165 12.4565 2.27779 12.3188 2.14863 12.0951C2.01947 11.8714 2.01947 11.5956 2.14863 11.3719C2.27779 11.1482 2.5165 11.0105 2.77482 11.0105H15.7901C16.0484 11.0105 16.2871 11.1482 16.4163 11.3719C16.5454 11.5956 16.5454 11.8714 16.4163 12.0951C16.2871 12.3188 16.0484 12.4565 15.7901 12.4565Z" fill="#3263C9"/>
<path d="M15.7901 8.11816H2.77479C2.58304 8.11816 2.39905 8.04202 2.26347 7.90645C2.1279 7.77087 2.05176 7.58689 2.05176 7.39513V3.05671C2.05176 2.86497 2.1279 2.68097 2.26347 2.54539C2.39905 2.40982 2.58303 2.33368 2.77479 2.33368H15.7901C15.9818 2.33368 16.1658 2.40982 16.3014 2.54539C16.437 2.68097 16.5131 2.86495 16.5131 3.05671V7.39513C16.5131 7.58688 16.437 7.77087 16.3014 7.90645C16.1658 8.04202 15.9818 8.11816 15.7901 8.11816ZM15.067 3.77974H3.49769V6.6721H15.067V3.77974Z" fill="#3263C9"/>
</svg>
