<svg width="25" height="25" viewBox="0 0 25 25" fill="none" xmlns="http://www.w3.org/2000/svg">
<path d="M17.5499 20.1973H4.53458C4.27626 20.1973 4.03756 20.0595 3.90839 19.8358C3.77923 19.6121 3.77923 19.3364 3.90839 19.1127C4.03756 18.889 4.27626 18.7512 4.53458 18.7512H17.5499C17.8082 18.7512 18.0469 18.889 18.1761 19.1127C18.3052 19.3364 18.3052 19.6121 18.1761 19.8358C18.0469 20.0595 17.8082 20.1973 17.5499 20.1973V20.1973Z" fill="#7E7E8A"/>
<path d="M17.5499 15.8589H4.53458C4.27626 15.8589 4.03756 15.7211 3.90839 15.4974C3.77923 15.2737 3.77923 14.998 3.90839 14.7743C4.03756 14.5506 4.27626 14.4128 4.53458 14.4128H17.5499C17.8082 14.4128 18.0469 14.5506 18.1761 14.7743C18.3052 14.998 18.3052 15.2737 18.1761 15.4974C18.0469 15.7211 17.8082 15.8589 17.5499 15.8589V15.8589Z" fill="#7E7E8A"/>
<path d="M17.5498 11.5205H4.53455C4.34281 11.5205 4.15881 11.4444 4.02324 11.3088C3.88766 11.1732 3.81152 10.9892 3.81152 10.7975V6.45905C3.81152 6.26731 3.88766 6.08331 4.02324 5.94774C4.15881 5.81216 4.34279 5.73602 4.53455 5.73602H17.5498C17.7416 5.73602 17.9256 5.81216 18.0611 5.94774C18.1967 6.08331 18.2729 6.26729 18.2729 6.45905V10.7975C18.2729 10.9892 18.1967 11.1732 18.0611 11.3088C17.9256 11.4444 17.7416 11.5205 17.5498 11.5205V11.5205ZM16.8268 7.18208H5.25746V10.0744H16.8268V7.18208Z" fill="#7E7E8A"/>
</svg>
