<svg width="24" height="25" viewBox="0 0 24 25" fill="none" xmlns="http://www.w3.org/2000/svg">
<path d="M18.0001 7.7C17.8587 7.7 17.723 7.64381 17.623 7.54381C17.523 7.44381 17.4668 7.30809 17.4668 7.16667V6.63333H16.9334C16.9334 6.91619 16.821 7.18751 16.621 7.38762C16.4209 7.58762 16.1496 7.7 15.8668 7.7H14.8001C14.5172 7.7 14.2459 7.58762 14.0458 7.38762C13.8458 7.1875 13.7334 6.91618 13.7334 6.63333V5.56667H11.0668C10.8762 5.56667 10.7001 5.465 10.6049 5.3C10.5096 5.135 10.5096 4.93166 10.6049 4.76667C10.7001 4.60167 10.8762 4.5 11.0668 4.5H13.7334C14.0163 4.5 14.2876 4.61238 14.4877 4.81238C14.6877 5.0125 14.8001 5.28382 14.8001 5.56667V6.63333H15.8668C15.8668 6.35048 15.9791 6.07915 16.1791 5.87905C16.3793 5.67905 16.6506 5.56667 16.9334 5.56667H17.4668C17.7496 5.56667 18.0209 5.67905 18.2211 5.87905C18.4211 6.07917 18.5334 6.35048 18.5334 6.63333V7.16667C18.5334 7.30809 18.4772 7.44381 18.3772 7.54381C18.2772 7.64381 18.1415 7.7 18.0001 7.7ZM8.93343 7.7C8.792 7.7 8.65629 7.64381 8.55629 7.54381C8.45629 7.44381 8.4001 7.30809 8.4001 7.16667V6.63333H7.33343C7.33343 6.91619 7.22105 7.18751 7.02105 7.38762C6.82093 7.58762 6.54961 7.7 6.26676 7.7H5.73343C5.45058 7.7 5.17925 7.58762 4.97915 7.38762C4.77915 7.1875 4.66676 6.91618 4.66676 6.63333V5.56667H4.13343C3.94284 5.56667 3.76677 5.465 3.67153 5.3C3.5763 5.135 3.5763 4.93166 3.67153 4.76667C3.76677 4.60167 3.94284 4.5 4.13343 4.5H4.66676C4.94962 4.5 5.22094 4.61238 5.42105 4.81238C5.62105 5.0125 5.73343 5.28382 5.73343 5.56667V6.63333H6.26676C6.26676 6.35048 6.37915 6.07915 6.57915 5.87905C6.77926 5.67905 7.05058 5.56667 7.33343 5.56667H8.4001C8.68295 5.56667 8.95428 5.67905 9.15438 5.87905C9.35438 6.07917 9.46676 6.35048 9.46676 6.63333V7.16667C9.46676 7.30809 9.41057 7.44381 9.31057 7.54381C9.21058 7.64381 9.07486 7.7 8.93343 7.7ZM10.5334 11.9667H4.13343C3.992 11.9667 3.85629 12.0229 3.75629 12.1229C3.65629 12.2229 3.6001 12.3586 3.6001 12.5V19.9667C3.6001 20.1081 3.65629 20.2438 3.75629 20.3438C3.85629 20.4438 3.992 20.5 4.13343 20.5H19.0668C19.2082 20.5 19.3439 20.4438 19.4439 20.3438C19.5439 20.2438 19.6001 20.1081 19.6001 19.9667V12.3507C19.6001 12.1385 19.4282 11.9666 19.216 11.9666L10.5334 11.9667ZM8.93343 16.7667C8.93343 16.9081 8.87724 17.0438 8.77724 17.1438C8.67724 17.2438 8.54153 17.3 8.4001 17.3H6.26676C6.12534 17.3 5.98962 17.2438 5.88962 17.1438C5.78962 17.0438 5.73343 16.9081 5.73343 16.7667V14.6333C5.73343 14.4919 5.78962 14.3562 5.88962 14.2562C5.98962 14.1562 6.12534 14.1 6.26676 14.1H8.4001C8.54153 14.1 8.67724 14.1562 8.77724 14.2562C8.87724 14.3562 8.93343 14.4919 8.93343 14.6333V16.7667ZM13.2001 16.7667C13.2001 16.9081 13.1439 17.0438 13.0439 17.1438C12.9439 17.2438 12.8082 17.3 12.6668 17.3H10.5334C10.392 17.3 10.2563 17.2438 10.1563 17.1438C10.0563 17.0438 10.0001 16.9081 10.0001 16.7667V14.6333C10.0001 14.4919 10.0563 14.3562 10.1563 14.2562C10.2563 14.1562 10.392 14.1 10.5334 14.1H12.6668C12.8082 14.1 12.9439 14.1562 13.0439 14.2562C13.1439 14.3562 13.2001 14.4919 13.2001 14.6333V16.7667ZM17.4668 14.6333V16.7667C17.4668 16.9081 17.4106 17.0438 17.3106 17.1438C17.2106 17.2438 17.0749 17.3 16.9334 17.3H14.8001C14.6587 17.3 14.523 17.2438 14.423 17.1438C14.323 17.0438 14.2668 16.9081 14.2668 16.7667V14.6333C14.2668 14.4919 14.323 14.3562 14.423 14.2562C14.523 14.1562 14.6587 14.1 14.8001 14.1H16.9334C17.0749 14.1 17.2106 14.1562 17.3106 14.2562C17.4106 14.3562 17.4668 14.4919 17.4668 14.6333ZM10.5334 9.3C10.5334 9.15857 10.4772 9.02286 10.3772 8.92286C10.2772 8.82286 10.1415 8.76667 10.0001 8.76667H7.86676C7.72534 8.76667 7.58962 8.82286 7.48962 8.92286C7.38962 9.02286 7.33343 9.15857 7.33343 9.3V10.9H10.5334V9.3ZM19.6001 9.3C19.6001 9.15857 19.5439 9.02286 19.4439 8.92286C19.3439 8.82286 19.2082 8.76667 19.0668 8.76667H16.9334C16.792 8.76667 16.6563 8.82286 16.5563 8.92286C16.4563 9.02286 16.4001 9.15857 16.4001 9.3V10.9H19.6001V9.3Z" fill="#94959E"/>
</svg>
