<svg width="24" height="25" viewBox="0 0 24 25" fill="none" xmlns="http://www.w3.org/2000/svg">
<path d="M19.0817 18.6468H18.3199L18.3197 5.31268C18.3197 4.65132 17.7879 4.11366 17.1337 4.11366H16.6658V3.36563C16.6658 2.88766 16.2825 2.5 15.8095 2.5H7.79662C7.32382 2.5 6.94036 2.8875 6.94036 3.36563V4.11366H6.47395C5.81263 4.11366 5.28076 4.65132 5.28076 5.31268V18.6468H4.51877C4.12344 18.6468 3.80005 18.9739 3.80005 19.3734C3.80005 19.7731 4.12357 20.1 4.51877 20.1H19.0813C19.4838 20.1 19.8 19.7729 19.8 19.3734C19.8002 18.9737 19.4839 18.6468 19.0814 18.6468H19.0817ZM11.7642 8.14664C11.3688 8.14664 11.0454 7.81971 11.0454 7.42005V6.28643C11.0454 5.88677 11.3688 5.55984 11.7642 5.55984C12.1595 5.55984 12.4829 5.8869 12.4829 6.28643V7.42005C12.483 7.81971 12.1595 8.14664 11.7642 8.14664ZM12.483 10.3267V11.4603C12.483 11.86 12.1595 12.1869 11.7643 12.1869C11.369 12.1869 11.0456 11.86 11.0456 11.4603V10.3267C11.0456 9.92704 11.369 9.60011 11.7643 9.60011C12.1595 9.59998 12.483 9.92704 12.483 10.3267ZM8.17029 8.14664C7.77495 8.14664 7.45156 7.81971 7.45156 7.42005V6.28643C7.45156 5.88677 7.77495 5.55984 8.17029 5.55984C8.56562 5.55984 8.88901 5.8869 8.88901 6.28643V7.42005C8.88914 7.81971 8.56562 8.14664 8.17029 8.14664ZM8.88914 10.3267V11.4603C8.88914 11.86 8.56562 12.1869 8.17042 12.1869C7.77508 12.1869 7.45169 11.86 7.45169 11.4603V10.3267C7.45169 9.92704 7.77508 9.60011 8.17042 9.60011C8.56562 9.59998 8.88914 9.92704 8.88914 10.3267ZM16.077 6.2863V7.41992C16.077 7.81958 15.7535 8.14651 15.3583 8.14651C14.963 8.14651 14.6396 7.81958 14.6396 7.41992L14.6395 6.2863C14.6395 5.88664 14.9629 5.55971 15.3582 5.55971C15.7535 5.55971 16.077 5.88677 16.077 6.2863ZM14.6394 10.3267C14.6394 9.92704 14.9628 9.60011 15.3582 9.60011C15.7535 9.60011 16.0769 9.92717 16.0769 10.3267V11.4603C16.0769 11.86 15.7534 12.1869 15.3582 12.1869C14.9628 12.1869 14.6394 11.86 14.6394 11.4603V10.3267ZM9.81648 18.6469V15.377C9.81648 14.2725 10.7078 13.3714 11.8003 13.3714C12.9132 13.3714 13.7914 14.283 13.7914 15.377V18.6469H9.81648Z" fill="#94959E"/>
</svg>
