<svg width="24" height="25" viewBox="0 0 24 25" fill="none" xmlns="http://www.w3.org/2000/svg">
<path d="M12.3852 8.74989C11.8338 8.74989 11.3853 8.30138 11.3853 7.74995C11.3853 7.19852 11.8338 6.75 12.3852 6.75C12.9366 6.75 13.3851 7.19852 13.3851 7.74995C13.3851 8.30138 12.9366 8.74989 12.3852 8.74989ZM12.3852 7.24997C12.1094 7.24997 11.8852 7.47418 11.8852 7.74995C11.8852 8.02571 12.1094 8.24992 12.3852 8.24992C12.661 8.24992 12.8852 8.02571 12.8852 7.74995C12.8852 7.47418 12.661 7.24997 12.3852 7.24997Z" fill="#94959E"/>
<path d="M12.4005 14.499C8.12732 14.499 4.61379 16.8967 4.40209 19.9579C4.39238 20.0986 4.44159 20.2383 4.53735 20.3406C4.63232 20.4426 4.76156 20.4988 4.90104 20.4988H19.8994C20.0391 20.4988 20.1684 20.4426 20.2637 20.3406C20.3592 20.2381 20.4084 20.0986 20.3987 19.9579C20.187 16.8969 16.6737 14.499 12.4003 14.499H12.4005Z" fill="#94959E"/>
<path d="M12.4006 14.9998C12.2627 14.9998 12.1506 14.8877 12.1506 14.7498V11C12.1506 10.862 12.2627 10.75 12.4006 10.75C12.5386 10.75 12.6506 10.862 12.6506 11V14.7498C12.6506 14.8877 12.5386 14.9998 12.4006 14.9998Z" fill="#94959E"/>
<path d="M13.1506 5.87493C13.1506 6.63426 12.8147 7.24985 12.4006 7.24985C11.9864 7.24985 11.6506 6.63426 11.6506 5.87493C11.6506 5.1156 11.9864 4.5 12.4006 4.5C12.8147 4.5 13.1506 5.1156 13.1506 5.87493Z" fill="#94959E"/>
<path d="M13.1506 9.62493C13.1506 10.3843 12.8147 10.9999 12.4006 10.9999C11.9864 10.9999 11.6506 10.3843 11.6506 9.62493C11.6506 8.8656 11.9864 8.25 12.4006 8.25C12.8147 8.25 13.1506 8.8656 13.1506 9.62493Z" fill="#94959E"/>
<path d="M14.6982 5.4521C14.3493 5.10389 13.6785 5.41114 13.1955 5.89436C12.7123 6.37759 12.4056 7.04876 12.7536 7.39708C12.8574 7.50087 12.9898 7.5463 13.1376 7.5463C13.4853 7.5463 13.917 7.29408 14.2563 6.95504C14.7395 6.47147 15.0464 5.8003 14.6982 5.45212L14.6982 5.4521Z" fill="#94959E"/>
<path d="M14.2717 11.5852C13.9232 11.2364 13.252 11.5442 12.769 12.0271C12.2858 12.5103 11.9791 13.1815 12.3271 13.5295C12.4311 13.6335 12.5633 13.679 12.7111 13.679C13.059 13.679 13.4905 13.4268 13.8297 13.0878C14.313 12.6047 14.62 11.9332 14.2717 11.5852L14.2717 11.5852Z" fill="#94959E"/>
<path d="M18.3804 16.9998C18.2421 16.9998 18.1304 16.8878 18.1304 16.7498V13.75C18.1304 13.612 18.2421 13.5 18.3804 13.5C18.5186 13.5 18.6303 13.612 18.6303 13.75V16.7498C18.6303 16.8878 18.5186 16.9998 18.3804 16.9998Z" fill="#94959E"/>
<path d="M6.38133 16.9998C6.2434 16.9998 6.13135 16.8878 6.13135 16.7498V13.75C6.13135 13.612 6.2434 13.5 6.38133 13.5C6.51927 13.5 6.63132 13.612 6.63132 13.75V16.7498C6.63132 16.8878 6.51938 16.9998 6.38133 16.9998Z" fill="#94959E"/>
<path d="M20.2429 12.4067C19.8949 12.0595 19.2238 12.3658 18.7402 12.849C18.257 13.3322 17.9503 14.0034 18.2982 14.3517C18.402 14.4555 18.5345 14.5009 18.6823 14.5009C19.03 14.5009 19.4617 14.2487 19.8009 13.9097C20.2842 13.4264 20.5912 12.755 20.2429 12.4067L20.2429 12.4067Z" fill="#94959E"/>
<path d="M6.74142 12.8492C6.25818 13.3322 5.95152 14.0034 6.29947 14.3519C6.40348 14.4557 6.53595 14.5011 6.68371 14.5011C7.03146 14.5011 7.46312 14.2489 7.80216 13.9096C8.28539 13.4266 8.59206 12.7555 8.24411 12.4069C7.89558 12.0593 7.22442 12.366 6.74139 12.8492L6.74142 12.8492Z" fill="#94959E"/>
<path d="M10.4864 11.3788C10.1381 11.727 10.4451 12.3983 10.9283 12.8812C11.2672 13.2201 11.699 13.4727 12.0468 13.4727C12.1945 13.4727 12.3272 13.4269 12.431 13.3231C12.7792 12.9749 12.4723 12.3037 11.989 11.8208C11.5058 11.3375 10.8349 11.0309 10.4863 11.3788L10.4864 11.3788Z" fill="#94959E"/>
<path d="M18.0513 12.349C17.5681 11.8659 16.8972 11.5593 16.5486 11.907C16.2004 12.255 16.5073 12.9265 16.9906 13.4094C17.3295 13.7483 17.7615 14.0006 18.1092 14.0006C18.257 14.0006 18.3895 13.9551 18.4932 13.8514C18.8415 13.5033 18.5345 12.8322 18.0513 12.3489L18.0513 12.349Z" fill="#94959E"/>
<path d="M4.54917 11.907C4.20119 12.2552 4.50821 12.9265 4.99143 13.4094C5.33035 13.7483 5.76216 14.0007 6.10988 14.0007C6.25765 14.0007 6.39034 13.9551 6.49412 13.8514C6.8421 13.5032 6.53508 12.832 6.05186 12.3491C5.56886 11.8659 4.89769 11.5592 4.54914 11.907L4.54917 11.907Z" fill="#94959E"/>
<path d="M12.0472 8.10327C11.699 7.75551 11.0277 8.06231 10.5448 8.54553C10.0616 9.02853 9.75455 9.6997 10.1028 10.0482C10.2069 10.152 10.3393 10.1975 10.4871 10.1975C10.8348 10.1975 11.2665 9.94524 11.6055 9.60598C12.0881 9.12275 12.3951 8.45158 12.0471 8.10326L12.0472 8.10327Z" fill="#94959E"/>
<path d="M12.9004 7.75022C12.9004 8.2427 13.5921 8.50018 14.2753 8.50018C14.9585 8.50018 15.6502 8.24271 15.6502 7.75022C15.6502 6.76555 12.9004 6.76555 12.9004 7.75022Z" fill="#94959E"/>
<path d="M9.15088 7.75022C9.15088 8.2427 9.84259 8.50018 10.5258 8.50018C11.209 8.50018 11.9007 8.24271 11.9007 7.75022C11.9007 6.76555 9.15088 6.76555 9.15088 7.75022Z" fill="#94959E"/>
<path d="M14.2566 8.54537C13.7734 8.06214 13.1023 7.75547 12.7539 8.10342C12.4057 8.45141 12.7126 9.12291 13.1959 9.6058C13.5348 9.94473 13.9666 10.1973 14.3143 10.1973C14.4623 10.1973 14.5948 10.1515 14.6986 10.0477C15.0466 9.69976 14.7396 9.02859 14.2566 8.54536L14.2566 8.54537Z" fill="#94959E"/>
<path d="M11.6051 5.8942C11.1219 5.41074 10.4509 5.10395 10.1024 5.45225C9.75441 5.80077 10.0614 6.47174 10.5447 6.95463C10.8836 7.29355 11.3154 7.54611 11.6631 7.54588C11.8109 7.54588 11.9436 7.50035 12.0473 7.39667C12.3951 7.04837 12.0881 6.37718 11.6051 5.89418L11.6051 5.8942Z" fill="#94959E"/>
</svg>
