<svg width="19" height="20" viewBox="0 0 19 20" fill="none" xmlns="http://www.w3.org/2000/svg">
<path d="M10.6662 7.34749C11.0078 7.44718 11.3494 7.63214 11.6198 7.9026C11.8903 8.17306 12.0753 8.50041 12.1749 8.85625C12.2461 9.1409 12.5166 9.31178 12.8154 9.29747H12.8723C13.2708 9.28327 13.5698 8.88474 13.4559 8.50041C13.2993 7.9453 13.0004 7.4044 12.5592 6.96319C12.1179 6.52197 11.5913 6.22302 11.0219 6.06645C10.6376 5.95257 10.2391 6.25151 10.2249 6.65005V6.70694C10.2107 7.0059 10.3958 7.27633 10.6662 7.34753L10.6662 7.34749Z" fill="#7E7E8A"/>
<path d="M10.8655 5.11285C11.7196 5.26942 12.5308 5.66796 13.1998 6.32275C13.8546 6.97754 14.2673 7.80299 14.4097 8.65705C14.4666 8.97019 14.7513 9.19796 15.0645 9.18367H15.1214C15.5057 9.16947 15.7762 8.81362 15.7192 8.4435C15.5199 7.33328 14.9933 6.26577 14.1393 5.39752C13.271 4.52927 12.2035 4.00265 11.0933 3.81759C10.7233 3.74641 10.3674 4.03106 10.3531 4.4154V4.47229C10.3246 4.77135 10.5381 5.056 10.8655 5.11288L10.8655 5.11285Z" fill="#7E7E8A"/>
<path d="M15.762 13.0701L13.0006 11.6468C12.6163 11.4475 12.1324 11.5471 11.8619 11.8887L11.748 12.0453C13.2283 13.1413 14.7371 13.9242 16.1178 14.3654C16.3882 13.91 16.2316 13.3122 15.7619 13.0701L15.762 13.0701Z" fill="#7E7E8A"/>
<path d="M7.6059 7.61852C7.94753 7.34806 8.06142 6.87835 7.84786 6.47981L6.4245 3.73274C6.18254 3.26303 5.59896 3.10643 5.15771 3.36269C5.58475 4.74334 6.36762 6.2521 7.44932 7.73239L7.6059 7.61852Z" fill="#7E7E8A"/>
<path d="M10.8513 13.1835C9.86914 12.6426 9.11479 12.1445 8.24654 11.2763C7.32141 10.3511 6.82319 9.58244 6.32496 8.62882L6.95126 8.13059C5.88375 6.69303 5.08669 5.18424 4.61696 3.73242L3.36438 4.57218C2.95166 4.84264 2.7239 5.31235 2.75239 5.79626C2.78088 6.29449 2.85207 6.92066 2.96585 7.362C3.47826 9.32626 4.70235 11.3616 6.42461 13.0839C8.14692 14.8062 10.1823 16.0302 12.1465 16.5427C12.5877 16.6565 13.214 16.7134 13.7264 16.7561C14.2246 16.7846 14.6943 16.5568 14.9647 16.1298L15.7618 14.8915C14.3099 14.4218 12.8012 13.6105 11.3494 12.5287L10.8513 13.1835Z" fill="#7E7E8A"/>
</svg>
