<svg width="27" height="25" viewBox="0 0 27 25" fill="none" xmlns="http://www.w3.org/2000/svg">
<path fill-rule="evenodd" clip-rule="evenodd" d="M2.92296 7.61825C2.7102 7.76981 2.41462 7.72003 2.26305 7.50693C2.1115 7.29418 2.16128 6.9986 2.37437 6.84703L10.0147 1.39098C10.186 1.26909 10.4105 1.27744 10.5706 1.39626L13.8144 3.7014L16.671 1.89849L15.75 1.81376C15.49 1.79041 15.2984 1.56027 15.3217 1.30028C15.3451 1.04029 15.5752 0.848677 15.8352 0.872047L18.1361 1.08361C18.3961 1.10696 18.5877 1.3371 18.5643 1.59709C18.5616 1.62693 18.5562 1.65591 18.5483 1.68386L18.5495 1.68404L17.9014 3.93925C17.8298 4.19104 17.5674 4.33714 17.3156 4.26554C17.0638 4.19394 16.9177 3.93158 16.9893 3.67978L17.2926 2.62488L14.0612 4.66412C13.9027 4.76981 13.6888 4.77288 13.5244 4.65593L10.2895 2.35708L2.92296 7.61825ZM18.7718 16.6542C17.9704 15.8528 16.8632 15.3571 15.6403 15.3571C14.4174 15.3571 13.3103 15.8528 12.5089 16.6542C11.7075 17.4556 11.2117 18.5628 11.2117 19.7857C11.2117 21.0086 11.7075 22.1157 12.5089 22.9171C13.3103 23.7185 14.4175 24.2143 15.6403 24.2143C16.8633 24.2143 17.9704 23.7185 18.7718 22.9171C19.5732 22.1157 20.0689 21.0085 20.0689 19.7857C20.0689 18.5628 19.5732 17.4556 18.7718 16.6542ZM14.213 22.0007C14.0226 21.8216 14.0134 21.5219 14.1927 21.3314C14.3719 21.141 14.6716 21.1318 14.862 21.3112C15.0014 21.4428 15.122 21.545 15.2423 21.6059C15.347 21.6589 15.4708 21.6874 15.6407 21.6874C15.8859 21.6874 16.1037 21.6023 16.2579 21.4649C16.3978 21.34 16.4848 21.1698 16.4848 20.9849C16.4848 20.7997 16.3982 20.6298 16.2579 20.5048C16.1039 20.3674 15.8862 20.2823 15.6407 20.2823C15.1581 20.2823 14.7166 20.1039 14.3935 19.8152C14.0565 19.5144 13.848 19.0955 13.848 18.6308H13.8497C13.8497 18.1647 14.0575 17.7462 14.3935 17.4463C14.6053 17.2571 14.8678 17.1154 15.1595 17.0401L15.1523 16.7392C15.1462 16.4782 15.353 16.2617 15.6138 16.2555C15.8748 16.2494 16.0913 16.4562 16.0974 16.717L16.1053 17.0513C16.2451 17.089 16.3879 17.1405 16.5207 17.2023C16.8003 17.3324 17.0601 17.5186 17.2045 17.7385C17.3479 17.9563 17.2872 18.2494 17.0693 18.3928C16.8514 18.5361 16.5584 18.4754 16.415 18.2576C16.3757 18.1976 16.2616 18.1265 16.1244 18.0625C15.9454 17.9793 15.759 17.9267 15.6404 17.9267V17.9284C15.3952 17.9284 15.1774 18.0134 15.0233 18.1508C14.8819 18.2768 14.7946 18.447 14.7946 18.6309H14.7964C14.7964 18.816 14.883 18.986 15.0233 19.111C15.1772 19.2484 15.3949 19.3334 15.6404 19.3334C16.123 19.3334 16.5645 19.5119 16.8876 19.8005C17.2246 20.1014 17.4331 20.5203 17.4331 20.985C17.4331 21.4499 17.2246 21.8686 16.8876 22.1695C16.676 22.3584 16.4138 22.5002 16.1223 22.5755L16.1285 22.8335C16.1346 23.0945 15.9278 23.3109 15.667 23.3171C15.406 23.3232 15.1895 23.1165 15.1834 22.8556L15.1767 22.5851C15.0482 22.5541 14.9295 22.5089 14.8156 22.4514C14.5937 22.3388 14.4116 22.1881 14.213 22.0007L14.213 22.0007ZM2.93212 12.3516L10.2892 7.07579L17.6463 12.3516C18.2 12.7483 18.9704 12.621 19.3672 12.0673C19.7639 11.5135 19.6366 10.743 19.0829 10.3463L11.0293 4.57123C10.6103 4.25687 10.0196 4.23437 9.57105 4.55537L1.49564 10.3466C0.941914 10.7433 0.814612 11.5135 1.21129 12.0675C1.60798 12.6211 2.37852 12.7484 2.93224 12.3517L2.93212 12.3516ZM16.1546 12.4496V14.4326C15.9853 14.4166 15.814 14.4082 15.6406 14.4082C14.3024 14.4082 13.0784 14.897 12.1372 15.706V14.8665C12.1372 14.0491 11.4705 13.3823 10.6531 13.3823H9.92584C9.10843 13.3823 8.44168 14.049 8.44168 14.8665V19.7194H5.55231C4.93195 19.7194 4.42427 19.2117 4.42427 18.5913L4.42392 12.4497L10.2889 8.24357L16.1546 12.4496Z" fill="#7E7E8A"/>
</svg>
  