<svg width="17" height="16" viewBox="0 0 17 16" fill="none" xmlns="http://www.w3.org/2000/svg">
<path fill-rule="evenodd" clip-rule="evenodd" d="M8.54997 1.33287C4.86997 1.33287 1.8833 4.3202 1.8833 7.99954C1.8833 11.6802 4.86997 14.6662 8.54997 14.6662C12.2366 14.6662 15.2166 11.6802 15.2166 7.99954C15.2166 4.3202 12.2366 1.33287 8.54997 1.33287ZM8.54314 6.04023C8.22981 6.04023 7.96981 5.77956 7.96981 5.46023C7.96981 5.13356 8.22981 4.87356 8.55647 4.87356C8.87647 4.87356 9.13647 5.13356 9.13647 5.46023C9.13647 5.77956 8.87647 6.04023 8.54314 6.04023ZM8.54314 11.1002C8.8698 11.1002 9.1298 10.8402 9.1298 10.5202V7.57351C9.1298 7.25284 8.8698 6.98684 8.54314 6.98684C8.22313 6.98684 7.96313 7.25284 7.96313 7.57351V10.5202C7.96313 10.8402 8.22313 11.1002 8.54314 11.1002Z" fill="#00008B"/>
</svg>
