<svg width="64" height="64" viewBox="0 0 64 64" fill="none" xmlns="http://www.w3.org/2000/svg">
<circle cx="32" cy="32" r="32" fill="#F5F5F4"/>
<path fill-rule="evenodd" clip-rule="evenodd" d="M36.9543 38.6316H27.3276C26.7756 38.6316 26.3276 38.1836 26.3276 37.6316C26.3276 37.0796 26.7756 36.6316 27.3276 36.6316H36.9543C37.5063 36.6316 37.9543 37.0796 37.9543 37.6316C37.9543 38.1836 37.5063 38.6316 36.9543 38.6316Z" fill="#898987"/>
<path fill-rule="evenodd" clip-rule="evenodd" d="M36.9543 33.0496H27.3276C26.7756 33.0496 26.3276 32.6016 26.3276 32.0496C26.3276 31.4976 26.7756 31.0496 27.3276 31.0496H36.9543C37.5063 31.0496 37.9543 31.4976 37.9543 32.0496C37.9543 32.6016 37.5063 33.0496 36.9543 33.0496Z" fill="#898987"/>
<path fill-rule="evenodd" clip-rule="evenodd" d="M31.0007 27.4805H27.3274C26.7754 27.4805 26.3274 27.0325 26.3274 26.4805C26.3274 25.9285 26.7754 25.4805 27.3274 25.4805H31.0007C31.5527 25.4805 32.0007 25.9285 32.0007 26.4805C32.0007 27.0325 31.5527 27.4805 31.0007 27.4805Z" fill="#898987"/>
<mask id="mask0_845_28551" style="mask-type:luminance" maskUnits="userSpaceOnUse" x="20" y="18" width="25" height="28">
<path fill-rule="evenodd" clip-rule="evenodd" d="M20 18.6669H44.2196V45.2133H20V18.6669Z" fill="white"/>
</mask>
<g mask="url(#mask0_845_28551)">
<path fill-rule="evenodd" clip-rule="evenodd" d="M37.2115 20.6667L26.9595 20.672C23.8555 20.6907 21.9995 22.6107 21.9995 25.8093V38.0707C21.9995 41.2907 23.8728 43.2133 27.0075 43.2133L37.2595 43.2093C40.3635 43.1907 42.2195 41.268 42.2195 38.0707V25.8093C42.2195 22.5893 40.3475 20.6667 37.2115 20.6667ZM27.0088 45.2133C22.8168 45.2133 19.9995 42.3427 19.9995 38.0707V25.8093C19.9995 21.4987 22.7288 18.6973 26.9528 18.672L37.2102 18.6667H37.2115C41.4035 18.6667 44.2195 21.5373 44.2195 25.8093V38.0707C44.2195 42.38 41.4902 45.1827 37.2662 45.2093L27.0088 45.2133Z" fill="#898987"/>
</g>
</svg>
