<svg width="40" height="40" viewBox="0 0 40 40" fill="none" xmlns="http://www.w3.org/2000/svg">
<mask id="mask0_117_20973" style="mask-type:luminance" maskUnits="userSpaceOnUse" x="3" y="23" width="26" height="13">
<path fill-rule="evenodd" clip-rule="evenodd" d="M3.33337 23.2617H28.6397V35.0944H3.33337V23.2617Z" fill="white"/>
</mask>
<g mask="url(#mask0_117_20973)">
<path fill-rule="evenodd" clip-rule="evenodd" d="M15.9863 25.7617C11.3547 25.7617 5.83301 26.3567 5.83301 29.1984C5.83301 31.4517 9.24968 32.5951 15.9863 32.5951C22.723 32.5951 26.1397 31.4401 26.1397 29.1651C26.1397 26.9067 22.723 25.7617 15.9863 25.7617ZM15.9863 35.0951C12.5263 35.0951 3.33301 35.0951 3.33301 29.1984C3.33301 23.2617 12.8563 23.2617 15.9863 23.2617C21.418 23.2617 28.6397 23.8734 28.6397 29.1651C28.6397 35.0951 19.1163 35.0951 15.9863 35.0951Z" fill="#00008B"/>
</g>
<path fill-rule="evenodd" clip-rule="evenodd" d="M15.9864 5.83337C12.6447 5.83337 9.92639 8.55171 9.92639 11.8917C9.92639 15.2317 12.6447 17.95 15.9864 17.95H16.0381C17.6447 17.9434 19.1581 17.3117 20.2931 16.1667C21.4297 15.025 22.0514 13.5067 22.0447 11.8967C22.0447 8.55171 19.3264 5.83337 15.9864 5.83337ZM15.9864 20.45C11.2664 20.45 7.42639 16.61 7.42639 11.8917C7.42639 7.17337 11.2664 3.33337 15.9864 3.33337C20.7047 3.33337 24.5447 7.17337 24.5447 11.8917C24.5547 14.165 23.6731 16.3117 22.0664 17.9284C20.4631 19.5467 18.3214 20.4417 16.0431 20.45H15.9864Z" fill="#00008B"/>
<path fill-rule="evenodd" clip-rule="evenodd" d="M27.4707 18.5531C26.8574 18.5531 26.3224 18.1014 26.234 17.4764C26.139 16.7931 26.614 16.1597 27.2973 16.0647C29.3773 15.7731 30.9473 13.9681 30.9507 11.8647C30.9507 9.77473 29.454 8.0114 27.3957 7.67473C26.714 7.5614 26.2524 6.91973 26.364 6.23807C26.4757 5.5564 27.1207 5.09807 27.799 5.2064C31.074 5.74307 33.4507 8.54473 33.4507 11.8664C33.444 15.2081 30.949 18.0781 27.6457 18.5414C27.5873 18.5497 27.529 18.5531 27.4707 18.5531Z" fill="#00008B"/>
<mask id="mask1_117_20973" style="mask-type:luminance" maskUnits="userSpaceOnUse" x="29" y="22" width="8" height="9">
<path fill-rule="evenodd" clip-rule="evenodd" d="M29.7421 22.4723H36.6317V30.7682H29.7421V22.4723Z" fill="white"/>
</mask>
<g mask="url(#mask1_117_20973)">
<path fill-rule="evenodd" clip-rule="evenodd" d="M33.1592 30.7682C32.6542 30.7682 32.1792 30.4598 31.9908 29.9615C31.7458 29.3165 32.0708 28.5932 32.7158 28.3498C34.1325 27.8132 34.1325 27.1582 34.1325 26.8782C34.1325 25.9332 33.0142 25.2865 30.8092 24.9582C30.1258 24.8548 29.6542 24.2182 29.7558 23.5365C29.8592 22.8532 30.5075 22.3948 31.1775 22.4832C35.6875 23.1582 36.6325 25.2465 36.6325 26.8782C36.6325 28.0932 36.1075 29.7382 33.6025 30.6865C33.4575 30.7415 33.3075 30.7682 33.1592 30.7682Z" fill="#00008B"/>
</g>
</svg>
