<svg width="24" height="24" viewBox="0 0 24 24" fill="none" xmlns="http://www.w3.org/2000/svg">
<path fill-rule="evenodd" clip-rule="evenodd" d="M3.83049 4.22149C4.7756 3.20754 6.12152 2.64001 7.71078 2.64001H15.8081C17.4011 2.64001 18.7475 3.20722 19.6923 4.22176C20.6315 5.23049 21.1199 6.62295 21.1199 8.18534V15.8147C21.1199 17.3771 20.6315 18.7696 19.6921 19.7783C18.7473 20.7928 17.4006 21.36 15.8072 21.36H7.71078C7.52012 21.36 7.33299 21.3519 7.14967 21.3358C7.10698 21.3355 7.06374 21.3315 7.02032 21.3233L7.01827 21.323C5.72699 21.1817 4.63129 20.6422 3.82701 19.7782C2.88799 18.7695 2.3999 17.377 2.3999 15.8147V8.18534C2.3999 7.46141 2.50515 6.77413 2.71151 6.14467L2.71211 6.14169C2.72539 6.07733 2.74688 6.01677 2.77524 5.96086C3.01524 5.3052 3.36864 4.71698 3.83049 4.22149ZM3.93962 7.13005C3.87433 7.45914 3.8399 7.81158 3.8399 8.18534V15.8147C3.8399 17.0798 4.23217 18.1 4.88103 18.797C5.31144 19.2594 5.87863 19.6057 6.57732 19.7843L8.77136 8.12669L3.93962 7.13005ZM9.71357 6.85073L4.45802 5.76666C4.58358 5.56064 4.72618 5.37249 4.88385 5.20333C5.52874 4.51147 6.47825 4.08001 7.71078 4.08001H15.8081C17.0453 4.08001 17.9947 4.51177 18.6384 5.20306C19.2875 5.90015 19.6799 6.92035 19.6799 8.18534V8.90649L9.79728 6.868C9.77961 6.86325 9.76157 6.85913 9.74323 6.85568C9.73334 6.85382 9.72345 6.85217 9.71357 6.85073ZM10.1819 8.41764L8.01706 19.92H15.8072C17.0449 19.92 17.9945 19.4882 18.6383 18.7969C19.2875 18.0999 19.6799 17.0797 19.6799 15.8147V10.3768L10.1819 8.41764ZM14.2798 12.471C13.2577 12.471 12.4293 13.2994 12.4293 14.3215C12.4293 14.9727 12.8297 15.6995 13.3787 16.3174C13.6425 16.6143 13.9142 16.8558 14.1328 17.0175C14.1882 17.0583 14.2375 17.0921 14.2798 17.1193C14.3221 17.0921 14.3714 17.0583 14.4268 17.0175C14.6454 16.8558 14.9171 16.6143 15.181 16.3174C15.7299 15.6995 16.1303 14.9727 16.1303 14.3215C16.1303 13.2994 15.3019 12.471 14.2798 12.471ZM14.1312 17.2013C14.1312 17.2013 14.135 17.1995 14.142 17.1972C14.1346 17.2004 14.1312 17.2013 14.1312 17.2013ZM14.4176 17.1972C14.4246 17.1995 14.4284 17.2013 14.4284 17.2013C14.4284 17.2013 14.425 17.2004 14.4176 17.1972ZM10.9893 14.3215C10.9893 12.5041 12.4624 11.031 14.2798 11.031C16.0972 11.031 17.5703 12.5041 17.5703 14.3215C17.5703 15.4992 16.891 16.5607 16.2574 17.2738C15.93 17.6424 15.5848 17.9521 15.2829 18.1753C15.1327 18.2864 14.9823 18.384 14.8414 18.4576C14.7354 18.5129 14.5208 18.618 14.2798 18.618C14.0388 18.618 13.8242 18.5129 13.7181 18.4576C13.5772 18.384 13.4269 18.2864 13.2767 18.1753C12.9748 17.9521 12.6297 17.6424 12.3021 17.2738C11.6686 16.5607 10.9893 15.4992 10.9893 14.3215ZM14.2797 13.5792C14.6774 13.5792 14.9997 13.9016 14.9997 14.2992V14.3291C14.9997 14.7268 14.6774 15.0491 14.2797 15.0491C13.8821 15.0491 13.5597 14.7268 13.5597 14.3291V14.2992C13.5597 13.9016 13.8821 13.5792 14.2797 13.5792Z" fill="#898987"/>
</svg>
