<svg width="40" height="40" viewBox="0 0 40 40" fill="none" xmlns="http://www.w3.org/2000/svg">
<path fill-rule="evenodd" clip-rule="evenodd" d="M20.0975 24.475C22.2984 24.4982 24.3122 24.7626 25.8119 25.5075C26.5805 25.8893 27.253 26.4163 27.7282 27.1358C28.2082 27.8626 28.437 28.7099 28.432 29.6437L28.4319 29.6693L28.4306 29.6949C28.3856 30.6309 28.077 31.5352 27.4456 32.2208C26.7988 32.9234 25.8972 33.3024 24.8735 33.3024H15.2961C14.2724 33.3024 13.3688 32.9242 12.7207 32.2216C12.0874 31.5349 11.7788 30.6283 11.7386 29.6885L11.7375 29.6629V29.6373C11.7375 28.7029 11.9688 27.8554 12.4492 27.129C12.9252 26.4091 13.5971 25.8813 14.3661 25.4992C15.866 24.7536 17.8772 24.4925 20.0752 24.4752L20.0975 24.475ZM14.1376 29.6114C14.1629 30.0923 14.3152 30.4104 14.4849 30.5944C14.6428 30.7654 14.8878 30.9024 15.2961 30.9024H24.8735C25.2792 30.9024 25.5224 30.7664 25.6802 30.595C25.8506 30.4101 26.0042 30.0898 26.032 29.605C26.0308 29.0976 25.9088 28.7358 25.7256 28.4586C25.5348 28.1696 25.2264 27.8963 24.7442 27.657C23.7442 27.1602 22.1804 26.8981 20.0832 26.8752C17.9909 26.8926 16.4322 27.1523 15.4343 27.6483C14.9534 27.8874 14.644 28.1611 14.4511 28.4528C14.2658 28.733 14.1417 29.099 14.1376 29.6114Z" fill="#00008B"/>
<path fill-rule="evenodd" clip-rule="evenodd" d="M20.0859 15.7C18.6855 15.7 17.5501 16.8354 17.5501 18.236C17.5501 19.6365 18.6855 20.7718 20.0859 20.7718C21.4866 20.7718 22.6219 19.6365 22.6219 18.236C22.6219 16.8354 21.4866 15.7 20.0859 15.7ZM15.15 18.236C15.15 15.5099 17.3599 13.3 20.0859 13.3C22.812 13.3 25.0219 15.5099 25.0219 18.236C25.0219 20.9619 22.812 23.1718 20.0859 23.1718C17.3599 23.1718 15.15 20.9619 15.15 18.236Z" fill="#00008B"/>
<path fill-rule="evenodd" clip-rule="evenodd" d="M12.5752 18.203C12.5804 18.8658 12.0474 19.4072 11.3847 19.4125C9.65131 19.4262 8.39194 19.6418 7.60436 20.0331C7.22946 20.2195 7.0033 20.4253 6.86719 20.6312C6.73836 20.8259 6.64476 21.0886 6.64074 21.4763C6.66065 21.8346 6.77314 22.0485 6.87506 22.159C6.96458 22.2562 7.1122 22.3493 7.39903 22.3493H12.0185C12.6812 22.3493 13.2185 22.8866 13.2185 23.5493C13.2185 24.212 12.6812 24.7493 12.0185 24.7493H7.39903C6.49682 24.7493 5.69065 24.4147 5.11092 23.7862C4.54596 23.1738 4.27662 22.3717 4.24169 21.5536C4.24097 21.5366 4.2406 21.5195 4.2406 21.5024C4.2406 20.6918 4.44166 19.948 4.86534 19.3074C5.28458 18.6733 5.87326 18.2134 6.53612 17.884C7.82407 17.2438 9.53204 17.027 11.3658 17.0125C12.0285 17.0074 12.57 17.5403 12.5752 18.203Z" fill="#00008B"/>
<path fill-rule="evenodd" clip-rule="evenodd" d="M27.1061 18.203C27.1008 18.8658 27.6338 19.4072 28.2965 19.4125C30.03 19.4262 31.2893 19.6418 32.0768 20.0331C32.4517 20.2195 32.678 20.4253 32.8141 20.6312C32.9429 20.8259 33.0365 21.0886 33.0405 21.4763C33.0207 21.8346 32.908 22.0485 32.8061 22.159C32.7167 22.2562 32.569 22.3493 32.2823 22.3493H27.6628C27 22.3493 26.4628 22.8866 26.4628 23.5493C26.4628 24.212 27 24.7493 27.6628 24.7493H32.2823C33.1845 24.7493 33.9906 24.4147 34.5703 23.7862C35.1352 23.1738 35.4047 22.3717 35.4396 21.5536C35.4404 21.5366 35.4407 21.5195 35.4407 21.5024C35.4407 20.6918 35.2396 19.948 34.8159 19.3074C34.3967 18.6733 33.808 18.2134 33.1452 17.884C31.8572 17.2438 30.1492 17.027 28.3156 17.0125C27.6528 17.0074 27.1112 17.5403 27.1061 18.203Z" fill="#00008B"/>
<path fill-rule="evenodd" clip-rule="evenodd" d="M10.9521 9.1C9.90162 9.1 9.05002 9.9516 9.05002 11.0021C9.05002 12.0526 9.90162 12.9042 10.9521 12.9042C12.0026 12.9042 12.8542 12.0526 12.8542 11.0021C12.8542 9.9516 12.0026 9.1 10.9521 9.1ZM6.65002 11.0021C6.65002 8.62611 8.57614 6.7 10.9521 6.7C13.3281 6.7 15.2542 8.62611 15.2542 11.0021C15.2542 13.3781 13.3281 15.3042 10.9521 15.3042C8.57614 15.3042 6.65002 13.3781 6.65002 11.0021Z" fill="#00008B"/>
<path fill-rule="evenodd" clip-rule="evenodd" d="M28.7291 9.1C29.7796 9.1 30.6312 9.9516 30.6312 11.0021C30.6312 12.0526 29.7796 12.9042 28.7291 12.9042C27.6787 12.9042 26.827 12.0526 26.827 11.0021C26.827 9.9516 27.6787 9.1 28.7291 9.1ZM33.0312 11.0021C33.0312 8.62611 31.1051 6.7 28.7291 6.7C26.3531 6.7 24.427 8.62611 24.427 11.0021C24.427 13.3781 26.3531 15.3042 28.7291 15.3042C31.1051 15.3042 33.0312 13.3781 33.0312 11.0021Z" fill="#00008B"/>
</svg>
