<svg width="24" height="24" viewBox="0 0 24 24" fill="none" xmlns="http://www.w3.org/2000/svg">
<path fill-rule="evenodd" clip-rule="evenodd" d="M19.2185 12.7258C19.6006 12.6158 19.9996 12.8364 20.1096 13.2185L20.6999 15.2698C20.8098 15.6519 20.5892 16.0508 20.2071 16.1608C19.825 16.2707 19.4261 16.0501 19.3161 15.6681L18.9249 14.3087L17.5656 14.6999C17.1834 14.8099 16.7845 14.5893 16.6745 14.2071C16.5645 13.8251 16.7852 13.4261 17.1673 13.3161L19.2185 12.7258Z" fill="#898987"/>
<path fill-rule="evenodd" clip-rule="evenodd" d="M19.7771 12.7925C20.1223 12.9898 20.2423 13.4295 20.0451 13.7748L17.3428 18.504C17.1766 18.7948 16.8319 18.9326 16.5111 18.8365L12.3062 17.5777L10.4333 20.5988C10.2239 20.9368 9.78007 21.041 9.44206 20.8314C9.10408 20.622 8.99995 20.1781 9.20946 19.8401L11.3728 16.3504C11.5442 16.074 11.8796 15.9468 12.1912 16.0401L16.3762 17.2931L18.7948 13.0604C18.992 12.7152 19.4318 12.5952 19.7771 12.7925Z" fill="#898987"/>
<path fill-rule="evenodd" clip-rule="evenodd" d="M8.52368 9.13248C8.52368 8.08248 9.37509 7.23181 10.4252 7.23181H12.6185C13.0161 7.23181 13.3385 7.55417 13.3385 7.95181C13.3385 8.34946 13.0161 8.67181 12.6185 8.67181H10.4252C10.1696 8.67181 9.96367 8.87851 9.96367 9.13248C9.96367 9.38774 10.17 9.59406 10.4252 9.59406H11.775C12.8247 9.59406 13.6756 10.4451 13.6756 11.4947C13.6756 12.5449 12.825 13.3964 11.775 13.3964H9.58181C9.18416 13.3964 8.86181 13.074 8.86181 12.6764C8.86181 12.2786 9.18416 11.9564 9.58181 11.9564H11.775C12.0289 11.9564 12.2356 11.7503 12.2356 11.4947C12.2356 11.2404 12.0293 11.0341 11.775 11.0341H10.4252C9.37471 11.0341 8.52368 10.183 8.52368 9.13248Z" fill="#898987"/>
<path fill-rule="evenodd" clip-rule="evenodd" d="M11.0999 6.23438C11.4975 6.23438 11.8199 6.55673 11.8199 6.95437V7.95476C11.8199 8.3524 11.4975 8.67476 11.0999 8.67476C10.7023 8.67476 10.3799 8.3524 10.3799 7.95476V6.95437C10.3799 6.55673 10.7023 6.23438 11.0999 6.23438ZM11.0999 11.9556C11.4975 11.9556 11.8199 12.2779 11.8199 12.6756V13.6675C11.8199 14.0652 11.4975 14.3875 11.0999 14.3875C10.7023 14.3875 10.3799 14.0652 10.3799 13.6675V12.6756C10.3799 12.2779 10.7023 11.9556 11.0999 11.9556Z" fill="#898987"/>
<path fill-rule="evenodd" clip-rule="evenodd" d="M2.79199 10.5274C2.79199 5.93958 6.51055 2.21997 11.0994 2.21997C15.6873 2.21997 19.4068 5.93952 19.4068 10.5274C19.4068 10.9251 19.0844 11.2474 18.6868 11.2474C18.2892 11.2474 17.9668 10.9251 17.9668 10.5274C17.9668 6.73481 14.892 3.65997 11.0994 3.65997C7.30596 3.65997 4.23199 6.73475 4.23199 10.5274C4.23199 12.8974 5.43122 14.9871 7.25996 16.2226C7.58945 16.4452 7.6761 16.8928 7.45348 17.2223C7.23088 17.5518 6.78331 17.6384 6.45382 17.4158C4.24551 15.9239 2.79199 13.3956 2.79199 10.5274Z" fill="#898987"/>
</svg>
