<svg width="40" height="40" viewBox="0 0 40 40" fill="none" xmlns="http://www.w3.org/2000/svg">
<path fill-rule="evenodd" clip-rule="evenodd" d="M20 5.83331C12.1884 5.83331 5.83337 12.1883 5.83337 20C5.83337 27.8116 12.1884 34.1666 20 34.1666C27.8117 34.1666 34.1667 27.8116 34.1667 20C34.1667 12.1883 27.8117 5.83331 20 5.83331ZM20 36.6666C10.81 36.6666 3.33337 29.19 3.33337 20C3.33337 10.81 10.81 3.33331 20 3.33331C29.19 3.33331 36.6667 10.81 36.6667 20C36.6667 29.19 29.19 36.6666 20 36.6666Z" fill="#00008B"/>
<path fill-rule="evenodd" clip-rule="evenodd" d="M25.7188 26.154C25.5004 26.154 25.2804 26.0973 25.0788 25.979L18.7954 22.2306C18.4188 22.004 18.1854 21.5956 18.1854 21.1556V13.0756C18.1854 12.3856 18.7454 11.8256 19.4354 11.8256C20.1271 11.8256 20.6854 12.3856 20.6854 13.0756V20.4456L26.3604 23.829C26.9521 24.184 27.1471 24.9506 26.7938 25.544C26.5588 25.9356 26.1438 26.154 25.7188 26.154Z" fill="#00008B"/>
</svg>
