<svg width="40" height="40" viewBox="0 0 40 40" fill="none" xmlns="http://www.w3.org/2000/svg">
<path d="M19.8229 28.9203H17.5045C17.1863 28.9203 16.881 28.7939 16.656 28.5688C16.4309 28.3439 16.3045 28.0386 16.3045 27.7203C16.3045 27.4021 16.4309 27.0968 16.656 26.8719C16.881 26.6467 17.1863 26.5203 17.5045 26.5203H19.8229C20.0506 26.5376 20.2792 26.508 20.4949 26.4335C20.7106 26.3587 20.9087 26.2405 21.0768 26.0861C21.245 25.9319 21.3797 25.7447 21.4725 25.536C21.5653 25.3275 21.6143 25.1023 21.6165 24.8739C21.6139 24.4853 21.4778 24.1093 21.2306 23.8091C20.9835 23.509 20.6407 23.3031 20.2597 23.2259C18.473 22.7227 16.6264 22.4627 14.7701 22.4531C12.401 22.7048 10.1634 23.6669 8.35094 25.2131L7.53654 25.7667C7.40567 25.8565 7.25833 25.9194 7.103 25.9519C6.94769 25.9842 6.78747 25.9855 6.63164 25.9555C6.47582 25.9258 6.32748 25.8651 6.19519 25.7776C6.06291 25.6899 5.94931 25.577 5.86099 25.4451C5.77265 25.3133 5.71134 25.1653 5.68059 25.0096C5.64983 24.8539 5.65027 24.6938 5.68185 24.5383C5.71342 24.3827 5.77553 24.2351 5.86455 24.1037C5.95359 23.9725 6.06779 23.86 6.20054 23.7731L7.00054 23.2307C9.18932 21.4138 11.879 20.3055 14.7125 20.0531C16.785 20.0659 18.8467 20.3499 20.8453 20.8979C21.8335 21.1176 22.7039 21.6984 23.2861 22.5266C23.8682 23.3547 24.12 24.3704 23.9922 25.3746C23.8645 26.3787 23.3663 27.2989 22.5954 27.9549C21.8243 28.6107 20.8346 28.9551 19.8229 28.9203Z" fill="#00008B"/>
<path d="M18.9424 35.5746C16.4792 35.4936 14.0296 35.172 11.6289 34.6146C10.0568 34.335 8.46009 34.2182 6.86406 34.2658C6.54581 34.2658 6.24057 34.1394 6.01553 33.9144C5.79049 33.6893 5.66406 33.3842 5.66406 33.0658C5.66406 32.7475 5.79049 32.4424 6.01553 32.2173C6.24057 31.9923 6.54581 31.8658 6.86406 31.8658C8.57888 31.8168 10.2943 31.9411 11.9841 32.237C16.304 33.0898 19.9248 33.8082 23.8096 32.2962C26.3315 31.1405 28.5704 29.4477 30.3696 27.3362L30.704 26.9986C30.9834 26.7162 31.14 26.335 31.14 25.9378C31.14 25.5406 30.9834 25.1595 30.704 24.877C30.4512 24.6258 30.1165 24.4738 29.7608 24.4485C29.4053 24.4232 29.0523 24.5264 28.7664 24.7394C28.3552 25.0482 27.9424 25.3874 27.5248 25.7314C25.8013 27.4989 23.5304 28.6312 21.0816 28.9442C20.6144 28.9538 20.1552 28.9442 19.6912 28.9202C19.0189 28.8722 18.3437 28.885 17.6736 28.9586C17.5176 28.9814 17.3587 28.9733 17.2058 28.9346C17.053 28.896 16.9093 28.8277 16.7827 28.7335C16.6563 28.6392 16.5498 28.5211 16.469 28.3856C16.3882 28.2502 16.3349 28.1003 16.312 27.9442C16.2893 27.7882 16.2974 27.6293 16.336 27.4763C16.3747 27.3235 16.443 27.1798 16.5373 27.0533C16.6315 26.9269 16.7496 26.8203 16.8851 26.7395C17.0205 26.6587 17.1704 26.6054 17.3264 26.5826C18.1421 26.4864 18.9648 26.4659 19.784 26.5218C20.1984 26.5378 20.6128 26.5554 21.024 26.5442C22.9259 26.209 24.6709 25.275 26.0048 23.8786C26.4496 23.5138 26.8896 23.1538 27.3248 22.8258C28.113 22.2378 29.0944 21.9698 30.072 22.0758C31.0496 22.1819 31.9507 22.6542 32.5942 23.3976C33.2378 24.1411 33.576 25.1006 33.541 26.0834C33.5058 27.0661 33.0998 27.999 32.4048 28.6946L32.0704 29.0306C30.0392 31.3854 27.5128 33.2627 24.672 34.5282C22.8454 35.2358 20.9013 35.5909 18.9424 35.5746Z" fill="#00008B"/>
<path d="M20.8526 15.4677C19.7554 15.4676 18.6827 15.1421 17.7704 14.5324C16.8581 13.9226 16.1469 13.0561 15.727 12.0423C15.3071 11.0285 15.1972 9.91289 15.4113 8.83664C15.6253 7.76038 16.1536 6.77176 16.9294 5.99574C17.9856 4.98755 19.3894 4.42499 20.8494 4.42499C22.3096 4.42499 23.7134 4.98755 24.7694 5.99574C25.5888 6.81452 26.1286 7.8712 26.3118 9.01496C26.3384 9.17083 26.3339 9.33041 26.2986 9.48454C26.2634 9.63867 26.1979 9.7843 26.1061 9.91305C26.0142 10.0418 25.8979 10.1511 25.7637 10.2348C25.6296 10.3184 25.4802 10.3748 25.3242 10.4005C25.1682 10.4262 25.0086 10.4208 24.8546 10.3847C24.7006 10.3485 24.5554 10.2823 24.4272 10.1899C24.2989 10.0974 24.1902 9.98046 24.1072 9.84582C24.0243 9.7112 23.9688 9.5615 23.9438 9.40534C23.841 8.75739 23.5363 8.15836 23.0734 7.69334C22.4738 7.12068 21.6763 6.80115 20.847 6.80115C20.0179 6.80115 19.2205 7.12068 18.6206 7.69334C18.1445 8.16945 17.8333 8.78572 17.7331 9.45168C17.6328 10.1176 17.7488 10.7982 18.0638 11.3934C18.3789 11.9886 18.8765 12.4671 19.4835 12.7587C20.0906 13.0502 20.7752 13.1395 21.4366 13.0134C21.5915 12.9839 21.7507 12.9853 21.905 13.0174C22.0594 13.0495 22.2058 13.1116 22.3362 13.2003C22.4664 13.289 22.5779 13.4025 22.6645 13.5343C22.7509 13.6661 22.8106 13.8137 22.8398 13.9686C22.8693 14.1234 22.868 14.2825 22.8358 14.4369C22.8038 14.5912 22.7416 14.7377 22.653 14.868C22.5642 14.9983 22.4507 15.1098 22.3189 15.1963C22.187 15.2827 22.0395 15.3423 21.8846 15.3718C21.5445 15.4357 21.1989 15.4679 20.8526 15.4677Z" fill="#00008B"/>
<path d="M25.9504 19.032C24.853 19.032 23.7802 18.7066 22.8677 18.0968C21.9552 17.4872 21.2439 16.6205 20.824 15.6066C20.404 14.5927 20.2941 13.477 20.5082 12.4007C20.7223 11.3243 21.2508 10.3356 22.0268 9.5596C22.8028 8.78358 23.7916 8.25512 24.8679 8.041C25.9442 7.82691 27.0599 7.9368 28.0738 8.35676C29.0877 8.77675 29.9543 9.48795 30.564 10.4004C31.1738 11.3129 31.4992 12.3857 31.4992 13.4832C31.4975 14.9543 30.9124 16.3647 29.8722 17.405C28.8319 18.4451 27.4215 19.0303 25.9504 19.032ZM25.9504 10.3344C25.3276 10.3344 24.7189 10.5191 24.201 10.8651C23.6832 11.2111 23.2796 11.7028 23.0413 12.2782C22.8029 12.8536 22.7407 13.4867 22.8621 14.0975C22.9836 14.7083 23.2836 15.2694 23.7239 15.7097C24.1642 16.1501 24.7253 16.45 25.336 16.5715C25.9469 16.693 26.58 16.6306 27.1554 16.3923C27.7308 16.154 28.2226 15.7504 28.5685 15.2326C28.9146 14.7147 29.0992 14.106 29.0992 13.4832C29.0983 12.6483 28.7663 11.8479 28.176 11.2576C27.5856 10.6673 26.7853 10.3352 25.9504 10.3344Z" fill="#00008B"/>
</svg>
