<svg width="40" height="40" viewBox="0 0 40 40" fill="none" xmlns="http://www.w3.org/2000/svg">
<path fill-rule="evenodd" clip-rule="evenodd" d="M29.8114 20.2441C29.198 20.2441 28.663 19.7924 28.5747 19.1674C28.4797 18.4824 28.9547 17.8508 29.6397 17.7558C31.373 17.5124 32.6814 16.0091 32.6847 14.2558C32.6847 12.5174 31.438 11.0474 29.7197 10.7658C29.0397 10.6541 28.578 10.0108 28.6897 9.3291C28.803 8.64743 29.4414 8.19076 30.1264 8.2991C33.0564 8.78076 35.1847 11.2874 35.1847 14.2591C35.178 17.2508 32.943 19.8174 29.9847 20.2324C29.9264 20.2408 29.868 20.2441 29.8114 20.2441Z" fill="#00008B"/>
<mask id="mask0_129_20560" style="mask-type:luminance" maskUnits="userSpaceOnUse" x="31" y="23" width="7" height="8">
<path fill-rule="evenodd" clip-rule="evenodd" d="M31.6302 23.3361H37.9535V30.8853H31.6302V23.3361Z" fill="white"/>
</mask>
<g mask="url(#mask0_129_20560)">
<path fill-rule="evenodd" clip-rule="evenodd" d="M34.769 30.8853C34.2657 30.8853 33.7907 30.5787 33.6007 30.0803C33.354 29.4353 33.679 28.712 34.324 28.467C35.454 28.037 35.454 27.562 35.454 27.3337C35.454 26.6037 34.5257 26.0937 32.6957 25.8203C32.014 25.717 31.5424 25.082 31.644 24.397C31.7457 23.7137 32.379 23.2587 33.0674 23.347C37.1057 23.952 37.954 25.8487 37.954 27.3337C37.954 28.2403 37.5974 29.8953 35.214 30.8037C35.0674 30.8587 34.9174 30.8853 34.769 30.8853Z" fill="#00008B"/>
</g>
<path fill-rule="evenodd" clip-rule="evenodd" d="M19.8112 26.5233C15.8512 26.5233 11.1295 27.01 11.1295 29.3266C11.1295 31.6616 15.8512 32.1516 19.8112 32.1516C23.7712 32.1516 28.4912 31.6666 28.4912 29.355C28.4912 27.015 23.7712 26.5233 19.8112 26.5233ZM19.8112 34.6516C17.0462 34.6516 8.62952 34.6516 8.62952 29.3266C8.62952 24.0233 17.0462 24.0233 19.8112 24.0233C22.5762 24.0233 30.9912 24.0233 30.9912 29.355C30.9912 34.6516 22.8695 34.6516 19.8112 34.6516Z" fill="#00008B"/>
<path fill-rule="evenodd" clip-rule="evenodd" d="M19.8112 9.16663C16.9912 9.16663 14.6978 11.4616 14.6978 14.2816C14.6928 15.6483 15.2162 16.9266 16.1745 17.8916C17.1328 18.8566 18.4095 19.3916 19.7695 19.3966L19.8112 20.6466V19.3966C22.6312 19.3966 24.9262 17.1033 24.9262 14.2816C24.9262 11.4616 22.6312 9.16663 19.8112 9.16663ZM19.8112 21.8966H19.7662C17.7328 21.89 15.8278 21.0933 14.4012 19.6533C12.9712 18.215 12.1895 16.305 12.1978 14.2766C12.1978 10.0833 15.6128 6.66663 19.8112 6.66663C24.0112 6.66663 27.4262 10.0833 27.4262 14.2816C27.4262 18.48 24.0112 21.8966 19.8112 21.8966Z" fill="#00008B"/>
<path fill-rule="evenodd" clip-rule="evenodd" d="M9.80953 20.2442C9.75287 20.2442 9.69453 20.2408 9.6362 20.2325C6.67787 19.8175 4.44453 17.2508 4.43787 14.2625C4.43787 11.2875 6.5662 8.78083 9.4962 8.29916C10.1979 8.18916 10.8195 8.65083 10.9329 9.32916C11.0445 10.0108 10.5829 10.6542 9.90287 10.7658C8.18453 11.0475 6.93787 12.5175 6.93787 14.2592C6.9412 16.0092 8.24953 17.5142 9.9812 17.7558C10.6662 17.8508 11.1412 18.4825 11.0462 19.1675C10.9579 19.7925 10.4229 20.2442 9.80953 20.2442Z" fill="#00008B"/>
<path fill-rule="evenodd" clip-rule="evenodd" d="M4.85354 30.8852C4.7052 30.8852 4.5552 30.8586 4.40854 30.8036C2.02354 29.8936 1.66687 28.2386 1.66687 27.3336C1.66687 25.8502 2.5152 23.9519 6.5552 23.3469C7.24354 23.2602 7.87354 23.7136 7.97687 24.3969C8.07854 25.0819 7.60687 25.7169 6.9252 25.8202C5.0952 26.0936 4.16687 26.6036 4.16687 27.3336C4.16687 27.5619 4.16687 28.0352 5.29854 28.4669C5.94354 28.7119 6.26854 29.4352 6.02187 30.0802C5.83187 30.5786 5.35687 30.8852 4.85354 30.8852Z" fill="#00008B"/>
</svg>
