<svg width="40" height="40" viewBox="0 0 40 40" fill="none" xmlns="http://www.w3.org/2000/svg">
<path fill-rule="evenodd" clip-rule="evenodd" d="M11.8684 29.271C11.1784 29.271 10.6184 28.711 10.6184 28.021V16.5876C10.6184 15.8976 11.1784 15.3376 11.8684 15.3376C12.5584 15.3376 13.1184 15.8976 13.1184 16.5876V28.021C13.1184 28.711 12.5584 29.271 11.8684 29.271Z" fill="#00008B"/>
<path fill-rule="evenodd" clip-rule="evenodd" d="M19.6469 29.2693C18.9569 29.2693 18.3969 28.7093 18.3969 28.0193V11.1143C18.3969 10.4243 18.9569 9.86426 19.6469 9.86426C20.3369 9.86426 20.8969 10.4243 20.8969 11.1143V28.0193C20.8969 28.7093 20.3369 29.2693 19.6469 29.2693Z" fill="#00008B"/>
<path fill-rule="evenodd" clip-rule="evenodd" d="M27.2972 29.2691C26.6072 29.2691 26.0472 28.7091 26.0472 28.0191V22.6292C26.0472 21.9392 26.6072 21.3792 27.2972 21.3792C27.9872 21.3792 28.5472 21.9392 28.5472 22.6292V28.0191C28.5472 28.7091 27.9872 29.2691 27.2972 29.2691Z" fill="#00008B"/>
<path fill-rule="evenodd" clip-rule="evenodd" d="M11.7733 4.16675C7.15329 4.16675 4.16663 7.32841 4.16663 12.2251V26.9417C4.16663 31.8384 7.15329 35.0001 11.7733 35.0001H27.3933C32.015 35.0001 35 31.8384 35 26.9417V12.2251C35 7.32841 32.015 4.16675 27.3933 4.16675H11.7733ZM27.3933 37.5001H11.7733C5.72829 37.5001 1.66663 33.2567 1.66663 26.9417V12.2251C1.66663 5.91008 5.72829 1.66675 11.7733 1.66675H27.3933C33.4383 1.66675 37.5 5.91008 37.5 12.2251V26.9417C37.5 33.2567 33.4383 37.5001 27.3933 37.5001Z" fill="#00008B"/>
</svg>
