<svg width="24" height="24" viewBox="0 0 24 24" fill="none" xmlns="http://www.w3.org/2000/svg">
<path fill-rule="evenodd" clip-rule="evenodd" d="M10.3231 4.59081C10.3231 4.59084 10.3232 4.59078 10.3231 4.59081L4.69116 9.1786C4.16102 9.61082 3.85309 10.2588 3.85309 10.9426V17.283C3.85309 18.7394 5.03363 19.92 6.49008 19.92H17.03C18.4864 19.92 19.6669 18.7394 19.6669 17.283V10.9426C19.6669 10.2588 19.359 9.61082 18.8288 9.1786L17.1847 7.83932C17.1706 7.82862 17.1568 7.81741 17.1434 7.80571L13.1969 4.59081C13.1968 4.59078 13.1969 4.59084 13.1969 4.59081C12.3604 3.90982 11.1597 3.90982 10.3231 4.59081ZM16.8983 5.74862L14.1062 3.47425C12.7402 2.362 10.7799 2.3619 9.41393 3.47416L3.78148 8.06233C2.91615 8.7678 2.41309 9.82563 2.41309 10.9426V17.283C2.41309 19.5348 4.23833 21.36 6.49008 21.36H17.03C19.2817 21.36 21.1069 19.5348 21.1069 17.283V10.9426C21.1069 9.82563 20.6041 8.76798 19.7388 8.06252L18.3383 6.92163V4.29128C18.3383 3.89364 18.0159 3.57128 17.6183 3.57128C17.2205 3.57128 16.8983 3.89364 16.8983 4.29128V5.74862Z" fill="#898987"/>
<path fill-rule="evenodd" clip-rule="evenodd" d="M11.7597 14.2819C10.7171 14.2819 9.87188 15.1271 9.87188 16.1698V20.6401C9.87188 21.0378 9.54954 21.3601 9.15188 21.3601C8.75424 21.3601 8.43188 21.0378 8.43188 20.6401V16.1698C8.43188 14.3318 9.9218 12.8419 11.7597 12.8419C13.597 12.8419 15.0867 14.3319 15.0867 16.1698V20.6401C15.0867 21.0378 14.7643 21.3601 14.3667 21.3601C13.9691 21.3601 13.6467 21.0378 13.6467 20.6401V16.1698C13.6467 15.1269 12.8013 14.2819 11.7597 14.2819Z" fill="#898987"/>
</svg>
