<svg width="25" height="24" viewBox="0 0 25 24" fill="none" xmlns="http://www.w3.org/2000/svg">
<path fill-rule="evenodd" clip-rule="evenodd" d="M5.10919 6.20879C5.8902 4.35097 7.60442 3.19495 9.84758 3.19495H17.3555C18.9146 3.19495 20.2337 3.74986 21.1592 4.74378C22.0794 5.73191 22.5571 7.09528 22.5571 8.62376V15.0336C22.5571 16.5621 22.0795 17.9256 21.1591 18.9141C20.2334 19.9082 18.9142 20.4635 17.3544 20.4635H13.9907C13.5931 20.4635 13.2707 20.1411 13.2707 19.7435C13.2707 19.3458 13.5931 19.0235 13.9907 19.0235H17.3544C18.5586 19.0235 19.4807 18.6036 20.1052 17.9327C20.7353 17.2561 21.1171 16.2648 21.1171 15.0336V8.62376C21.1171 7.39254 20.7353 6.40151 20.1054 5.72515C19.4809 5.05459 18.5591 4.63495 17.3555 4.63495H9.84758C8.15516 4.63495 6.98203 5.46956 6.43665 6.76686C6.28255 7.13342 5.86046 7.30566 5.49389 7.15156C5.12732 6.99745 4.95509 6.57537 5.10919 6.20879Z" fill="#5B7CDB"/>
<path fill-rule="evenodd" clip-rule="evenodd" d="M14.8477 16.5075C14.8477 16.1098 15.17 15.7875 15.5677 15.7875H17.8126C18.2102 15.7875 18.5326 16.1098 18.5326 16.5075C18.5326 16.9051 18.2102 17.2275 17.8126 17.2275H15.5677C15.17 17.2275 14.8477 16.9051 14.8477 16.5075Z" fill="#5B7CDB"/>
<path fill-rule="evenodd" clip-rule="evenodd" d="M4.0218 18.6292C3.54504 19.0613 3.35772 19.6066 3.35772 20.0825C3.35772 20.4801 3.03537 20.8025 2.63772 20.8025C2.24008 20.8025 1.91772 20.4801 1.91772 20.0825C1.91772 19.232 2.25401 18.2879 3.05486 17.5622C3.85754 16.8348 5.06177 16.3838 6.70097 16.3838C8.3392 16.3838 9.54319 16.8309 10.3462 17.5549C11.1479 18.2779 11.4842 19.2198 11.4842 20.0711C11.4842 20.4687 11.1619 20.7911 10.7642 20.7911C10.3666 20.7911 10.0442 20.4687 10.0442 20.0711C10.0442 19.5949 9.85739 19.0532 9.38185 18.6243C8.90746 18.1967 8.07982 17.8238 6.70097 17.8238C5.32413 17.8238 4.49674 18.1989 4.0218 18.6292Z" fill="#5B7CDB"/>
<path fill-rule="evenodd" clip-rule="evenodd" d="M6.70157 10.1776C5.66555 10.1776 4.82586 11.0169 4.82586 12.0522C4.82586 13.0878 5.66592 13.9279 6.70157 13.9279C7.73722 13.9279 8.57728 13.0878 8.57728 12.0522C8.57728 11.0169 7.73759 10.1776 6.70157 10.1776ZM3.38586 12.0522C3.38586 10.2209 4.871 8.73755 6.70157 8.73755C8.53213 8.73755 10.0173 10.2209 10.0173 12.0522C10.0173 13.8832 8.5325 15.3679 6.70157 15.3679C4.87063 15.3679 3.38586 13.8832 3.38586 12.0522Z" fill="#5B7CDB"/>
</svg>
