<svg width="25" height="24" viewBox="0 0 25 24" fill="none" xmlns="http://www.w3.org/2000/svg">
<path fill-rule="evenodd" clip-rule="evenodd" d="M4.49724 4.22149C5.44234 3.20754 6.78827 2.64001 8.37752 2.64001H16.4749C18.0678 2.64001 19.4143 3.20722 20.359 4.22176C21.2983 5.23049 21.7866 6.62295 21.7866 8.18534V15.8147C21.7866 17.3771 21.2983 18.7696 20.3588 19.7783C19.414 20.7928 18.0673 21.36 16.4739 21.36H8.37752C8.18687 21.36 7.99974 21.3519 7.81641 21.3358C7.77373 21.3355 7.73048 21.3315 7.68706 21.3233L7.68502 21.323C6.39374 21.1817 5.29804 20.6422 4.49376 19.7782C3.55473 18.7695 3.06665 17.377 3.06665 15.8147V8.18534C3.06665 7.46141 3.1719 6.77413 3.37826 6.14467L3.37886 6.14169C3.39214 6.07733 3.41362 6.01677 3.44199 5.96086C3.68199 5.3052 4.03539 4.71698 4.49724 4.22149ZM4.60637 7.13005C4.54108 7.45914 4.50665 7.81158 4.50665 8.18534V15.8147C4.50665 17.0798 4.89892 18.1 5.54778 18.797C5.97819 19.2594 6.54537 19.6057 7.24407 19.7843L9.43811 8.12669L4.60637 7.13005ZM10.3803 6.85073L5.12477 5.76666C5.25032 5.56064 5.39293 5.37249 5.5506 5.20333C6.19549 4.51147 7.145 4.08001 8.37752 4.08001H16.4749C17.712 4.08001 18.6615 4.51177 19.3051 5.20306C19.9542 5.90015 20.3467 6.92035 20.3467 8.18534V8.90649L10.464 6.868C10.4464 6.86325 10.4283 6.85913 10.41 6.85568C10.4001 6.85382 10.3902 6.85217 10.3803 6.85073ZM10.8486 8.41764L8.68381 19.92H16.4739C17.7116 19.92 18.6613 19.4882 19.3051 18.7969C19.9542 18.0999 20.3467 17.0797 20.3467 15.8147V10.3768L10.8486 8.41764ZM14.9466 12.471C13.9244 12.471 13.0961 13.2994 13.0961 14.3215C13.0961 14.9727 13.4965 15.6995 14.0454 16.3174C14.3092 16.6143 14.581 16.8558 14.7996 17.0175C14.855 17.0583 14.9042 17.0921 14.9466 17.1193C14.9889 17.0921 15.0381 17.0583 15.0935 17.0175C15.3121 16.8558 15.5839 16.6143 15.8477 16.3174C16.3966 15.6995 16.797 14.9727 16.797 14.3215C16.797 13.2994 15.9687 12.471 14.9466 12.471ZM14.7979 17.2013C14.7979 17.2013 14.8018 17.1995 14.8088 17.1972C14.8013 17.2004 14.7979 17.2013 14.7979 17.2013ZM15.0843 17.1972C15.0913 17.1995 15.0952 17.2013 15.0952 17.2013C15.0952 17.2013 15.0917 17.2004 15.0843 17.1972ZM11.6561 14.3215C11.6561 12.5041 13.1292 11.031 14.9466 11.031C16.7639 11.031 18.237 12.5041 18.237 14.3215C18.237 15.4992 17.5578 16.5607 16.9242 17.2738C16.5967 17.6424 16.2516 17.9521 15.9497 18.1753C15.7994 18.2864 15.6491 18.384 15.5082 18.4576C15.4022 18.5129 15.1875 18.618 14.9466 18.618C14.7056 18.618 14.4909 18.5129 14.3849 18.4576C14.2439 18.384 14.0937 18.2864 13.9435 18.1753C13.6415 17.9521 13.2964 17.6424 12.9689 17.2738C12.3354 16.5607 11.6561 15.4992 11.6561 14.3215ZM14.9465 13.5792C15.3442 13.5792 15.6665 13.9016 15.6665 14.2992V14.3291C15.6665 14.7268 15.3442 15.0491 14.9465 15.0491C14.5488 15.0491 14.2265 14.7268 14.2265 14.3291V14.2992C14.2265 13.9016 14.5488 13.5792 14.9465 13.5792Z" fill="#5B7CDB"/>
</svg>
