<svg width="24" height="24" viewBox="0 0 24 24" fill="none" xmlns="http://www.w3.org/2000/svg">
<path fill-rule="evenodd" clip-rule="evenodd" d="M8.98237 6.3035C8.95037 6.3035 8.91837 6.3075 8.88637 6.3155C5.91637 7.0465 3.50037 10.2645 3.50037 13.4885C3.50037 17.5445 6.80037 20.8445 10.8574 20.8445C14.5144 20.8445 17.5704 18.2395 18.1244 14.6495C18.1284 14.6195 18.1424 14.5325 18.0604 14.4355C17.9824 14.3445 17.8584 14.2905 17.7284 14.2905C16.3174 14.2905 15.2404 14.3225 14.3994 14.3465C12.3634 14.4075 11.5214 14.4305 10.6894 13.8135C9.43537 12.8845 9.32937 11.2885 9.32937 6.5945C9.32937 6.5105 9.29337 6.4405 9.22137 6.3845C9.15437 6.3315 9.06937 6.3035 8.98237 6.3035ZM10.8574 22.3445C5.97337 22.3445 2.00037 18.3715 2.00037 13.4885C2.00037 9.6165 4.92837 5.7445 8.52737 4.8585C9.08937 4.7215 9.69337 4.8495 10.1474 5.2035C10.5804 5.5435 10.8294 6.0505 10.8294 6.5945C10.8294 10.9795 10.9774 12.1595 11.5824 12.6085C11.9794 12.9015 12.5234 12.8985 14.3564 12.8475C15.2084 12.8225 16.2994 12.7905 17.7284 12.7905C18.2984 12.7905 18.8354 13.0345 19.1994 13.4595C19.5374 13.8545 19.6854 14.3705 19.6074 14.8785C18.9394 19.2035 15.2594 22.3445 10.8574 22.3445Z" fill="#898987"/>
<mask id="mask0_121_20492" style="mask-type:luminance" maskUnits="userSpaceOnUse" x="12" y="1" width="11" height="11">
<path fill-rule="evenodd" clip-rule="evenodd" d="M12.474 1.00049H22.893V11.2898H12.474V1.00049Z" fill="white"/>
</mask>
<g mask="url(#mask0_121_20492)">
<path fill-rule="evenodd" clip-rule="evenodd" d="M14.0108 2.50174C13.9008 5.02074 14.0638 8.27474 14.1398 9.56374C14.1438 9.64074 14.1998 9.69674 14.2758 9.70074C15.3038 9.75974 18.8458 9.92374 21.3928 9.54874C21.3988 8.14474 20.4378 6.24074 18.9908 4.79474C17.5068 3.31274 15.7508 2.50174 14.0328 2.50174H14.0108ZM17.3148 11.2897C16.0048 11.2897 14.8518 11.2367 14.1888 11.1987C13.3548 11.1497 12.6908 10.4847 12.6428 9.65074C12.5648 8.32874 12.3958 4.96974 12.5158 2.37174C12.5488 1.61674 13.1588 1.01574 13.9048 1.00274C16.0418 0.940742 18.2468 1.93274 20.0508 3.73374C21.8088 5.49074 22.9248 7.79974 22.8928 9.61674C22.8808 10.3257 22.3658 10.9177 21.6698 11.0227C20.3118 11.2277 18.7218 11.2897 17.3148 11.2897Z" fill="#898987"/>
</g>
</svg>
