<svg width="40" height="40" viewBox="0 0 40 40" fill="none" xmlns="http://www.w3.org/2000/svg">
<path fill-rule="evenodd" clip-rule="evenodd" d="M26.193 28.2896H14.1597C13.4697 28.2896 12.9097 27.7296 12.9097 27.0396C12.9097 26.3496 13.4697 25.7896 14.1597 25.7896H26.193C26.883 25.7896 27.443 26.3496 27.443 27.0396C27.443 27.7296 26.883 28.2896 26.193 28.2896Z" fill="#00008B"/>
<path fill-rule="evenodd" clip-rule="evenodd" d="M26.193 21.312H14.1597C13.4697 21.312 12.9097 20.752 12.9097 20.062C12.9097 19.372 13.4697 18.812 14.1597 18.812H26.193C26.883 18.812 27.443 19.372 27.443 20.062C27.443 20.752 26.883 21.312 26.193 21.312Z" fill="#00008B"/>
<path fill-rule="evenodd" clip-rule="evenodd" d="M18.7508 14.3506H14.1592C13.4692 14.3506 12.9092 13.7906 12.9092 13.1006C12.9092 12.4106 13.4692 11.8506 14.1592 11.8506H18.7508C19.4408 11.8506 20.0008 12.4106 20.0008 13.1006C20.0008 13.7906 19.4408 14.3506 18.7508 14.3506Z" fill="#00008B"/>
<mask id="mask0_130_22553" style="mask-type:luminance" maskUnits="userSpaceOnUse" x="5" y="3" width="31" height="34">
<path fill-rule="evenodd" clip-rule="evenodd" d="M5 3.3335H35.2745V36.5165H5V3.3335Z" fill="white"/>
</mask>
<g mask="url(#mask0_130_22553)">
<path fill-rule="evenodd" clip-rule="evenodd" d="M26.5145 5.83301L13.6995 5.83967C9.81951 5.86301 7.49951 8.26301 7.49951 12.2613V27.588C7.49951 31.613 9.84118 34.0163 13.7595 34.0163L26.5745 34.0113C30.4545 33.988 32.7745 31.5847 32.7745 27.588V12.2613C32.7745 8.23634 30.4345 5.83301 26.5145 5.83301ZM13.7612 36.5163C8.52118 36.5163 4.99951 32.928 4.99951 27.588V12.2613C4.99951 6.87301 8.41118 3.37134 13.6912 3.33967L26.5128 3.33301H26.5145C31.7545 3.33301 35.2745 6.92134 35.2745 12.2613V27.588C35.2745 32.9747 31.8628 36.478 26.5828 36.5113L13.7612 36.5163Z" fill="#00008B"/>
</g>
</svg>
