<svg width="24" height="24" viewBox="0 0 24 24" fill="none" xmlns="http://www.w3.org/2000/svg">
<path fill-rule="evenodd" clip-rule="evenodd" d="M12.0584 14.6851C13.379 14.699 14.5873 14.8576 15.4871 15.3045C15.9483 15.5336 16.3518 15.8498 16.6369 16.2815C16.9249 16.7176 17.0622 17.226 17.0592 17.7862L17.0591 17.8016L17.0583 17.817C17.0313 18.3786 16.8462 18.9212 16.4673 19.3325C16.0792 19.7541 15.5382 19.9815 14.924 19.9815H9.17764C8.56342 19.9815 8.02126 19.7545 7.6324 19.333C7.25239 18.921 7.06721 18.377 7.04313 17.8131L7.04248 17.7978V17.7824C7.04248 17.2218 7.18125 16.7133 7.4695 16.2774C7.7551 15.8455 8.15824 15.5288 8.61959 15.2996C9.51958 14.8522 10.7262 14.6955 12.0451 14.6852L12.0584 14.6851ZM8.48254 17.7668C8.49767 18.0554 8.58906 18.2463 8.69088 18.3567C8.78561 18.4593 8.93264 18.5415 9.17764 18.5415H14.924C15.1675 18.5415 15.3134 18.4599 15.4081 18.3571C15.5103 18.2461 15.6025 18.0539 15.6192 17.763C15.6184 17.4586 15.5453 17.2415 15.4353 17.0752C15.3208 16.9018 15.1358 16.7378 14.8465 16.5942C14.2465 16.2961 13.3082 16.1389 12.0499 16.1252C10.7945 16.1356 9.85927 16.2914 9.26052 16.589C8.97198 16.7324 8.78633 16.8967 8.67061 17.0717C8.55942 17.2398 8.48498 17.4595 8.48254 17.7668Z" fill="#898987"/>
<path fill-rule="evenodd" clip-rule="evenodd" d="M12.0516 9.41998C11.2114 9.41998 10.5301 10.1012 10.5301 10.9416C10.5301 11.7819 11.2114 12.4631 12.0516 12.4631C12.892 12.4631 13.5732 11.7819 13.5732 10.9416C13.5732 10.1012 12.892 9.41998 12.0516 9.41998ZM9.09009 10.9416C9.09009 9.30591 10.416 7.97998 12.0516 7.97998C13.6873 7.97998 15.0132 9.30591 15.0132 10.9416C15.0132 12.5771 13.6873 13.9031 12.0516 13.9031C10.416 13.9031 9.09009 12.5771 9.09009 10.9416Z" fill="#898987"/>
<path fill-rule="evenodd" clip-rule="evenodd" d="M7.5452 10.9219C7.54834 11.3195 7.22854 11.6444 6.83091 11.6475C5.79086 11.6558 5.03524 11.7851 4.56269 12.0199C4.33775 12.1318 4.20206 12.2552 4.12039 12.3788C4.04309 12.4956 3.98693 12.6532 3.98452 12.8858C3.99646 13.1008 4.06396 13.2291 4.12511 13.2955C4.17882 13.3537 4.26739 13.4096 4.43949 13.4096H7.21118C7.60882 13.4096 7.93118 13.732 7.93118 14.1296C7.93118 14.5273 7.60882 14.8496 7.21118 14.8496H4.43949C3.89817 14.8496 3.41446 14.6489 3.06663 14.2718C2.72765 13.9043 2.56604 13.4231 2.54509 12.9322C2.54465 12.922 2.54443 12.9118 2.54443 12.9015C2.54443 12.4152 2.66507 11.9689 2.91928 11.5845C3.17082 11.204 3.52403 10.9281 3.92175 10.7305C4.69452 10.3464 5.7193 10.2163 6.81953 10.2075C7.21716 10.2045 7.54205 10.5242 7.5452 10.9219Z" fill="#898987"/>
<path fill-rule="evenodd" clip-rule="evenodd" d="M16.2637 10.9219C16.2605 11.3195 16.5803 11.6444 16.9779 11.6475C18.018 11.6558 18.7736 11.7851 19.2461 12.0199C19.4711 12.1318 19.6068 12.2552 19.6885 12.3788C19.7658 12.4956 19.8219 12.6532 19.8243 12.8858C19.8124 13.1008 19.7449 13.2291 19.6837 13.2955C19.63 13.3537 19.5414 13.4096 19.3694 13.4096H16.5977C16.2001 13.4096 15.8777 13.732 15.8777 14.1296C15.8777 14.5273 16.2001 14.8496 16.5977 14.8496H19.3694C19.9107 14.8496 20.3944 14.6489 20.7422 14.2718C21.0812 13.9043 21.2428 13.4231 21.2638 12.9322C21.2642 12.922 21.2644 12.9118 21.2644 12.9015C21.2644 12.4152 21.1438 11.9689 20.8896 11.5845C20.638 11.204 20.2849 10.9281 19.8871 10.7305C19.1143 10.3464 18.0895 10.2163 16.9894 10.2075C16.5917 10.2045 16.2668 10.5242 16.2637 10.9219Z" fill="#898987"/>
<path fill-rule="evenodd" clip-rule="evenodd" d="M6.57125 5.46002C5.94095 5.46002 5.42999 5.97098 5.42999 6.60128C5.42999 7.23157 5.94095 7.74253 6.57125 7.74253C7.20155 7.74253 7.7125 7.23157 7.7125 6.60128C7.7125 5.97098 7.20155 5.46002 6.57125 5.46002ZM3.98999 6.60128C3.98999 5.17569 5.14566 4.02002 6.57125 4.02002C7.99683 4.02002 9.1525 5.17569 9.1525 6.60128C9.1525 8.02686 7.99683 9.18253 6.57125 9.18253C5.14566 9.18253 3.98999 8.02686 3.98999 6.60128Z" fill="#898987"/>
<path fill-rule="evenodd" clip-rule="evenodd" d="M17.2375 5.46002C17.8678 5.46002 18.3787 5.97098 18.3787 6.60128C18.3787 7.23157 17.8678 7.74253 17.2375 7.74253C16.6073 7.74253 16.0962 7.23157 16.0962 6.60128C16.0962 5.97098 16.6073 5.46002 17.2375 5.46002ZM19.8187 6.60128C19.8187 5.17569 18.6631 4.02002 17.2375 4.02002C15.8119 4.02002 14.6562 5.17569 14.6562 6.60128C14.6562 8.02686 15.8119 9.18253 17.2375 9.18253C18.6631 9.18253 19.8187 8.02686 19.8187 6.60128Z" fill="#898987"/>
</svg>
