<svg width="24" height="24" viewBox="0 0 24 24" fill="none" xmlns="http://www.w3.org/2000/svg">
<path d="M4.13154 23H18.8681C20.0407 23 21 22.0479 21 20.8841V6.09952C21 4.93576 20.0407 3.98362 18.8681 3.98362H16.5763V3.05784C16.5763 2.47597 16.0967 2 15.5105 2C14.9242 2 14.4446 2.47597 14.4446 3.05784V3.98362H8.55535V3.05784C8.55535 2.47597 8.07578 2 7.48952 2C6.90325 2 6.42368 2.47597 6.42368 3.05784V3.98362H4.13192C2.95934 3.98362 2 4.93576 2 6.09952V20.8576C1.99981 22.0478 2.95896 23 4.13154 23ZM4.13154 20.8841V11.9446H18.8681V20.8576L4.13154 20.8578V20.8841ZM6.4233 6.09952V7.55423C6.4233 8.13609 6.90287 8.61206 7.48913 8.61206C8.0754 8.61206 8.55497 8.13609 8.55497 7.55423V6.09952H14.4709V7.55423C14.4709 8.13609 14.9505 8.61206 15.5367 8.61206C16.123 8.61206 16.6026 8.13609 16.6026 7.55423V6.09952H18.8944V9.82877H4.13163V6.09952H6.4233Z" fill="#94959E" stroke="white" stroke-width="0.3"/>
</svg>
