<svg width="22" height="22" viewBox="0 0 22 22" fill="none" xmlns="http://www.w3.org/2000/svg">
<path fill-rule="evenodd" clip-rule="evenodd" d="M11 0C4.92486 0 0 4.92486 0 11C0 17.0751 4.92486 22 11 22C17.0751 22 22 17.0751 22 11C22 4.92486 17.0751 0 11 0ZM11 2.2C6.13996 2.2 2.2 6.13996 2.2 11C2.2 15.86 6.13996 19.8 11 19.8C15.86 19.8 19.8 15.86 19.8 11C19.8 6.13996 15.86 2.2 11 2.2Z" fill="#94959E"/>
<path d="M9.90002 6.6C9.90002 5.99245 10.3925 5.5 11 5.5C11.6076 5.5 12.1 5.99245 12.1 6.6C12.1 7.20755 11.6076 7.7 11 7.7C10.3925 7.7 9.90002 7.20755 9.90002 6.6Z" fill="#94959E"/>
<path d="M9.90002 9.8998C9.90002 9.29225 10.3925 8.7998 11 8.7998C11.6076 8.7998 12.1 9.29225 12.1 9.8998V15.3998C12.1 16.0074 11.6076 16.4998 11 16.4998C10.3925 16.4998 9.90002 16.0074 9.90002 15.3998V9.8998Z" fill="#94959E"/>
</svg>
