<svg width="13" height="13" viewBox="0 0 13 13" fill="none" xmlns="http://www.w3.org/2000/svg">
<path d="M6.5 0.97583C4.9087 0.97583 3.38254 1.60798 2.25739 2.73322C1.13215 3.85846 0.5 5.38459 0.5 6.97583C0.5 8.56707 1.13215 10.0933 2.25739 11.2184C3.38263 12.3437 4.90876 12.9758 6.5 12.9758C8.09124 12.9758 9.61746 12.3437 10.7426 11.2184C11.8679 10.0932 12.5 8.56707 12.5 6.97583C12.5 5.38459 11.8679 3.85837 10.7426 2.73322C9.61737 1.60798 8.09124 0.97583 6.5 0.97583ZM9.33006 5.77073L6.5 8.59576C6.21875 8.87668 5.83748 9.03448 5.43993 9.03448C5.0425 9.03448 4.66124 8.87667 4.37998 8.59576L3.66992 7.89073C3.54313 7.76394 3.49357 7.57912 3.54 7.40578C3.58643 7.23256 3.7217 7.09717 3.89504 7.05086C4.06825 7.00443 4.25307 7.05387 4.37998 7.18077L5.08502 7.89084V7.89073C5.17888 7.98548 5.30667 8.03872 5.43994 8.03872C5.57331 8.03872 5.7011 7.98548 5.79497 7.89073L8.61999 5.06067V5.06078C8.74689 4.93388 8.93171 4.88433 9.10494 4.93076C9.27827 4.97719 9.41355 5.11257 9.45998 5.28579C9.5064 5.45901 9.45684 5.64393 9.33006 5.77073Z" fill="#2BDDBD"/>
</svg>
