<svg width="65" height="36" viewBox="0 0 65 36" fill="none" xmlns="http://www.w3.org/2000/svg">
<rect x="0.75" width="63.75" height="36" rx="10" fill="white"/>
<path d="M35.5154 12.3461H28.434V23.7164H35.5154V12.3461Z" fill="#FF5F00"/>
<path d="M28.8836 18.0312C28.8825 16.9362 29.1602 15.8553 29.6958 14.8703C30.2313 13.8853 31.0106 13.0221 31.9747 12.3461C30.7808 11.5076 29.347 10.9861 27.8371 10.8413C26.3272 10.6965 24.8022 10.9342 23.4363 11.5272C22.0705 12.1202 20.9189 13.0447 20.1133 14.1948C19.3076 15.3449 18.8804 16.6744 18.8804 18.0312C18.8804 19.3881 19.3076 20.7175 20.1133 21.8677C20.9189 23.0178 22.0705 23.9422 23.4363 24.5352C24.8022 25.1282 26.3272 25.3659 27.8371 25.2211C29.347 25.0763 30.7808 24.5549 31.9747 23.7164C31.0106 23.0403 30.2313 22.1771 29.6958 21.1921C29.1603 20.2072 28.8825 19.1263 28.8836 18.0312Z" fill="#EB001B"/>
<path d="M45.0687 18.0312C45.0687 19.388 44.6415 20.7175 43.8359 21.8676C43.0303 23.0178 41.8787 23.9422 40.5129 24.5352C39.1471 25.1282 37.6221 25.3659 36.1122 25.2211C34.6024 25.0763 33.1686 24.5549 31.9747 23.7164C32.938 23.0396 33.7167 22.1763 34.2521 21.1915C34.7875 20.2067 35.0658 19.1261 35.0658 18.0312C35.0658 16.9364 34.7875 15.8558 34.2521 14.871C33.7167 13.8862 32.938 13.0228 31.9747 12.3461C33.1686 11.5076 34.6024 10.9861 36.1122 10.8413C37.6221 10.6965 39.1471 10.9342 40.5129 11.5273C41.8787 12.1203 43.0303 13.0447 43.8359 14.1948C44.6415 15.3449 45.0687 16.6744 45.0687 18.0312Z" fill="#F79E1B"/>
<path d="M44.2965 22.5121V22.2793H44.4016V22.2319H44.134V22.2793H44.2391V22.5121H44.2965ZM44.8159 22.5121V22.2314H44.7339L44.6396 22.4245L44.5453 22.2314H44.4632V22.5121H44.5211V22.3004L44.6096 22.4829H44.6696L44.7581 22.2999V22.5121H44.8159Z" fill="#F79E1B"/>
</svg>
