<svg width="31" height="21" viewBox="0 0 31 21" fill="none" xmlns="http://www.w3.org/2000/svg">
<path d="M30.75 2.87976H23.744V12.399H30.75L25.2796 7.63939L30.75 2.87976Z" fill="#E072C8"/>
<path d="M5.03492 7.63939L0.250008 12.399H6.60895V2.87976H0.250008L5.03492 7.63939Z" fill="#E072C8"/>
<path d="M7.8782 13.1602C7.8782 16.9362 11.1528 20.0141 15.1765 20.0141C19.1999 20.0141 22.4747 16.9363 22.4747 13.1602V0.975586H7.87879L7.8782 13.1602ZM13.4122 7.42339L15.1763 3.85063L16.9405 7.42339L20.8943 8.00093L18.0321 10.7869L18.7112 14.7215L15.1764 12.862L11.6417 14.7215L12.3207 10.7869L9.45854 8.00093L13.4122 7.42339Z" fill="#E072C8"/>
</svg>
