<svg width="59" height="24" viewBox="0 0 59 24" fill="none" xmlns="http://www.w3.org/2000/svg">
<path fill-rule="evenodd" clip-rule="evenodd" d="M58.909 12.4005C58.909 8.29906 56.8799 5.06274 53.0018 5.06274C49.1072 5.06274 46.7509 8.29906 46.7509 12.3685C46.7509 17.1909 49.5327 19.6262 53.5254 19.6262C55.4727 19.6262 56.9454 19.1936 58.0581 18.5848V15.3805C56.9454 15.9252 55.669 16.2617 54.049 16.2617C52.4618 16.2617 51.0545 15.717 50.8745 13.8264H58.8763C58.8763 13.6182 58.909 12.785 58.909 12.4005ZM50.8254 10.8785C50.8254 9.06809 51.9545 8.31508 52.9854 8.31508C53.9836 8.31508 55.0472 9.06809 55.0472 10.8785H50.8254Z" fill="#3263C9"/>
<path fill-rule="evenodd" clip-rule="evenodd" d="M40.4345 5.06274C38.8309 5.06274 37.8 5.79973 37.2273 6.31241L37.0146 5.31909H33.4146V24L37.5055 23.1509L37.5218 18.6168C38.1109 19.0334 38.9782 19.6262 40.4182 19.6262C43.3473 19.6262 46.0146 17.3191 46.0146 12.2403C45.9982 7.59412 43.2982 5.06274 40.4345 5.06274ZM39.4527 16.1015C38.4873 16.1015 37.9145 15.765 37.5218 15.3485L37.5055 9.40453C37.9309 8.93991 38.52 8.61949 39.4527 8.61949C40.9418 8.61949 41.9727 10.2537 41.9727 12.3525C41.9727 14.4993 40.9582 16.1015 39.4527 16.1015Z" fill="#3263C9"/>
<path fill-rule="evenodd" clip-rule="evenodd" d="M31.8927 0L27.7854 0.849132V4.11749L31.8927 3.25234V0Z" fill="#3263C9"/>
<path fill-rule="evenodd" clip-rule="evenodd" d="M27.7854 5.33514H31.8927V19.3538H27.7854V5.33514Z" fill="#3263C9"/>
<path fill-rule="evenodd" clip-rule="evenodd" d="M23.3836 6.52068L23.1218 5.3351H19.5873V19.3538H23.6782V9.85312C24.6436 8.61948 26.28 8.84378 26.7873 9.02001V5.3351C26.2636 5.14284 24.3491 4.79037 23.3836 6.52068Z" fill="#3263C9"/>
<path fill-rule="evenodd" clip-rule="evenodd" d="M15.2018 1.85846L11.2091 2.69157L11.1927 15.5247C11.1927 17.8958 13.0091 19.6422 15.4309 19.6422C16.7727 19.6422 17.7546 19.4019 18.2946 19.1135V15.8611C17.7709 16.0694 15.1855 16.8064 15.1855 14.4352V8.74765H18.2946V5.3351H15.1855L15.2018 1.85846Z" fill="#3263C9"/>
<path fill-rule="evenodd" clip-rule="evenodd" d="M4.14 9.40453C4.14 8.7797 4.66364 8.53938 5.53091 8.53938C6.77455 8.53938 8.34546 8.90787 9.58909 9.56475V5.79973C8.23091 5.27102 6.88909 5.06274 5.53091 5.06274C2.20909 5.06274 0 6.76101 0 9.59679C0 14.0187 6.21818 13.3137 6.21818 15.2203C6.21818 15.9573 5.56364 16.1976 4.64727 16.1976C3.28909 16.1976 1.55455 15.6529 0.18 14.9159V18.729C1.70182 19.3698 3.24 19.6422 4.64727 19.6422C8.05091 19.6422 10.3909 17.992 10.3909 15.1242C10.3745 10.3498 4.14 11.1989 4.14 9.40453Z" fill="#3263C9"/>
</svg>
