<svg width="63" height="36" viewBox="0 0 63 36" fill="none" xmlns="http://www.w3.org/2000/svg">
<path fill-rule="evenodd" clip-rule="evenodd" d="M18.7524 21.5394H21.5248L25.6829 12.3629H22.9875L20.2163 18.5752L19.1376 13.2805C19.0606 12.7874 18.5983 12.3629 17.9819 12.3629H13.5156V12.6455C14.4402 12.7874 15.2878 13.0688 16.0569 13.4224C16.3651 13.5631 16.5747 13.8616 16.6734 14.1992L18.7524 21.5394ZM24.605 21.5394H27.2234L29.3795 12.3629H26.7611L24.605 21.5394ZM33.8469 14.1269C33.3075 14.1269 32.8452 14.4095 32.7682 14.9037C32.7682 15.326 33.3446 15.6021 34.0374 15.9341C35.0808 16.434 36.3882 17.0604 36.3882 18.5028C36.3882 20.4088 34.6174 21.6787 31.7679 21.609C30.8433 21.609 29.843 21.4671 28.9183 21.1147L29.3806 19.1378C30.2269 19.4913 31.1515 19.703 32.0761 19.703C32.8452 19.703 33.6157 19.4204 33.6157 18.7854C33.6928 18.3622 33.3075 18.0796 32.3072 17.6563C31.3826 17.2318 30.0728 16.5271 30.0728 15.1851C30.0728 13.421 31.922 12.1499 34.4633 12.1499C35.2324 12.1499 36.08 12.2918 36.8505 12.5744L36.3882 14.5501C35.6177 14.1978 34.6944 14.0559 33.8469 14.1269ZM43.4712 12.3629L45.5502 21.5394H43.163L42.8548 20.1986H39.5429L39.0049 21.5394H36.3095L40.1593 13.0688C40.3134 12.6455 40.7758 12.3629 41.2381 12.3629H43.4712ZM42.3928 18.2916L41.6237 14.8331L40.2367 18.2916H42.3928ZM40.3915 23.3999H40.8455V24.8249H40.8558C41.0177 24.572 41.3094 24.4124 41.7162 24.4124C42.3473 24.4124 42.7854 24.881 42.7854 25.5653C42.7854 26.3758 42.2118 26.7791 41.6484 26.7791C41.2836 26.7791 40.991 26.6524 40.7983 26.357H40.788L40.7617 26.7274H40.371C40.3812 26.5726 40.3915 26.3429 40.3915 26.1413V23.3999ZM40.8455 25.8182C40.8455 25.8695 40.8505 25.9212 40.8661 25.9677C40.9499 26.2535 41.2207 26.4508 41.5547 26.4508C42.04 26.4508 42.321 26.0992 42.321 25.5789C42.321 25.1244 42.0606 24.7351 41.5654 24.7351C41.2572 24.7351 40.9655 24.9323 40.8714 25.2414C40.8558 25.2931 40.8455 25.3492 40.8455 25.415V25.8182ZM35.0037 23.5503C34.6437 23.5503 34.3154 23.5784 34.0384 23.6204V26.723C34.2677 26.7463 34.5335 26.7603 34.8627 26.7603C35.546 26.7603 36.0884 26.6008 36.422 26.3057C36.745 26.0151 36.9279 25.5934 36.9279 25.0779C36.9279 24.5669 36.745 24.2013 36.427 23.9439C36.1196 23.691 35.6549 23.5503 35.0037 23.5503ZM34.951 26.4324C34.7739 26.4324 34.6071 26.4276 34.4925 26.4136V23.9155C34.6125 23.8922 34.79 23.8734 35.0242 23.8734C35.984 23.8734 36.4533 24.3468 36.4479 25.092C36.4479 25.945 35.9265 26.4324 34.951 26.4324ZM38.7655 26.4558C38.3012 26.4558 37.91 26.2266 37.8998 25.6686V25.6682H39.6728C39.683 25.6213 39.6884 25.5603 39.6884 25.4758C39.6884 25.0593 39.4743 24.4123 38.6451 24.4123C37.91 24.4123 37.4618 24.9466 37.4618 25.6305C37.4618 26.3151 37.9256 26.7793 38.7026 26.7793C39.1041 26.7793 39.3855 26.6996 39.5474 26.6338L39.464 26.3388C39.2972 26.4041 39.0938 26.4558 38.7655 26.4558ZM38.6085 24.7081C39.125 24.7081 39.2504 25.1154 39.245 25.3735H39.2446H37.9042C37.9408 25.0877 38.1393 24.7081 38.6085 24.7081ZM43.7113 24.0757C43.8933 24.0757 44.003 23.9634 44.003 23.8227C44.003 23.6776 43.8888 23.565 43.7216 23.565C43.5499 23.565 43.4352 23.6824 43.4352 23.8227C43.4352 23.963 43.5441 24.0757 43.7113 24.0757ZM43.4919 24.4601V26.7285H43.9508V24.4601H43.4919ZM45.3931 23.9212V24.4651H46.0501V24.779H45.3931V26.002C45.3931 26.283 45.4819 26.4425 45.737 26.4425C45.8623 26.4425 45.9355 26.4333 46.0028 26.4145L46.0238 26.7283C45.935 26.7568 45.7941 26.7848 45.617 26.7848C45.4029 26.7848 45.2312 26.7191 45.1215 26.6113C44.9961 26.4846 44.9439 26.283 44.9439 26.0156V24.7786H44.5532V24.4647H44.9439V24.0426L45.3926 23.9208L45.3931 23.9212Z" fill="#3263C9"/>
</svg>
