<svg width="16" height="17" viewBox="0 0 16 17" fill="none" xmlns="http://www.w3.org/2000/svg">
<path d="M8.18164 3.16675C8.43477 3.16675 8.64397 3.35485 8.67708 3.5989L8.68164 3.66675V13.6667C8.68164 13.9429 8.45778 14.1667 8.18164 14.1667C7.92851 14.1667 7.71931 13.9786 7.68621 13.7346L7.68164 13.6667V3.66675C7.68164 3.39061 7.9055 3.16675 8.18164 3.16675Z" fill="#D92010"/>
<path d="M11.8444 9.28075C12.0392 9.08507 12.3558 9.08439 12.5515 9.27923C12.7294 9.45636 12.7461 9.7341 12.6013 9.93015L12.553 9.98634L8.537 14.0197C8.35934 14.1981 8.0806 14.2143 7.88455 14.0684L7.8284 14.0197L3.81173 9.98637C3.61687 9.7907 3.61753 9.47412 3.81319 9.27926C3.99107 9.10212 4.26888 9.08655 4.46432 9.2322L4.5203 9.28072L8.18288 12.9581L11.8444 9.28075Z" fill="#D92010"/>
</svg>
