<svg width="16" height="17" viewBox="0 0 16 17" fill="none" xmlns="http://www.w3.org/2000/svg">
<path d="M7.81836 13.8333C7.56523 13.8333 7.35603 13.6451 7.32292 13.4011L7.31836 13.3333L7.31836 3.33325C7.31836 3.05711 7.54222 2.83325 7.81836 2.83325C8.07149 2.83325 8.28069 3.02135 8.31379 3.2654L8.31836 3.33325L8.31836 13.3333C8.31836 13.6094 8.0945 13.8333 7.81836 13.8333Z" fill="#17A163"/>
<path d="M4.15563 7.71925C3.96079 7.91493 3.64421 7.91561 3.44853 7.72077C3.27063 7.54364 3.2539 7.2659 3.39871 7.06985L3.447 7.01366L7.463 2.98033C7.64066 2.80191 7.9194 2.78567 8.11545 2.93164L8.1716 2.9803L12.1883 7.01363C12.3831 7.2093 12.3825 7.52588 12.1868 7.72074C12.0089 7.89788 11.7311 7.91345 11.5357 7.7678L11.4797 7.71928L7.81712 4.04192L4.15563 7.71925Z" fill="#17A163"/>
</svg>
