<svg width="16" height="16" viewBox="0 0 16 16" fill="none" xmlns="http://www.w3.org/2000/svg">
<path fill-rule="evenodd" clip-rule="evenodd" d="M5.11398 1.33279H10.894C13.154 1.33279 14.6673 2.91946 14.6673 5.27946V10.7268C14.6673 13.0801 13.154 14.6661 10.894 14.6661H5.11398C2.85398 14.6661 1.33398 13.0801 1.33398 10.7268V5.27946C1.33398 2.91946 2.85398 1.33279 5.11398 1.33279ZM10.0073 9.99946C10.234 9.77346 10.234 9.40679 10.0073 9.18013L8.82065 7.99346L10.0073 6.80613C10.234 6.58013 10.234 6.20679 10.0073 5.98013C9.78065 5.75279 9.41398 5.75279 9.18065 5.98013L8.00065 7.16613L6.81398 5.98013C6.58065 5.75279 6.21398 5.75279 5.98732 5.98013C5.76065 6.20679 5.76065 6.58013 5.98732 6.80613L7.17398 7.99346L5.98732 9.17346C5.76065 9.40679 5.76065 9.77346 5.98732 9.99946C6.10065 10.1128 6.25398 10.1735 6.40065 10.1735C6.55398 10.1735 6.70065 10.1128 6.81398 9.99946L8.00065 8.82013L9.18732 9.99946C9.30065 10.1201 9.44732 10.1735 9.59398 10.1735C9.74732 10.1735 9.89398 10.1128 10.0073 9.99946Z" fill="#94959E"/>
</svg>
