<svg width="16" height="16" viewBox="0 0 16 16" fill="none" xmlns="http://www.w3.org/2000/svg">
<path fill-rule="evenodd" clip-rule="evenodd" d="M5.11398 1.33325H10.894C13.154 1.33325 14.6673 2.91992 14.6673 5.27992V10.7273C14.6673 13.0799 13.154 14.6666 10.894 14.6666H5.11398C2.85398 14.6666 1.33398 13.0799 1.33398 10.7273V5.27992C1.33398 2.91992 2.85398 1.33325 5.11398 1.33325ZM7.62065 9.99325L10.7873 6.82659C11.014 6.59992 11.014 6.23325 10.7873 5.99992C10.5607 5.77325 10.1873 5.77325 9.96065 5.99992L7.20732 8.75325L6.04065 7.58659C5.81398 7.35992 5.44065 7.35992 5.21398 7.58659C4.98732 7.81325 4.98732 8.17992 5.21398 8.41325L6.80065 9.99325C6.91398 10.1066 7.06065 10.1599 7.20732 10.1599C7.36065 10.1599 7.50732 10.1066 7.62065 9.99325Z" fill="white"/>
</svg>
