<svg width="32" height="33" viewBox="0 0 32 33" fill="none" xmlns="http://www.w3.org/2000/svg">
<path fill-rule="evenodd" clip-rule="evenodd" d="M27.0495 7.49064C27.5682 7.49064 28 7.92131 28 8.4693V8.97596C28 9.51062 27.5682 9.95462 27.0495 9.95462H4.9518C4.43181 9.95462 4 9.51062 4 8.97596V8.4693C4 7.92131 4.43181 7.49064 4.9518 7.49064H8.83942C9.62913 7.49064 10.3164 6.92932 10.4941 6.13732L10.6976 5.228C11.014 3.98935 12.0553 3.16669 13.247 3.16669H18.753C19.9317 3.16669 20.9847 3.98935 21.2894 5.16267L21.5072 6.13599C21.6836 6.92932 22.3709 7.49064 23.1619 7.49064H27.0495ZM25.0744 26.0121C25.4803 22.2294 26.1909 13.2429 26.1909 13.1522C26.2169 12.8775 26.1274 12.6175 25.9497 12.4082C25.7591 12.2122 25.5179 12.0962 25.2521 12.0962H6.75803C6.4909 12.0962 6.23674 12.2122 6.06038 12.4082C5.88143 12.6175 5.79326 12.8775 5.80622 13.1522C5.80861 13.1688 5.83411 13.4854 5.87674 14.0146C6.06611 16.3656 6.59356 22.9136 6.93439 26.0121C7.17558 28.2947 8.67331 29.7294 10.8427 29.7814C12.5168 29.82 14.2415 29.8334 16.0051 29.8334C17.6662 29.8334 19.3532 29.82 21.0792 29.7814C23.3238 29.7427 24.8203 28.3334 25.0744 26.0121Z" fill="#7E7E8A"/>
</svg>
