<svg width="56" height="57" viewBox="0 0 56 57" fill="none" xmlns="http://www.w3.org/2000/svg">
<path fill-rule="evenodd" clip-rule="evenodd" d="M20.8261 38.7434H33.3937C34.3409 38.7434 35.1264 37.95 35.1264 36.9934C35.1264 36.0367 34.3409 35.2667 33.3937 35.2667H20.8261C19.8789 35.2667 19.0934 36.0367 19.0934 36.9934C19.0934 37.95 19.8789 38.7434 20.8261 38.7434ZM28.6347 23.6H20.8261C19.8789 23.6 19.0934 24.3934 19.0934 25.35C19.0934 26.3067 19.8789 27.0767 20.8261 27.0767H28.6347C29.5819 27.0767 30.3673 26.3067 30.3673 25.35C30.3673 24.3934 29.5819 23.6 28.6347 23.6ZM45.1215 21.5598C45.6645 21.5535 46.2558 21.5467 46.7931 21.5467C47.3706 21.5467 47.8327 22.0134 47.8327 22.5967V41.3567C47.8327 47.1434 43.1891 51.8334 37.4597 51.8334H19.0703C13.0637 51.8334 8.16602 46.91 8.16602 40.8434V15.69C8.16602 9.90335 12.8327 5.16669 18.5852 5.16669H30.9218C31.5224 5.16669 31.9845 5.65669 31.9845 6.24002V13.7534C31.9845 18.0234 35.4729 21.5234 39.7007 21.5467C40.6882 21.5467 41.5588 21.5541 42.3206 21.5605C42.9134 21.5656 43.4403 21.57 43.9053 21.57C44.2341 21.57 44.6604 21.5651 45.1215 21.5598ZM45.7586 18.154C43.8595 18.161 41.6209 18.154 40.0107 18.1377C37.4556 18.1377 35.351 16.012 35.351 13.4314V7.28069C35.351 6.27502 36.5592 5.77569 37.25 6.50135C38.5 7.81407 40.2176 9.61841 41.9275 11.4146C43.6338 13.207 45.3325 14.9914 46.551 16.271C47.2256 16.978 46.7312 18.1517 45.7586 18.154Z" fill="#D96BC1"/>
</svg>
