<svg width="226" height="174" viewBox="0 0 226 174" fill="none" xmlns="http://www.w3.org/2000/svg">
<g clip-path="url(#clip0_1511_30034)">
<path d="M206.034 151.944C207.016 151.944 207.813 151.146 207.813 150.161C207.813 149.177 207.016 148.378 206.034 148.378C205.052 148.378 204.256 149.177 204.256 150.161C204.256 151.146 205.052 151.944 206.034 151.944Z" fill="#E5E5E5"/>
<path d="M210.937 161.722H210.393V173.727H210.937V161.722Z" fill="#E5E5E5"/>
<path d="M210.664 160.143C212.246 160.143 213.528 158.858 213.528 157.272C213.528 155.686 212.246 154.401 210.664 154.401C209.083 154.401 207.801 155.686 207.801 157.272C207.801 158.858 209.083 160.143 210.664 160.143Z" fill="#E5E5E5"/>
<path d="M210.664 170.877C210.664 170.877 210.255 162.055 201.869 163.08L210.664 170.877Z" fill="#E5E5E5"/>
<path d="M167.323 105.171C166.972 104.959 166.672 104.673 166.443 104.333C166.214 103.992 166.063 103.606 165.999 103.201C165.936 102.795 165.962 102.381 166.075 101.986C166.189 101.592 166.387 101.227 166.656 100.918L163.018 64.3074L169.093 64.7116L170.776 100.762C171.264 101.25 171.557 101.9 171.598 102.59C171.64 103.28 171.428 103.961 171.002 104.504C170.577 105.048 169.967 105.416 169.289 105.539C168.611 105.661 167.911 105.531 167.323 105.171Z" fill="#FFB8B8"/>
<path d="M171.556 62.9513L169.963 75.0902L170.184 82.5299L163.502 83.1434L162.163 76.9557L161.425 60.5742C161.369 59.3387 161.783 58.1279 162.582 57.1859C163.381 56.2439 164.507 55.6407 165.732 55.4978C167.003 55.3496 168.282 55.7085 169.291 56.4971C170.301 57.2856 170.961 58.4405 171.129 59.7126L171.556 62.9513Z" fill="#2F2E41"/>
<path d="M73.4635 81.9112H0.956559C0.702954 81.9109 0.459816 81.8098 0.280489 81.63C0.101163 81.4502 0.000290238 81.2064 0 80.9521V0.959147C0.000290238 0.704854 0.101163 0.461057 0.280489 0.281245C0.459816 0.101433 0.702954 0.000290301 0.956559 0H73.4635C73.7171 0.000291023 73.9603 0.101433 74.1396 0.281245C74.3189 0.461057 74.4198 0.704855 74.4201 0.959147V80.9521C74.4198 81.2064 74.3189 81.4502 74.1396 81.63C73.9603 81.8098 73.7171 81.9109 73.4635 81.9112Z" fill="#E5E5E5"/>
<path d="M35.234 31.0285H9.08746C8.85922 31.0282 8.64039 30.9372 8.479 30.7753C8.3176 30.6135 8.22682 30.3941 8.22656 30.1652V12.1333C8.22682 11.9044 8.3176 11.685 8.479 11.5231C8.64039 11.3613 8.85922 11.2703 9.08746 11.27H35.234C35.4623 11.2703 35.6811 11.3613 35.8425 11.5231C36.0039 11.685 36.0947 11.9044 36.0949 12.1333V30.1652C36.0947 30.3941 36.0039 30.6135 35.8425 30.7753C35.6811 30.9372 35.4623 31.0282 35.234 31.0285Z" fill="white"/>
<path d="M65.333 40.9076H9.08746C8.85914 40.9076 8.64016 40.8167 8.47871 40.6548C8.31726 40.4929 8.22656 40.2733 8.22656 40.0444C8.22656 39.8154 8.31726 39.5959 8.47871 39.434C8.64016 39.2721 8.85914 39.1812 9.08746 39.1812H65.333C65.5613 39.1812 65.7802 39.2721 65.9417 39.434C66.1031 39.5959 66.1938 39.8154 66.1938 40.0444C66.1938 40.2733 66.1031 40.4929 65.9417 40.6548C65.7802 40.8167 65.5613 40.9076 65.333 40.9076Z" fill="white"/>
<path d="M51.7499 46.8544H9.08746C8.85914 46.8544 8.64016 46.7634 8.47871 46.6016C8.31726 46.4397 8.22656 46.2201 8.22656 45.9912C8.22656 45.7622 8.31726 45.5426 8.47871 45.3808C8.64016 45.2189 8.85914 45.1279 9.08746 45.1279H51.7499C51.9782 45.1279 52.1972 45.2189 52.3586 45.3808C52.5201 45.5426 52.6108 45.7622 52.6108 45.9912C52.6108 46.2201 52.5201 46.4397 52.3586 46.6016C52.1972 46.7634 51.9782 46.8544 51.7499 46.8544Z" fill="white"/>
<path d="M65.1419 19.039H40.2715C40.0434 19.0386 39.8248 18.9474 39.6637 18.7856C39.5026 18.6237 39.4121 18.4044 39.4121 18.1757C39.4121 17.9471 39.5026 17.7277 39.6637 17.5659C39.8248 17.404 40.0434 17.3129 40.2715 17.3125H65.1419C65.3703 17.3125 65.5892 17.4034 65.7507 17.5653C65.9121 17.7272 66.0028 17.9468 66.0028 18.1757C66.0028 18.4047 65.9121 18.6242 65.7507 18.7861C65.5892 18.948 65.3703 19.039 65.1419 19.039Z" fill="white"/>
<path d="M58.9351 24.9857H40.2715C40.0434 24.9853 39.8248 24.8942 39.6637 24.7324C39.5026 24.5705 39.4121 24.3512 39.4121 24.1225C39.4121 23.8938 39.5026 23.6745 39.6637 23.5127C39.8248 23.3508 40.0434 23.2597 40.2715 23.2593H58.9351C59.1632 23.2597 59.3818 23.3508 59.5429 23.5127C59.704 23.6745 59.7945 23.8938 59.7945 24.1225C59.7945 24.3512 59.704 24.5705 59.5429 24.7324C59.3818 24.8942 59.1632 24.9853 58.9351 24.9857Z" fill="white"/>
<path d="M65.333 52.8012H9.08746C8.85914 52.8012 8.64016 52.7102 8.47871 52.5483C8.31726 52.3864 8.22656 52.1669 8.22656 51.9379C8.22656 51.709 8.31726 51.4894 8.47871 51.3275C8.64016 51.1656 8.85914 51.0747 9.08746 51.0747H65.333C65.5613 51.0747 65.7802 51.1656 65.9417 51.3275C66.1031 51.4894 66.1938 51.709 66.1938 51.9379C66.1938 52.1669 66.1031 52.3864 65.9417 52.5483C65.7802 52.7102 65.5613 52.8012 65.333 52.8012Z" fill="white"/>
<path d="M51.7503 58.7477H9.08789C8.85983 58.7473 8.64125 58.6562 8.48013 58.4943C8.31901 58.3325 8.22852 58.1132 8.22852 57.8845C8.22852 57.6558 8.31901 57.4365 8.48013 57.2746C8.64125 57.1128 8.85983 57.0216 9.08789 57.0212H51.7503C51.9786 57.0212 52.1976 57.1122 52.359 57.2741C52.5205 57.436 52.6112 57.6555 52.6112 57.8845C52.6112 58.1134 52.5205 58.333 52.359 58.4949C52.1976 58.6568 51.9786 58.7477 51.7503 58.7477Z" fill="white"/>
<path d="M65.3334 64.6945H9.08789C8.85983 64.6941 8.64125 64.603 8.48013 64.4411C8.31901 64.2793 8.22852 64.0599 8.22852 63.8312C8.22852 63.6026 8.31901 63.3832 8.48013 63.2214C8.64125 63.0596 8.85983 62.9684 9.08789 62.968H65.3334C65.5614 62.9684 65.78 63.0596 65.9411 63.2214C66.1022 63.3832 66.1927 63.6026 66.1927 63.8312C66.1927 64.0599 66.1022 64.2793 65.9411 64.4411C65.78 64.603 65.5614 64.6941 65.3334 64.6945Z" fill="white"/>
<path d="M65.333 70.6413H9.08746C8.85914 70.6413 8.64016 70.5503 8.47871 70.3884C8.31726 70.2265 8.22656 70.007 8.22656 69.778C8.22656 69.5491 8.31726 69.3295 8.47871 69.1676C8.64016 69.0057 8.85914 68.9148 9.08746 68.9148H65.333C65.5613 68.9148 65.7802 69.0057 65.9417 69.1676C66.1031 69.3295 66.1938 69.5491 66.1938 69.778C66.1938 70.007 66.1031 70.2265 65.9417 70.3884C65.7802 70.5503 65.5613 70.6413 65.333 70.6413Z" fill="white"/>
<path d="M102.579 98.555H30.0718C29.8182 98.5547 29.5751 98.4536 29.3957 98.2738C29.2164 98.094 29.1155 97.8502 29.1152 97.5959V17.6029C29.1155 17.3487 29.2164 17.1049 29.3957 16.925C29.5751 16.7452 29.8182 16.6441 30.0718 16.6438H102.579C102.832 16.6441 103.075 16.7452 103.255 16.925C103.434 17.1049 103.535 17.3487 103.535 17.6029V97.5959C103.535 97.8502 103.434 98.094 103.255 98.2738C103.075 98.4536 102.832 98.5547 102.579 98.555Z" fill="white"/>
<path d="M102.579 98.555H30.0718C29.8182 98.5547 29.5751 98.4536 29.3957 98.2738C29.2164 98.094 29.1155 97.8502 29.1152 97.5959V17.6029C29.1155 17.3487 29.2164 17.1049 29.3957 16.925C29.5751 16.7452 29.8182 16.6441 30.0718 16.6438H102.579C102.832 16.6441 103.075 16.7452 103.255 16.925C103.434 17.1049 103.535 17.3487 103.535 17.6029V97.5959C103.535 97.8502 103.434 98.094 103.255 98.2738C103.075 98.4536 102.832 98.5547 102.579 98.555ZM30.0718 17.0274C29.9196 17.0276 29.7737 17.0883 29.6661 17.1962C29.5586 17.3041 29.498 17.4504 29.4979 17.6029V97.5959C29.498 97.7484 29.5586 97.8947 29.6661 98.0026C29.7737 98.1105 29.9196 98.1712 30.0718 98.1714H102.579C102.731 98.1712 102.877 98.1105 102.984 98.0026C103.092 97.8947 103.153 97.7484 103.153 97.5959V17.6029C103.153 17.4504 103.092 17.3041 102.984 17.1962C102.877 17.0883 102.731 17.0276 102.579 17.0274H30.0718Z" fill="#3F3D56"/>
<path d="M64.3493 48.2956H38.2027C37.9745 48.2953 37.7556 48.2043 37.5942 48.0424C37.4328 47.8806 37.3421 47.6612 37.3418 47.4323V29.4003C37.3421 29.1715 37.4328 28.9521 37.5942 28.7902C37.7556 28.6284 37.9745 28.5374 38.2027 28.5371H64.3493C64.5775 28.5374 64.7963 28.6284 64.9577 28.7902C65.1191 28.9521 65.2099 29.1715 65.2102 29.4003V47.4323C65.2099 47.6612 65.1191 47.8806 64.9577 48.0424C64.7963 48.2043 64.5775 48.2953 64.3493 48.2956Z" fill="#1E2E4A"/>
<path d="M94.4482 58.1747H38.2027C37.9744 58.1747 37.7554 58.0838 37.594 57.9219C37.4325 57.76 37.3418 57.5404 37.3418 57.3115C37.3418 57.0825 37.4325 56.863 37.594 56.7011C37.7554 56.5392 37.9744 56.4482 38.2027 56.4482H94.4482C94.6765 56.4482 94.8955 56.5392 95.0569 56.7011C95.2184 56.863 95.3091 57.0825 95.3091 57.3115C95.3091 57.5404 95.2184 57.76 95.0569 57.9219C94.8955 58.0838 94.6765 58.1747 94.4482 58.1747Z" fill="#CCCCCC"/>
<path d="M80.8651 64.1215H38.2027C37.9744 64.1215 37.7554 64.0305 37.5939 63.8687C37.4325 63.7068 37.3418 63.4872 37.3418 63.2583C37.3418 63.0293 37.4325 62.8097 37.5939 62.6479C37.7554 62.486 37.9744 62.395 38.2027 62.395H80.8651C81.0934 62.395 81.3124 62.486 81.4738 62.6479C81.6353 62.8097 81.726 63.0293 81.726 63.2583C81.726 63.4872 81.6353 63.7068 81.4738 63.8687C81.3124 64.0305 81.0934 64.1215 80.8651 64.1215Z" fill="#CCCCCC"/>
<path d="M94.2568 36.3063H69.3863C69.158 36.3063 68.939 36.2153 68.7775 36.0535C68.6161 35.8916 68.5254 35.672 68.5254 35.4431C68.5254 35.2141 68.6161 34.9946 68.7775 34.8327C68.939 34.6708 69.158 34.5798 69.3863 34.5798H94.2568C94.4851 34.5798 94.704 34.6708 94.8655 34.8327C95.0269 34.9946 95.1176 35.2141 95.1176 35.4431C95.1176 35.672 95.0269 35.8916 94.8655 36.0535C94.704 36.2153 94.4851 36.3063 94.2568 36.3063Z" fill="#1E2E4A"/>
<path d="M88.0504 42.2528H69.3867C69.1587 42.2524 68.9401 42.1613 68.779 41.9995C68.6178 41.8376 68.5273 41.6183 68.5273 41.3896C68.5273 41.1609 68.6178 40.9416 68.779 40.7797C68.9401 40.6179 69.1587 40.5268 69.3867 40.5264H88.0504C88.2784 40.5268 88.497 40.6179 88.6581 40.7797C88.8192 40.9416 88.9097 41.1609 88.9097 41.3896C88.9097 41.6183 88.8192 41.8376 88.6581 41.9995C88.497 42.1613 88.2784 42.2524 88.0504 42.2528Z" fill="#1E2E4A"/>
<path d="M94.4482 70.0683H38.2027C37.9744 70.0683 37.7554 69.9773 37.594 69.8154C37.4325 69.6535 37.3418 69.434 37.3418 69.205C37.3418 68.9761 37.4325 68.7565 37.594 68.5946C37.7554 68.4327 37.9744 68.3418 38.2027 68.3418H94.4482C94.6765 68.3418 94.8955 68.4327 95.0569 68.5946C95.2184 68.7565 95.3091 68.9761 95.3091 69.205C95.3091 69.434 95.2184 69.6535 95.0569 69.8154C94.8955 69.9773 94.6765 70.0683 94.4482 70.0683Z" fill="#CCCCCC"/>
<path d="M80.8655 76.015H38.2031C37.9751 76.0146 37.7565 75.9235 37.5954 75.7617C37.4342 75.5998 37.3438 75.3805 37.3438 75.1518C37.3438 74.9231 37.4342 74.7038 37.5954 74.542C37.7565 74.3801 37.9751 74.289 38.2031 74.2886H80.8655C81.0939 74.2886 81.3128 74.3795 81.4743 74.5414C81.6357 74.7033 81.7264 74.9229 81.7264 75.1518C81.7264 75.3808 81.6357 75.6003 81.4743 75.7622C81.3128 75.9241 81.0939 76.015 80.8655 76.015Z" fill="#CCCCCC"/>
<path d="M94.4486 81.9616H38.2031C37.9751 81.9612 37.7565 81.87 37.5954 81.7082C37.4342 81.5464 37.3438 81.327 37.3438 81.0983C37.3438 80.8697 37.4342 80.6503 37.5954 80.4885C37.7565 80.3266 37.9751 80.2355 38.2031 80.2351H94.4486C94.6769 80.2351 94.8959 80.3261 95.0574 80.4879C95.2188 80.6498 95.3095 80.8694 95.3095 81.0983C95.3095 81.3273 95.2188 81.5469 95.0574 81.7087C94.8959 81.8706 94.6769 81.9616 94.4486 81.9616Z" fill="#CCCCCC"/>
<path d="M94.4482 87.9083H38.2027C37.9744 87.9083 37.7554 87.8174 37.594 87.6555C37.4325 87.4936 37.3418 87.2741 37.3418 87.0451C37.3418 86.8162 37.4325 86.5966 37.594 86.4347C37.7554 86.2728 37.9744 86.1819 38.2027 86.1819H94.4482C94.6765 86.1819 94.8955 86.2728 95.0569 86.4347C95.2184 86.5966 95.3091 86.8162 95.3091 87.0451C95.3091 87.2741 95.2184 87.4936 95.0569 87.6555C94.8955 87.8174 94.6765 87.9083 94.4482 87.9083Z" fill="#CCCCCC"/>
<path d="M97.1789 11.2321L96.9093 13.4878C92.5985 7.54899 86.6265 3.92763 79.144 2.71557L81.031 1.45353L80.7282 0.999512L78.0098 2.81859L80.0169 5.40518L80.4471 5.07013L79.0344 3.2504C86.3898 4.43675 92.2564 7.99351 96.4854 13.8305L94.2253 13.389L94.1217 13.9251L97.3301 14.5513L97.7198 11.2976L97.1789 11.2321Z" fill="#3F3D56"/>
<path d="M145.966 169.759L141.913 169.759L139.984 154.082L145.967 154.083L145.966 169.759Z" fill="#FFB7B7"/>
<path d="M146.999 173.699L133.93 173.698V173.533C133.93 172.18 134.466 170.883 135.42 169.926C136.374 168.969 137.668 168.432 139.017 168.432H139.017L147 168.432L146.999 173.699Z" fill="#2F2E41"/>
<path d="M179.435 169.759L175.381 169.759L173.453 154.082L179.435 154.083L179.435 169.759Z" fill="#FFB7B7"/>
<path d="M180.468 173.699L167.398 173.698V173.533C167.399 172.18 167.935 170.883 168.889 169.926C169.843 168.969 171.136 168.432 172.486 168.432H172.486L180.468 168.432L180.468 173.699Z" fill="#2F2E41"/>
<path d="M165.71 49.4877C170.431 48.3599 173.347 43.6078 172.222 38.8736C171.097 34.1394 166.358 31.2158 161.637 32.3436C156.915 33.4715 154 38.2236 155.124 42.9578C156.249 47.692 160.989 50.6155 165.71 49.4877Z" fill="#FFB8B8"/>
<path d="M162.538 53.3052L168.636 54.0041C170.119 56.113 171.081 58.5453 171.442 61.1003C171.803 63.6553 171.552 66.2597 170.712 68.6985L166.11 82.047C166.11 82.047 172.498 94.8881 172.498 106.81C172.498 118.733 184.664 161.289 184.664 161.289L167.539 163.081L160.067 117.746L149.77 162.898L138.016 160.979L144.49 101.78L148.768 82.2945L148.95 72.7922C148.95 72.7922 147.131 65.662 151.684 61.0969L157.242 53.3306L162.538 53.3052Z" fill="#2F2E41"/>
<path d="M157.213 106.65C156.842 106.398 156.53 106.067 156.3 105.681C156.07 105.295 155.928 104.863 155.882 104.416C155.837 103.968 155.889 103.516 156.037 103.092C156.184 102.667 156.423 102.28 156.736 101.958L154.926 61.6865L161.549 62.491L161.253 102.032C161.758 102.595 162.039 103.324 162.044 104.082C162.049 104.839 161.776 105.571 161.279 106.14C160.781 106.71 160.092 107.076 159.342 107.17C158.593 107.264 157.836 107.079 157.213 106.65Z" fill="#FFB8B8"/>
<path d="M164.345 60.712L161.883 73.8977L161.684 82.0504L154.337 82.3233L153.238 75.4737L153.402 57.5074C153.415 56.1524 153.939 54.8523 154.869 53.8694C155.799 52.8864 157.067 52.2936 158.416 52.2103C159.815 52.124 161.192 52.5928 162.25 53.5157C163.308 54.4386 163.962 55.7415 164.07 57.1432L164.345 60.712Z" fill="#2F2E41"/>
<path d="M153.428 37.7687H166.342V32.1243C163.507 30.9952 160.733 30.0349 159.057 32.1243C157.564 32.1243 156.132 32.719 155.076 33.7775C154.021 34.836 153.428 36.2717 153.428 37.7687Z" fill="#2F2E41"/>
<path d="M167.057 31.1282C174.777 31.1282 176.938 40.8313 176.938 46.3053C176.938 49.3581 175.561 50.45 173.397 50.8194L172.633 46.7332L170.843 50.9953C170.236 50.9983 169.597 50.9865 168.935 50.9742L168.328 49.7214L166.975 50.9517C161.556 50.9598 157.176 51.7519 157.176 46.3053C157.176 40.8313 159.071 31.1282 167.057 31.1282Z" fill="#2F2E41"/>
<path opacity="0.2" d="M155.639 84.7228L155.313 70.5091L154.447 64.199L152.307 70.4496L155.639 84.7228Z" fill="black"/>
<path d="M225.727 174H122.053C121.981 174 121.912 173.971 121.861 173.92C121.81 173.869 121.781 173.8 121.781 173.727C121.781 173.655 121.81 173.585 121.861 173.534C121.912 173.483 121.981 173.454 122.053 173.454H225.727C225.8 173.454 225.869 173.483 225.92 173.534C225.971 173.585 226 173.655 226 173.727C226 173.8 225.971 173.869 225.92 173.92C225.869 173.971 225.8 174 225.727 174Z" fill="#CBCBCB"/>
</g>
<defs>
<clipPath id="clip0_1511_30034">
<rect width="226" height="174" fill="white"/>
</clipPath>
</defs>
</svg>
