<svg width="25" height="24" viewBox="0 0 25 24" fill="none" xmlns="http://www.w3.org/2000/svg">
<path fill-rule="evenodd" clip-rule="evenodd" d="M7.867 7.7325C8.281 7.7325 8.617 8.0685 8.617 8.4825C8.617 8.8965 8.281 9.2325 7.867 9.2325H6.926C5.312 9.2325 4 10.5435 4 12.1565V17.0415C4 18.6605 5.316 19.9765 6.935 19.9765H18.075C19.687 19.9765 21 18.6635 21 17.0515V12.1675C21 10.5485 19.683 9.2325 18.066 9.2325H17.134C16.72 9.2325 16.384 8.8965 16.384 8.4825C16.384 8.0685 16.72 7.7325 17.134 7.7325H18.066C20.511 7.7325 22.5 9.7225 22.5 12.1675V17.0515C22.5 19.4915 20.514 21.4765 18.075 21.4765H6.935C4.49 21.4765 2.5 19.4875 2.5 17.0415V12.1565C2.5 9.7165 4.485 7.7325 6.926 7.7325H7.867ZM12.5008 3C12.9148 3 13.2508 3.336 13.2508 3.75L13.25 13.976L14.8858 12.334C15.1778 12.04 15.6518 12.04 15.9458 12.332C16.2388 12.624 16.2398 13.099 15.9478 13.393L13.0385 16.3137C13.0101 16.3429 12.9794 16.3698 12.9466 16.3941L13.0318 16.32C12.9996 16.3527 12.9646 16.382 12.9275 16.4078C12.9048 16.4234 12.8818 16.4376 12.858 16.4506C12.8465 16.4568 12.8344 16.463 12.8222 16.4687C12.8004 16.4791 12.778 16.4885 12.7551 16.4967C12.7436 16.5008 12.7321 16.5046 12.7206 16.5081C12.6924 16.5169 12.6635 16.5239 12.6339 16.5292C12.6272 16.5303 12.6212 16.5313 12.6151 16.5323C12.5912 16.536 12.5663 16.5386 12.5411 16.5399C12.5275 16.5406 12.5142 16.541 12.5008 16.541L12.461 16.538L12.3991 16.5341C12.3947 16.5336 12.3903 16.5329 12.3859 16.5322L12.5008 16.541C12.4561 16.541 12.4118 16.537 12.3683 16.5292C12.3382 16.5239 12.3093 16.5169 12.2811 16.5083C12.2699 16.5047 12.2588 16.5011 12.2478 16.4971C12.2249 16.489 12.2022 16.4796 12.1801 16.4691C12.1666 16.4627 12.1533 16.4559 12.1401 16.4487C12.1217 16.4385 12.1039 16.4277 12.0866 16.4162C12.0747 16.4084 12.0629 16.4 12.0512 16.3913C12.0227 16.3698 11.9957 16.3464 11.9705 16.3212L11.9698 16.32L9.0538 13.393C8.7618 13.099 8.7628 12.624 9.0558 12.332C9.3498 12.04 9.8238 12.04 10.1158 12.334L11.75 13.976L11.7508 3.75C11.7508 3.336 12.0868 3 12.5008 3Z" fill="white"/>
</svg>
