<svg width="16" height="16" viewBox="0 0 16 16" fill="none" xmlns="http://www.w3.org/2000/svg">
<path fill-rule="evenodd" clip-rule="evenodd" d="M8.00065 1.33287C4.32065 1.33287 1.33398 4.3202 1.33398 7.99954C1.33398 11.6802 4.32065 14.6662 8.00065 14.6662C11.6873 14.6662 14.6673 11.6802 14.6673 7.99954C14.6673 4.3202 11.6873 1.33287 8.00065 1.33287ZM7.99382 6.04023C7.68049 6.04023 7.42049 5.77956 7.42049 5.46023C7.42049 5.13356 7.68049 4.87356 8.00716 4.87356C8.32716 4.87356 8.58716 5.13356 8.58716 5.46023C8.58716 5.77956 8.32716 6.04023 7.99382 6.04023ZM7.99382 11.1002C8.32049 11.1002 8.58049 10.8402 8.58049 10.5202V7.57351C8.58049 7.25284 8.32049 6.98684 7.99382 6.98684C7.67382 6.98684 7.41382 7.25284 7.41382 7.57351V10.5202C7.41382 10.8402 7.67382 11.1002 7.99382 11.1002Z" fill="white"/>
</svg>
