<svg width="16" height="17" viewBox="0 0 16 17" fill="none" xmlns="http://www.w3.org/2000/svg">
<path fill-rule="evenodd" clip-rule="evenodd" d="M3.04238 8.23329C3.04238 6.1726 4.43038 4.73326 6.41704 4.73326H11.549C11.7044 4.73326 11.8004 4.56358 11.7204 4.43028L11.1284 3.4446C10.2517 2.00126 8.73171 1.5886 7.34638 2.41926L2.18104 5.5326C0.795043 6.3666 0.446377 7.90262 1.31571 9.35796L2.67178 11.5742C2.77717 11.7465 3.04238 11.6718 3.04238 11.4698V8.23329Z" fill="#94959E"/>
<path fill-rule="evenodd" clip-rule="evenodd" d="M12.4564 9.21311H6.40636C6.13036 9.21311 5.90636 8.98911 5.90636 8.71311C5.90636 8.43711 6.13036 8.21311 6.40636 8.21311H12.4564C12.7324 8.21311 12.9564 8.43711 12.9564 8.71311C12.9564 8.98911 12.7324 9.21311 12.4564 9.21311ZM12.4497 5.39978H6.41503C4.7957 5.39978 3.70703 6.53845 3.70703 8.23311V12.1798C3.70703 13.8704 4.7957 15.0064 6.41503 15.0064H12.449C14.069 15.0064 15.1584 13.8704 15.1584 12.1798V8.23311C15.1584 6.53845 14.0697 5.39978 12.4497 5.39978Z" fill="#94959E"/>
</svg>
