<svg width="25" height="25" viewBox="0 0 25 25" fill="none" xmlns="http://www.w3.org/2000/svg">
<path fill-rule="evenodd" clip-rule="evenodd" d="M12.25 16.6543C11.836 16.6543 11.5 16.3183 11.5 15.9043V8.57727C11.5 8.16327 11.836 7.82727 12.25 7.82727C12.664 7.82727 13 8.16327 13 8.57727V15.9043C13 16.3183 12.664 16.6543 12.25 16.6543Z" fill="white"/>
<path fill-rule="evenodd" clip-rule="evenodd" d="M15.917 12.9902H8.58398C8.16898 12.9902 7.83398 12.6542 7.83398 12.2402C7.83398 11.8262 8.16898 11.4902 8.58398 11.4902H15.917C16.331 11.4902 16.667 11.8262 16.667 12.2402C16.667 12.6542 16.331 12.9902 15.917 12.9902Z" fill="white"/>
<path fill-rule="evenodd" clip-rule="evenodd" d="M7.564 3C4.792 3 3 4.897 3 7.835V16.665C3 19.603 4.792 21.5 7.564 21.5H16.936C19.709 21.5 21.5 19.603 21.5 16.665V7.835C21.5 4.897 19.709 3 16.936 3H7.564ZM16.936 23H7.564C3.937 23 1.5 20.454 1.5 16.665V7.835C1.5 4.046 3.937 1.5 7.564 1.5H16.936C20.563 1.5 23 4.046 23 7.835V16.665C23 20.454 20.563 23 16.936 23Z" fill="white"/>
</svg>
