<svg width="24" height="24" viewBox="0 0 24 24" fill="none" xmlns="http://www.w3.org/2000/svg">
<path fill-rule="evenodd" clip-rule="evenodd" d="M16.7432 10.17C15.7988 10.17 15.0337 10.9356 15.0337 11.8795C15.0337 12.8244 15.799 13.5898 16.7432 13.5898H20.3981C20.7958 13.5898 21.1181 13.9122 21.1181 14.3098C21.1181 14.7075 20.7958 15.0298 20.3981 15.0298H16.7432C15.0029 15.0298 13.5938 13.619 13.5938 11.8795C13.5938 10.1407 15.0031 8.72998 16.7432 8.72998H20.3981C20.7958 8.72998 21.1181 9.05234 21.1181 9.44998C21.1181 9.84762 20.7958 10.17 20.3981 10.17H16.7432Z" fill="white"/>
<path fill-rule="evenodd" clip-rule="evenodd" d="M15.834 11.8238C15.834 11.4261 16.1564 11.1038 16.554 11.1038H16.5569C16.9545 11.1038 17.2769 11.4261 17.2769 11.8238C17.2769 12.2214 16.9545 12.5438 16.5569 12.5438H16.554C16.1564 12.5438 15.834 12.2214 15.834 11.8238Z" fill="white"/>
<path fill-rule="evenodd" clip-rule="evenodd" d="M7.85885 4.74005C5.63928 4.74005 3.84039 6.53894 3.84039 8.7585V11.627C3.84039 12.0246 3.51803 12.347 3.12039 12.347C2.72275 12.347 2.40039 12.0246 2.40039 11.627V8.7585C2.40039 5.74364 4.84398 3.30005 7.85885 3.30005H15.6619C18.6768 3.30005 21.1204 5.74364 21.1204 8.7585V15.238C21.1204 18.2529 18.6768 20.6965 15.6619 20.6965H11.4699C11.0723 20.6965 10.7499 20.3741 10.7499 19.9765C10.7499 19.5789 11.0723 19.2565 11.4699 19.2565H15.6619C17.8815 19.2565 19.6804 17.4576 19.6804 15.238V8.7585C19.6804 6.53894 17.8815 4.74005 15.6619 4.74005H7.85885Z" fill="white"/>
<path fill-rule="evenodd" clip-rule="evenodd" d="M2.40039 17.3662C2.40039 16.9686 2.72275 16.6462 3.12039 16.6462H8.34082C8.73846 16.6462 9.06082 16.9686 9.06082 17.3662C9.06082 17.764 8.73846 18.0862 8.34082 18.0862H3.12039C2.72275 18.0862 2.40039 17.764 2.40039 17.3662Z" fill="white"/>
<path fill-rule="evenodd" clip-rule="evenodd" d="M5.72977 14.0363C6.12742 14.0363 6.44977 14.3586 6.44977 14.7563V19.9766C6.44977 20.3744 6.12742 20.6966 5.72977 20.6966C5.33212 20.6966 5.00977 20.3744 5.00977 19.9766V14.7563C5.00977 14.3586 5.33212 14.0363 5.72977 14.0363Z" fill="white"/>
</svg>
