<svg width="212" height="212" viewBox="0 0 212 212" fill="none" xmlns="http://www.w3.org/2000/svg">
<path opacity="0.4" fill-rule="evenodd" clip-rule="evenodd" d="M152.769 80.5745C151.967 80.4751 151.327 79.8492 151.215 79.0494C148.718 61.1774 134.181 38.8556 106.009 38.8556C75.7223 38.8556 63.2688 63.5287 60.854 79.0719C60.7314 79.8609 60.095 80.4736 59.3026 80.5707C39.2977 83.0212 25.7539 98.3519 25.7539 119.432C25.7539 134.798 34.8105 148.824 48.9806 155.235C55.7901 157.991 61.7006 158.406 64.6177 158.406H81.7693C83.4526 158.406 84.817 157.042 84.817 155.359C84.817 153.545 83.2367 152.152 81.425 152.067C76.3681 151.832 71.3866 149.834 67.5264 145.966C59.2414 137.69 59.2414 124.266 67.5264 115.989L91.0074 92.5083C91.9996 91.5161 93.085 90.6257 94.2553 89.8456C94.7725 89.5064 95.3237 89.2689 95.858 88.9724C96.5364 88.6078 97.1893 88.2007 97.9017 87.9039C98.5801 87.6241 99.2924 87.463 99.9877 87.251C100.615 87.0644 101.217 86.8269 101.862 86.6997C103.159 86.4369 104.465 86.3181 105.78 86.3012C105.856 86.3012 105.932 86.2758 106.009 86.2758C106.076 86.2758 106.136 86.2927 106.195 86.3012C107.526 86.3097 108.849 86.4369 110.155 86.6997C110.791 86.8269 111.376 87.0559 111.995 87.2425C112.708 87.4545 113.429 87.6156 114.115 87.9039C114.802 88.1922 115.43 88.5738 116.074 88.93C116.642 89.235 117.228 89.4894 117.77 89.8541C118.813 90.5494 119.772 91.355 120.67 92.22C120.781 92.3133 120.899 92.3811 121.001 92.4829L144.499 115.981C152.784 124.266 152.784 137.681 144.499 145.966C140.711 149.763 135.784 151.804 130.596 152.051C128.787 152.138 127.217 153.534 127.217 155.345C127.217 157.036 128.588 158.406 130.279 158.406H147.323C150.274 158.406 156.236 157.999 163.223 155.201C177.207 148.875 186.246 134.832 186.246 119.432C186.246 98.3765 172.737 83.0493 152.769 80.5745Z" fill="#3263C9"/>
<path fill-rule="evenodd" clip-rule="evenodd" d="M129.497 137.349C131.125 137.349 132.753 136.73 133.992 135.483C136.476 132.999 136.476 128.979 133.992 126.494L110.493 102.996C109.908 102.403 109.204 101.945 108.424 101.623C107.644 101.3 106.822 101.131 105.991 101.131C105.957 101.131 105.931 101.148 105.897 101.148C105.1 101.165 104.312 101.309 103.565 101.623C102.785 101.945 102.073 102.411 101.488 103.005L77.9982 126.494C75.5136 128.979 75.5136 132.999 77.9982 135.483C80.4829 137.968 84.5109 137.968 86.9954 135.483L99.639 122.848V166.8C99.639 170.319 102.488 173.16 105.999 173.16C109.51 173.16 112.359 170.311 112.359 166.8V122.848L125.003 135.483C126.241 136.73 127.869 137.349 129.497 137.349Z" fill="#3263C9"/>
</svg>
