<svg width="16" height="16" viewBox="0 0 16 16" fill="none" xmlns="http://www.w3.org/2000/svg">
<path fill-rule="evenodd" clip-rule="evenodd" d="M11.8466 5.58787H14.6673C14.6673 3.32306 13.3103 2 11.011 2H4.99028C2.69102 2 1.33398 3.32306 1.33398 5.55898V10.441C1.33398 12.6769 2.69102 14 4.99028 14H11.011C13.3103 14 14.6673 12.6769 14.6673 10.441V10.233H11.8466C10.5375 10.233 9.47621 9.19835 9.47621 7.922C9.47621 6.64566 10.5375 5.61098 11.8466 5.61098V5.58787ZM11.8466 6.58161H14.1695C14.4445 6.58161 14.6673 6.79889 14.6673 7.06692V8.75397C14.6641 9.0207 14.4431 9.23617 14.1695 9.23929H11.8999C11.2372 9.24798 10.6576 8.80558 10.5073 8.17622C10.432 7.78553 10.5377 7.38238 10.796 7.07481C11.0543 6.76725 11.4389 6.58672 11.8466 6.58161ZM11.9473 8.35532H12.1666C12.448 8.35532 12.6762 8.13286 12.6762 7.85845C12.6762 7.58404 12.448 7.36158 12.1666 7.36158H11.9473C11.8127 7.36003 11.6831 7.41109 11.5873 7.50336C11.4916 7.59562 11.4377 7.72142 11.4377 7.85267C11.4377 8.12804 11.6649 8.35215 11.9473 8.35532ZM4.4925 5.58787H8.25547C8.53693 5.58787 8.7651 5.36541 8.7651 5.091C8.7651 4.81658 8.53693 4.59413 8.25547 4.59413H4.4925C4.21334 4.59411 3.98612 4.81306 3.98287 5.08522C3.98285 5.36058 4.21009 5.5847 4.4925 5.58787Z" fill="#94959E"/>
</svg>
