<svg width="16" height="16" viewBox="0 0 16 16" fill="none" xmlns="http://www.w3.org/2000/svg">
<path fill-rule="evenodd" clip-rule="evenodd" d="M9.65215 2.96139L14.498 11.3715C14.6047 11.6225 14.6513 11.8266 14.6646 12.0387C14.6913 12.5341 14.518 13.0157 14.1781 13.3863C13.8381 13.7556 13.3782 13.9736 12.8783 14H3.11992C2.91329 13.9874 2.70666 13.9405 2.51336 13.8679C1.54685 13.4781 1.08026 12.3815 1.47353 11.4309L6.35271 2.95545C6.51935 2.65752 6.77264 2.40055 7.08592 2.2354C7.99243 1.73268 9.14557 2.06298 9.65215 2.96139ZM8.579 8.50382C8.579 8.82091 8.31904 9.08581 7.9991 9.08581C7.67915 9.08581 7.41253 8.82091 7.41253 8.50382V6.63498C7.41253 6.31724 7.67915 6.06026 7.9991 6.06026C8.31904 6.06026 8.579 6.31724 8.579 6.63498V8.50382ZM7.9991 11.3451C7.67915 11.3451 7.41253 11.0802 7.41253 10.7637C7.41253 10.446 7.67915 10.1817 7.9991 10.1817C8.31904 10.1817 8.579 10.44 8.579 10.7565C8.579 11.0802 8.31904 11.3451 7.9991 11.3451Z" fill="white"/>
</svg>
