<svg width="16" height="17" viewBox="0 0 16 17" fill="none" xmlns="http://www.w3.org/2000/svg">
<path fill-rule="evenodd" clip-rule="evenodd" d="M5.95115 11.4267H9.5419C9.81253 11.4267 10.037 11.2 10.037 10.9267C10.037 10.6533 9.81253 10.4333 9.5419 10.4333H5.95115C5.68052 10.4333 5.4561 10.6533 5.4561 10.9267C5.4561 11.2 5.68052 11.4267 5.95115 11.4267ZM8.18217 7.10001H5.95115C5.68052 7.10001 5.4561 7.32668 5.4561 7.60001C5.4561 7.87334 5.68052 8.09334 5.95115 8.09334H8.18217C8.4528 8.09334 8.67722 7.87334 8.67722 7.60001C8.67722 7.32668 8.4528 7.10001 8.18217 7.10001ZM12.8927 6.51708C13.0478 6.51529 13.2168 6.51334 13.3703 6.51334C13.5353 6.51334 13.6673 6.64668 13.6673 6.81334V12.1733C13.6673 13.8267 12.3406 15.1667 10.7036 15.1667H5.4495C3.73332 15.1667 2.33398 13.76 2.33398 12.0267V4.84001C2.33398 3.18668 3.66732 1.83334 5.31088 1.83334H8.83563C9.00725 1.83334 9.13927 1.97334 9.13927 2.14001V4.28668C9.13927 5.50668 10.136 6.50668 11.3439 6.51334C11.626 6.51334 11.8748 6.51545 12.0924 6.5173C12.2618 6.51873 12.4123 6.52001 12.5452 6.52001C12.6392 6.52001 12.761 6.5186 12.8927 6.51708ZM13.0747 5.54401C12.5321 5.54601 11.8925 5.54401 11.4325 5.53934C10.7024 5.53934 10.1011 4.93201 10.1011 4.19468V2.43734C10.1011 2.15001 10.4463 2.00734 10.6437 2.21468C11.0013 2.59018 11.4928 3.10649 11.9819 3.62029C12.4688 4.1318 12.9534 4.64083 13.3011 5.00601C13.4939 5.20801 13.3526 5.54334 13.0747 5.54401Z" fill="#94959E"/>
</svg>
