<svg width="20" height="21" viewBox="0 0 20 21" fill="none" xmlns="http://www.w3.org/2000/svg">
<path d="M9.99976 0.950073C4.47976 0.950073 -0.000244141 5.43007 -0.000244141 10.9501C-0.000244141 16.4701 4.47976 20.9501 9.99976 20.9501H14.9998V18.9501H9.99976C5.65976 18.9501 1.99976 15.2901 1.99976 10.9501C1.99976 6.61007 5.65976 2.95007 9.99976 2.95007C14.3398 2.95007 17.9998 6.61007 17.9998 10.9501V12.3801C17.9998 13.1701 17.2898 13.9501 16.4998 13.9501C15.7098 13.9501 14.9998 13.1701 14.9998 12.3801V10.9501C14.9998 8.19007 12.7598 5.95007 9.99976 5.95007C7.23976 5.95007 4.99976 8.19007 4.99976 10.9501C4.99976 13.7101 7.23976 15.9501 9.99976 15.9501C11.3798 15.9501 12.6398 15.3901 13.5398 14.4801C14.1898 15.3701 15.3098 15.9501 16.4998 15.9501C18.4698 15.9501 19.9998 14.3501 19.9998 12.3801V10.9501C19.9998 5.43007 15.5198 0.950073 9.99976 0.950073ZM9.99976 13.9501C8.33976 13.9501 6.99976 12.6101 6.99976 10.9501C6.99976 9.29007 8.33976 7.95007 9.99976 7.95007C11.6598 7.95007 12.9998 9.29007 12.9998 10.9501C12.9998 12.6101 11.6598 13.9501 9.99976 13.9501Z" fill="#3263C9" fill-opacity="0.4"/>
</svg>
  