<svg width="24" height="24" viewBox="0 0 24 24" fill="none" xmlns="http://www.w3.org/2000/svg">
<path d="M18.0005 8H20.0005C20.2657 8 20.5201 8.10536 20.7076 8.29289C20.8951 8.48043 21.0005 8.73478 21.0005 9V21C21.0005 21.2652 20.8951 21.5196 20.7076 21.7071C20.5201 21.8946 20.2657 22 20.0005 22H4.00049C3.73527 22 3.48092 21.8946 3.29338 21.7071C3.10585 21.5196 3.00049 21.2652 3.00049 21V9C3.00049 8.73478 3.10585 8.48043 3.29338 8.29289C3.48092 8.10536 3.73527 8 4.00049 8H6.00049V7C6.00049 5.4087 6.63263 3.88258 7.75785 2.75736C8.88307 1.63214 10.4092 1 12.0005 1C13.5918 1 15.1179 1.63214 16.2431 2.75736C17.3683 3.88258 18.0005 5.4087 18.0005 7V8ZM16.0005 8V7C16.0005 5.93913 15.5791 4.92172 14.8289 4.17157C14.0788 3.42143 13.0614 3 12.0005 3C10.9396 3 9.92221 3.42143 9.17206 4.17157C8.42192 4.92172 8.00049 5.93913 8.00049 7V8H16.0005ZM11.0005 14V16H13.0005V14H11.0005ZM7.00049 14V16H9.00049V14H7.00049ZM15.0005 14V16H17.0005V14H15.0005Z" fill="#3263C9" fill-opacity="0.4"/>
</svg>
  