<svg width="24" height="24" viewBox="0 0 24 24" fill="none" xmlns="http://www.w3.org/2000/svg">
<path d="M11.9059 14.6249C12.6021 14.6249 13.2698 14.3484 13.762 13.8561C14.2543 13.3638 14.5309 12.6961 14.5309 11.9999C14.5309 11.9231 14.5274 11.8469 14.5208 11.7717L11.6776 14.6149C11.7528 14.6214 11.8288 14.6249 11.9059 14.6249ZM20.5946 3.88026L19.5934 2.87995C19.5582 2.84481 19.5106 2.82507 19.4609 2.82507C19.4111 2.82507 19.3635 2.84481 19.3283 2.87995L16.7661 5.44284C15.3527 4.72049 13.7639 4.35932 11.9996 4.35932C7.49496 4.35932 4.13402 6.70541 1.91683 11.3976C1.82771 11.5863 1.78149 11.7924 1.78149 12.0011C1.78149 12.2098 1.82771 12.4159 1.91683 12.6046C2.80277 14.4707 3.86957 15.9664 5.11722 17.0917L2.63777 19.5703C2.60264 19.6054 2.5829 19.6531 2.5829 19.7028C2.5829 19.7525 2.60264 19.8002 2.63777 19.8353L3.63832 20.8359C3.67348 20.871 3.72115 20.8908 3.77086 20.8908C3.82056 20.8908 3.86824 20.871 3.9034 20.8359L20.5946 4.14557C20.6121 4.12816 20.6259 4.10748 20.6353 4.08472C20.6448 4.06195 20.6496 4.03756 20.6496 4.01292C20.6496 3.98828 20.6448 3.96388 20.6353 3.94111C20.6259 3.91835 20.6121 3.89767 20.5946 3.88026ZM7.78089 11.9999C7.78083 11.2875 7.96531 10.5871 8.31637 9.9671C8.66742 9.34711 9.17308 8.82861 9.78408 8.46212C10.3951 8.09563 11.0906 7.89365 11.8029 7.87586C12.5151 7.85806 13.2199 8.02505 13.8484 8.36057L12.7089 9.5001C12.2493 9.35295 11.7581 9.33523 11.2891 9.44888C10.8201 9.56253 10.3915 9.80316 10.0503 10.1444C9.70911 10.4856 9.46848 10.9142 9.35483 11.3832C9.24118 11.8521 9.2589 12.3434 9.40605 12.8029L8.26652 13.9424C7.94674 13.345 7.7799 12.6776 7.78089 11.9999Z" fill="#3263C9" fill-opacity="0.4"/>
<path d="M22.0828 11.3953C21.2578 9.65779 20.2758 8.24099 19.1369 7.1449L15.7587 10.5234C16.0434 11.2678 16.1066 12.0788 15.9404 12.8583C15.7742 13.6378 15.3859 14.3525 14.8223 14.9161C14.2588 15.4797 13.544 15.868 12.7645 16.0341C11.985 16.2003 11.1741 16.1372 10.4297 15.8524L7.56421 18.7179C8.89358 19.333 10.3722 19.6406 12 19.6406C16.5047 19.6406 19.8656 17.2945 22.0828 12.6023C22.1719 12.4136 22.2182 12.2075 22.2182 11.9988C22.2182 11.7901 22.1719 11.584 22.0828 11.3953V11.3953Z" fill="#3263C9" fill-opacity="0.4"/>
</svg>
  